<svg width="1440" height="7064" viewBox="0 0 1440 7064" fill="none" xmlns="http://www.w3.org/2000/svg">
<g clip-path="url(#clip0_30666_2526)">
<rect width="1440" height="7064" fill="white"/>
<rect width="1440" height="7064" fill="#0E192B"/>
<rect width="1440" height="7064" fill="#0E192B"/>
<rect width="1440" height="7064" fill="#0E192B"/>
<rect width="1440" height="7064" fill="#0E192B"/>
<circle cx="79.6872" cy="1006.72" r="0.927989" transform="rotate(180 79.6872 1006.72)" fill="#D9D9D9"/>
<circle cx="231.878" cy="573.347" r="2.78397" transform="rotate(180 231.878 573.347)" fill="#D9D9D9"/>
<circle cx="228.166" cy="568.707" r="0.927989" transform="rotate(180 228.166 568.707)" fill="#D9D9D9"/>
<circle cx="114.023" cy="655.937" r="0.927989" transform="rotate(180 114.023 655.937)" fill="#D9D9D9"/>
<circle cx="266.214" cy="222.568" r="2.78397" transform="rotate(180 266.214 222.568)" fill="#D9D9D9"/>
<circle cx="262.502" cy="217.928" r="0.927989" transform="rotate(180 262.502 217.928)" fill="#D9D9D9"/>
<circle cx="1141.31" cy="429.509" r="2.78397" transform="rotate(180 1141.31 429.509)" fill="#D9D9D9"/>
<circle cx="1388.15" cy="489.828" r="0.927989" transform="rotate(180 1388.15 489.828)" fill="#D9D9D9"/>
<circle cx="892.607" cy="357.125" r="2.78397" transform="rotate(180 892.607 357.125)" fill="#D9D9D9"/>
<circle cx="1231.32" cy="441.572" r="0.927989" transform="rotate(180 1231.32 441.572)" fill="#D9D9D9"/>
<circle cx="1136.67" cy="829.471" r="2.78397" transform="rotate(180 1136.67 829.471)" fill="#D9D9D9"/>
<circle cx="1367.74" cy="1061.47" r="0.927989" transform="rotate(180 1367.74 1061.47)" fill="#D9D9D9"/>
<circle cx="99.175" cy="864.736" r="2.78397" transform="rotate(180 99.175 864.736)" fill="#D9D9D9"/>
<circle cx="37.9275" cy="1006.72" r="0.927989" transform="rotate(180 37.9275 1006.72)" fill="#D9D9D9"/>
<circle cx="1315.77" cy="932.479" r="2.78397" transform="rotate(180 1315.77 932.479)" fill="#D9D9D9"/>
<circle cx="1246.17" cy="853.599" r="0.927989" transform="rotate(180 1246.17 853.599)" fill="#D9D9D9"/>
<circle cx="190.118" cy="573.347" r="2.78397" transform="rotate(180 190.118 573.347)" fill="#D9D9D9"/>
<circle cx="186.406" cy="568.707" r="0.927989" transform="rotate(180 186.406 568.707)" fill="#D9D9D9"/>
<circle cx="1309.27" cy="657.794" r="2.78397" transform="rotate(180 1309.27 657.794)" fill="#D9D9D9"/>
<circle cx="1402.07" cy="710.689" r="0.927989" transform="rotate(180 1402.07 710.689)" fill="#D9D9D9"/>
<circle cx="72.2634" cy="655.937" r="0.927989" transform="rotate(180 72.2634 655.937)" fill="#D9D9D9"/>
<circle cx="224.454" cy="222.568" r="2.78397" transform="rotate(180 224.454 222.568)" fill="#D9D9D9"/>
<circle cx="220.742" cy="217.928" r="0.927989" transform="rotate(180 220.742 217.928)" fill="#D9D9D9"/>
</g>
<defs>
<clipPath id="clip0_30666_2526">
<rect width="1440" height="7064" fill="white"/>
</clipPath>
</defs>
</svg>
