<svg width="65" height="82" viewBox="0 0 65 82" fill="none" xmlns="http://www.w3.org/2000/svg">
<path d="M16.9789 63.0569C5.97653 57.2143 -2.3289 42.9134 0.589356 27.0926C3.69386 10.2596 17.383 0.819087 28.596 0.00927734C20.2833 3.73074 17.0237 11.2235 15.3304 19.8501C14.9506 21.7861 14.7614 23.7588 14.7619 25.7385C14.7629 33.8773 14.7293 42.0166 14.8164 50.1544C14.8606 54.3087 15.452 58.401 16.8272 62.3341C16.8992 62.5401 16.9191 62.7665 16.9785 63.0574L16.9789 63.0569Z" fill="white"/>
<path d="M47.1996 63.1495C50.1183 55.3515 49.4604 47.4452 49.5547 39.6116C49.5664 38.6288 49.1783 38.4477 48.355 38.4523C43.4527 38.4783 38.5494 38.4233 33.6475 38.4895C32.4896 38.5052 32.2285 38.1146 32.247 36.9731C32.3 33.715 32.2533 33.7176 35.3209 33.715C44.4963 33.7089 53.6722 33.7039 62.8476 33.685C63.6645 33.6835 64.306 33.6189 64.2262 34.8896C63.4467 47.2387 57.8874 56.5062 47.84 62.913C47.7306 62.9826 47.5935 63.006 47.1991 63.149L47.1996 63.1495Z" fill="white"/>
<path d="M36.0039 0C45.1258 1.17707 52.4907 5.56642 58.0598 13.2077C60.2608 16.2277 61.8543 19.5835 63.0035 23.1828C63.2972 24.103 63.1508 24.4006 62.1593 24.3864C58.4265 24.334 54.6917 24.3319 50.9589 24.3935C49.9581 24.4098 49.6873 24.0786 49.5997 23.0552C49.1027 17.2441 47.5189 11.8053 44.2782 6.98003C42.1614 3.82828 39.4853 1.40242 36.0039 0Z" fill="white"/>
<path d="M8.46094 77.1125C8.46094 74.1826 9.28715 72.8804 10.5967 72.8804C11.7989 72.8804 12.2711 73.9918 12.4641 75.3953L11.9705 75.4741C11.7989 74.2055 11.4016 73.3636 10.5967 73.3636C9.4807 73.3636 8.94383 74.767 8.94383 77.1019C8.94383 79.4367 9.48021 80.8849 10.6074 80.8849C11.4551 80.8849 11.8845 80.1213 12.078 78.6843L12.5609 78.752C12.3464 80.3462 11.7775 81.3676 10.6074 81.3676C9.21226 81.3676 8.46094 80.099 8.46094 77.113V77.1125Z" fill="white"/>
<path d="M16.6607 81.2778H16.1992L18.088 72.9365H18.5388L20.4275 81.2778H19.9447L19.3329 78.4938H17.2725L16.6607 81.2778ZM18.7532 75.8665C18.5816 75.0806 18.442 74.4519 18.3131 73.6436H18.2917C18.1629 74.4742 18.0233 75.0694 17.8516 75.8665L17.3688 78.0329H19.2254L18.7532 75.8665Z" fill="white"/>
<path d="M24.7188 72.9702H25.9851C27.5091 72.9702 28.2604 73.6101 28.2604 75.1931C28.2604 76.9669 27.4235 77.5173 25.9209 77.5173H25.2123V81.2779H24.7188V72.9707V72.9702ZM26.0065 77.034C27.2728 77.034 27.7557 76.4841 27.7557 75.2155C27.7557 73.9469 27.2835 73.4529 25.9958 73.4529H25.2123V77.034H26.0065Z" fill="white"/>
<path d="M32.5938 72.9702H33.0873V81.2774H32.5938V72.9702Z" fill="white"/>
<path d="M39.0581 73.4534H37.3945V72.9707H41.2153V73.4534H39.5624V81.2779H39.0581V73.4534Z" fill="white"/>
<path d="M44.8951 81.2778H44.4336L46.3224 72.9365H46.7732L48.6619 81.2778H48.179L47.5673 78.4938H45.5068L44.8951 81.2778ZM46.9881 75.8665C46.8164 75.0806 46.6769 74.4519 46.548 73.6436H46.5266C46.3977 74.4742 46.2582 75.0694 46.0865 75.8665L45.6036 78.0329H47.4603L46.9881 75.8665Z" fill="white"/>
<path d="M52.9536 72.9702H53.4472V80.7946H55.9584V81.2774H52.9531V72.9702H52.9536Z" fill="white"/>
</svg>
