<svg width="1135" height="739" viewBox="0 0 1135 739" fill="none" xmlns="http://www.w3.org/2000/svg">
<g filter="url(#filter0_d_30511_9929)">
<rect x="62.0469" y="48" width="1010.95" height="615" rx="41" fill="white" fill-opacity="0.2"/>
<rect x="62.0469" y="48" width="1010.95" height="615" rx="41" fill="#29303E"/>
</g>
<g filter="url(#filter1_d_30511_9929)">
<rect x="62.0469" y="48" width="1010.95" height="615" rx="2" fill="url(#paint0_linear_30511_9929)" fill-opacity="0.44" shape-rendering="crispEdges"/>
</g>
<rect width="1.96388" height="2.00668" rx="0.981942" transform="matrix(0.427688 -0.903926 0.914324 0.404984 881.129 202.08)" fill="white"/>
<rect width="1.96388" height="2.00668" rx="0.981942" transform="matrix(0.427688 -0.903926 0.914324 0.404984 896.745 171.42)" fill="white"/>
<rect width="1.96388" height="2.00668" rx="0.981942" transform="matrix(0.427688 -0.903926 0.914324 0.404984 1001.11 236.969)" fill="white"/>
<rect width="0.981942" height="1.00334" rx="0.490971" transform="matrix(0.427688 -0.903926 0.914324 0.404984 1013.12 270.206)" fill="white"/>
<rect width="0.981942" height="1.00334" rx="0.490971" transform="matrix(0.427688 -0.903926 0.914324 0.404984 893.442 218.27)" fill="white"/>
<rect width="1.98881" height="1.98197" rx="0.990985" transform="matrix(0.754001 0.656873 -0.681251 0.73205 1030.76 518.223)" fill="white"/>
<rect width="1.98881" height="1.98197" rx="0.990985" transform="matrix(0.754001 0.656873 -0.681251 0.73205 1056.32 541.81)" fill="white"/>
<rect width="1.98881" height="1.98197" rx="0.990985" transform="matrix(0.754001 0.656873 -0.681251 0.73205 960.465 618.557)" fill="white"/>
<rect width="0.994407" height="0.990985" rx="0.495493" transform="matrix(0.754001 0.656873 -0.681251 0.73205 924.093 619.71)" fill="white"/>
<rect width="0.994407" height="0.990985" rx="0.495493" transform="matrix(0.754001 0.656873 -0.681251 0.73205 1011.11 524.749)" fill="white"/>
<rect width="1.97203" height="1.99867" rx="0.986017" transform="matrix(-0.557298 -0.830313 0.846728 -0.532026 142.915 214.13)" fill="white"/>
<rect width="1.97203" height="1.99867" rx="0.986017" transform="matrix(-0.557298 -0.830313 0.846728 -0.532026 124.528 184.944)" fill="white"/>
<rect width="1.97203" height="1.99867" rx="0.986017" transform="matrix(-0.557298 -0.830313 0.846728 -0.532026 237.651 134.817)" fill="white"/>
<rect width="0.986017" height="0.999334" rx="0.493008" transform="matrix(-0.557298 -0.830313 0.846728 -0.532026 273.092 142.811)" fill="white"/>
<rect width="0.986017" height="0.999334" rx="0.493008" transform="matrix(-0.557298 -0.830313 0.846728 -0.532026 163.641 212.747)" fill="white"/>
<path d="M489.434 140.908C487.813 140.908 486.352 140.626 485.05 140.06C483.749 139.495 482.64 138.69 481.722 137.644C480.816 136.599 480.122 135.34 479.642 133.868C479.162 132.386 478.922 130.732 478.922 128.908C478.922 126.498 479.338 124.396 480.17 122.604C481.013 120.802 482.218 119.404 483.786 118.412C485.354 117.42 487.237 116.924 489.434 116.924C491.888 116.924 493.882 117.5 495.418 118.652C496.965 119.794 498.042 121.33 498.65 123.26L496.282 123.836C495.781 122.428 494.954 121.303 493.802 120.46C492.661 119.618 491.237 119.196 489.53 119.196C487.728 119.186 486.229 119.591 485.034 120.412C483.84 121.223 482.938 122.364 482.33 123.836C481.733 125.298 481.429 126.988 481.418 128.908C481.408 130.828 481.701 132.519 482.298 133.98C482.906 135.431 483.813 136.572 485.018 137.404C486.224 138.226 487.728 138.642 489.53 138.652C491.184 138.652 492.549 138.332 493.626 137.692C494.704 137.052 495.52 136.135 496.074 134.94C496.64 133.746 496.96 132.332 497.034 130.7H491.722V128.684H499.498C499.53 128.93 499.546 129.191 499.546 129.468C499.557 129.735 499.562 129.927 499.562 130.044C499.562 132.124 499.189 133.986 498.442 135.628C497.696 137.26 496.57 138.551 495.066 139.5C493.573 140.439 491.696 140.908 489.434 140.908ZM501.805 140.428V123.148H503.917V127.308L503.501 126.764C503.693 126.252 503.943 125.783 504.253 125.356C504.562 124.919 504.898 124.562 505.261 124.284C505.709 123.89 506.231 123.591 506.829 123.388C507.426 123.175 508.029 123.052 508.637 123.02C509.245 122.978 509.799 123.02 510.301 123.148V125.356C509.671 125.196 508.983 125.159 508.237 125.244C507.49 125.33 506.802 125.628 506.173 126.14C505.597 126.588 505.165 127.127 504.877 127.756C504.589 128.375 504.397 129.036 504.301 129.74C504.205 130.434 504.157 131.122 504.157 131.804V140.428H501.805ZM519.279 140.908C517.562 140.908 516.095 140.519 514.879 139.74C513.663 138.962 512.73 137.884 512.079 136.508C511.429 135.132 511.103 133.554 511.103 131.772C511.103 129.959 511.434 128.37 512.095 127.004C512.757 125.639 513.695 124.578 514.911 123.82C516.138 123.052 517.594 122.668 519.279 122.668C521.007 122.668 522.479 123.058 523.695 123.836C524.922 124.604 525.855 125.676 526.495 127.052C527.146 128.418 527.471 129.991 527.471 131.772C527.471 133.586 527.146 135.18 526.495 136.556C525.845 137.922 524.906 138.988 523.679 139.756C522.453 140.524 520.986 140.908 519.279 140.908ZM519.279 138.652C521.199 138.652 522.629 138.018 523.567 136.748C524.506 135.468 524.975 133.81 524.975 131.772C524.975 129.682 524.501 128.018 523.551 126.78C522.613 125.543 521.189 124.924 519.279 124.924C517.989 124.924 516.922 125.218 516.079 125.804C515.247 126.38 514.623 127.186 514.207 128.22C513.802 129.244 513.599 130.428 513.599 131.772C513.599 133.852 514.079 135.522 515.039 136.78C515.999 138.028 517.413 138.652 519.279 138.652ZM533.096 140.428L527.816 123.132L530.168 123.148L534.264 136.572L538.376 123.148H540.52L544.632 136.572L548.76 123.148H551.096L545.816 140.428H543.768L539.448 126.668L535.144 140.428H533.096ZM562.426 140.428C561.456 140.631 560.496 140.711 559.546 140.668C558.608 140.626 557.765 140.423 557.018 140.06C556.282 139.698 555.722 139.132 555.338 138.364C555.029 137.724 554.858 137.079 554.826 136.428C554.805 135.767 554.794 135.015 554.794 134.172V118.348H557.13V134.076C557.13 134.802 557.136 135.41 557.146 135.9C557.168 136.38 557.28 136.807 557.482 137.18C557.866 137.895 558.474 138.322 559.306 138.46C560.149 138.599 561.189 138.567 562.426 138.364V140.428ZM551.098 125.164V123.148H562.426V125.164H551.098ZM577.351 140.428V131.612C577.351 130.652 577.26 129.772 577.079 128.972C576.898 128.162 576.604 127.458 576.199 126.86C575.804 126.252 575.287 125.783 574.647 125.452C574.018 125.122 573.25 124.956 572.343 124.956C571.511 124.956 570.775 125.1 570.135 125.388C569.506 125.676 568.972 126.092 568.535 126.636C568.108 127.17 567.783 127.82 567.559 128.588C567.335 129.356 567.223 130.231 567.223 131.212L565.559 130.844C565.559 129.074 565.868 127.586 566.487 126.38C567.106 125.175 567.959 124.263 569.047 123.644C570.135 123.026 571.383 122.716 572.791 122.716C573.826 122.716 574.727 122.876 575.495 123.196C576.274 123.516 576.93 123.948 577.463 124.492C578.007 125.036 578.444 125.66 578.775 126.364C579.106 127.058 579.346 127.799 579.495 128.588C579.644 129.367 579.719 130.146 579.719 130.924V140.428H577.351ZM564.855 140.428V117.388H566.983V130.396H567.223V140.428H564.855ZM595.525 140.908C593.787 140.908 592.315 140.519 591.109 139.74C589.904 138.962 588.987 137.89 588.357 136.524C587.739 135.148 587.419 133.57 587.397 131.788C587.419 129.975 587.749 128.386 588.389 127.02C589.029 125.644 589.952 124.578 591.157 123.82C592.363 123.052 593.824 122.668 595.541 122.668C597.291 122.668 598.811 123.095 600.101 123.948C601.403 124.802 602.293 125.97 602.773 127.452L600.469 128.188C600.064 127.154 599.419 126.354 598.533 125.788C597.659 125.212 596.656 124.924 595.525 124.924C594.256 124.924 593.205 125.218 592.373 125.804C591.541 126.38 590.923 127.186 590.517 128.22C590.112 129.255 589.904 130.444 589.893 131.788C589.915 133.858 590.395 135.522 591.333 136.78C592.272 138.028 593.669 138.652 595.525 138.652C596.699 138.652 597.696 138.386 598.517 137.852C599.349 137.308 599.979 136.519 600.405 135.484L602.773 136.188C602.133 137.724 601.195 138.898 599.957 139.708C598.72 140.508 597.243 140.908 595.525 140.908ZM617.596 140.428V131.612C617.596 130.652 617.505 129.772 617.324 128.972C617.143 128.162 616.849 127.458 616.444 126.86C616.049 126.252 615.532 125.783 614.892 125.452C614.263 125.122 613.495 124.956 612.588 124.956C611.756 124.956 611.02 125.1 610.38 125.388C609.751 125.676 609.217 126.092 608.78 126.636C608.353 127.17 608.028 127.82 607.804 128.588C607.58 129.356 607.468 130.231 607.468 131.212L605.804 130.844C605.804 129.074 606.113 127.586 606.732 126.38C607.351 125.175 608.204 124.263 609.292 123.644C610.38 123.026 611.628 122.716 613.036 122.716C614.071 122.716 614.972 122.876 615.74 123.196C616.519 123.516 617.175 123.948 617.708 124.492C618.252 125.036 618.689 125.66 619.02 126.364C619.351 127.058 619.591 127.799 619.74 128.588C619.889 129.367 619.964 130.146 619.964 130.924V140.428H617.596ZM605.1 140.428V117.388H607.228V130.396H607.468V140.428H605.1ZM628.1 140.908C626.799 140.908 625.705 140.674 624.82 140.204C623.945 139.735 623.289 139.111 622.852 138.332C622.415 137.554 622.196 136.706 622.196 135.788C622.196 134.85 622.383 134.05 622.756 133.388C623.14 132.716 623.657 132.167 624.308 131.74C624.969 131.314 625.732 130.988 626.596 130.764C627.471 130.551 628.436 130.364 629.492 130.204C630.559 130.034 631.599 129.89 632.612 129.772C633.636 129.644 634.532 129.522 635.3 129.404L634.468 129.916C634.5 128.21 634.169 126.946 633.476 126.124C632.783 125.303 631.577 124.892 629.86 124.892C628.676 124.892 627.673 125.159 626.852 125.692C626.041 126.226 625.471 127.068 625.14 128.22L622.852 127.548C623.247 126.002 624.041 124.802 625.236 123.948C626.431 123.095 627.983 122.668 629.892 122.668C631.471 122.668 632.809 122.967 633.908 123.564C635.017 124.151 635.801 125.004 636.26 126.124C636.473 126.626 636.612 127.186 636.676 127.804C636.74 128.423 636.772 129.052 636.772 129.692V140.428H634.676V136.092L635.284 136.348C634.697 137.831 633.785 138.962 632.548 139.74C631.311 140.519 629.828 140.908 628.1 140.908ZM628.372 138.876C629.471 138.876 630.431 138.679 631.252 138.284C632.073 137.89 632.735 137.351 633.236 136.668C633.737 135.975 634.063 135.196 634.212 134.332C634.34 133.778 634.409 133.17 634.42 132.508C634.431 131.836 634.436 131.335 634.436 131.004L635.332 131.468C634.532 131.575 633.663 131.682 632.724 131.788C631.796 131.895 630.879 132.018 629.972 132.156C629.076 132.295 628.265 132.46 627.54 132.652C627.049 132.791 626.575 132.988 626.116 133.244C625.657 133.49 625.279 133.82 624.98 134.236C624.692 134.652 624.548 135.17 624.548 135.788C624.548 136.29 624.671 136.775 624.916 137.244C625.172 137.714 625.577 138.103 626.132 138.412C626.697 138.722 627.444 138.876 628.372 138.876ZM639.977 140.428V123.148H642.089V127.308L641.673 126.764C641.865 126.252 642.116 125.783 642.425 125.356C642.735 124.919 643.071 124.562 643.433 124.284C643.881 123.89 644.404 123.591 645.001 123.388C645.599 123.175 646.201 123.052 646.809 123.02C647.417 122.978 647.972 123.02 648.473 123.148V125.356C647.844 125.196 647.156 125.159 646.409 125.244C645.663 125.33 644.975 125.628 644.345 126.14C643.769 126.588 643.337 127.127 643.049 127.756C642.761 128.375 642.569 129.036 642.473 129.74C642.377 130.434 642.329 131.122 642.329 131.804V140.428H639.977ZM659.956 140.428C658.986 140.631 658.026 140.711 657.076 140.668C656.138 140.626 655.295 140.423 654.548 140.06C653.812 139.698 653.252 139.132 652.868 138.364C652.559 137.724 652.388 137.079 652.356 136.428C652.335 135.767 652.324 135.015 652.324 134.172V118.348H654.66V134.076C654.66 134.802 654.666 135.41 654.676 135.9C654.698 136.38 654.81 136.807 655.012 137.18C655.396 137.895 656.004 138.322 656.836 138.46C657.679 138.599 658.719 138.567 659.956 138.364V140.428ZM648.628 125.164V123.148H659.956V125.164H648.628Z" fill="white"/>
<line x1="196.235" y1="543.901" x2="757.203" y2="543.901" stroke="#1E2028" stroke-width="1.95975"/>
<line x1="196.235" y1="457.996" x2="980.178" y2="457.996" stroke="#1E2028" stroke-width="1.95975"/>
<line x1="196.235" y1="543.901" x2="980.178" y2="543.901" stroke="#1E2028" stroke-width="1.95975"/>
<line x1="196.235" y1="372.092" x2="980.178" y2="372.092" stroke="#1E2028" stroke-width="1.95975"/>
<line x1="196.235" y1="200.282" x2="980.178" y2="200.282" stroke="#1E2028" stroke-width="1.95975"/>
<line x1="196.235" y1="286.187" x2="980.178" y2="286.187" stroke="#1E2028" stroke-width="1.95975"/>
<line x1="353.715" y1="541.029" x2="353.715" y2="200.233" stroke="white" stroke-opacity="0.2" stroke-width="1.8469" stroke-linecap="round" stroke-dasharray="13.86 13.86"/>
<line x1="197.33" y1="541.029" x2="197.33" y2="200.233" stroke="white" stroke-opacity="0.2" stroke-width="1.8469" stroke-linecap="round" stroke-dasharray="13.86 13.86"/>
<line x1="510.1" y1="541.029" x2="510.1" y2="200.233" stroke="white" stroke-opacity="0.2" stroke-width="1.8469" stroke-linecap="round" stroke-dasharray="13.86 13.86"/>
<line x1="666.485" y1="541.029" x2="666.485" y2="200.233" stroke="white" stroke-opacity="0.2" stroke-width="1.8469" stroke-linecap="round" stroke-dasharray="13.86 13.86"/>
<line x1="822.87" y1="541.029" x2="822.87" y2="200.233" stroke="white" stroke-opacity="0.2" stroke-width="1.8469" stroke-linecap="round" stroke-dasharray="13.86 13.86"/>
<line x1="979.254" y1="541.029" x2="979.254" y2="200.233" stroke="white" stroke-opacity="0.2" stroke-width="1.8469" stroke-linecap="round" stroke-dasharray="13.86 13.86"/>
<path d="M142.725 373.93C141.979 373.93 141.312 373.762 140.725 373.426C140.144 373.085 139.683 372.624 139.341 372.042C139.005 371.456 138.837 370.789 138.837 370.042V365.818C138.837 365.072 139.005 364.405 139.341 363.818C139.683 363.232 140.144 362.77 140.725 362.434C141.312 362.098 141.979 361.93 142.725 361.93C143.472 361.93 144.139 362.098 144.725 362.434C145.312 362.77 145.773 363.232 146.109 363.818C146.445 364.405 146.613 365.072 146.613 365.818V370.042C146.613 370.789 146.445 371.456 146.109 372.042C145.773 372.624 145.312 373.085 144.725 373.426C144.139 373.762 143.472 373.93 142.725 373.93ZM142.725 372.562C143.179 372.562 143.589 372.453 143.957 372.234C144.325 372.016 144.619 371.722 144.837 371.354C145.056 370.981 145.165 370.57 145.165 370.122V365.73C145.165 365.277 145.056 364.866 144.837 364.498C144.619 364.13 144.325 363.837 143.957 363.618C143.589 363.4 143.179 363.29 142.725 363.29C142.277 363.29 141.867 363.4 141.493 363.618C141.125 363.837 140.832 364.13 140.613 364.498C140.395 364.866 140.285 365.277 140.285 365.73V370.122C140.285 370.57 140.395 370.981 140.613 371.354C140.832 371.722 141.125 372.016 141.493 372.234C141.867 372.453 142.277 372.562 142.725 372.562ZM150.133 373.69L149.173 372.73L159.749 362.17L160.709 363.13L150.133 373.69ZM158.309 373.93C157.781 373.93 157.298 373.802 156.861 373.546C156.429 373.285 156.082 372.938 155.821 372.506C155.56 372.069 155.429 371.584 155.429 371.05C155.429 370.528 155.562 370.048 155.829 369.61C156.096 369.173 156.448 368.824 156.885 368.562C157.322 368.301 157.797 368.17 158.309 368.17C158.837 368.17 159.32 368.301 159.757 368.562C160.194 368.818 160.541 369.165 160.797 369.602C161.058 370.034 161.189 370.517 161.189 371.05C161.189 371.584 161.058 372.069 160.797 372.506C160.541 372.938 160.194 373.285 159.757 373.546C159.32 373.802 158.837 373.93 158.309 373.93ZM158.309 372.674C158.602 372.674 158.872 372.6 159.117 372.45C159.368 372.301 159.565 372.104 159.709 371.858C159.858 371.613 159.933 371.344 159.933 371.05C159.933 370.757 159.858 370.488 159.709 370.242C159.565 369.992 159.368 369.794 159.117 369.65C158.872 369.501 158.602 369.426 158.309 369.426C158.016 369.426 157.746 369.501 157.501 369.65C157.256 369.794 157.058 369.992 156.909 370.242C156.76 370.488 156.685 370.757 156.685 371.05C156.685 371.344 156.76 371.613 156.909 371.858C157.058 372.104 157.256 372.301 157.501 372.45C157.746 372.6 158.016 372.674 158.309 372.674ZM151.573 367.69C151.045 367.69 150.562 367.562 150.125 367.306C149.688 367.045 149.338 366.698 149.077 366.266C148.821 365.829 148.693 365.344 148.693 364.81C148.693 364.288 148.826 363.808 149.093 363.37C149.36 362.933 149.712 362.584 150.149 362.322C150.586 362.061 151.061 361.93 151.573 361.93C152.101 361.93 152.581 362.061 153.013 362.322C153.45 362.578 153.8 362.925 154.061 363.362C154.322 363.794 154.453 364.277 154.453 364.81C154.453 365.344 154.322 365.829 154.061 366.266C153.8 366.698 153.45 367.045 153.013 367.306C152.581 367.562 152.101 367.69 151.573 367.69ZM151.573 366.434C151.866 366.434 152.136 366.36 152.381 366.21C152.632 366.061 152.829 365.864 152.973 365.618C153.122 365.373 153.197 365.104 153.197 364.81C153.197 364.517 153.122 364.248 152.973 364.002C152.829 363.752 152.632 363.554 152.381 363.41C152.136 363.261 151.866 363.186 151.573 363.186C151.28 363.186 151.01 363.261 150.765 363.41C150.52 363.554 150.322 363.752 150.173 364.002C150.024 364.248 149.949 364.517 149.949 364.81C149.949 365.104 150.024 365.373 150.173 365.618C150.322 365.864 150.52 366.061 150.765 366.21C151.01 366.36 151.28 366.434 151.573 366.434Z" fill="white"/>
<path d="M132.676 293.883C131.945 293.883 131.281 293.707 130.684 293.355C130.092 293.003 129.62 292.523 129.268 291.915C128.921 291.301 128.748 290.611 128.748 289.843V286.011C128.748 285.205 128.921 284.493 129.268 283.875C129.62 283.251 130.1 282.765 130.708 282.419C131.321 282.067 132.02 281.891 132.804 281.891C133.439 281.891 134.028 282.021 134.572 282.283C135.121 282.539 135.583 282.909 135.956 283.395L134.892 284.339C134.663 284.003 134.364 283.736 133.996 283.539C133.628 283.341 133.231 283.243 132.804 283.243C132.297 283.243 131.847 283.365 131.452 283.611C131.063 283.851 130.756 284.171 130.532 284.571C130.308 284.965 130.196 285.392 130.196 285.851V288.163L129.884 287.811C130.22 287.331 130.647 286.947 131.164 286.659C131.681 286.371 132.241 286.227 132.844 286.227C133.559 286.227 134.199 286.395 134.764 286.731C135.335 287.067 135.783 287.523 136.108 288.099C136.439 288.669 136.604 289.312 136.604 290.027C136.604 290.741 136.425 291.389 136.068 291.971C135.711 292.552 135.233 293.016 134.636 293.363C134.044 293.709 133.391 293.883 132.676 293.883ZM132.676 292.507C133.135 292.507 133.553 292.397 133.932 292.179C134.311 291.955 134.609 291.656 134.828 291.283C135.052 290.904 135.164 290.485 135.164 290.027C135.164 289.568 135.052 289.149 134.828 288.771C134.609 288.392 134.311 288.093 133.932 287.875C133.559 287.651 133.143 287.539 132.684 287.539C132.225 287.539 131.807 287.651 131.428 287.875C131.055 288.093 130.756 288.392 130.532 288.771C130.308 289.149 130.196 289.568 130.196 290.027C130.196 290.48 130.305 290.896 130.524 291.275C130.748 291.648 131.047 291.947 131.42 292.171C131.799 292.395 132.217 292.507 132.676 292.507ZM142.573 293.883C141.827 293.883 141.16 293.715 140.573 293.379C139.992 293.037 139.531 292.576 139.189 291.995C138.853 291.408 138.685 290.741 138.685 289.995V285.771C138.685 285.024 138.853 284.357 139.189 283.771C139.531 283.184 139.992 282.723 140.573 282.387C141.16 282.051 141.827 281.883 142.573 281.883C143.32 281.883 143.987 282.051 144.573 282.387C145.16 282.723 145.621 283.184 145.957 283.771C146.293 284.357 146.461 285.024 146.461 285.771V289.995C146.461 290.741 146.293 291.408 145.957 291.995C145.621 292.576 145.16 293.037 144.573 293.379C143.987 293.715 143.32 293.883 142.573 293.883ZM142.573 292.515C143.027 292.515 143.437 292.405 143.805 292.187C144.173 291.968 144.467 291.675 144.685 291.307C144.904 290.933 145.013 290.523 145.013 290.075V285.683C145.013 285.229 144.904 284.819 144.685 284.451C144.467 284.083 144.173 283.789 143.805 283.571C143.437 283.352 143.027 283.243 142.573 283.243C142.125 283.243 141.715 283.352 141.341 283.571C140.973 283.789 140.68 284.083 140.461 284.451C140.243 284.819 140.133 285.229 140.133 285.683V290.075C140.133 290.523 140.243 290.933 140.461 291.307C140.68 291.675 140.973 291.968 141.341 292.187C141.715 292.405 142.125 292.515 142.573 292.515ZM149.981 293.643L149.021 292.683L159.597 282.123L160.557 283.083L149.981 293.643ZM158.157 293.883C157.629 293.883 157.146 293.755 156.709 293.499C156.277 293.237 155.93 292.891 155.669 292.459C155.408 292.021 155.277 291.536 155.277 291.003C155.277 290.48 155.41 290 155.677 289.563C155.944 289.125 156.296 288.776 156.733 288.515C157.17 288.253 157.645 288.123 158.157 288.123C158.685 288.123 159.168 288.253 159.605 288.515C160.042 288.771 160.389 289.117 160.645 289.555C160.906 289.987 161.037 290.469 161.037 291.003C161.037 291.536 160.906 292.021 160.645 292.459C160.389 292.891 160.042 293.237 159.605 293.499C159.168 293.755 158.685 293.883 158.157 293.883ZM158.157 292.627C158.45 292.627 158.72 292.552 158.965 292.403C159.216 292.253 159.413 292.056 159.557 291.811C159.706 291.565 159.781 291.296 159.781 291.003C159.781 290.709 159.706 290.44 159.557 290.195C159.413 289.944 159.216 289.747 158.965 289.603C158.72 289.453 158.45 289.379 158.157 289.379C157.864 289.379 157.594 289.453 157.349 289.603C157.104 289.747 156.906 289.944 156.757 290.195C156.608 290.44 156.533 290.709 156.533 291.003C156.533 291.296 156.608 291.565 156.757 291.811C156.906 292.056 157.104 292.253 157.349 292.403C157.594 292.552 157.864 292.627 158.157 292.627ZM151.421 287.643C150.893 287.643 150.41 287.515 149.973 287.259C149.536 286.997 149.186 286.651 148.925 286.219C148.669 285.781 148.541 285.296 148.541 284.763C148.541 284.24 148.674 283.76 148.941 283.323C149.208 282.885 149.56 282.536 149.997 282.275C150.434 282.013 150.909 281.883 151.421 281.883C151.949 281.883 152.429 282.013 152.861 282.275C153.298 282.531 153.648 282.877 153.909 283.315C154.17 283.747 154.301 284.229 154.301 284.763C154.301 285.296 154.17 285.781 153.909 286.219C153.648 286.651 153.298 286.997 152.861 287.259C152.429 287.515 151.949 287.643 151.421 287.643ZM151.421 286.387C151.714 286.387 151.984 286.312 152.229 286.163C152.48 286.013 152.677 285.816 152.821 285.571C152.97 285.325 153.045 285.056 153.045 284.763C153.045 284.469 152.97 284.2 152.821 283.955C152.677 283.704 152.48 283.507 152.229 283.363C151.984 283.213 151.714 283.139 151.421 283.139C151.128 283.139 150.858 283.213 150.613 283.363C150.368 283.507 150.17 283.704 150.021 283.955C149.872 284.2 149.797 284.469 149.797 284.763C149.797 285.056 149.872 285.325 150.021 285.571C150.17 285.816 150.368 286.013 150.613 286.163C150.858 286.312 151.128 286.387 151.421 286.387Z" fill="white"/>
<path d="M124.702 208.714V198.77L122.534 200.082V198.49L124.702 197.194H126.15V208.714H124.702ZM133.082 208.954C132.336 208.954 131.669 208.786 131.082 208.45C130.501 208.109 130.04 207.648 129.698 207.066C129.362 206.48 129.194 205.813 129.194 205.066V200.842C129.194 200.096 129.362 199.429 129.698 198.842C130.04 198.256 130.501 197.794 131.082 197.458C131.669 197.122 132.336 196.954 133.082 196.954C133.829 196.954 134.496 197.122 135.082 197.458C135.669 197.794 136.13 198.256 136.466 198.842C136.802 199.429 136.97 200.096 136.97 200.842V205.066C136.97 205.813 136.802 206.48 136.466 207.066C136.13 207.648 135.669 208.109 135.082 208.45C134.496 208.786 133.829 208.954 133.082 208.954ZM133.082 207.586C133.536 207.586 133.946 207.477 134.314 207.258C134.682 207.04 134.976 206.746 135.194 206.378C135.413 206.005 135.522 205.594 135.522 205.146V200.754C135.522 200.301 135.413 199.89 135.194 199.522C134.976 199.154 134.682 198.861 134.314 198.642C133.946 198.424 133.536 198.314 133.082 198.314C132.634 198.314 132.224 198.424 131.85 198.642C131.482 198.861 131.189 199.154 130.97 199.522C130.752 199.89 130.642 200.301 130.642 200.754V205.146C130.642 205.594 130.752 206.005 130.97 206.378C131.189 206.746 131.482 207.04 131.85 207.258C132.224 207.477 132.634 207.586 133.082 207.586ZM143.098 208.954C142.351 208.954 141.685 208.786 141.098 208.45C140.517 208.109 140.055 207.648 139.714 207.066C139.378 206.48 139.21 205.813 139.21 205.066V200.842C139.21 200.096 139.378 199.429 139.714 198.842C140.055 198.256 140.517 197.794 141.098 197.458C141.685 197.122 142.351 196.954 143.098 196.954C143.845 196.954 144.511 197.122 145.098 197.458C145.685 197.794 146.146 198.256 146.482 198.842C146.818 199.429 146.986 200.096 146.986 200.842V205.066C146.986 205.813 146.818 206.48 146.482 207.066C146.146 207.648 145.685 208.109 145.098 208.45C144.511 208.786 143.845 208.954 143.098 208.954ZM143.098 207.586C143.551 207.586 143.962 207.477 144.33 207.258C144.698 207.04 144.991 206.746 145.21 206.378C145.429 206.005 145.538 205.594 145.538 205.146V200.754C145.538 200.301 145.429 199.89 145.21 199.522C144.991 199.154 144.698 198.861 144.33 198.642C143.962 198.424 143.551 198.314 143.098 198.314C142.65 198.314 142.239 198.424 141.866 198.642C141.498 198.861 141.205 199.154 140.986 199.522C140.767 199.89 140.658 200.301 140.658 200.754V205.146C140.658 205.594 140.767 206.005 140.986 206.378C141.205 206.746 141.498 207.04 141.866 207.258C142.239 207.477 142.65 207.586 143.098 207.586ZM150.505 208.714L149.545 207.754L160.121 197.194L161.081 198.154L150.505 208.714ZM158.681 208.954C158.153 208.954 157.671 208.826 157.233 208.57C156.801 208.309 156.455 207.962 156.193 207.53C155.932 207.093 155.801 206.608 155.801 206.074C155.801 205.552 155.935 205.072 156.201 204.634C156.468 204.197 156.82 203.848 157.257 203.586C157.695 203.325 158.169 203.194 158.681 203.194C159.209 203.194 159.692 203.325 160.129 203.586C160.567 203.842 160.913 204.189 161.169 204.626C161.431 205.058 161.561 205.541 161.561 206.074C161.561 206.608 161.431 207.093 161.169 207.53C160.913 207.962 160.567 208.309 160.129 208.57C159.692 208.826 159.209 208.954 158.681 208.954ZM158.681 207.698C158.975 207.698 159.244 207.624 159.489 207.474C159.74 207.325 159.937 207.128 160.081 206.882C160.231 206.637 160.305 206.368 160.305 206.074C160.305 205.781 160.231 205.512 160.081 205.266C159.937 205.016 159.74 204.818 159.489 204.674C159.244 204.525 158.975 204.45 158.681 204.45C158.388 204.45 158.119 204.525 157.873 204.674C157.628 204.818 157.431 205.016 157.281 205.266C157.132 205.512 157.057 205.781 157.057 206.074C157.057 206.368 157.132 206.637 157.281 206.882C157.431 207.128 157.628 207.325 157.873 207.474C158.119 207.624 158.388 207.698 158.681 207.698ZM151.945 202.714C151.417 202.714 150.935 202.586 150.497 202.33C150.06 202.069 149.711 201.722 149.449 201.29C149.193 200.853 149.065 200.368 149.065 199.834C149.065 199.312 149.199 198.832 149.465 198.394C149.732 197.957 150.084 197.608 150.521 197.346C150.959 197.085 151.433 196.954 151.945 196.954C152.473 196.954 152.953 197.085 153.385 197.346C153.823 197.602 154.172 197.949 154.433 198.386C154.695 198.818 154.825 199.301 154.825 199.834C154.825 200.368 154.695 200.853 154.433 201.29C154.172 201.722 153.823 202.069 153.385 202.33C152.953 202.586 152.473 202.714 151.945 202.714ZM151.945 201.458C152.239 201.458 152.508 201.384 152.753 201.234C153.004 201.085 153.201 200.888 153.345 200.642C153.495 200.397 153.569 200.128 153.569 199.834C153.569 199.541 153.495 199.272 153.345 199.026C153.201 198.776 153.004 198.578 152.753 198.434C152.508 198.285 152.239 198.21 151.945 198.21C151.652 198.21 151.383 198.285 151.137 198.434C150.892 198.578 150.695 198.776 150.545 199.026C150.396 199.272 150.321 199.541 150.321 199.834C150.321 200.128 150.396 200.397 150.545 200.642C150.695 200.888 150.892 201.085 151.137 201.234C151.383 201.384 151.652 201.458 151.945 201.458Z" fill="white"/>
<path d="M116.481 547.172V545.996H121.281V547.172H116.481ZM125.368 551.628V541.684L123.2 542.996V541.404L125.368 540.108H126.816V551.628H125.368ZM133.748 551.868C133.001 551.868 132.334 551.7 131.748 551.364C131.166 551.023 130.705 550.561 130.364 549.98C130.028 549.393 129.86 548.727 129.86 547.98V543.756C129.86 543.009 130.028 542.343 130.364 541.756C130.705 541.169 131.166 540.708 131.748 540.372C132.334 540.036 133.001 539.868 133.748 539.868C134.494 539.868 135.161 540.036 135.748 540.372C136.334 540.708 136.796 541.169 137.132 541.756C137.468 542.343 137.636 543.009 137.636 543.756V547.98C137.636 548.727 137.468 549.393 137.132 549.98C136.796 550.561 136.334 551.023 135.748 551.364C135.161 551.7 134.494 551.868 133.748 551.868ZM133.748 550.5C134.201 550.5 134.612 550.391 134.98 550.172C135.348 549.953 135.641 549.66 135.86 549.292C136.078 548.919 136.188 548.508 136.188 548.06V543.668C136.188 543.215 136.078 542.804 135.86 542.436C135.641 542.068 135.348 541.775 134.98 541.556C134.612 541.337 134.201 541.228 133.748 541.228C133.3 541.228 132.889 541.337 132.516 541.556C132.148 541.775 131.854 542.068 131.636 542.436C131.417 542.804 131.308 543.215 131.308 543.668V548.06C131.308 548.508 131.417 548.919 131.636 549.292C131.854 549.66 132.148 549.953 132.516 550.172C132.889 550.391 133.3 550.5 133.748 550.5ZM143.763 551.868C143.017 551.868 142.35 551.7 141.763 551.364C141.182 551.023 140.721 550.561 140.379 549.98C140.043 549.393 139.875 548.727 139.875 547.98V543.756C139.875 543.009 140.043 542.343 140.379 541.756C140.721 541.169 141.182 540.708 141.763 540.372C142.35 540.036 143.017 539.868 143.763 539.868C144.51 539.868 145.177 540.036 145.763 540.372C146.35 540.708 146.811 541.169 147.147 541.756C147.483 542.343 147.651 543.009 147.651 543.756V547.98C147.651 548.727 147.483 549.393 147.147 549.98C146.811 550.561 146.35 551.023 145.763 551.364C145.177 551.7 144.51 551.868 143.763 551.868ZM143.763 550.5C144.217 550.5 144.627 550.391 144.995 550.172C145.363 549.953 145.657 549.66 145.875 549.292C146.094 548.919 146.203 548.508 146.203 548.06V543.668C146.203 543.215 146.094 542.804 145.875 542.436C145.657 542.068 145.363 541.775 144.995 541.556C144.627 541.337 144.217 541.228 143.763 541.228C143.315 541.228 142.905 541.337 142.531 541.556C142.163 541.775 141.87 542.068 141.651 542.436C141.433 542.804 141.323 543.215 141.323 543.668V548.06C141.323 548.508 141.433 548.919 141.651 549.292C141.87 549.66 142.163 549.953 142.531 550.172C142.905 550.391 143.315 550.5 143.763 550.5ZM151.171 551.628L150.211 550.668L160.787 540.108L161.747 541.068L151.171 551.628ZM159.347 551.868C158.819 551.868 158.336 551.74 157.899 551.484C157.467 551.223 157.12 550.876 156.859 550.444C156.598 550.007 156.467 549.521 156.467 548.988C156.467 548.465 156.6 547.985 156.867 547.548C157.134 547.111 157.486 546.761 157.923 546.5C158.36 546.239 158.835 546.108 159.347 546.108C159.875 546.108 160.358 546.239 160.795 546.5C161.232 546.756 161.579 547.103 161.835 547.54C162.096 547.972 162.227 548.455 162.227 548.988C162.227 549.521 162.096 550.007 161.835 550.444C161.579 550.876 161.232 551.223 160.795 551.484C160.358 551.74 159.875 551.868 159.347 551.868ZM159.347 550.612C159.64 550.612 159.91 550.537 160.155 550.388C160.406 550.239 160.603 550.041 160.747 549.796C160.896 549.551 160.971 549.281 160.971 548.988C160.971 548.695 160.896 548.425 160.747 548.18C160.603 547.929 160.406 547.732 160.155 547.588C159.91 547.439 159.64 547.364 159.347 547.364C159.054 547.364 158.784 547.439 158.539 547.588C158.294 547.732 158.096 547.929 157.947 548.18C157.798 548.425 157.723 548.695 157.723 548.988C157.723 549.281 157.798 549.551 157.947 549.796C158.096 550.041 158.294 550.239 158.539 550.388C158.784 550.537 159.054 550.612 159.347 550.612ZM152.611 545.628C152.083 545.628 151.6 545.5 151.163 545.244C150.726 544.983 150.376 544.636 150.115 544.204C149.859 543.767 149.731 543.281 149.731 542.748C149.731 542.225 149.864 541.745 150.131 541.308C150.398 540.871 150.75 540.521 151.187 540.26C151.624 539.999 152.099 539.868 152.611 539.868C153.139 539.868 153.619 539.999 154.051 540.26C154.488 540.516 154.838 540.863 155.099 541.3C155.36 541.732 155.491 542.215 155.491 542.748C155.491 543.281 155.36 543.767 155.099 544.204C154.838 544.636 154.488 544.983 154.051 545.244C153.619 545.5 153.139 545.628 152.611 545.628ZM152.611 544.372C152.904 544.372 153.174 544.297 153.419 544.148C153.67 543.999 153.867 543.801 154.011 543.556C154.16 543.311 154.235 543.041 154.235 542.748C154.235 542.455 154.16 542.185 154.011 541.94C153.867 541.689 153.67 541.492 153.419 541.348C153.174 541.199 152.904 541.124 152.611 541.124C152.318 541.124 152.048 541.199 151.803 541.348C151.558 541.492 151.36 541.689 151.211 541.94C151.062 542.185 150.987 542.455 150.987 542.748C150.987 543.041 151.062 543.311 151.211 543.556C151.36 543.801 151.558 543.999 151.803 544.148C152.048 544.297 152.318 544.372 152.611 544.372Z" fill="white"/>
<path d="M157.207 609.021L161.063 597.501H163.047L166.903 609.021H165.423L161.815 598.333H162.263L158.687 609.021H157.207ZM159.063 606.325V604.989H165.047V606.325H159.063ZM171.615 609.245C171.061 609.245 170.583 609.157 170.183 608.981C169.789 608.805 169.461 608.57 169.199 608.277C168.938 607.983 168.733 607.658 168.583 607.301C168.434 606.943 168.327 606.578 168.263 606.205C168.205 605.831 168.175 605.482 168.175 605.157V600.381H169.615V604.709C169.615 605.114 169.653 605.506 169.727 605.885C169.802 606.263 169.927 606.605 170.103 606.909C170.285 607.213 170.525 607.453 170.823 607.629C171.127 607.805 171.506 607.893 171.959 607.893C172.317 607.893 172.642 607.831 172.935 607.709C173.229 607.586 173.479 607.405 173.687 607.165C173.895 606.919 174.055 606.61 174.167 606.237C174.279 605.863 174.335 605.429 174.335 604.933L175.271 605.221C175.271 606.053 175.119 606.77 174.815 607.373C174.517 607.975 174.093 608.439 173.543 608.765C172.999 609.085 172.357 609.245 171.615 609.245ZM174.495 609.021V606.709H174.335V600.381H175.767V609.021H174.495ZM181.503 613.101C181.05 613.101 180.607 613.031 180.175 612.893C179.743 612.754 179.346 612.543 178.983 612.261C178.626 611.983 178.327 611.631 178.087 611.205L179.391 610.517C179.605 610.938 179.906 611.245 180.295 611.437C180.69 611.629 181.095 611.725 181.511 611.725C182.061 611.725 182.517 611.623 182.879 611.421C183.242 611.223 183.509 610.927 183.679 610.533C183.855 610.138 183.941 609.647 183.935 609.061V606.701H184.103V600.381H185.367V609.077C185.367 609.311 185.359 609.538 185.343 609.757C185.333 609.975 185.306 610.191 185.263 610.405C185.151 611.018 184.93 611.522 184.599 611.917C184.269 612.317 183.842 612.613 183.319 612.805C182.797 613.002 182.191 613.101 181.503 613.101ZM181.399 609.261C180.594 609.261 179.903 609.061 179.327 608.661C178.751 608.255 178.306 607.709 177.991 607.021C177.682 606.333 177.527 605.557 177.527 604.693C177.527 603.829 177.682 603.053 177.991 602.365C178.306 601.677 178.751 601.135 179.327 600.741C179.903 600.341 180.591 600.141 181.391 600.141C182.207 600.141 182.893 600.338 183.447 600.733C184.002 601.127 184.421 601.669 184.703 602.357C184.991 603.045 185.135 603.823 185.135 604.693C185.135 605.551 184.991 606.327 184.703 607.021C184.421 607.709 184.002 608.255 183.447 608.661C182.893 609.061 182.21 609.261 181.399 609.261ZM181.575 607.957C182.157 607.957 182.634 607.818 183.007 607.541C183.381 607.258 183.655 606.871 183.831 606.381C184.013 605.885 184.103 605.322 184.103 604.693C184.103 604.053 184.013 603.49 183.831 603.005C183.655 602.514 183.383 602.133 183.015 601.861C182.647 601.583 182.181 601.445 181.615 601.445C181.029 601.445 180.543 601.589 180.159 601.877C179.781 602.165 179.498 602.554 179.311 603.045C179.13 603.535 179.039 604.085 179.039 604.693C179.039 605.306 179.133 605.861 179.319 606.357C179.506 606.847 179.786 607.237 180.159 607.525C180.538 607.813 181.01 607.957 181.575 607.957ZM191.412 609.021L195.556 598.869H190.324V597.501H197.084V598.869L192.948 609.021H191.412ZM201.89 609.013L201.898 607.733L207.01 603.133C207.437 602.749 207.722 602.386 207.866 602.045C208.016 601.698 208.09 601.343 208.09 600.981C208.09 600.538 207.989 600.138 207.786 599.781C207.584 599.423 207.306 599.141 206.954 598.933C206.608 598.725 206.213 598.621 205.77 598.621C205.312 598.621 204.904 598.73 204.546 598.949C204.189 599.162 203.906 599.447 203.698 599.805C203.496 600.162 203.397 600.551 203.402 600.973H201.946C201.946 600.247 202.114 599.607 202.45 599.053C202.786 598.493 203.242 598.055 203.818 597.741C204.4 597.421 205.058 597.261 205.794 597.261C206.509 597.261 207.149 597.426 207.714 597.757C208.28 598.082 208.725 598.527 209.05 599.093C209.381 599.653 209.546 600.287 209.546 600.997C209.546 601.498 209.482 601.933 209.354 602.301C209.232 602.669 209.04 603.01 208.778 603.325C208.517 603.634 208.189 603.965 207.794 604.317L203.546 608.133L203.362 607.653H209.546V609.013H201.89ZM215.348 609.261C214.602 609.261 213.935 609.093 213.348 608.757C212.767 608.415 212.306 607.954 211.964 607.373C211.628 606.786 211.46 606.119 211.46 605.373V601.149C211.46 600.402 211.628 599.735 211.964 599.149C212.306 598.562 212.767 598.101 213.348 597.765C213.935 597.429 214.602 597.261 215.348 597.261C216.095 597.261 216.762 597.429 217.348 597.765C217.935 598.101 218.396 598.562 218.732 599.149C219.068 599.735 219.236 600.402 219.236 601.149V605.373C219.236 606.119 219.068 606.786 218.732 607.373C218.396 607.954 217.935 608.415 217.348 608.757C216.762 609.093 216.095 609.261 215.348 609.261ZM215.348 607.893C215.802 607.893 216.212 607.783 216.58 607.565C216.948 607.346 217.242 607.053 217.46 606.685C217.679 606.311 217.788 605.901 217.788 605.453V601.061C217.788 600.607 217.679 600.197 217.46 599.829C217.242 599.461 216.948 599.167 216.58 598.949C216.212 598.73 215.802 598.621 215.348 598.621C214.9 598.621 214.49 598.73 214.116 598.949C213.748 599.167 213.455 599.461 213.236 599.829C213.018 600.197 212.908 600.607 212.908 601.061V605.453C212.908 605.901 213.018 606.311 213.236 606.685C213.455 607.053 213.748 607.346 214.116 607.565C214.49 607.783 214.9 607.893 215.348 607.893ZM221.156 609.013L221.164 607.733L226.276 603.133C226.703 602.749 226.988 602.386 227.132 602.045C227.281 601.698 227.356 601.343 227.356 600.981C227.356 600.538 227.255 600.138 227.052 599.781C226.849 599.423 226.572 599.141 226.22 598.933C225.873 598.725 225.479 598.621 225.036 598.621C224.577 598.621 224.169 598.73 223.812 598.949C223.455 599.162 223.172 599.447 222.964 599.805C222.761 600.162 222.663 600.551 222.668 600.973H221.212C221.212 600.247 221.38 599.607 221.716 599.053C222.052 598.493 222.508 598.055 223.084 597.741C223.665 597.421 224.324 597.261 225.06 597.261C225.775 597.261 226.415 597.426 226.98 597.757C227.545 598.082 227.991 598.527 228.316 599.093C228.647 599.653 228.812 600.287 228.812 600.997C228.812 601.498 228.748 601.933 228.62 602.301C228.497 602.669 228.305 603.01 228.044 603.325C227.783 603.634 227.455 603.965 227.06 604.317L222.812 608.133L222.628 607.653H228.812V609.013H221.156ZM233.886 609.245C233.315 609.245 232.785 609.141 232.294 608.933C231.803 608.719 231.379 608.421 231.022 608.037C230.67 607.647 230.411 607.186 230.246 606.653L231.614 606.261C231.79 606.794 232.083 607.199 232.494 607.477C232.905 607.754 233.366 607.89 233.878 607.885C234.347 607.874 234.753 607.767 235.094 607.565C235.441 607.357 235.707 607.074 235.894 606.717C236.086 606.359 236.182 605.946 236.182 605.477C236.182 604.762 235.969 604.183 235.542 603.741C235.115 603.293 234.555 603.069 233.862 603.069C233.67 603.069 233.467 603.095 233.254 603.149C233.046 603.202 232.851 603.277 232.67 603.373L231.982 602.245L236.254 598.381L236.438 598.861H230.702V597.501H237.494V598.869L233.854 602.357L233.838 601.853C234.601 601.799 235.267 601.925 235.838 602.229C236.409 602.533 236.851 602.967 237.166 603.533C237.486 604.098 237.646 604.746 237.646 605.477C237.646 606.213 237.481 606.863 237.15 607.429C236.819 607.994 236.371 608.439 235.806 608.765C235.241 609.085 234.601 609.245 233.886 609.245Z" fill="white"/>
<path d="M316.101 609.261C314.954 609.261 313.981 609.007 313.181 608.501C312.381 607.994 311.77 607.29 311.349 606.389C310.933 605.487 310.725 604.445 310.725 603.261C310.725 602.077 310.933 601.034 311.349 600.133C311.77 599.231 312.381 598.527 313.181 598.021C313.981 597.514 314.954 597.261 316.101 597.261C317.253 597.261 318.229 597.514 319.029 598.021C319.829 598.527 320.437 599.231 320.853 600.133C321.269 601.034 321.477 602.077 321.477 603.261C321.477 604.445 321.269 605.487 320.853 606.389C320.437 607.29 319.829 607.994 319.029 608.501C318.229 609.007 317.253 609.261 316.101 609.261ZM316.101 607.901C316.96 607.906 317.674 607.714 318.245 607.325C318.821 606.93 319.25 606.383 319.533 605.685C319.821 604.986 319.965 604.178 319.965 603.261C319.965 602.338 319.821 601.53 319.533 600.837C319.25 600.143 318.821 599.602 318.245 599.213C317.674 598.823 316.96 598.626 316.101 598.621C315.242 598.615 314.528 598.807 313.957 599.197C313.392 599.586 312.965 600.13 312.677 600.829C312.389 601.527 312.242 602.338 312.237 603.261C312.232 604.178 312.373 604.983 312.661 605.677C312.949 606.37 313.378 606.914 313.949 607.309C314.525 607.698 315.242 607.895 316.101 607.901ZM326.724 609.261C325.849 609.261 325.105 609.066 324.492 608.677C323.884 608.282 323.42 607.741 323.1 607.053C322.78 606.365 322.615 605.581 322.604 604.701C322.615 603.799 322.783 603.007 323.108 602.325C323.439 601.637 323.911 601.101 324.524 600.717C325.137 600.333 325.876 600.141 326.74 600.141C327.652 600.141 328.436 600.365 329.092 600.813C329.753 601.261 330.196 601.874 330.42 602.653L329.012 603.077C328.831 602.575 328.535 602.186 328.124 601.909C327.719 601.631 327.252 601.493 326.724 601.493C326.132 601.493 325.644 601.631 325.26 601.909C324.876 602.181 324.591 602.559 324.404 603.045C324.217 603.525 324.121 604.077 324.116 604.701C324.127 605.661 324.348 606.437 324.78 607.029C325.217 607.615 325.865 607.909 326.724 607.909C327.289 607.909 327.759 607.781 328.132 607.525C328.505 607.263 328.788 606.887 328.98 606.397L330.42 606.773C330.121 607.578 329.655 608.194 329.02 608.621C328.385 609.047 327.62 609.261 326.724 609.261ZM336.877 609.021C336.365 609.122 335.858 609.162 335.357 609.141C334.861 609.125 334.418 609.026 334.029 608.845C333.639 608.658 333.343 608.37 333.141 607.981C332.97 607.639 332.877 607.295 332.861 606.949C332.85 606.597 332.845 606.199 332.845 605.757V597.981H334.269V605.693C334.269 606.045 334.271 606.346 334.277 606.597C334.287 606.847 334.343 607.063 334.445 607.245C334.637 607.586 334.941 607.786 335.357 607.845C335.778 607.903 336.285 607.887 336.877 607.797V609.021ZM331.093 601.557V600.381H336.877V601.557H331.093ZM343.842 609.021V599.077L341.674 600.389V598.797L343.842 597.501H345.29V609.021H343.842ZM352.222 609.261C351.475 609.261 350.809 609.093 350.222 608.757C349.641 608.415 349.179 607.954 348.838 607.373C348.502 606.786 348.334 606.119 348.334 605.373V601.149C348.334 600.402 348.502 599.735 348.838 599.149C349.179 598.562 349.641 598.101 350.222 597.765C350.809 597.429 351.475 597.261 352.222 597.261C352.969 597.261 353.635 597.429 354.222 597.765C354.809 598.101 355.27 598.562 355.606 599.149C355.942 599.735 356.11 600.402 356.11 601.149V605.373C356.11 606.119 355.942 606.786 355.606 607.373C355.27 607.954 354.809 608.415 354.222 608.757C353.635 609.093 352.969 609.261 352.222 609.261ZM352.222 607.893C352.675 607.893 353.086 607.783 353.454 607.565C353.822 607.346 354.115 607.053 354.334 606.685C354.553 606.311 354.662 605.901 354.662 605.453V601.061C354.662 600.607 354.553 600.197 354.334 599.829C354.115 599.461 353.822 599.167 353.454 598.949C353.086 598.73 352.675 598.621 352.222 598.621C351.774 598.621 351.363 598.73 350.99 598.949C350.622 599.167 350.329 599.461 350.11 599.829C349.891 600.197 349.782 600.607 349.782 601.061V605.453C349.782 605.901 349.891 606.311 350.11 606.685C350.329 607.053 350.622 607.346 350.99 607.565C351.363 607.783 351.774 607.893 352.222 607.893ZM361.233 609.013L361.241 607.733L366.353 603.133C366.779 602.749 367.065 602.386 367.209 602.045C367.358 601.698 367.433 601.343 367.433 600.981C367.433 600.538 367.331 600.138 367.129 599.781C366.926 599.423 366.649 599.141 366.297 598.933C365.95 598.725 365.555 598.621 365.113 598.621C364.654 598.621 364.246 598.73 363.889 598.949C363.531 599.162 363.249 599.447 363.041 599.805C362.838 600.162 362.739 600.551 362.745 600.973H361.289C361.289 600.247 361.457 599.607 361.793 599.053C362.129 598.493 362.585 598.055 363.161 597.741C363.742 597.421 364.401 597.261 365.137 597.261C365.851 597.261 366.491 597.426 367.057 597.757C367.622 598.082 368.067 598.527 368.393 599.093C368.723 599.653 368.889 600.287 368.889 600.997C368.889 601.498 368.825 601.933 368.697 602.301C368.574 602.669 368.382 603.01 368.121 603.325C367.859 603.634 367.531 603.965 367.137 604.317L362.889 608.133L362.705 607.653H368.889V609.013H361.233ZM374.691 609.261C373.944 609.261 373.277 609.093 372.691 608.757C372.109 608.415 371.648 607.954 371.307 607.373C370.971 606.786 370.803 606.119 370.803 605.373V601.149C370.803 600.402 370.971 599.735 371.307 599.149C371.648 598.562 372.109 598.101 372.691 597.765C373.277 597.429 373.944 597.261 374.691 597.261C375.437 597.261 376.104 597.429 376.691 597.765C377.277 598.101 377.739 598.562 378.075 599.149C378.411 599.735 378.579 600.402 378.579 601.149V605.373C378.579 606.119 378.411 606.786 378.075 607.373C377.739 607.954 377.277 608.415 376.691 608.757C376.104 609.093 375.437 609.261 374.691 609.261ZM374.691 607.893C375.144 607.893 375.555 607.783 375.923 607.565C376.291 607.346 376.584 607.053 376.803 606.685C377.021 606.311 377.131 605.901 377.131 605.453V601.061C377.131 600.607 377.021 600.197 376.803 599.829C376.584 599.461 376.291 599.167 375.923 598.949C375.555 598.73 375.144 598.621 374.691 598.621C374.243 598.621 373.832 598.73 373.459 598.949C373.091 599.167 372.797 599.461 372.579 599.829C372.36 600.197 372.251 600.607 372.251 601.061V605.453C372.251 605.901 372.36 606.311 372.579 606.685C372.797 607.053 373.091 607.346 373.459 607.565C373.832 607.783 374.243 607.893 374.691 607.893ZM380.498 609.013L380.506 607.733L385.618 603.133C386.045 602.749 386.33 602.386 386.474 602.045C386.624 601.698 386.698 601.343 386.698 600.981C386.698 600.538 386.597 600.138 386.394 599.781C386.192 599.423 385.914 599.141 385.562 598.933C385.216 598.725 384.821 598.621 384.378 598.621C383.92 598.621 383.512 598.73 383.154 598.949C382.797 599.162 382.514 599.447 382.306 599.805C382.104 600.162 382.005 600.551 382.01 600.973H380.554C380.554 600.247 380.722 599.607 381.058 599.053C381.394 598.493 381.85 598.055 382.426 597.741C383.008 597.421 383.666 597.261 384.402 597.261C385.117 597.261 385.757 597.426 386.322 597.757C386.888 598.082 387.333 598.527 387.658 599.093C387.989 599.653 388.154 600.287 388.154 600.997C388.154 601.498 388.09 601.933 387.962 602.301C387.84 602.669 387.648 603.01 387.386 603.325C387.125 603.634 386.797 603.965 386.402 604.317L382.154 608.133L381.97 607.653H388.154V609.013H380.498ZM393.228 609.245C392.658 609.245 392.127 609.141 391.636 608.933C391.146 608.719 390.722 608.421 390.364 608.037C390.012 607.647 389.754 607.186 389.588 606.653L390.956 606.261C391.132 606.794 391.426 607.199 391.836 607.477C392.247 607.754 392.708 607.89 393.22 607.885C393.69 607.874 394.095 607.767 394.436 607.565C394.783 607.357 395.05 607.074 395.236 606.717C395.428 606.359 395.524 605.946 395.524 605.477C395.524 604.762 395.311 604.183 394.884 603.741C394.458 603.293 393.898 603.069 393.204 603.069C393.012 603.069 392.81 603.095 392.596 603.149C392.388 603.202 392.194 603.277 392.012 603.373L391.324 602.245L395.596 598.381L395.78 598.861H390.044V597.501H396.836V598.869L393.196 602.357L393.18 601.853C393.943 601.799 394.61 601.925 395.18 602.229C395.751 602.533 396.194 602.967 396.508 603.533C396.828 604.098 396.988 604.746 396.988 605.477C396.988 606.213 396.823 606.863 396.492 607.429C396.162 607.994 395.714 608.439 395.148 608.765C394.583 609.085 393.943 609.245 393.228 609.245Z" fill="white"/>
<path d="M466.741 609.021V597.501H470.293C470.41 597.501 470.616 597.503 470.909 597.509C471.202 597.514 471.482 597.535 471.749 597.573C472.64 597.69 473.384 598.015 473.981 598.549C474.584 599.077 475.037 599.749 475.341 600.565C475.645 601.381 475.797 602.279 475.797 603.261C475.797 604.242 475.645 605.141 475.341 605.957C475.037 606.773 474.584 607.447 473.981 607.981C473.384 608.509 472.64 608.831 471.749 608.949C471.482 608.981 471.2 609.002 470.901 609.013C470.608 609.018 470.405 609.021 470.293 609.021H466.741ZM468.205 607.661H470.293C470.496 607.661 470.722 607.655 470.973 607.645C471.224 607.629 471.442 607.605 471.629 607.573C472.258 607.455 472.768 607.191 473.157 606.781C473.546 606.37 473.832 605.858 474.013 605.245C474.194 604.631 474.285 603.97 474.285 603.261C474.285 602.535 474.192 601.866 474.005 601.253C473.824 600.639 473.538 600.13 473.149 599.725C472.76 599.319 472.253 599.061 471.629 598.949C471.442 598.911 471.221 598.887 470.965 598.877C470.709 598.866 470.485 598.861 470.293 598.861H468.205V607.661ZM481.376 609.261C480.528 609.261 479.786 609.074 479.152 608.701C478.522 608.322 478.032 607.797 477.68 607.125C477.328 606.447 477.152 605.658 477.152 604.757C477.152 603.813 477.325 602.997 477.672 602.309C478.018 601.615 478.501 601.082 479.12 600.709C479.744 600.33 480.474 600.141 481.312 600.141C482.181 600.141 482.92 600.341 483.528 600.741C484.141 601.141 484.6 601.711 484.904 602.453C485.213 603.194 485.346 604.077 485.304 605.101H483.864V604.589C483.848 603.527 483.632 602.735 483.216 602.213C482.8 601.685 482.181 601.421 481.36 601.421C480.48 601.421 479.81 601.703 479.352 602.269C478.893 602.834 478.664 603.645 478.664 604.701C478.664 605.719 478.893 606.509 479.352 607.069C479.81 607.629 480.464 607.909 481.312 607.909C481.882 607.909 482.378 607.778 482.8 607.517C483.221 607.255 483.552 606.879 483.792 606.389L485.16 606.861C484.824 607.623 484.317 608.215 483.64 608.637C482.968 609.053 482.213 609.261 481.376 609.261ZM478.184 605.101V603.957H484.568V605.101H478.184ZM490.725 609.261C489.85 609.261 489.106 609.066 488.493 608.677C487.885 608.282 487.421 607.741 487.101 607.053C486.781 606.365 486.616 605.581 486.605 604.701C486.616 603.799 486.784 603.007 487.109 602.325C487.44 601.637 487.912 601.101 488.525 600.717C489.138 600.333 489.877 600.141 490.741 600.141C491.653 600.141 492.437 600.365 493.093 600.813C493.754 601.261 494.197 601.874 494.421 602.653L493.013 603.077C492.832 602.575 492.536 602.186 492.125 601.909C491.72 601.631 491.253 601.493 490.725 601.493C490.133 601.493 489.645 601.631 489.261 601.909C488.877 602.181 488.592 602.559 488.405 603.045C488.218 603.525 488.122 604.077 488.117 604.701C488.128 605.661 488.349 606.437 488.781 607.029C489.218 607.615 489.866 607.909 490.725 607.909C491.29 607.909 491.76 607.781 492.133 607.525C492.506 607.263 492.789 606.887 492.981 606.397L494.421 606.773C494.122 607.578 493.656 608.194 493.021 608.621C492.386 609.047 491.621 609.261 490.725 609.261ZM501.265 609.021V599.077L499.097 600.389V598.797L501.265 597.501H502.713V609.021H501.265ZM509.525 597.269C510.261 597.269 510.925 597.445 511.517 597.797C512.109 598.149 512.578 598.629 512.925 599.237C513.277 599.845 513.453 600.535 513.453 601.309V605.141C513.453 605.946 513.279 606.658 512.933 607.277C512.586 607.895 512.106 608.381 511.493 608.733C510.885 609.085 510.186 609.261 509.397 609.261C508.767 609.261 508.178 609.13 507.629 608.869C507.085 608.607 506.623 608.237 506.245 607.757L507.309 606.813C507.543 607.143 507.845 607.41 508.213 607.613C508.581 607.81 508.975 607.909 509.397 607.909C509.909 607.909 510.359 607.786 510.749 607.541C511.143 607.295 511.45 606.975 511.669 606.581C511.893 606.186 512.005 605.759 512.005 605.301V602.989L512.317 603.341C511.986 603.821 511.562 604.205 511.045 604.493C510.527 604.781 509.965 604.925 509.357 604.925C508.642 604.925 508.002 604.757 507.437 604.421C506.871 604.085 506.423 603.631 506.093 603.061C505.762 602.485 505.597 601.839 505.597 601.125C505.597 600.41 505.775 599.762 506.133 599.181C506.49 598.594 506.965 598.13 507.557 597.789C508.154 597.442 508.81 597.269 509.525 597.269ZM509.525 598.645C509.066 598.645 508.647 598.757 508.269 598.981C507.895 599.199 507.597 599.498 507.373 599.877C507.149 600.25 507.037 600.666 507.037 601.125C507.037 601.583 507.146 602.002 507.365 602.381C507.589 602.754 507.887 603.053 508.261 603.277C508.639 603.501 509.058 603.613 509.517 603.613C509.975 603.613 510.394 603.501 510.773 603.277C511.151 603.053 511.45 602.754 511.669 602.381C511.893 602.002 512.005 601.583 512.005 601.125C512.005 600.671 511.893 600.258 511.669 599.885C511.45 599.506 511.151 599.205 510.773 598.981C510.399 598.757 509.983 598.645 509.525 598.645ZM518.577 609.013L518.585 607.733L523.697 603.133C524.124 602.749 524.409 602.386 524.553 602.045C524.703 601.698 524.777 601.343 524.777 600.981C524.777 600.538 524.676 600.138 524.473 599.781C524.271 599.423 523.993 599.141 523.641 598.933C523.295 598.725 522.9 598.621 522.457 598.621C521.999 598.621 521.591 598.73 521.233 598.949C520.876 599.162 520.593 599.447 520.385 599.805C520.183 600.162 520.084 600.551 520.089 600.973H518.633C518.633 600.247 518.801 599.607 519.137 599.053C519.473 598.493 519.929 598.055 520.505 597.741C521.087 597.421 521.745 597.261 522.481 597.261C523.196 597.261 523.836 597.426 524.401 597.757C524.967 598.082 525.412 598.527 525.737 599.093C526.068 599.653 526.233 600.287 526.233 600.997C526.233 601.498 526.169 601.933 526.041 602.301C525.919 602.669 525.727 603.01 525.465 603.325C525.204 603.634 524.876 603.965 524.481 604.317L520.233 608.133L520.049 607.653H526.233V609.013H518.577ZM532.035 609.261C531.289 609.261 530.622 609.093 530.035 608.757C529.454 608.415 528.993 607.954 528.651 607.373C528.315 606.786 528.147 606.119 528.147 605.373V601.149C528.147 600.402 528.315 599.735 528.651 599.149C528.993 598.562 529.454 598.101 530.035 597.765C530.622 597.429 531.289 597.261 532.035 597.261C532.782 597.261 533.449 597.429 534.035 597.765C534.622 598.101 535.083 598.562 535.419 599.149C535.755 599.735 535.923 600.402 535.923 601.149V605.373C535.923 606.119 535.755 606.786 535.419 607.373C535.083 607.954 534.622 608.415 534.035 608.757C533.449 609.093 532.782 609.261 532.035 609.261ZM532.035 607.893C532.489 607.893 532.899 607.783 533.267 607.565C533.635 607.346 533.929 607.053 534.147 606.685C534.366 606.311 534.475 605.901 534.475 605.453V601.061C534.475 600.607 534.366 600.197 534.147 599.829C533.929 599.461 533.635 599.167 533.267 598.949C532.899 598.73 532.489 598.621 532.035 598.621C531.587 598.621 531.177 598.73 530.803 598.949C530.435 599.167 530.142 599.461 529.923 599.829C529.705 600.197 529.595 600.607 529.595 601.061V605.453C529.595 605.901 529.705 606.311 529.923 606.685C530.142 607.053 530.435 607.346 530.803 607.565C531.177 607.783 531.587 607.893 532.035 607.893ZM537.843 609.013L537.851 607.733L542.963 603.133C543.39 602.749 543.675 602.386 543.819 602.045C543.968 601.698 544.043 601.343 544.043 600.981C544.043 600.538 543.942 600.138 543.739 599.781C543.536 599.423 543.259 599.141 542.907 598.933C542.56 598.725 542.166 598.621 541.723 598.621C541.264 598.621 540.856 598.73 540.499 598.949C540.142 599.162 539.859 599.447 539.651 599.805C539.448 600.162 539.35 600.551 539.355 600.973H537.899C537.899 600.247 538.067 599.607 538.403 599.053C538.739 598.493 539.195 598.055 539.771 597.741C540.352 597.421 541.011 597.261 541.747 597.261C542.462 597.261 543.102 597.426 543.667 597.757C544.232 598.082 544.678 598.527 545.003 599.093C545.334 599.653 545.499 600.287 545.499 600.997C545.499 601.498 545.435 601.933 545.307 602.301C545.184 602.669 544.992 603.01 544.731 603.325C544.47 603.634 544.142 603.965 543.747 604.317L539.499 608.133L539.315 607.653H545.499V609.013H537.843ZM550.573 609.245C550.002 609.245 549.472 609.141 548.981 608.933C548.49 608.719 548.066 608.421 547.709 608.037C547.357 607.647 547.098 607.186 546.933 606.653L548.301 606.261C548.477 606.794 548.77 607.199 549.181 607.477C549.592 607.754 550.053 607.89 550.565 607.885C551.034 607.874 551.44 607.767 551.781 607.565C552.128 607.357 552.394 607.074 552.581 606.717C552.773 606.359 552.869 605.946 552.869 605.477C552.869 604.762 552.656 604.183 552.229 603.741C551.802 603.293 551.242 603.069 550.549 603.069C550.357 603.069 550.154 603.095 549.941 603.149C549.733 603.202 549.538 603.277 549.357 603.373L548.669 602.245L552.941 598.381L553.125 598.861H547.389V597.501H554.181V598.869L550.541 602.357L550.525 601.853C551.288 601.799 551.954 601.925 552.525 602.229C553.096 602.533 553.538 602.967 553.853 603.533C554.173 604.098 554.333 604.746 554.333 605.477C554.333 606.213 554.168 606.863 553.837 607.429C553.506 607.994 553.058 608.439 552.493 608.765C551.928 609.085 551.288 609.245 550.573 609.245Z" fill="white"/>
<path d="M466.741 609.021V597.501H470.293C470.41 597.501 470.616 597.503 470.909 597.509C471.202 597.514 471.482 597.535 471.749 597.573C472.64 597.69 473.384 598.015 473.981 598.549C474.584 599.077 475.037 599.749 475.341 600.565C475.645 601.381 475.797 602.279 475.797 603.261C475.797 604.242 475.645 605.141 475.341 605.957C475.037 606.773 474.584 607.447 473.981 607.981C473.384 608.509 472.64 608.831 471.749 608.949C471.482 608.981 471.2 609.002 470.901 609.013C470.608 609.018 470.405 609.021 470.293 609.021H466.741ZM468.205 607.661H470.293C470.496 607.661 470.722 607.655 470.973 607.645C471.224 607.629 471.442 607.605 471.629 607.573C472.258 607.455 472.768 607.191 473.157 606.781C473.546 606.37 473.832 605.858 474.013 605.245C474.194 604.631 474.285 603.97 474.285 603.261C474.285 602.535 474.192 601.866 474.005 601.253C473.824 600.639 473.538 600.13 473.149 599.725C472.76 599.319 472.253 599.061 471.629 598.949C471.442 598.911 471.221 598.887 470.965 598.877C470.709 598.866 470.485 598.861 470.293 598.861H468.205V607.661ZM481.376 609.261C480.528 609.261 479.786 609.074 479.152 608.701C478.522 608.322 478.032 607.797 477.68 607.125C477.328 606.447 477.152 605.658 477.152 604.757C477.152 603.813 477.325 602.997 477.672 602.309C478.018 601.615 478.501 601.082 479.12 600.709C479.744 600.33 480.474 600.141 481.312 600.141C482.181 600.141 482.92 600.341 483.528 600.741C484.141 601.141 484.6 601.711 484.904 602.453C485.213 603.194 485.346 604.077 485.304 605.101H483.864V604.589C483.848 603.527 483.632 602.735 483.216 602.213C482.8 601.685 482.181 601.421 481.36 601.421C480.48 601.421 479.81 601.703 479.352 602.269C478.893 602.834 478.664 603.645 478.664 604.701C478.664 605.719 478.893 606.509 479.352 607.069C479.81 607.629 480.464 607.909 481.312 607.909C481.882 607.909 482.378 607.778 482.8 607.517C483.221 607.255 483.552 606.879 483.792 606.389L485.16 606.861C484.824 607.623 484.317 608.215 483.64 608.637C482.968 609.053 482.213 609.261 481.376 609.261ZM478.184 605.101V603.957H484.568V605.101H478.184ZM490.725 609.261C489.85 609.261 489.106 609.066 488.493 608.677C487.885 608.282 487.421 607.741 487.101 607.053C486.781 606.365 486.616 605.581 486.605 604.701C486.616 603.799 486.784 603.007 487.109 602.325C487.44 601.637 487.912 601.101 488.525 600.717C489.138 600.333 489.877 600.141 490.741 600.141C491.653 600.141 492.437 600.365 493.093 600.813C493.754 601.261 494.197 601.874 494.421 602.653L493.013 603.077C492.832 602.575 492.536 602.186 492.125 601.909C491.72 601.631 491.253 601.493 490.725 601.493C490.133 601.493 489.645 601.631 489.261 601.909C488.877 602.181 488.592 602.559 488.405 603.045C488.218 603.525 488.122 604.077 488.117 604.701C488.128 605.661 488.349 606.437 488.781 607.029C489.218 607.615 489.866 607.909 490.725 607.909C491.29 607.909 491.76 607.781 492.133 607.525C492.506 607.263 492.789 606.887 492.981 606.397L494.421 606.773C494.122 607.578 493.656 608.194 493.021 608.621C492.386 609.047 491.621 609.261 490.725 609.261ZM501.265 609.021V599.077L499.097 600.389V598.797L501.265 597.501H502.713V609.021H501.265ZM509.525 597.269C510.261 597.269 510.925 597.445 511.517 597.797C512.109 598.149 512.578 598.629 512.925 599.237C513.277 599.845 513.453 600.535 513.453 601.309V605.141C513.453 605.946 513.279 606.658 512.933 607.277C512.586 607.895 512.106 608.381 511.493 608.733C510.885 609.085 510.186 609.261 509.397 609.261C508.767 609.261 508.178 609.13 507.629 608.869C507.085 608.607 506.623 608.237 506.245 607.757L507.309 606.813C507.543 607.143 507.845 607.41 508.213 607.613C508.581 607.81 508.975 607.909 509.397 607.909C509.909 607.909 510.359 607.786 510.749 607.541C511.143 607.295 511.45 606.975 511.669 606.581C511.893 606.186 512.005 605.759 512.005 605.301V602.989L512.317 603.341C511.986 603.821 511.562 604.205 511.045 604.493C510.527 604.781 509.965 604.925 509.357 604.925C508.642 604.925 508.002 604.757 507.437 604.421C506.871 604.085 506.423 603.631 506.093 603.061C505.762 602.485 505.597 601.839 505.597 601.125C505.597 600.41 505.775 599.762 506.133 599.181C506.49 598.594 506.965 598.13 507.557 597.789C508.154 597.442 508.81 597.269 509.525 597.269ZM509.525 598.645C509.066 598.645 508.647 598.757 508.269 598.981C507.895 599.199 507.597 599.498 507.373 599.877C507.149 600.25 507.037 600.666 507.037 601.125C507.037 601.583 507.146 602.002 507.365 602.381C507.589 602.754 507.887 603.053 508.261 603.277C508.639 603.501 509.058 603.613 509.517 603.613C509.975 603.613 510.394 603.501 510.773 603.277C511.151 603.053 511.45 602.754 511.669 602.381C511.893 602.002 512.005 601.583 512.005 601.125C512.005 600.671 511.893 600.258 511.669 599.885C511.45 599.506 511.151 599.205 510.773 598.981C510.399 598.757 509.983 598.645 509.525 598.645ZM518.577 609.013L518.585 607.733L523.697 603.133C524.124 602.749 524.409 602.386 524.553 602.045C524.703 601.698 524.777 601.343 524.777 600.981C524.777 600.538 524.676 600.138 524.473 599.781C524.271 599.423 523.993 599.141 523.641 598.933C523.295 598.725 522.9 598.621 522.457 598.621C521.999 598.621 521.591 598.73 521.233 598.949C520.876 599.162 520.593 599.447 520.385 599.805C520.183 600.162 520.084 600.551 520.089 600.973H518.633C518.633 600.247 518.801 599.607 519.137 599.053C519.473 598.493 519.929 598.055 520.505 597.741C521.087 597.421 521.745 597.261 522.481 597.261C523.196 597.261 523.836 597.426 524.401 597.757C524.967 598.082 525.412 598.527 525.737 599.093C526.068 599.653 526.233 600.287 526.233 600.997C526.233 601.498 526.169 601.933 526.041 602.301C525.919 602.669 525.727 603.01 525.465 603.325C525.204 603.634 524.876 603.965 524.481 604.317L520.233 608.133L520.049 607.653H526.233V609.013H518.577ZM532.035 609.261C531.289 609.261 530.622 609.093 530.035 608.757C529.454 608.415 528.993 607.954 528.651 607.373C528.315 606.786 528.147 606.119 528.147 605.373V601.149C528.147 600.402 528.315 599.735 528.651 599.149C528.993 598.562 529.454 598.101 530.035 597.765C530.622 597.429 531.289 597.261 532.035 597.261C532.782 597.261 533.449 597.429 534.035 597.765C534.622 598.101 535.083 598.562 535.419 599.149C535.755 599.735 535.923 600.402 535.923 601.149V605.373C535.923 606.119 535.755 606.786 535.419 607.373C535.083 607.954 534.622 608.415 534.035 608.757C533.449 609.093 532.782 609.261 532.035 609.261ZM532.035 607.893C532.489 607.893 532.899 607.783 533.267 607.565C533.635 607.346 533.929 607.053 534.147 606.685C534.366 606.311 534.475 605.901 534.475 605.453V601.061C534.475 600.607 534.366 600.197 534.147 599.829C533.929 599.461 533.635 599.167 533.267 598.949C532.899 598.73 532.489 598.621 532.035 598.621C531.587 598.621 531.177 598.73 530.803 598.949C530.435 599.167 530.142 599.461 529.923 599.829C529.705 600.197 529.595 600.607 529.595 601.061V605.453C529.595 605.901 529.705 606.311 529.923 606.685C530.142 607.053 530.435 607.346 530.803 607.565C531.177 607.783 531.587 607.893 532.035 607.893ZM537.843 609.013L537.851 607.733L542.963 603.133C543.39 602.749 543.675 602.386 543.819 602.045C543.968 601.698 544.043 601.343 544.043 600.981C544.043 600.538 543.942 600.138 543.739 599.781C543.536 599.423 543.259 599.141 542.907 598.933C542.56 598.725 542.166 598.621 541.723 598.621C541.264 598.621 540.856 598.73 540.499 598.949C540.142 599.162 539.859 599.447 539.651 599.805C539.448 600.162 539.35 600.551 539.355 600.973H537.899C537.899 600.247 538.067 599.607 538.403 599.053C538.739 598.493 539.195 598.055 539.771 597.741C540.352 597.421 541.011 597.261 541.747 597.261C542.462 597.261 543.102 597.426 543.667 597.757C544.232 598.082 544.678 598.527 545.003 599.093C545.334 599.653 545.499 600.287 545.499 600.997C545.499 601.498 545.435 601.933 545.307 602.301C545.184 602.669 544.992 603.01 544.731 603.325C544.47 603.634 544.142 603.965 543.747 604.317L539.499 608.133L539.315 607.653H545.499V609.013H537.843ZM550.573 609.245C550.002 609.245 549.472 609.141 548.981 608.933C548.49 608.719 548.066 608.421 547.709 608.037C547.357 607.647 547.098 607.186 546.933 606.653L548.301 606.261C548.477 606.794 548.77 607.199 549.181 607.477C549.592 607.754 550.053 607.89 550.565 607.885C551.034 607.874 551.44 607.767 551.781 607.565C552.128 607.357 552.394 607.074 552.581 606.717C552.773 606.359 552.869 605.946 552.869 605.477C552.869 604.762 552.656 604.183 552.229 603.741C551.802 603.293 551.242 603.069 550.549 603.069C550.357 603.069 550.154 603.095 549.941 603.149C549.733 603.202 549.538 603.277 549.357 603.373L548.669 602.245L552.941 598.381L553.125 598.861H547.389V597.501H554.181V598.869L550.541 602.357L550.525 601.853C551.288 601.799 551.954 601.925 552.525 602.229C553.096 602.533 553.538 602.967 553.853 603.533C554.173 604.098 554.333 604.746 554.333 605.477C554.333 606.213 554.168 606.863 553.837 607.429C553.506 607.994 553.058 608.439 552.493 608.765C551.928 609.085 551.288 609.245 550.573 609.245Z" fill="white"/>
<path d="M623.126 609.021V597.501H629.846V598.925H624.55V602.549H628.886V603.973H624.55V609.021H623.126ZM634.792 609.261C633.944 609.261 633.202 609.074 632.568 608.701C631.938 608.322 631.448 607.797 631.096 607.125C630.744 606.447 630.568 605.658 630.568 604.757C630.568 603.813 630.741 602.997 631.088 602.309C631.434 601.615 631.917 601.082 632.536 600.709C633.16 600.33 633.89 600.141 634.728 600.141C635.597 600.141 636.336 600.341 636.944 600.741C637.557 601.141 638.016 601.711 638.32 602.453C638.629 603.194 638.762 604.077 638.72 605.101H637.28V604.589C637.264 603.527 637.048 602.735 636.632 602.213C636.216 601.685 635.597 601.421 634.776 601.421C633.896 601.421 633.226 601.703 632.768 602.269C632.309 602.834 632.08 603.645 632.08 604.701C632.08 605.719 632.309 606.509 632.768 607.069C633.226 607.629 633.88 607.909 634.728 607.909C635.298 607.909 635.794 607.778 636.216 607.517C636.637 607.255 636.968 606.879 637.208 606.389L638.576 606.861C638.24 607.623 637.733 608.215 637.056 608.637C636.384 609.053 635.629 609.261 634.792 609.261ZM631.6 605.101V603.957H637.984V605.101H631.6ZM644.469 609.261C643.658 609.261 642.976 609.061 642.421 608.661C641.866 608.255 641.445 607.709 641.157 607.021C640.874 606.327 640.733 605.551 640.733 604.693C640.733 603.823 640.874 603.045 641.157 602.357C641.445 601.669 641.866 601.127 642.421 600.733C642.981 600.338 643.666 600.141 644.477 600.141C645.277 600.141 645.965 600.341 646.541 600.741C647.122 601.135 647.568 601.677 647.877 602.365C648.186 603.053 648.341 603.829 648.341 604.693C648.341 605.557 648.186 606.333 647.877 607.021C647.568 607.709 647.122 608.255 646.541 608.661C645.965 609.061 645.274 609.261 644.469 609.261ZM640.493 609.021V597.501H641.925V602.661H641.765V609.021H640.493ZM644.293 607.957C644.864 607.957 645.336 607.813 645.709 607.525C646.082 607.237 646.362 606.847 646.549 606.357C646.736 605.861 646.829 605.306 646.829 604.693C646.829 604.085 646.736 603.535 646.549 603.045C646.368 602.554 646.085 602.165 645.701 601.877C645.322 601.589 644.84 601.445 644.253 601.445C643.693 601.445 643.229 601.583 642.861 601.861C642.493 602.133 642.218 602.514 642.037 603.005C641.856 603.49 641.765 604.053 641.765 604.693C641.765 605.322 641.853 605.885 642.029 606.381C642.21 606.871 642.488 607.258 642.861 607.541C643.234 607.818 643.712 607.957 644.293 607.957ZM652.978 609.013L652.986 607.733L658.098 603.133C658.524 602.749 658.81 602.386 658.954 602.045C659.103 601.698 659.178 601.343 659.178 600.981C659.178 600.538 659.076 600.138 658.874 599.781C658.671 599.423 658.394 599.141 658.042 598.933C657.695 598.725 657.3 598.621 656.858 598.621C656.399 598.621 655.991 598.73 655.634 598.949C655.276 599.162 654.994 599.447 654.786 599.805C654.583 600.162 654.484 600.551 654.49 600.973H653.034C653.034 600.247 653.202 599.607 653.538 599.053C653.874 598.493 654.33 598.055 654.906 597.741C655.487 597.421 656.146 597.261 656.882 597.261C657.596 597.261 658.236 597.426 658.802 597.757C659.367 598.082 659.812 598.527 660.138 599.093C660.468 599.653 660.634 600.287 660.634 600.997C660.634 601.498 660.57 601.933 660.442 602.301C660.319 602.669 660.127 603.01 659.866 603.325C659.604 603.634 659.276 603.965 658.882 604.317L654.634 608.133L654.45 607.653H660.634V609.013H652.978ZM662.228 609.013L662.236 607.733L667.348 603.133C667.774 602.749 668.06 602.386 668.204 602.045C668.353 601.698 668.428 601.343 668.428 600.981C668.428 600.538 668.326 600.138 668.124 599.781C667.921 599.423 667.644 599.141 667.292 598.933C666.945 598.725 666.55 598.621 666.108 598.621C665.649 598.621 665.241 598.73 664.884 598.949C664.526 599.162 664.244 599.447 664.036 599.805C663.833 600.162 663.734 600.551 663.74 600.973H662.284C662.284 600.247 662.452 599.607 662.788 599.053C663.124 598.493 663.58 598.055 664.156 597.741C664.737 597.421 665.396 597.261 666.132 597.261C666.846 597.261 667.486 597.426 668.052 597.757C668.617 598.082 669.062 598.527 669.388 599.093C669.718 599.653 669.884 600.287 669.884 600.997C669.884 601.498 669.82 601.933 669.692 602.301C669.569 602.669 669.377 603.01 669.116 603.325C668.854 603.634 668.526 603.965 668.132 604.317L663.884 608.133L663.7 607.653H669.884V609.013H662.228ZM677.884 609.013L677.892 607.733L683.004 603.133C683.431 602.749 683.716 602.386 683.86 602.045C684.009 601.698 684.084 601.343 684.084 600.981C684.084 600.538 683.983 600.138 683.78 599.781C683.577 599.423 683.3 599.141 682.948 598.933C682.601 598.725 682.207 598.621 681.764 598.621C681.305 598.621 680.897 598.73 680.54 598.949C680.183 599.162 679.9 599.447 679.692 599.805C679.489 600.162 679.391 600.551 679.396 600.973H677.94C677.94 600.247 678.108 599.607 678.444 599.053C678.78 598.493 679.236 598.055 679.812 597.741C680.393 597.421 681.052 597.261 681.788 597.261C682.503 597.261 683.143 597.426 683.708 597.757C684.273 598.082 684.719 598.527 685.044 599.093C685.375 599.653 685.54 600.287 685.54 600.997C685.54 601.498 685.476 601.933 685.348 602.301C685.225 602.669 685.033 603.01 684.772 603.325C684.511 603.634 684.183 603.965 683.788 604.317L679.54 608.133L679.356 607.653H685.54V609.013H677.884ZM691.342 609.261C690.595 609.261 689.929 609.093 689.342 608.757C688.761 608.415 688.299 607.954 687.958 607.373C687.622 606.786 687.454 606.119 687.454 605.373V601.149C687.454 600.402 687.622 599.735 687.958 599.149C688.299 598.562 688.761 598.101 689.342 597.765C689.929 597.429 690.595 597.261 691.342 597.261C692.089 597.261 692.755 597.429 693.342 597.765C693.929 598.101 694.39 598.562 694.726 599.149C695.062 599.735 695.23 600.402 695.23 601.149V605.373C695.23 606.119 695.062 606.786 694.726 607.373C694.39 607.954 693.929 608.415 693.342 608.757C692.755 609.093 692.089 609.261 691.342 609.261ZM691.342 607.893C691.795 607.893 692.206 607.783 692.574 607.565C692.942 607.346 693.235 607.053 693.454 606.685C693.673 606.311 693.782 605.901 693.782 605.453V601.061C693.782 600.607 693.673 600.197 693.454 599.829C693.235 599.461 692.942 599.167 692.574 598.949C692.206 598.73 691.795 598.621 691.342 598.621C690.894 598.621 690.483 598.73 690.11 598.949C689.742 599.167 689.449 599.461 689.23 599.829C689.011 600.197 688.902 600.607 688.902 601.061V605.453C688.902 605.901 689.011 606.311 689.23 606.685C689.449 607.053 689.742 607.346 690.11 607.565C690.483 607.783 690.894 607.893 691.342 607.893ZM697.15 609.013L697.158 607.733L702.27 603.133C702.696 602.749 702.982 602.386 703.126 602.045C703.275 601.698 703.35 601.343 703.35 600.981C703.35 600.538 703.248 600.138 703.046 599.781C702.843 599.423 702.566 599.141 702.214 598.933C701.867 598.725 701.472 598.621 701.03 598.621C700.571 598.621 700.163 598.73 699.806 598.949C699.448 599.162 699.166 599.447 698.958 599.805C698.755 600.162 698.656 600.551 698.662 600.973H697.206C697.206 600.247 697.374 599.607 697.71 599.053C698.046 598.493 698.502 598.055 699.078 597.741C699.659 597.421 700.318 597.261 701.054 597.261C701.768 597.261 702.408 597.426 702.974 597.757C703.539 598.082 703.984 598.527 704.31 599.093C704.64 599.653 704.806 600.287 704.806 600.997C704.806 601.498 704.742 601.933 704.614 602.301C704.491 602.669 704.299 603.01 704.038 603.325C703.776 603.634 703.448 603.965 703.054 604.317L698.806 608.133L698.622 607.653H704.806V609.013H697.15ZM711.383 609.021V606.901H706.087V605.549L709.887 597.501H711.503L707.703 605.549H711.383V602.309H712.823V605.549H714.023V606.901H712.823V609.021H711.383Z" fill="white"/>
<path d="M778.502 609.021V597.501H779.798L784.15 606.677L788.478 597.501H789.79V609.013H788.438V600.629L784.526 609.021H783.766L779.854 600.629V609.021H778.502ZM794.489 609.261C793.844 609.261 793.302 609.143 792.865 608.909C792.433 608.669 792.105 608.354 791.881 607.965C791.662 607.575 791.553 607.149 791.553 606.685C791.553 606.231 791.638 605.839 791.809 605.509C791.985 605.173 792.23 604.895 792.545 604.677C792.86 604.453 793.236 604.277 793.673 604.149C794.084 604.037 794.542 603.941 795.049 603.861C795.561 603.775 796.078 603.698 796.601 603.629C797.124 603.559 797.612 603.493 798.065 603.429L797.553 603.725C797.569 602.957 797.414 602.389 797.089 602.021C796.769 601.653 796.214 601.469 795.425 601.469C794.902 601.469 794.444 601.589 794.049 601.829C793.66 602.063 793.385 602.447 793.225 602.981L791.873 602.573C792.081 601.815 792.484 601.221 793.081 600.789C793.678 600.357 794.465 600.141 795.441 600.141C796.225 600.141 796.897 600.282 797.457 600.565C798.022 600.842 798.428 601.263 798.673 601.829C798.796 602.095 798.873 602.386 798.905 602.701C798.937 603.01 798.953 603.335 798.953 603.677V609.021H797.689V606.949L797.985 607.141C797.66 607.839 797.204 608.367 796.617 608.725C796.036 609.082 795.326 609.261 794.489 609.261ZM794.705 608.069C795.217 608.069 795.66 607.978 796.033 607.797C796.412 607.61 796.716 607.367 796.945 607.069C797.174 606.765 797.324 606.434 797.393 606.077C797.473 605.81 797.516 605.514 797.521 605.189C797.532 604.858 797.537 604.605 797.537 604.429L798.033 604.645C797.569 604.709 797.113 604.77 796.665 604.829C796.217 604.887 795.793 604.951 795.393 605.021C794.993 605.085 794.633 605.162 794.313 605.253C794.078 605.327 793.857 605.423 793.649 605.541C793.446 605.658 793.281 605.81 793.153 605.997C793.03 606.178 792.969 606.405 792.969 606.677C792.969 606.911 793.028 607.135 793.145 607.349C793.268 607.562 793.454 607.735 793.705 607.869C793.961 608.002 794.294 608.069 794.705 608.069ZM801.749 612.861L803.421 608.317L803.445 609.661L799.669 600.381H801.165L804.125 607.845H803.613L806.389 600.381H807.837L803.133 612.861H801.749ZM816.249 609.261C815.503 609.261 814.836 609.093 814.249 608.757C813.668 608.415 813.207 607.954 812.865 607.373C812.529 606.786 812.361 606.119 812.361 605.373V601.149C812.361 600.402 812.529 599.735 812.865 599.149C813.207 598.562 813.668 598.101 814.249 597.765C814.836 597.429 815.503 597.261 816.249 597.261C816.996 597.261 817.663 597.429 818.249 597.765C818.836 598.101 819.297 598.562 819.633 599.149C819.969 599.735 820.137 600.402 820.137 601.149V605.373C820.137 606.119 819.969 606.786 819.633 607.373C819.297 607.954 818.836 608.415 818.249 608.757C817.663 609.093 816.996 609.261 816.249 609.261ZM816.249 607.893C816.703 607.893 817.113 607.783 817.481 607.565C817.849 607.346 818.143 607.053 818.361 606.685C818.58 606.311 818.689 605.901 818.689 605.453V601.061C818.689 600.607 818.58 600.197 818.361 599.829C818.143 599.461 817.849 599.167 817.481 598.949C817.113 598.73 816.703 598.621 816.249 598.621C815.801 598.621 815.391 598.73 815.017 598.949C814.649 599.167 814.356 599.461 814.137 599.829C813.919 600.197 813.809 600.607 813.809 601.061V605.453C813.809 605.901 813.919 606.311 814.137 606.685C814.356 607.053 814.649 607.346 815.017 607.565C815.391 607.783 815.801 607.893 816.249 607.893ZM824.385 609.021V599.077L822.217 600.389V598.797L824.385 597.501H825.833V609.021H824.385ZM831.76 609.013L831.768 607.733L836.88 603.133C837.307 602.749 837.592 602.386 837.736 602.045C837.885 601.698 837.96 601.343 837.96 600.981C837.96 600.538 837.859 600.138 837.656 599.781C837.453 599.423 837.176 599.141 836.824 598.933C836.477 598.725 836.083 598.621 835.64 598.621C835.181 598.621 834.773 598.73 834.416 598.949C834.059 599.162 833.776 599.447 833.568 599.805C833.365 600.162 833.267 600.551 833.272 600.973H831.816C831.816 600.247 831.984 599.607 832.32 599.053C832.656 598.493 833.112 598.055 833.688 597.741C834.269 597.421 834.928 597.261 835.664 597.261C836.379 597.261 837.019 597.426 837.584 597.757C838.149 598.082 838.595 598.527 838.92 599.093C839.251 599.653 839.416 600.287 839.416 600.997C839.416 601.498 839.352 601.933 839.224 602.301C839.101 602.669 838.909 603.01 838.648 603.325C838.387 603.634 838.059 603.965 837.664 604.317L833.416 608.133L833.232 607.653H839.416V609.013H831.76ZM845.218 609.261C844.471 609.261 843.805 609.093 843.218 608.757C842.637 608.415 842.175 607.954 841.834 607.373C841.498 606.786 841.33 606.119 841.33 605.373V601.149C841.33 600.402 841.498 599.735 841.834 599.149C842.175 598.562 842.637 598.101 843.218 597.765C843.805 597.429 844.471 597.261 845.218 597.261C845.965 597.261 846.631 597.429 847.218 597.765C847.805 598.101 848.266 598.562 848.602 599.149C848.938 599.735 849.106 600.402 849.106 601.149V605.373C849.106 606.119 848.938 606.786 848.602 607.373C848.266 607.954 847.805 608.415 847.218 608.757C846.631 609.093 845.965 609.261 845.218 609.261ZM845.218 607.893C845.671 607.893 846.082 607.783 846.45 607.565C846.818 607.346 847.111 607.053 847.33 606.685C847.549 606.311 847.658 605.901 847.658 605.453V601.061C847.658 600.607 847.549 600.197 847.33 599.829C847.111 599.461 846.818 599.167 846.45 598.949C846.082 598.73 845.671 598.621 845.218 598.621C844.77 598.621 844.359 598.73 843.986 598.949C843.618 599.167 843.325 599.461 843.106 599.829C842.887 600.197 842.778 600.607 842.778 601.061V605.453C842.778 605.901 842.887 606.311 843.106 606.685C843.325 607.053 843.618 607.346 843.986 607.565C844.359 607.783 844.77 607.893 845.218 607.893ZM851.026 609.013L851.034 607.733L856.146 603.133C856.572 602.749 856.858 602.386 857.002 602.045C857.151 601.698 857.226 601.343 857.226 600.981C857.226 600.538 857.124 600.138 856.922 599.781C856.719 599.423 856.442 599.141 856.09 598.933C855.743 598.725 855.348 598.621 854.906 598.621C854.447 598.621 854.039 598.73 853.682 598.949C853.324 599.162 853.042 599.447 852.834 599.805C852.631 600.162 852.532 600.551 852.538 600.973H851.082C851.082 600.247 851.25 599.607 851.586 599.053C851.922 598.493 852.378 598.055 852.954 597.741C853.535 597.421 854.194 597.261 854.93 597.261C855.644 597.261 856.284 597.426 856.85 597.757C857.415 598.082 857.86 598.527 858.186 599.093C858.516 599.653 858.682 600.287 858.682 600.997C858.682 601.498 858.618 601.933 858.49 602.301C858.367 602.669 858.175 603.01 857.914 603.325C857.652 603.634 857.324 603.965 856.93 604.317L852.682 608.133L852.498 607.653H858.682V609.013H851.026ZM865.259 609.021V606.901H859.963V605.549L863.763 597.501H865.379L861.579 605.549H865.259V602.309H866.699V605.549H867.899V606.901H866.699V609.021H865.259Z" fill="white"/>
<path d="M941.003 609.184C940.197 609.184 939.515 608.966 938.955 608.528C938.395 608.091 938.011 607.504 937.803 606.768L939.219 606.432C939.304 606.822 939.509 607.152 939.835 607.424C940.165 607.696 940.544 607.832 940.971 607.832C941.248 607.832 941.531 607.766 941.819 607.632C942.107 607.494 942.328 607.27 942.483 606.96C942.589 606.747 942.651 606.512 942.667 606.256C942.683 605.995 942.691 605.688 942.691 605.336V597.432H944.131V605.336C944.131 605.667 944.128 605.963 944.123 606.224C944.123 606.486 944.096 606.736 944.043 606.976C943.995 607.211 943.899 607.451 943.755 607.696C943.467 608.203 943.08 608.579 942.595 608.824C942.115 609.064 941.584 609.184 941.003 609.184ZM949.812 609.176C949.257 609.176 948.78 609.088 948.38 608.912C947.985 608.736 947.657 608.502 947.396 608.208C947.135 607.915 946.929 607.59 946.78 607.232C946.631 606.875 946.524 606.51 946.46 606.136C946.401 605.763 946.372 605.414 946.372 605.088V600.312H947.812V604.64C947.812 605.046 947.849 605.438 947.924 605.816C947.999 606.195 948.124 606.536 948.3 606.84C948.481 607.144 948.721 607.384 949.02 607.56C949.324 607.736 949.703 607.824 950.156 607.824C950.513 607.824 950.839 607.763 951.132 607.64C951.425 607.518 951.676 607.336 951.884 607.096C952.092 606.851 952.252 606.542 952.364 606.168C952.476 605.795 952.532 605.36 952.532 604.864L953.468 605.152C953.468 605.984 953.316 606.702 953.012 607.304C952.713 607.907 952.289 608.371 951.74 608.696C951.196 609.016 950.553 609.176 949.812 609.176ZM952.692 608.952V606.64H952.532V600.312H953.964V608.952H952.692ZM956.364 608.952V597.192H957.788V608.952H956.364ZM963.071 608.944L963.079 607.664L968.191 603.064C968.618 602.68 968.903 602.318 969.047 601.976C969.197 601.63 969.271 601.275 969.271 600.912C969.271 600.47 969.17 600.07 968.967 599.712C968.765 599.355 968.487 599.072 968.135 598.864C967.789 598.656 967.394 598.552 966.951 598.552C966.493 598.552 966.085 598.662 965.727 598.88C965.37 599.094 965.087 599.379 964.879 599.736C964.677 600.094 964.578 600.483 964.583 600.904H963.127C963.127 600.179 963.295 599.539 963.631 598.984C963.967 598.424 964.423 597.987 964.999 597.672C965.581 597.352 966.239 597.192 966.975 597.192C967.69 597.192 968.33 597.358 968.895 597.688C969.461 598.014 969.906 598.459 970.231 599.024C970.562 599.584 970.727 600.219 970.727 600.928C970.727 601.43 970.663 601.864 970.535 602.232C970.413 602.6 970.221 602.942 969.959 603.256C969.698 603.566 969.37 603.896 968.975 604.248L964.727 608.064L964.543 607.584H970.727V608.944H963.071ZM972.321 608.944L972.329 607.664L977.441 603.064C977.868 602.68 978.153 602.318 978.297 601.976C978.447 601.63 978.521 601.275 978.521 600.912C978.521 600.47 978.42 600.07 978.217 599.712C978.015 599.355 977.737 599.072 977.385 598.864C977.039 598.656 976.644 598.552 976.201 598.552C975.743 598.552 975.335 598.662 974.977 598.88C974.62 599.094 974.337 599.379 974.129 599.736C973.927 600.094 973.828 600.483 973.833 600.904H972.377C972.377 600.179 972.545 599.539 972.881 598.984C973.217 598.424 973.673 597.987 974.249 597.672C974.831 597.352 975.489 597.192 976.225 597.192C976.94 597.192 977.58 597.358 978.145 597.688C978.711 598.014 979.156 598.459 979.481 599.024C979.812 599.584 979.977 600.219 979.977 600.928C979.977 601.43 979.913 601.864 979.785 602.232C979.663 602.6 979.471 602.942 979.209 603.256C978.948 603.566 978.62 603.896 978.225 604.248L973.977 608.064L973.793 607.584H979.977V608.944H972.321ZM984.775 608.944L984.783 607.664L989.895 603.064C990.321 602.68 990.607 602.318 990.751 601.976C990.9 601.63 990.975 601.275 990.975 600.912C990.975 600.47 990.873 600.07 990.671 599.712C990.468 599.355 990.191 599.072 989.839 598.864C989.492 598.656 989.097 598.552 988.655 598.552C988.196 598.552 987.788 598.662 987.431 598.88C987.073 599.094 986.791 599.379 986.583 599.736C986.38 600.094 986.281 600.483 986.287 600.904H984.831C984.831 600.179 984.999 599.539 985.335 598.984C985.671 598.424 986.127 597.987 986.703 597.672C987.284 597.352 987.943 597.192 988.679 597.192C989.393 597.192 990.033 597.358 990.599 597.688C991.164 598.014 991.609 598.459 991.935 599.024C992.265 599.584 992.431 600.219 992.431 600.928C992.431 601.43 992.367 601.864 992.239 602.232C992.116 602.6 991.924 602.942 991.663 603.256C991.401 603.566 991.073 603.896 990.679 604.248L986.431 608.064L986.247 607.584H992.431V608.944H984.775ZM998.233 609.192C997.486 609.192 996.819 609.024 996.233 608.688C995.651 608.347 995.19 607.886 994.849 607.304C994.513 606.718 994.345 606.051 994.345 605.304V601.08C994.345 600.334 994.513 599.667 994.849 599.08C995.19 598.494 995.651 598.032 996.233 597.696C996.819 597.36 997.486 597.192 998.233 597.192C998.979 597.192 999.646 597.36 1000.23 597.696C1000.82 598.032 1001.28 598.494 1001.62 599.08C1001.95 599.667 1002.12 600.334 1002.12 601.08V605.304C1002.12 606.051 1001.95 606.718 1001.62 607.304C1001.28 607.886 1000.82 608.347 1000.23 608.688C999.646 609.024 998.979 609.192 998.233 609.192ZM998.233 607.824C998.686 607.824 999.097 607.715 999.465 607.496C999.833 607.278 1000.13 606.984 1000.34 606.616C1000.56 606.243 1000.67 605.832 1000.67 605.384V600.992C1000.67 600.539 1000.56 600.128 1000.34 599.76C1000.13 599.392 999.833 599.099 999.465 598.88C999.097 598.662 998.686 598.552 998.233 598.552C997.785 598.552 997.374 598.662 997.001 598.88C996.633 599.099 996.339 599.392 996.121 599.76C995.902 600.128 995.793 600.539 995.793 600.992V605.384C995.793 605.832 995.902 606.243 996.121 606.616C996.339 606.984 996.633 607.278 997.001 607.496C997.374 607.715 997.785 607.824 998.233 607.824ZM1004.04 608.944L1004.05 607.664L1009.16 603.064C1009.59 602.68 1009.87 602.318 1010.02 601.976C1010.17 601.63 1010.24 601.275 1010.24 600.912C1010.24 600.47 1010.14 600.07 1009.94 599.712C1009.73 599.355 1009.46 599.072 1009.1 598.864C1008.76 598.656 1008.36 598.552 1007.92 598.552C1007.46 598.552 1007.05 598.662 1006.7 598.88C1006.34 599.094 1006.06 599.379 1005.85 599.736C1005.65 600.094 1005.55 600.483 1005.55 600.904H1004.1C1004.1 600.179 1004.26 599.539 1004.6 598.984C1004.94 598.424 1005.39 597.987 1005.97 597.672C1006.55 597.352 1007.21 597.192 1007.94 597.192C1008.66 597.192 1009.3 597.358 1009.86 597.688C1010.43 598.014 1010.87 598.459 1011.2 599.024C1011.53 599.584 1011.7 600.219 1011.7 600.928C1011.7 601.43 1011.63 601.864 1011.5 602.232C1011.38 602.6 1011.19 602.942 1010.93 603.256C1010.67 603.566 1010.34 603.896 1009.94 604.248L1005.7 608.064L1005.51 607.584H1011.7V608.944H1004.04ZM1018.27 608.952V606.832H1012.98V605.48L1016.78 597.432H1018.39L1014.59 605.48H1018.27V602.24H1019.71V605.48H1020.91V606.832H1019.71V608.952H1018.27Z" fill="white"/>
<path d="M121.525 460.996V459.82H126.325V460.996H121.525ZM132.332 465.692C131.602 465.692 130.938 465.516 130.34 465.164C129.748 464.812 129.276 464.332 128.924 463.724C128.578 463.111 128.404 462.42 128.404 461.652V457.82C128.404 457.015 128.578 456.303 128.924 455.684C129.276 455.06 129.756 454.575 130.364 454.228C130.978 453.876 131.676 453.7 132.46 453.7C133.095 453.7 133.684 453.831 134.228 454.092C134.778 454.348 135.239 454.719 135.612 455.204L134.548 456.148C134.319 455.812 134.02 455.546 133.652 455.348C133.284 455.151 132.887 455.052 132.46 455.052C131.954 455.052 131.503 455.175 131.108 455.42C130.719 455.66 130.412 455.98 130.188 456.38C129.964 456.775 129.852 457.202 129.852 457.66V459.972L129.54 459.62C129.876 459.14 130.303 458.756 130.82 458.468C131.338 458.18 131.898 458.036 132.5 458.036C133.215 458.036 133.855 458.204 134.42 458.54C134.991 458.876 135.439 459.332 135.764 459.908C136.095 460.479 136.26 461.122 136.26 461.836C136.26 462.551 136.082 463.199 135.724 463.78C135.367 464.362 134.89 464.826 134.292 465.172C133.7 465.519 133.047 465.692 132.332 465.692ZM132.332 464.316C132.791 464.316 133.21 464.207 133.588 463.988C133.967 463.764 134.266 463.466 134.484 463.092C134.708 462.714 134.82 462.295 134.82 461.836C134.82 461.378 134.708 460.959 134.484 460.58C134.266 460.202 133.967 459.903 133.588 459.684C133.215 459.46 132.799 459.348 132.34 459.348C131.882 459.348 131.463 459.46 131.084 459.684C130.711 459.903 130.412 460.202 130.188 460.58C129.964 460.959 129.852 461.378 129.852 461.836C129.852 462.29 129.962 462.706 130.18 463.084C130.404 463.458 130.703 463.756 131.076 463.98C131.455 464.204 131.874 464.316 132.332 464.316ZM142.23 465.692C141.483 465.692 140.816 465.524 140.23 465.188C139.648 464.847 139.187 464.386 138.846 463.804C138.51 463.218 138.342 462.551 138.342 461.804V457.58C138.342 456.834 138.51 456.167 138.846 455.58C139.187 454.994 139.648 454.532 140.23 454.196C140.816 453.86 141.483 453.692 142.23 453.692C142.976 453.692 143.643 453.86 144.23 454.196C144.816 454.532 145.278 454.994 145.614 455.58C145.95 456.167 146.118 456.834 146.118 457.58V461.804C146.118 462.551 145.95 463.218 145.614 463.804C145.278 464.386 144.816 464.847 144.23 465.188C143.643 465.524 142.976 465.692 142.23 465.692ZM142.23 464.324C142.683 464.324 143.094 464.215 143.462 463.996C143.83 463.778 144.123 463.484 144.342 463.116C144.56 462.743 144.67 462.332 144.67 461.884V457.492C144.67 457.039 144.56 456.628 144.342 456.26C144.123 455.892 143.83 455.599 143.462 455.38C143.094 455.162 142.683 455.052 142.23 455.052C141.782 455.052 141.371 455.162 140.998 455.38C140.63 455.599 140.336 455.892 140.118 456.26C139.899 456.628 139.79 457.039 139.79 457.492V461.884C139.79 462.332 139.899 462.743 140.118 463.116C140.336 463.484 140.63 463.778 140.998 463.996C141.371 464.215 141.782 464.324 142.23 464.324ZM149.637 465.452L148.677 464.492L159.253 453.932L160.213 454.892L149.637 465.452ZM157.813 465.692C157.285 465.692 156.803 465.564 156.365 465.308C155.933 465.047 155.587 464.7 155.325 464.268C155.064 463.831 154.933 463.346 154.933 462.812C154.933 462.29 155.067 461.81 155.333 461.372C155.6 460.935 155.952 460.586 156.389 460.324C156.827 460.063 157.301 459.932 157.813 459.932C158.341 459.932 158.824 460.063 159.261 460.324C159.699 460.58 160.045 460.927 160.301 461.364C160.563 461.796 160.693 462.279 160.693 462.812C160.693 463.346 160.563 463.831 160.301 464.268C160.045 464.7 159.699 465.047 159.261 465.308C158.824 465.564 158.341 465.692 157.813 465.692ZM157.813 464.436C158.107 464.436 158.376 464.362 158.621 464.212C158.872 464.063 159.069 463.866 159.213 463.62C159.363 463.375 159.437 463.106 159.437 462.812C159.437 462.519 159.363 462.25 159.213 462.004C159.069 461.754 158.872 461.556 158.621 461.412C158.376 461.263 158.107 461.188 157.813 461.188C157.52 461.188 157.251 461.263 157.005 461.412C156.76 461.556 156.563 461.754 156.413 462.004C156.264 462.25 156.189 462.519 156.189 462.812C156.189 463.106 156.264 463.375 156.413 463.62C156.563 463.866 156.76 464.063 157.005 464.212C157.251 464.362 157.52 464.436 157.813 464.436ZM151.077 459.452C150.549 459.452 150.067 459.324 149.629 459.068C149.192 458.807 148.843 458.46 148.581 458.028C148.325 457.591 148.197 457.106 148.197 456.572C148.197 456.05 148.331 455.57 148.597 455.132C148.864 454.695 149.216 454.346 149.653 454.084C150.091 453.823 150.565 453.692 151.077 453.692C151.605 453.692 152.085 453.823 152.517 454.084C152.955 454.34 153.304 454.687 153.565 455.124C153.827 455.556 153.957 456.039 153.957 456.572C153.957 457.106 153.827 457.591 153.565 458.028C153.304 458.46 152.955 458.807 152.517 459.068C152.085 459.324 151.605 459.452 151.077 459.452ZM151.077 458.196C151.371 458.196 151.64 458.122 151.885 457.972C152.136 457.823 152.333 457.626 152.477 457.38C152.627 457.135 152.701 456.866 152.701 456.572C152.701 456.279 152.627 456.01 152.477 455.764C152.333 455.514 152.136 455.316 151.885 455.172C151.64 455.023 151.371 454.948 151.077 454.948C150.784 454.948 150.515 455.023 150.269 455.172C150.024 455.316 149.827 455.514 149.677 455.764C149.528 456.01 149.453 456.279 149.453 456.572C149.453 456.866 149.528 457.135 149.677 457.38C149.827 457.626 150.024 457.823 150.269 457.972C150.515 458.122 150.784 458.196 151.077 458.196Z" fill="white"/>
<path d="M402.058 348.178C333.854 351.302 236.761 366.075 196.74 373.071V545.369H979.169V229.083C959.495 258.369 892.905 251.048 842.963 256.905C793.021 262.762 796.047 307.178 775.364 307.178C754.681 307.178 758.717 291.071 738.034 286.678C717.351 282.285 700.199 294.488 669.931 307.178C639.663 319.869 487.313 344.274 402.058 348.178Z" fill="url(#paint1_linear_30511_9929)"/>
<path d="M196.235 374.536C227.512 366.889 308.126 351.4 380.366 350.619C479.242 341.833 627.05 327.678 683.046 300.833C718.359 286.19 732.484 278.381 748.123 293.024C763.761 307.666 777.382 314.5 789.489 296.44C801.596 278.381 809.668 250.559 889.878 254.464C940.829 251.047 972.611 247.631 980.178 225.178" stroke="url(#paint2_linear_30511_9929)" stroke-width="3"/>
<defs>
<filter id="filter0_d_30511_9929" x="0.346874" y="0.299999" width="1134.35" height="738.4" filterUnits="userSpaceOnUse" color-interpolation-filters="sRGB">
<feFlood flood-opacity="0" result="BackgroundImageFix"/>
<feColorMatrix in="SourceAlpha" type="matrix" values="0 0 0 0 0 0 0 0 0 0 0 0 0 0 0 0 0 0 127 0" result="hardAlpha"/>
<feMorphology radius="16" operator="dilate" in="SourceAlpha" result="effect1_dropShadow_30511_9929"/>
<feOffset dy="14"/>
<feGaussianBlur stdDeviation="22.85"/>
<feComposite in2="hardAlpha" operator="out"/>
<feColorMatrix type="matrix" values="0 0 0 0 0 0 0 0 0 0 0 0 0 0 0 0 0 0 0.25 0"/>
<feBlend mode="normal" in2="BackgroundImageFix" result="effect1_dropShadow_30511_9929"/>
<feBlend mode="normal" in="SourceGraphic" in2="effect1_dropShadow_30511_9929" result="shape"/>
</filter>
<filter id="filter1_d_30511_9929" x="0.346874" y="0.299999" width="1134.35" height="738.4" filterUnits="userSpaceOnUse" color-interpolation-filters="sRGB">
<feFlood flood-opacity="0" result="BackgroundImageFix"/>
<feColorMatrix in="SourceAlpha" type="matrix" values="0 0 0 0 0 0 0 0 0 0 0 0 0 0 0 0 0 0 127 0" result="hardAlpha"/>
<feMorphology radius="16" operator="dilate" in="SourceAlpha" result="effect1_dropShadow_30511_9929"/>
<feOffset dy="14"/>
<feGaussianBlur stdDeviation="22.85"/>
<feComposite in2="hardAlpha" operator="out"/>
<feColorMatrix type="matrix" values="0 0 0 0 0 0 0 0 0 0 0 0 0 0 0 0 0 0 0.25 0"/>
<feBlend mode="normal" in2="BackgroundImageFix" result="effect1_dropShadow_30511_9929"/>
<feBlend mode="normal" in="SourceGraphic" in2="effect1_dropShadow_30511_9929" result="shape"/>
</filter>
<linearGradient id="paint0_linear_30511_9929" x1="567.523" y1="48" x2="567.523" y2="663" gradientUnits="userSpaceOnUse">
<stop stop-color="#3E495E"/>
<stop offset="1" stop-color="#191F2C"/>
</linearGradient>
<linearGradient id="paint1_linear_30511_9929" x1="587.955" y1="229.083" x2="587.955" y2="545.369" gradientUnits="userSpaceOnUse">
<stop stop-color="#1E2832"/>
<stop offset="1" stop-color="#2D3545"/>
</linearGradient>
<linearGradient id="paint2_linear_30511_9929" x1="588.206" y1="290.095" x2="588.206" y2="374.536" gradientUnits="userSpaceOnUse">
<stop stop-color="#A96248"/>
<stop offset="1" stop-color="white"/>
</linearGradient>
</defs>
</svg>
