<svg width="328" height="789" viewBox="0 0 328 789" fill="none" xmlns="http://www.w3.org/2000/svg">
<g opacity="0.8">
<path d="M368.305 729.897C366.166 728.138 364.349 725.663 363.056 722.751L155.497 255.554C153.677 251.46 153.045 246.901 153.716 242.718C154.388 238.535 156.285 235.233 159.051 233.414L474.955 25.8668C478.525 23.5234 482.982 24.0378 486.878 27.2421C489.017 29.0016 490.832 31.4709 492.127 34.3882L699.686 501.585C701.506 505.68 702.137 510.233 701.465 514.416C700.794 518.599 698.901 521.9 696.13 523.72L380.227 731.267C376.658 733.616 372.201 733.102 368.305 729.897ZM486.469 28.3618C482.883 25.4128 478.784 24.9414 475.498 27.0994L159.596 234.652C157.047 236.322 155.305 239.365 154.688 243.213C154.07 247.061 154.649 251.253 156.327 255.017L363.886 722.214C365.076 724.893 366.746 727.166 368.715 728.784C372.302 731.733 376.401 732.204 379.688 730.052L695.588 522.493C698.136 520.818 699.879 517.78 700.497 513.932C701.111 510.085 700.535 505.892 698.857 502.129L491.298 34.9313C490.107 32.2462 488.437 29.9737 486.468 28.3561L486.469 28.3618Z" fill="#A1624D"/>
<path d="M356.486 723.391C354.349 721.637 352.548 719.158 351.28 716.227L152.887 258.28C151.147 254.261 150.57 249.815 151.264 245.753C151.958 241.691 153.843 238.506 156.567 236.783L467.054 40.2805C470.514 38.0877 474.813 38.6203 478.562 41.7009C480.701 43.4605 482.5 45.934 483.768 48.8645L682.161 506.811C685.754 515.103 684.104 524.749 678.481 528.308L367.996 724.817C364.538 727.003 360.237 726.477 356.486 723.391ZM478.153 42.8206C474.712 39.9896 470.763 39.5022 467.588 41.5096L157.104 238.024C154.604 239.602 152.873 242.528 152.237 246.254C151.596 249.981 152.126 254.065 153.725 257.753L352.117 715.7C353.283 718.386 354.937 720.663 356.897 722.277C360.337 725.108 364.287 725.595 367.46 723.582L677.946 527.074C683.105 523.802 684.625 514.953 681.325 507.344L482.927 49.3927C481.763 46.7002 480.111 44.4291 478.147 42.816L478.153 42.8206Z" fill="#A1624D"/>
<path d="M344.671 716.9C342.532 715.14 340.749 712.662 339.512 709.717L150.28 261.016C146.851 252.88 148.556 243.528 154.09 240.168L459.152 54.6926C462.503 52.6559 466.649 53.2056 470.242 56.1648C472.379 57.9187 474.164 60.4022 475.405 63.3458L664.633 512.048C666.294 515.992 666.812 520.327 666.095 524.268C665.376 528.204 663.503 531.27 660.825 532.902L355.763 718.377C352.415 720.413 348.27 719.863 344.673 716.905L344.671 716.9ZM469.831 57.2788C466.538 54.5714 462.739 54.068 459.671 55.9316L154.609 241.407C149.541 244.485 147.978 253.055 151.122 260.506L340.353 709.207C341.487 711.902 343.124 714.177 345.084 715.791C348.376 718.499 352.176 719.002 355.239 717.14L660.3 531.659C662.754 530.166 664.468 527.359 665.126 523.748C665.785 520.143 665.309 516.166 663.786 512.554L474.56 63.8571C473.425 61.1627 471.789 58.8873 469.831 57.2788Z" fill="#A1624D"/>
<path d="M332.852 710.399C330.714 708.645 328.944 706.151 327.733 703.193L147.667 263.743C146.082 259.876 145.621 255.646 146.363 251.831C147.108 248.015 148.965 245.068 151.601 243.532L451.251 69.0996C454.488 67.2147 458.475 67.7825 461.921 70.6181C464.055 72.3787 465.828 74.8654 467.041 77.8289L647.106 517.28C650.373 525.254 648.61 534.319 643.171 537.485L343.525 711.916C340.288 713.801 336.301 713.233 332.855 710.398L332.852 710.399ZM461.514 71.731C458.364 69.1426 454.718 68.6221 451.76 70.3475L152.114 244.779C149.705 246.181 148.008 248.874 147.325 252.359C146.647 255.842 147.07 259.713 148.516 263.243L328.583 702.699C329.693 705.4 331.309 707.681 333.258 709.286C336.409 711.874 340.05 712.396 343.008 710.67L642.653 536.233C647.619 533.34 649.232 525.059 646.251 517.769L466.189 78.3176C465.083 75.6157 463.463 73.336 461.514 71.731Z" fill="#A1624D"/>
<path d="M321.031 703.908C318.892 702.149 317.142 699.65 315.956 696.673L145.055 266.467C143.551 262.681 143.144 258.558 143.914 254.868C144.682 251.173 146.529 248.35 149.119 246.904L443.347 83.5111C446.474 81.7767 450.306 82.3559 453.604 85.068C455.743 86.8275 457.497 89.3252 458.678 92.2973L629.578 522.504C631.084 526.295 631.49 530.413 630.722 534.108C629.957 537.802 628.108 540.632 625.518 542.065L331.296 705.463C328.169 707.197 324.336 706.612 321.038 703.9L321.031 703.908ZM453.195 86.1876C450.189 83.7115 446.695 83.1806 443.844 84.7622L149.62 248.154C147.26 249.465 145.575 252.04 144.875 255.408C144.176 258.776 144.548 262.534 145.917 265.982L316.817 696.188C317.891 698.898 319.49 701.178 321.439 702.783C324.443 705.253 327.938 705.784 330.789 704.208L625.013 540.816C627.374 539.505 629.059 536.93 629.757 533.557C630.457 530.188 630.085 526.431 628.714 522.977L457.817 92.7825C456.742 90.072 455.14 87.7936 453.195 86.1876Z" fill="#A1624D"/>
<path d="M309.212 697.416C307.073 695.656 305.336 693.142 304.186 690.156L142.45 269.194C139.506 261.538 141.39 253.051 146.645 250.28L435.445 97.9212C438.456 96.3328 442.131 96.9303 445.281 99.5187C447.42 101.278 449.155 103.787 450.309 106.785L612.044 527.746C613.473 531.456 613.818 535.469 613.03 539.042C612.239 542.616 610.4 545.323 607.855 546.665L319.049 699.019C316.038 700.607 312.36 700.011 309.21 697.423L309.212 697.416ZM444.875 100.637C442.012 98.2802 438.669 97.7389 435.928 99.1823L147.122 251.536C142.345 254.058 140.636 261.773 143.309 268.734L305.045 689.695C306.086 692.409 307.67 694.698 309.614 696.298C312.477 698.655 315.82 699.197 318.561 697.753L607.367 545.399C609.683 544.179 611.354 541.717 612.073 538.47C612.79 535.218 612.477 531.572 611.18 528.202L449.448 107.239C448.406 104.52 446.823 102.237 444.879 100.636L444.875 100.637Z" fill="#A1624D"/>
<path d="M297.392 690.924C295.253 689.164 293.531 686.64 292.413 683.633L139.844 271.922C138.499 268.286 138.205 264.387 139.019 260.933C139.834 257.48 141.662 254.897 144.162 253.645L427.546 112.33C430.486 110.864 433.921 111.459 436.972 113.965C439.117 115.729 440.834 118.249 441.948 121.263L594.522 532.973C597.302 540.474 595.363 548.667 590.198 551.245L306.814 692.56C303.87 694.028 300.436 693.432 297.386 690.919L297.392 690.924ZM436.563 115.085C433.802 112.809 430.687 112.273 428.018 113.6L144.634 254.915C142.368 256.05 140.713 258.393 139.973 261.524C139.233 264.655 139.499 268.187 140.717 271.482L293.286 683.193C294.298 685.926 295.859 688.21 297.797 689.805C300.562 692.08 303.678 692.616 306.342 691.29L589.726 549.975C594.407 547.642 596.164 540.211 593.643 533.409L441.074 121.697C440.062 118.964 438.501 116.681 436.557 115.08L436.563 115.085Z" fill="#A1624D"/>
<path d="M285.568 684.446C283.424 682.682 281.72 680.146 280.638 677.111L137.229 274.646C135.96 271.087 135.729 267.298 136.568 263.971C137.411 260.643 139.225 258.172 141.679 257.024L419.642 126.748C422.468 125.421 425.749 126.033 428.653 128.416C430.797 130.18 432.501 132.715 433.587 135.749L576.992 538.215C578.261 541.774 578.496 545.563 577.653 548.891C576.811 552.219 574.996 554.689 572.538 555.839L294.573 686.121C291.746 687.449 288.465 686.836 285.565 684.453L285.568 684.446ZM428.252 129.533C425.629 127.377 422.659 126.826 420.106 128.02L142.145 258.301C139.923 259.339 138.281 261.57 137.523 264.585C136.764 267.594 136.973 271.021 138.119 274.238L281.528 676.703C282.503 679.446 284.046 681.741 285.984 683.336C288.607 685.492 291.577 686.043 294.13 684.849L572.093 554.574C574.313 553.53 575.955 551.299 576.714 548.29C577.474 545.281 577.265 541.854 576.118 538.637L432.71 136.172C431.734 133.429 430.191 131.134 428.253 129.539L428.252 129.533Z" fill="#A1624D"/>
<path d="M273.748 677.965C271.629 676.218 269.891 673.601 268.866 670.587L134.624 277.373C133.435 273.895 133.258 270.212 134.124 267.005C134.989 263.797 136.794 261.451 139.208 260.397L411.753 141.16C414.458 139.974 417.592 140.595 420.346 142.861C422.463 144.602 424.198 147.226 425.227 150.239L559.471 543.459C560.659 546.937 560.837 550.62 559.971 553.827C559.105 557.035 557.301 559.381 554.886 560.435L282.342 679.672C279.637 680.858 276.503 680.236 273.751 677.976L273.748 677.965ZM419.937 143.968C417.455 141.926 414.629 141.367 412.188 142.434L139.643 261.671C137.471 262.623 135.841 264.736 135.064 267.629C134.282 270.517 134.443 273.842 135.517 276.976L269.76 670.196C270.687 672.916 272.252 675.277 274.161 676.844C276.643 678.887 279.469 679.446 281.909 678.374L554.454 559.136C556.626 558.184 558.256 556.072 559.036 553.177C559.815 550.29 559.655 546.971 558.584 543.83L424.341 150.61C423.414 147.89 421.849 145.529 419.94 143.962L419.937 143.968Z" fill="#A1624D"/>
<path d="M261.921 671.486C259.793 669.735 258.08 667.1 257.088 664.065L132.011 280.095C130.901 276.692 130.783 273.12 131.672 270.034C132.56 266.948 134.358 264.724 136.724 263.762L403.851 155.562C406.441 154.51 409.423 155.142 412.031 157.29C414.155 159.041 415.872 161.676 416.866 164.717L541.943 548.687C544.231 555.709 542.117 563.036 537.228 565.014L270.105 673.212C267.515 674.265 264.533 673.632 261.925 671.485L261.921 671.486ZM411.624 158.403C409.279 156.475 406.6 155.907 404.272 156.852L137.15 265.05C135.022 265.912 133.41 267.911 132.61 270.683C131.811 273.455 131.917 276.667 132.915 279.725L257.992 663.695C258.883 666.425 260.424 668.792 262.334 670.365C264.679 672.293 267.359 672.861 269.686 671.916L536.808 563.712C541.201 561.934 543.099 555.354 541.042 549.037L415.965 165.067C415.074 162.338 413.534 159.97 411.623 158.397L411.624 158.403Z" fill="#A1624D"/>
<path d="M250.094 665.014C247.962 663.264 246.265 660.606 245.316 657.542L129.404 282.816C127.28 275.949 129.453 268.915 134.249 267.137L395.954 169.977C398.426 169.059 401.259 169.695 403.725 171.724C405.858 173.479 407.554 176.131 408.504 179.201L524.415 553.921C526.538 560.788 524.37 567.822 519.57 569.6L257.863 666.755C255.392 667.672 252.562 667.036 250.093 665.008L250.094 665.014ZM403.314 172.838C401.105 171.024 398.569 170.448 396.356 171.272L134.651 268.432C130.355 270.027 128.41 276.329 130.313 282.481L246.225 657.207C247.074 659.954 248.596 662.333 250.505 663.9C252.715 665.719 255.249 666.29 257.463 665.466L519.168 568.305C523.463 566.705 525.409 560.408 523.506 554.256L407.595 179.536C406.747 176.789 405.225 174.411 403.314 172.838Z" fill="#A1624D"/>
<path d="M238.264 658.55C236.119 656.786 234.443 654.11 233.538 651.016L126.792 285.54C124.835 278.835 127.067 272.092 131.772 270.509L388.059 184.387C390.41 183.598 393.091 184.238 395.414 186.148C397.559 187.912 399.235 190.588 400.142 193.688L506.888 559.163C508.845 565.869 506.613 572.611 501.912 574.194L245.625 660.316C243.274 661.105 240.589 660.465 238.264 658.55ZM395.005 187.268C392.932 185.563 390.538 184.991 388.438 185.693L132.151 271.816C127.952 273.227 125.96 279.246 127.708 285.234L234.454 650.709C235.264 653.472 236.76 655.864 238.675 657.436C240.748 659.141 243.142 659.713 245.242 659.01L501.526 572.895C505.725 571.483 507.718 565.464 505.967 559.471L399.221 193.996C398.415 191.231 396.916 188.841 395.001 187.269L395.005 187.268Z" fill="#A1624D"/>
<path d="M226.436 652.083C224.281 650.31 222.625 647.616 221.766 644.485L124.185 288.255C123.316 285.084 123.369 281.841 124.336 279.121C125.3 276.407 127.063 274.543 129.295 273.871L380.161 198.788C382.425 198.108 384.894 198.739 387.109 200.562C389.264 202.336 390.921 205.035 391.78 208.166L489.365 564.395C491.157 570.94 488.867 577.395 484.255 578.779L233.39 653.862C231.124 654.537 228.657 653.911 226.442 652.088L226.436 652.083ZM386.701 201.688C384.732 200.07 382.536 199.505 380.523 200.112L129.657 275.195C127.67 275.789 126.101 277.444 125.247 279.862C124.39 282.281 124.342 285.165 125.116 287.987L222.7 644.21C223.463 646.992 224.936 649.396 226.856 650.973C228.826 652.59 231.021 653.156 233.036 652.554L483.902 577.471C488.002 576.243 490.038 570.503 488.447 564.678L390.866 208.448C390.106 205.665 388.629 203.262 386.713 201.684L386.701 201.688Z" fill="#A1624D"/>
<path d="M214.6 645.633C212.433 643.85 210.795 641.122 209.987 637.959L121.567 290.978C119.94 284.588 122.295 278.43 126.815 277.252L372.266 213.208C374.409 212.651 376.727 213.279 378.802 214.99C380.972 216.771 382.607 219.5 383.415 222.663L471.836 569.65C473.459 576.041 471.109 582.198 466.589 583.376L221.141 647.419C218.999 647.976 216.676 647.348 214.601 645.638L214.6 645.633ZM378.395 216.103C376.556 214.589 374.499 214.029 372.601 214.526L127.154 278.57C123.147 279.616 121.063 285.073 122.504 290.732L210.924 637.713C211.637 640.515 213.087 642.931 215.009 644.513C216.849 646.026 218.906 646.586 220.803 646.089L466.25 582.046C470.258 581 472.343 575.548 470.899 569.878L382.479 222.897C381.766 220.095 380.315 217.679 378.39 216.098L378.395 216.103Z" fill="#A1624D"/>
<path d="M202.767 639.181C200.611 637.408 198.951 634.583 198.215 631.431L118.96 293.694C118.254 290.673 118.421 287.654 119.441 285.185C120.456 282.718 122.197 281.095 124.344 280.622L364.374 227.616C366.391 227.171 368.569 227.802 370.502 229.393C372.657 231.166 374.317 233.992 375.057 237.143L454.312 574.879C455.774 581.113 453.36 586.973 448.933 587.95L208.902 640.95C206.884 641.395 204.706 640.765 202.773 639.174L202.767 639.181ZM370.092 230.513C368.384 229.109 366.46 228.55 364.681 228.943L124.651 281.948C122.759 282.365 121.22 283.794 120.326 285.975C119.428 288.157 119.276 290.822 119.903 293.49L199.158 631.226C199.811 634.007 201.278 636.503 203.178 638.067C204.886 639.471 206.806 640.031 208.589 639.637L448.619 586.632C452.525 585.771 454.655 580.591 453.367 575.09L374.112 237.354C373.459 234.573 371.992 232.076 370.092 230.513Z" fill="#A1624D"/>
<path d="M190.932 632.74C188.76 630.953 187.126 628.097 186.443 624.9L116.354 296.414C115.729 293.474 115.953 290.56 116.997 288.218C118.04 285.87 119.77 284.372 121.87 283.996L356.477 242.029C358.369 241.691 360.401 242.318 362.202 243.8C364.374 245.587 366.011 248.442 366.691 251.639L436.781 580.131C438.076 586.198 435.603 591.772 431.265 592.55L196.658 634.516C194.761 634.85 192.729 634.223 190.933 632.746L190.932 632.74ZM361.791 244.914C360.208 243.615 358.422 243.061 356.759 243.356L122.151 285.323C120.305 285.655 118.784 286.971 117.867 289.031C116.95 291.091 116.75 293.654 117.304 296.238L187.394 624.729C187.994 627.537 189.43 630.048 191.341 631.62C192.92 632.92 194.708 633.467 196.372 633.172L430.979 591.206C434.795 590.526 436.969 585.625 435.829 580.284L365.74 251.798C365.141 248.99 363.703 246.474 361.794 244.907L361.791 244.914Z" fill="#A1624D"/>
<path d="M179.094 626.302C176.901 624.497 175.287 621.604 174.67 618.366L113.746 299.125C112.616 293.213 115.153 287.936 119.399 287.365L348.589 256.436C350.357 256.198 352.246 256.821 353.911 258.188C356.105 259.993 357.718 262.885 358.335 266.124L419.259 585.365C420.385 591.278 417.848 596.554 413.606 597.125L184.416 628.053C182.649 628.292 180.759 627.669 179.094 626.302ZM353.498 259.308C352.039 258.11 350.389 257.568 348.839 257.772L119.649 288.7C115.932 289.203 113.711 293.82 114.7 298.996L175.628 618.236C176.166 621.072 177.578 623.601 179.5 625.183C180.958 626.382 182.609 626.924 184.159 626.72L413.348 595.792C417.061 595.29 419.283 590.673 418.297 585.496L357.373 266.255C356.831 263.42 355.419 260.891 353.498 259.308Z" fill="#A1624D"/>
<path d="M167.25 619.876C165.031 618.053 163.446 615.123 162.898 611.836L111.136 301.846C110.176 296.094 112.772 291.11 116.927 290.744L340.694 270.856C342.357 270.705 344.057 271.307 345.613 272.582C347.832 274.405 349.421 277.334 349.969 280.621L401.728 590.617C402.689 596.369 400.092 601.353 395.938 601.719L172.169 621.602C170.506 621.753 168.802 621.152 167.25 619.876ZM345.206 273.695C343.851 272.584 342.369 272.063 340.919 272.192L117.151 292.081C113.531 292.4 111.269 296.744 112.102 301.762L163.865 611.758C164.342 614.622 165.725 617.171 167.661 618.762C169.016 619.873 170.498 620.394 171.948 620.265L395.717 600.382C399.337 600.063 401.6 595.719 400.762 590.701L349.004 280.705C348.528 277.846 347.14 275.292 345.207 273.701L345.206 273.695Z" fill="#A1624D"/>
<path d="M155.403 613.458C153.188 611.635 151.586 608.588 151.123 605.302L108.526 304.557C107.736 298.965 110.393 294.28 114.454 294.114L332.805 285.269C334.341 285.207 335.905 285.791 337.324 286.958C339.54 288.781 341.142 291.828 341.605 295.114L384.201 595.858C384.992 601.451 382.335 606.136 378.274 606.302L159.924 615.153C158.388 615.214 156.825 614.63 155.403 613.458ZM336.915 288.077C335.68 287.061 334.329 286.553 332.992 286.609L114.641 295.454C111.116 295.597 108.811 299.662 109.498 304.514L152.095 605.259C152.499 608.107 153.887 610.757 155.813 612.339C157.043 613.35 158.398 613.857 159.73 613.802L378.081 604.957C381.6 604.81 383.911 600.749 383.222 595.892L340.63 295.146C340.226 292.298 338.835 289.654 336.914 288.072L336.915 288.077Z" fill="#A1624D"/>
<path d="M143.554 607.045C141.302 605.195 139.73 602.098 139.353 598.765L105.921 307.265C105.301 301.833 108.022 297.444 111.988 297.485L324.916 299.674C326.322 299.689 327.744 300.257 329.038 301.318C331.287 303.169 332.859 306.266 333.246 309.602L366.677 601.102C367.297 606.535 364.576 610.923 360.61 610.882L147.681 608.688C146.274 608.672 144.847 608.1 143.558 607.044L143.554 607.045ZM328.626 302.444C327.515 301.527 326.28 301.037 325.071 301.023L112.141 298.829C108.712 298.794 106.36 302.582 106.899 307.274L140.328 598.769C140.656 601.65 142.016 604.326 143.96 605.926C145.075 606.842 146.306 607.334 147.519 607.346L360.449 609.541C363.878 609.575 366.226 605.788 365.687 601.096L332.256 309.596C331.925 306.716 330.568 304.039 328.621 302.44L328.626 302.444Z" fill="#A1624D"/>
<path d="M131.695 600.65C129.438 598.796 127.861 595.567 127.572 592.229L103.307 309.979C102.853 304.708 105.64 300.622 109.514 300.869L317.024 314.096C318.302 314.176 319.587 314.726 320.751 315.683C323.005 317.539 324.586 320.766 324.875 324.105L349.141 606.36C349.596 611.631 346.808 615.717 342.93 615.471L135.423 602.237C134.145 602.157 132.856 601.608 131.695 600.65ZM320.346 316.801C319.346 315.982 318.238 315.505 317.143 315.437L109.631 302.204C106.301 301.992 103.904 305.508 104.294 310.041L128.559 592.29C128.809 595.204 130.135 597.913 132.105 599.531C133.107 600.356 134.213 600.827 135.308 600.896L342.819 614.128C346.15 614.34 348.547 610.824 348.157 606.292L323.892 324.042C323.641 321.128 322.315 318.419 320.346 316.801Z" fill="#A1624D"/>
<path d="M119.838 594.262C117.537 592.371 115.992 589.085 115.804 585.689L100.704 312.684C100.424 307.572 103.272 303.784 107.054 304.238L309.142 328.503C310.286 328.644 311.44 329.168 312.479 330.02C314.78 331.911 316.325 335.197 316.515 338.598L331.615 611.603C331.899 616.714 329.051 620.502 325.269 620.049L123.179 595.777C122.037 595.643 120.881 595.113 119.842 594.261L119.838 594.262ZM312.071 331.145C311.184 330.416 310.195 329.968 309.215 329.85L107.126 305.579C103.89 305.19 101.452 308.433 101.692 312.8L116.792 585.805C116.951 588.713 118.278 591.525 120.244 593.143C121.132 593.878 122.121 594.326 123.101 594.444L325.191 618.715C328.426 619.104 330.865 615.862 330.623 611.489L315.523 338.484C315.36 335.577 314.036 332.764 312.069 331.14L312.071 331.145Z" fill="#A1624D"/>
</g>
</svg>
