<svg width="457" height="862" viewBox="0 0 457 862" fill="none" xmlns="http://www.w3.org/2000/svg">
<g opacity="0.8">
<path d="M271.387 186.908C271.735 189.655 271.357 192.702 270.298 195.707L100.501 677.913C99.0132 682.14 96.3437 685.888 92.984 688.469C89.6244 691.05 85.9777 692.149 82.717 691.573L-289.468 625.627C-293.673 624.88 -296.561 621.446 -297.194 616.441C-297.542 613.694 -297.166 610.652 -296.105 607.642L-126.308 125.436C-124.82 121.209 -122.154 117.466 -118.794 114.885C-115.434 112.304 -111.791 111.203 -108.527 111.781L263.658 177.727C267.866 178.469 270.754 181.903 271.387 186.908ZM-296.128 615.908C-295.545 620.515 -292.888 623.671 -289.017 624.358L83.1707 690.298C86.1707 690.834 89.5269 689.816 92.6175 687.442C95.7081 685.068 98.1644 681.622 99.5281 677.734L269.325 195.528C270.299 192.762 270.645 189.964 270.324 187.435C269.741 182.829 267.083 179.673 263.216 178.981L-108.975 113.046C-111.978 112.515 -115.331 113.527 -118.422 115.901C-121.509 118.278 -123.969 121.721 -125.332 125.61L-295.13 607.816C-296.106 610.587 -296.452 613.385 -296.131 615.913L-296.128 615.908Z" fill="#A1624D"/>
<path d="M275.515 199.752C275.865 202.494 275.472 205.533 274.383 208.535L104.27 677.722C102.777 681.839 100.144 685.468 96.8509 687.945C93.5574 690.423 90.0006 691.444 86.8375 690.827L-273.828 620.57C-277.849 619.789 -280.61 616.45 -281.221 611.637C-281.568 608.889 -281.178 605.855 -280.089 602.854L-109.976 133.666C-106.897 125.17 -99.0753 119.289 -92.5435 120.561L268.125 190.814C272.14 191.598 274.906 194.933 275.515 199.752ZM-280.154 611.104C-279.596 615.524 -277.059 618.589 -273.372 619.309L87.2985 689.557C90.2001 690.126 93.4665 689.186 96.4872 686.914C99.5116 684.643 101.93 681.31 103.3 677.53L273.412 208.343C274.408 205.59 274.768 202.799 274.451 200.28C273.893 195.86 271.356 192.794 267.666 192.079L-93.0016 121.826C-98.9988 120.664 -106.179 126.055 -109.003 133.853L-279.114 603.047C-280.117 605.804 -280.474 608.59 -280.154 611.111L-280.154 611.104Z" fill="#A1624D"/>
<path d="M279.65 212.582C279.997 215.33 279.593 218.356 278.471 221.347L108.045 677.522C104.952 685.793 97.292 691.422 90.9618 690.067L-258.188 615.514C-262.023 614.695 -264.66 611.449 -265.241 606.831C-265.592 604.088 -265.184 601.057 -264.067 598.064L-93.6364 141.891C-92.1367 137.883 -89.5377 134.375 -86.3106 132.002C-83.0862 129.633 -79.6191 128.689 -76.5508 129.341L272.599 203.894C276.431 204.712 279.068 207.957 279.652 212.577L279.65 212.582ZM-264.178 606.303C-263.643 610.532 -261.225 613.506 -257.716 614.257L91.4346 688.809C97.2328 690.05 104.253 684.892 107.082 677.315L277.509 221.14C278.534 218.402 278.906 215.624 278.589 213.105C278.054 208.876 275.636 205.902 272.13 205.153L-77.0228 130.606C-79.8324 130.007 -83.0053 130.871 -85.9626 133.045C-88.9171 135.214 -91.301 138.433 -92.6732 142.105L-263.101 598.273C-264.126 601.011 -264.498 603.789 -264.178 606.303Z" fill="#A1624D"/>
<path d="M283.782 225.423C284.132 228.166 283.707 231.194 282.558 234.177L111.816 677.333C110.314 681.233 107.745 684.625 104.587 686.89C101.426 689.153 98.0521 690.021 95.0814 689.329L-242.553 610.462C-246.2 609.611 -248.71 606.461 -249.269 602.033C-249.613 599.288 -249.194 596.263 -248.042 593.275L-77.3002 150.118C-74.2014 142.077 -66.6962 136.696 -60.5684 138.128L277.062 216.992C280.71 217.844 283.219 220.994 283.778 225.421L283.782 225.423ZM-248.209 601.503C-247.695 605.548 -245.401 608.429 -242.066 609.205L95.5642 688.07C98.279 688.704 101.361 687.911 104.25 685.846C107.134 683.778 109.484 680.673 110.856 677.114L281.6 233.952C282.647 231.226 283.037 228.458 282.722 225.953C282.208 221.909 279.918 219.029 276.583 218.253L-61.0504 139.394C-66.6482 138.088 -73.5058 143.003 -76.3418 150.35L-247.087 593.504C-248.138 596.228 -248.524 598.998 -248.209 601.503Z" fill="#A1624D"/>
<path d="M287.921 238.257C288.268 241.005 287.825 244.023 286.645 247.002L115.585 677.145C114.08 680.931 111.546 684.209 108.453 686.363C105.358 688.522 102.076 689.308 99.2005 688.58L-226.913 605.408C-230.377 604.523 -232.766 601.471 -233.302 597.235C-233.649 594.488 -233.21 591.467 -232.029 588.495L-60.969 158.352C-59.4608 154.562 -56.9296 151.289 -53.8341 149.13C-50.7423 146.968 -47.4548 146.18 -44.5881 146.915L281.524 230.08C284.988 230.965 287.375 234.023 287.911 238.258L287.921 238.257ZM-232.236 596.702C-231.75 600.566 -229.573 603.351 -226.415 604.157L99.6943 687.327C102.311 687.994 105.303 687.279 108.124 685.31C110.945 683.341 113.254 680.354 114.626 676.907L285.685 246.764C286.765 244.056 287.167 241.3 286.852 238.795C286.363 234.937 284.187 232.152 281.031 231.34L-45.0783 148.17C-47.6947 147.503 -50.6872 148.219 -53.5112 150.193C-56.3323 152.161 -58.6411 155.149 -60.0153 158.601L-231.069 588.734C-232.149 591.442 -232.548 594.199 -232.236 596.702Z" fill="#A1624D"/>
<path d="M292.058 251.092C292.406 253.84 291.943 256.86 290.729 259.821L119.352 676.951C116.237 684.539 109.041 689.417 103.317 687.825L-211.275 600.355C-214.554 599.443 -216.816 596.486 -217.33 592.441C-217.677 589.694 -217.217 586.678 -215.998 583.707L-44.6203 166.577C-43.1125 162.899 -40.6083 159.745 -37.5828 157.687C-34.5536 155.631 -31.3586 154.925 -28.5868 155.696L286.006 243.173C289.286 244.085 291.551 247.044 292.065 251.089L292.058 251.092ZM-216.267 591.906C-215.803 595.586 -213.744 598.275 -210.76 599.107L103.833 686.584C109.038 688.029 115.576 683.593 118.411 676.696L289.788 259.566C290.894 256.879 291.314 254.127 290.999 251.629C290.535 247.949 288.476 245.26 285.492 244.429L-29.1007 156.952C-31.6223 156.249 -34.5279 156.892 -37.2791 158.759C-40.0332 160.632 -42.3086 163.498 -43.6787 166.839L-215.06 583.967C-216.169 586.659 -216.585 589.406 -216.271 591.904L-216.267 591.906Z" fill="#A1624D"/>
<path d="M296.197 263.927C296.544 266.675 296.064 269.693 294.812 272.647L123.119 676.757C121.602 680.324 119.139 683.361 116.176 685.313C113.213 687.265 110.11 687.888 107.433 687.082L-195.639 595.3C-198.783 594.348 -200.872 591.558 -201.371 587.641C-201.719 584.886 -201.238 581.875 -199.979 578.918L-28.2904 174.806C-25.1628 167.443 -18.1281 162.816 -12.6033 164.487L290.469 256.269C293.617 257.223 295.705 260.014 296.198 263.934L296.197 263.927ZM-200.304 587.107C-199.859 590.658 -197.962 593.186 -195.11 594.053L107.962 685.835C110.388 686.565 113.2 685.998 115.888 684.229C118.575 682.46 120.806 679.709 122.183 676.477L293.875 272.367C295.016 269.685 295.448 266.953 295.134 264.462C294.685 260.91 292.788 258.382 289.94 257.517L-13.1318 165.735C-18.1371 164.218 -24.5163 168.415 -27.3527 175.092L-199.045 579.202C-200.186 581.884 -200.618 584.617 -200.304 587.115L-200.304 587.107Z" fill="#A1624D"/>
<path d="M300.348 276.755C300.696 279.509 300.194 282.523 298.898 285.472L126.891 676.571C125.371 680.03 122.937 682.944 120.043 684.788C117.146 686.629 114.131 687.18 111.557 686.33L-179.994 590.243C-182.96 589.268 -184.925 586.57 -185.402 582.844C-185.75 580.089 -185.248 577.076 -183.955 574.125L-11.9449 183.028C-10.4249 179.569 -7.99504 176.653 -5.09752 174.811C-2.19999 172.97 0.815381 172.419 3.39206 173.271L294.95 269.355C297.916 270.33 299.881 273.028 300.354 276.752L300.348 276.755ZM-184.343 582.307C-183.915 585.675 -182.134 588.114 -179.458 588.999L112.096 685.081C114.424 685.852 117.15 685.357 119.77 683.685C122.388 682.018 124.589 679.383 125.964 676.257L297.97 285.158C299.144 282.494 299.597 279.766 299.283 277.276C298.856 273.908 297.075 271.468 294.399 270.583L2.84732 174.496C0.516109 173.731 -2.2091 174.225 -4.82697 175.892C-7.44484 177.56 -9.64515 180.195 -11.0201 183.321L-183.027 574.419C-184.2 577.084 -184.654 579.811 -184.34 582.302L-184.343 582.307Z" fill="#A1624D"/>
<path d="M304.493 289.581C304.834 292.306 304.302 295.402 302.978 298.297L130.656 676.377C129.133 679.721 126.734 682.521 123.903 684.259C121.071 685.997 118.148 686.465 115.669 685.573L-164.365 585.179C-167.146 584.184 -168.998 581.581 -169.445 578.043C-169.789 575.324 -169.25 572.224 -167.93 569.327L4.39455 191.243C5.91776 187.898 8.317 185.098 11.1483 183.36C13.9795 181.622 16.9023 181.154 19.3814 182.046L299.416 282.44C302.197 283.435 304.049 286.038 304.499 289.571L304.493 289.581ZM-168.388 577.518C-167.985 580.707 -166.314 583.054 -163.806 583.954L116.228 684.348C118.461 685.147 121.096 684.73 123.647 683.159C126.198 681.596 128.364 679.068 129.735 676.052L302.059 297.968C303.252 295.354 303.735 292.563 303.423 290.112C303.02 286.924 301.349 284.577 298.839 283.682L18.8044 183.287C16.5716 182.489 13.9362 182.906 11.3818 184.474C8.83381 186.04 6.67145 188.563 5.29404 191.581L-167.03 569.666C-168.224 572.28 -168.707 575.071 -168.394 577.521L-168.388 577.518Z" fill="#A1624D"/>
<path d="M308.646 302.411C308.991 305.145 308.428 308.238 307.065 311.125L134.426 676.191C132.897 679.427 130.531 682.105 127.766 683.739C125.001 685.374 122.167 685.757 119.786 684.832L-148.731 580.131C-151.337 579.118 -153.072 576.611 -153.493 573.259C-153.836 570.527 -153.275 567.433 -151.91 564.54L20.7291 199.474C23.8862 192.797 30.4532 188.92 35.3658 190.838L303.879 295.538C306.485 296.551 308.22 299.058 308.642 302.41L308.646 302.411ZM-152.434 572.729C-152.052 575.741 -150.494 577.993 -148.152 578.904L120.361 683.603C122.499 684.437 125.044 684.09 127.529 682.623C130.013 681.156 132.141 678.748 133.515 675.839L306.154 310.774C307.38 308.177 307.885 305.398 307.576 302.943C307.194 299.931 305.636 297.678 303.294 296.768L34.7779 192.074C30.3623 190.351 24.4652 193.832 21.6246 199.837L-151.015 564.903C-152.241 567.499 -152.746 570.279 -152.436 572.734L-152.434 572.729Z" fill="#A1624D"/>
<path d="M312.802 315.237C313.151 317.973 312.561 321.071 311.147 323.95L138.189 676.002C135.019 682.453 128.61 686.077 123.903 684.077L-133.094 575.071C-135.521 574.041 -137.145 571.633 -137.545 568.466C-137.892 565.725 -137.304 562.632 -135.887 559.748L37.0674 207.701C40.2375 201.25 46.643 197.624 51.354 199.626L308.348 308.638C310.775 309.667 312.395 312.073 312.799 315.242L312.802 315.237ZM-136.482 567.938C-136.121 570.773 -134.673 572.933 -132.497 573.853L124.5 682.86C128.718 684.649 134.459 681.401 137.298 675.622L310.256 323.57C311.525 320.99 312.051 318.215 311.738 315.765C311.38 312.925 309.929 310.77 307.754 309.85L50.7571 200.843C46.5356 199.059 40.7979 202.302 37.9581 208.081L-134.996 560.128C-136.265 562.708 -136.791 565.483 -136.482 567.938Z" fill="#A1624D"/>
<path d="M316.967 328.058C317.315 330.813 316.697 333.91 315.231 336.781L141.958 675.814C138.778 682.034 132.527 685.404 128.018 683.326L-117.461 570.012C-119.712 568.972 -121.222 566.666 -121.601 563.682C-121.949 560.927 -121.331 557.831 -119.862 554.954L53.4106 215.921C56.5908 209.701 62.8422 206.331 67.3471 208.407L312.827 321.721C315.078 322.761 316.591 325.07 316.967 328.058ZM-120.534 563.149C-120.197 565.812 -118.849 567.871 -116.84 568.802L128.64 682.115C132.661 683.971 138.243 680.962 141.082 675.408L314.354 336.375C315.662 333.809 316.216 331.044 315.903 328.586C315.566 325.923 314.218 323.864 312.209 322.933L66.7356 209.617C62.7137 207.761 57.1327 210.77 54.2909 216.329L-118.982 555.362C-120.293 557.926 -120.844 560.694 -120.531 563.151L-120.534 563.149Z" fill="#A1624D"/>
<path d="M321.128 340.88C321.478 343.649 320.833 346.744 319.308 349.61L145.718 675.629C144.173 678.531 141.909 680.853 139.338 682.168C136.774 683.479 134.212 683.624 132.128 682.58L-101.831 564.962C-103.944 563.902 -105.307 561.749 -105.666 558.902C-106.016 556.133 -105.368 553.033 -103.843 550.166L69.7441 224.145C72.9345 218.156 79.0309 215.034 83.3342 217.194L317.293 334.812C319.403 335.877 320.769 338.026 321.128 340.872L321.128 340.88ZM-104.597 558.363C-104.275 560.892 -103.067 562.81 -101.186 563.751L132.773 681.369C134.626 682.301 136.903 682.176 139.184 681.003C141.468 679.833 143.483 677.768 144.857 675.185L318.441 349.169C319.795 346.622 320.374 343.863 320.06 341.398C319.739 338.87 318.531 336.952 316.652 336.006L82.6936 218.388C78.8686 216.465 73.4478 219.242 70.606 224.57L-102.984 550.589C-104.343 553.134 -104.918 555.895 -104.608 558.358L-104.597 558.363Z" fill="#A1624D"/>
<path d="M325.307 353.696C325.659 356.479 324.977 359.588 323.393 362.442L149.491 675.447C146.287 681.209 140.348 684.071 136.253 681.825L-86.192 559.896C-88.1321 558.831 -89.3865 556.781 -89.7211 554.113C-90.0763 551.328 -89.3915 548.221 -87.8071 545.367L86.098 232.357C89.305 226.596 95.2408 223.732 99.3361 225.979L321.777 347.906C323.717 348.971 324.975 351.023 325.31 353.69L325.307 353.696ZM-88.6612 553.584C-88.3625 555.947 -87.2512 557.766 -85.5304 558.707L136.911 680.634C140.542 682.624 145.804 680.087 148.641 674.982L322.544 361.977C323.948 359.451 324.552 356.698 324.241 354.229C323.942 351.865 322.831 350.046 321.11 349.105L98.6688 227.179C95.037 225.188 89.7785 227.721 86.9354 232.835L-86.9669 545.84C-88.3716 548.366 -88.9753 551.119 -88.6604 553.591L-88.6612 553.584Z" fill="#A1624D"/>
<path d="M329.483 366.51C329.832 369.279 329.1 372.473 327.471 375.27L153.251 675.261C151.691 677.942 149.497 680.024 147.06 681.119C144.628 682.215 142.249 682.2 140.362 681.071L-70.5616 554.837C-72.3341 553.776 -73.4852 551.822 -73.7981 549.338C-74.148 546.569 -73.4154 543.375 -71.7904 540.576L102.43 240.585C105.646 235.048 111.425 232.445 115.315 234.774L326.236 361.012C328.009 362.074 329.16 364.027 329.472 366.511L329.483 366.51ZM-72.7317 548.805C-72.453 550.999 -71.4377 552.727 -69.8745 553.662L141.049 679.896C142.712 680.891 144.812 680.908 146.959 679.936C149.11 678.966 151.05 677.132 152.425 674.763L326.645 374.772C328.08 372.301 328.727 369.479 328.419 367.038C328.14 364.844 327.129 363.118 325.562 362.181L114.638 235.948C111.207 233.893 106.102 236.196 103.262 241.081L-70.9578 541.071C-72.393 543.542 -73.0396 546.364 -72.7317 548.805Z" fill="#A1624D"/>
<path d="M333.666 379.318C334.019 382.109 333.246 385.307 331.548 388.101L157.013 675.073C155.449 677.639 153.286 679.605 150.919 680.591C148.549 681.582 146.262 681.484 144.477 680.316L-54.9259 549.778C-56.5337 548.726 -57.5805 546.875 -57.8734 544.561C-58.2258 541.771 -57.4565 538.57 -55.7556 535.778L118.783 248.802C122.006 243.501 127.63 241.145 131.318 243.558L330.721 374.096C332.33 375.156 333.377 377.007 333.669 379.313L333.666 379.318ZM-56.8099 544.033C-56.5504 546.063 -55.632 547.693 -54.2198 548.62L145.183 679.158C146.754 680.184 148.763 680.271 150.844 679.403C152.925 678.534 154.83 676.808 156.201 674.549L330.739 387.572C332.231 385.119 332.909 382.307 332.6 379.852C332.344 377.823 331.419 376.197 330.007 375.27L130.604 244.731C127.362 242.606 122.418 244.678 119.58 249.344L-54.9555 536.316C-56.4473 538.769 -57.1287 541.586 -56.8164 544.036L-56.8099 544.033Z" fill="#A1624D"/>
<path d="M337.854 392.126C338.21 394.944 337.397 398.155 335.623 400.933L160.77 674.891C157.534 679.966 152.067 682.061 148.586 679.562L-39.2996 544.717C-40.749 543.677 -41.6953 541.926 -41.9673 539.79C-42.3231 536.971 -41.5106 533.76 -39.7365 530.982L135.117 257.024C138.357 251.951 143.824 249.856 147.3 252.353L335.186 387.199C336.636 388.239 337.582 389.989 337.854 392.126ZM-40.8974 539.258C-40.6598 541.131 -39.8319 542.659 -38.5643 543.574L149.322 678.419C152.369 680.606 157.154 678.774 159.988 674.33L334.837 400.37C336.393 397.939 337.103 395.13 336.791 392.661C336.554 390.788 335.726 389.261 334.458 388.345L146.572 253.5C143.528 251.315 138.743 253.148 135.906 257.589L-38.9468 531.547C-40.4989 533.981 -41.2086 536.789 -40.8974 539.258Z" fill="#A1624D"/>
<path d="M342.055 404.929C342.418 407.778 341.559 410.997 339.701 413.763L164.537 674.704C161.286 679.546 155.977 681.388 152.705 678.802L-23.66 539.651C-24.972 538.619 -25.7954 537.015 -26.0508 535.02C-26.4135 532.171 -25.5579 528.95 -23.7005 526.183L151.471 265.239C154.721 260.397 160.03 258.556 163.302 261.142L339.665 400.297C340.977 401.33 341.804 402.936 342.055 404.929ZM-24.9909 534.49C-24.7692 536.228 -24.0488 537.624 -22.9057 538.526L153.459 677.676C156.31 679.929 160.938 678.324 163.777 674.102L338.944 413.156C340.564 410.746 341.308 407.943 340.992 405.457C340.77 403.719 340.05 402.323 338.907 401.421L162.544 262.265C159.693 260.013 155.066 261.618 152.231 265.841L-22.9406 526.785C-24.5573 529.191 -25.301 532.001 -24.9881 534.484L-24.9909 534.49Z" fill="#A1624D"/>
<path d="M346.264 417.729C346.623 420.576 345.697 423.891 343.778 426.598L168.295 674.525C165.031 679.134 159.882 680.717 156.816 678.049L-8.0297 534.587C-9.18895 533.577 -9.92473 532.079 -10.1564 530.256C-10.5155 527.409 -9.58912 524.094 -7.67017 521.387L167.812 273.46C171.077 268.851 176.225 267.268 179.292 269.936L344.14 413.393C345.299 414.403 346.035 415.901 346.264 417.729ZM-9.09012 529.723C-8.88957 531.311 -8.25592 532.607 -7.24539 533.484L157.6 676.946C160.26 679.262 164.727 677.889 167.558 673.889L343.041 425.962C344.702 423.613 345.512 420.733 345.198 418.262C344.998 416.682 344.361 415.383 343.354 414.509L178.508 271.046C175.849 268.737 171.381 270.103 168.547 274.108L-6.93917 522.033C-8.60016 524.382 -9.40416 527.259 -9.09293 529.728L-9.09012 529.723Z" fill="#A1624D"/>
<path d="M350.477 430.526C350.845 433.417 349.863 436.748 347.849 439.431L172.048 674.344C168.77 678.72 163.779 680.043 160.924 677.29L7.59631 529.528C6.58419 528.551 5.93973 527.162 5.7272 525.502C5.36312 522.613 6.34557 519.281 8.35505 516.59L184.155 281.677C187.433 277.301 192.425 275.978 195.28 278.73L348.605 426.498C349.617 427.475 350.262 428.871 350.474 430.524L350.477 430.526ZM6.79995 524.966C6.9785 526.395 7.53992 527.6 8.40977 528.44L161.734 676.208C164.204 678.588 168.515 677.448 171.344 673.666L347.142 438.758C348.881 436.438 349.729 433.559 349.415 431.061C349.232 429.629 348.675 428.427 347.801 427.584L194.477 279.817C192.007 277.437 187.7 278.579 184.87 282.361L9.07003 517.274C7.33422 519.595 6.48257 522.473 6.80078 524.973L6.79995 524.966Z" fill="#A1624D"/>
<path d="M354.71 443.317C355.079 446.215 354.009 449.645 351.927 452.271L175.811 674.165C172.523 678.31 167.692 679.368 165.045 676.528L23.2344 524.459C22.3602 523.523 21.8033 522.241 21.6136 520.746C21.2487 517.85 22.3148 514.417 24.3968 511.792L200.515 289.892C203.803 285.747 208.635 284.69 211.286 287.531L353.089 439.604C353.964 440.54 354.524 441.824 354.71 443.317ZM22.6763 520.211C22.841 521.494 23.3192 522.601 24.0686 523.402L165.876 675.477C168.152 677.918 172.309 677.007 175.136 673.443L351.252 451.549C353.07 449.259 353.965 446.378 353.644 443.85C353.482 442.562 353.001 441.46 352.252 440.658L210.444 288.584C208.168 286.143 204.012 287.054 201.184 290.618L25.0683 512.512C23.2504 514.802 22.3547 517.683 22.6763 520.211Z" fill="#A1624D"/>
<path d="M358.947 456.101C359.322 459.056 358.19 462.506 355.996 465.104L179.562 673.985C176.257 677.895 171.586 678.694 169.147 675.767L38.8571 519.393C38.1216 518.505 37.6423 517.332 37.4718 515.999C37.0966 513.044 38.2288 509.595 40.426 506.991L216.859 298.111C220.161 294.199 224.832 293.4 227.271 296.326L357.558 452.706C358.296 453.588 358.773 454.767 358.943 456.099L358.947 456.101ZM38.5409 515.461C38.6853 516.6 39.0969 517.605 39.7286 518.363L170.015 674.743C172.101 677.247 176.1 676.563 178.923 673.222L355.357 464.342C357.237 462.118 358.202 459.163 357.884 456.636C357.743 455.492 357.331 454.488 356.7 453.729L226.413 297.349C224.327 294.845 220.328 295.529 217.502 298.875L41.0686 507.755C39.1919 509.981 38.223 512.935 38.5381 515.466L38.5409 515.461Z" fill="#A1624D"/>
</g>
</svg>
