<svg width="487" height="616" viewBox="0 0 487 616" fill="none" xmlns="http://www.w3.org/2000/svg">
<g opacity="0.8">
<path d="M56.9244 254.818C57.6289 253.056 58.7686 251.702 60.2148 250.905L292.261 122.963C294.295 121.842 296.733 121.907 299.126 123.147C301.519 124.387 303.58 126.655 304.93 129.529L458.962 457.567C460.702 461.274 460.974 465.403 459.691 468.612C458.987 470.374 457.85 471.728 456.401 472.525L224.355 600.467C222.321 601.589 219.886 601.523 217.493 600.283C215.099 599.043 213.04 596.778 211.689 593.901L57.6566 265.863C55.914 262.156 55.6416 258.028 56.9244 254.818ZM459.022 468.064C460.203 465.11 459.951 461.312 458.349 457.901L304.314 129.863C303.074 127.217 301.176 125.132 298.974 123.991C296.772 122.85 294.53 122.788 292.662 123.825L60.6152 251.766C59.2843 252.5 58.2381 253.745 57.5908 255.367C56.4102 258.321 56.6617 262.119 58.2605 265.531L212.299 593.568C213.542 596.214 215.437 598.299 217.639 599.44C219.839 600.577 222.083 600.643 223.951 599.606L455.998 471.665C457.331 470.931 458.378 469.686 459.025 468.063L459.022 468.064Z" fill="#A1624D"/>
<path d="M59.2368 244.931C59.9384 243.17 61.0825 241.831 62.5422 241.06L290.626 120.421C292.628 119.363 295.01 119.464 297.34 120.708C299.669 121.952 301.663 124.192 302.954 127.01L450.213 448.338C451.856 451.92 452.098 455.897 450.865 458.985C450.161 460.747 449.02 462.084 447.56 462.855L219.477 583.495C215.347 585.681 209.815 582.724 207.148 576.905L59.8863 255.578C58.2476 252 58.0009 248.02 59.2368 244.931ZM450.196 458.436C451.33 455.603 451.106 451.949 449.601 448.664L302.337 127.337C301.153 124.75 299.322 122.694 297.185 121.553C295.047 120.408 292.858 120.315 291.021 121.287L62.9378 241.927C61.6004 242.637 60.5497 243.866 59.9032 245.48C58.7695 248.313 58.9935 251.967 60.5012 255.252L207.763 576.579C210.213 581.919 215.289 584.637 219.078 582.629L447.163 461.985C448.505 461.279 449.553 460.05 450.198 458.432L450.196 458.436Z" fill="#A1624D"/>
<path d="M61.5514 235.048C62.2559 233.286 63.4014 231.964 64.8727 231.224L288.995 117.878C293.06 115.825 298.436 118.791 300.982 124.497L441.47 439.109C443.013 442.565 443.227 446.395 442.042 449.354C441.34 451.115 440.192 452.438 438.721 453.181L214.598 566.523C212.627 567.517 210.299 567.377 208.033 566.129C205.77 564.88 203.843 562.668 202.608 559.905L62.1199 245.293C60.5781 241.841 60.3642 238.011 61.5484 235.048L61.5514 235.048ZM441.375 448.805C442.459 446.093 442.263 442.582 440.851 439.419L300.363 124.807C298.031 119.581 293.104 116.863 289.382 118.746L65.2596 232.092C63.9135 232.77 62.8613 233.983 62.2148 235.597C61.1309 238.309 61.3273 241.82 62.738 244.979L203.229 559.591C204.36 562.122 206.123 564.145 208.199 565.29C210.272 566.435 212.408 566.563 214.213 565.651L438.333 452.31C439.679 451.631 440.732 450.418 441.375 448.805Z" fill="#A1624D"/>
<path d="M63.8604 225.156C64.562 223.395 65.7177 222.087 67.1997 221.374L287.359 115.331C289.297 114.397 291.574 114.576 293.773 115.829C295.973 117.086 297.832 119.265 299.009 121.973L432.724 429.879C434.169 433.205 434.354 436.883 433.218 439.721C432.512 441.479 431.361 442.79 429.876 443.504L209.716 549.547C205.721 551.471 200.496 548.493 198.069 542.904L64.355 235.002C62.9101 231.676 62.7259 227.998 63.8615 225.16L63.8604 225.156ZM432.553 439.176C433.589 436.581 433.421 433.218 432.099 430.178L298.385 122.276C297.31 119.8 295.611 117.809 293.602 116.66C291.594 115.515 289.51 115.352 287.741 116.204L67.5787 222.248C66.2261 222.903 65.1686 224.096 64.5257 225.701C63.4898 228.297 63.6564 231.655 64.9783 234.695L198.695 542.597C200.913 547.7 205.686 550.423 209.339 548.669L429.5 442.629C430.853 441.978 431.91 440.781 432.553 439.176Z" fill="#A1624D"/>
<path d="M66.1683 215.266C66.8728 213.504 68.034 212.217 69.5295 211.53L285.729 112.788C287.632 111.919 289.857 112.132 291.99 113.394C294.126 114.655 295.916 116.806 297.037 119.459L423.981 420.65C425.329 423.85 425.487 427.38 424.401 430.097C423.697 431.859 422.537 433.15 421.043 433.833L204.844 532.575C202.938 533.444 200.715 533.23 198.579 531.969C196.444 530.712 194.651 528.557 193.536 525.907L66.5912 224.721C65.2432 221.521 65.0876 217.99 66.1734 215.273L66.1683 215.266ZM423.732 429.548C424.724 427.073 424.581 423.854 423.352 420.937L296.41 119.75C295.391 117.334 293.759 115.371 291.812 114.223C289.865 113.074 287.837 112.88 286.104 113.67L69.9048 212.412C68.5424 213.032 67.4834 214.209 66.8405 215.814C65.8514 218.289 65.9946 221.507 67.2206 224.425L194.163 525.612C195.181 528.028 196.813 529.991 198.763 531.139C200.71 532.288 202.739 532.482 204.474 531.691L420.668 432.95C422.03 432.33 423.088 431.149 423.732 429.548Z" fill="#A1624D"/>
<path d="M68.4743 205.375C69.1788 203.613 70.3503 202.34 71.8556 201.689L284.095 110.248C287.955 108.582 292.876 111.59 295.062 116.948L415.235 411.42C416.488 414.49 416.617 417.869 415.581 420.464C414.877 422.226 413.708 423.498 412.197 424.151L199.958 515.592C198.088 516.401 195.915 516.143 193.844 514.882C191.771 513.617 190.048 511.49 188.989 508.896L68.8171 214.42C67.5642 211.35 67.4344 207.967 68.4703 205.372L68.4743 205.375ZM414.913 419.919C415.857 417.561 415.738 414.486 414.599 411.692L294.428 117.216C292.439 112.345 287.966 109.614 284.457 111.125L72.217 202.566C70.8487 203.153 69.7824 204.315 69.1414 205.916C68.1974 208.274 68.3159 211.349 69.455 214.143L189.627 508.619C190.589 510.98 192.158 512.914 194.04 514.063C195.925 515.211 197.899 515.445 199.598 514.71L411.838 423.273C413.21 422.685 414.273 421.524 414.914 419.923L414.913 419.919Z" fill="#A1624D"/>
<path d="M70.7801 195.481C71.4846 193.719 72.6633 192.461 74.1843 191.844L282.461 107.705C284.3 106.964 286.417 107.253 288.425 108.522C290.434 109.791 292.088 111.89 293.091 114.429L406.491 402.191C407.668 405.176 407.768 408.329 406.765 410.843C406.059 412.61 404.882 413.863 403.357 414.477L195.081 498.62C191.287 500.153 186.521 497.135 184.453 491.891L71.053 204.129C69.8751 201.14 69.7752 197.987 70.7819 195.476L70.7801 195.481ZM406.096 410.295C407.007 408.021 406.915 405.161 405.849 402.452L292.449 114.69C291.54 112.389 290.039 110.488 288.218 109.336C286.397 108.183 284.48 107.922 282.813 108.592L74.5362 192.731C73.1533 193.288 72.0875 194.429 71.4483 196.026C70.5375 198.303 70.6305 201.163 71.6952 203.868L185.095 491.63C186.968 496.383 191.29 499.118 194.731 497.728L403.008 413.589C404.391 413.032 405.456 411.891 406.097 410.29L406.096 410.295Z" fill="#A1624D"/>
<path d="M73.0785 185.585C73.7849 183.818 74.972 182.579 76.5127 181.999L280.828 105.158C282.635 104.477 284.698 104.81 286.64 106.084C288.583 107.361 290.173 109.431 291.114 111.912L397.742 392.959C398.828 395.817 398.899 398.822 397.946 401.215C397.24 402.982 396.053 404.221 394.513 404.804L190.196 481.642C188.39 482.322 186.327 481.994 184.385 480.716C182.442 479.439 180.851 477.369 179.91 474.884L73.2776 193.834C72.1919 190.976 72.1205 187.97 73.0745 185.581L73.0785 185.585ZM397.279 400.675C398.142 398.514 398.075 395.793 397.097 393.212L290.466 112.166C289.616 109.92 288.179 108.048 286.42 106.895C284.664 105.743 282.798 105.443 281.165 106.057L76.8492 182.898C75.4565 183.42 74.3822 184.542 73.7431 186.138C72.8802 188.299 72.9467 191.02 73.9245 193.601L180.553 474.647C181.406 476.893 182.843 478.765 184.599 479.918C186.355 481.071 188.221 481.371 189.854 480.757L394.17 403.916C395.563 403.393 396.637 402.271 397.276 400.675L397.279 400.675Z" fill="#A1624D"/>
<path d="M75.3766 175.69C76.0766 173.946 77.3046 172.687 78.8407 172.157L279.193 102.618C280.965 102.002 282.976 102.369 284.855 103.651C286.734 104.933 288.255 106.975 289.138 109.405L388.996 383.741C389.988 386.464 390.036 389.329 389.129 391.598C388.432 393.341 387.2 394.597 385.665 395.131L185.309 464.67C183.537 465.286 181.526 464.919 179.647 463.637C177.768 462.355 176.247 460.313 175.364 457.883L75.5068 183.548C74.5143 180.824 74.4665 177.959 75.3707 175.691L75.3766 175.69ZM388.467 391.052C389.284 389.007 389.24 386.423 388.347 383.966L288.489 109.63C287.692 107.444 286.323 105.6 284.628 104.448C282.936 103.291 281.12 102.96 279.524 103.518L79.1684 173.057C77.7824 173.537 76.674 174.67 76.047 176.243C75.2291 178.287 75.2733 180.872 76.1699 183.328L176.027 457.664C176.824 459.85 178.194 461.694 179.889 462.85C181.581 464.003 183.393 464.334 184.994 463.78L385.349 394.241C386.735 393.761 387.844 392.628 388.471 391.055L388.467 391.052Z" fill="#A1624D"/>
<path d="M77.6755 165.789C78.3763 164.036 79.6177 162.803 81.1696 162.308L277.562 100.071C279.302 99.5184 281.26 99.925 283.075 101.211C284.89 102.497 286.342 104.515 287.169 106.886L380.255 374.511C381.16 377.106 381.183 379.827 380.323 381.975C379.621 383.724 378.38 384.961 376.826 385.456L180.433 447.694C176.841 448.832 172.532 445.776 170.829 440.878L77.744 173.257C76.8396 170.661 76.8163 167.941 77.6766 165.793L77.6755 165.789ZM379.657 381.43C380.429 379.498 380.408 377.053 379.596 374.721L286.51 107.1C285.769 104.969 284.464 103.158 282.834 102.002C281.203 100.846 279.443 100.48 277.879 100.977L81.4866 163.214C80.0908 163.659 78.9758 164.768 78.3459 166.342C77.5742 168.273 77.5948 170.718 78.4073 173.05L171.496 440.67C173.026 445.072 176.896 447.817 180.127 446.794L376.519 384.556C377.915 384.112 379.03 383.003 379.66 381.429L379.657 381.43Z" fill="#A1624D"/>
<path d="M79.9688 155.89C80.6686 154.133 81.9243 152.918 83.4981 152.468L275.931 97.5326C279.457 96.5267 283.612 99.5967 285.192 104.377L371.507 365.287C372.322 367.751 372.325 370.331 371.513 372.362C370.81 374.12 369.557 375.334 367.981 375.784L175.551 430.72C172.025 431.726 167.87 428.66 166.289 423.875L79.9773 162.964C79.1622 160.5 79.1606 157.924 79.9718 155.889L79.9688 155.89ZM370.846 371.813C371.572 369.994 371.574 367.685 370.842 365.478L284.528 104.568C283.111 100.285 279.388 97.5368 276.229 98.4384L83.7964 153.374C82.3856 153.776 81.2622 154.866 80.6352 156.439C79.9067 158.259 79.9078 160.567 80.6392 162.774L166.954 423.684C168.374 427.966 172.093 430.716 175.253 429.814L367.682 374.879C369.093 374.477 370.216 373.387 370.846 371.813Z" fill="#A1624D"/>
<path d="M82.2592 145.986C82.9655 144.219 84.2337 143.027 85.8293 142.622L274.299 94.9886C277.757 94.1159 281.759 97.1992 283.22 101.866L362.765 356.065C363.493 358.397 363.474 360.833 362.71 362.747C362.004 364.513 360.736 365.706 359.137 366.111L170.667 413.744C167.209 414.617 163.208 411.534 161.747 406.871L82.2029 152.671C81.474 150.34 81.4919 147.9 82.2592 145.986ZM362.041 362.198C362.723 360.49 362.74 358.316 362.09 356.233L282.546 102.034C281.243 97.8699 277.671 95.117 274.583 95.8973L86.113 143.531C84.6883 143.894 83.5544 144.957 82.9255 146.535C82.2432 148.243 82.2259 150.417 82.8761 152.5L162.416 406.695C163.72 410.86 167.292 413.613 170.383 412.832L358.852 365.198C360.278 364.839 361.411 363.772 362.04 362.194L362.041 362.198Z" fill="#A1624D"/>
<path d="M84.5502 136.081C85.2603 134.306 86.5408 133.135 88.1624 132.78L272.672 92.4477C274.314 92.0882 276.112 92.6085 277.734 93.9152C279.353 95.2186 280.603 97.1519 281.252 99.3544L354.024 346.839C354.683 349.073 354.643 351.31 353.912 353.134C353.202 354.91 351.919 356.081 350.297 356.436L165.788 396.772C162.398 397.512 158.548 394.416 157.208 389.866L84.4362 142.381C83.7808 140.147 83.818 137.91 84.5484 136.086L84.5502 136.081ZM353.24 352.586C353.887 350.964 353.925 348.976 353.339 346.988L280.566 99.5038C279.99 97.5435 278.881 95.823 277.439 94.6672C275.996 93.5075 274.398 93.0439 272.936 93.3643L88.4307 133.7C86.99 134.016 85.8466 135.056 85.2158 136.639C84.5685 138.261 84.5304 140.249 85.1141 142.237L157.886 389.722C159.076 393.767 162.5 396.52 165.517 395.865L350.027 355.533C351.469 355.221 352.611 354.176 353.243 352.598L353.24 352.586Z" fill="#A1624D"/>
<path d="M86.8461 126.181C87.5598 124.397 88.8614 123.247 90.5069 122.945L271.033 89.9138C274.358 89.3069 278.052 92.4205 279.266 96.854L345.26 337.607C345.835 339.708 345.778 341.804 345.092 343.512C344.38 345.3 343.077 346.446 341.431 346.748L160.902 379.78C157.576 380.383 153.884 377.273 152.669 372.839L86.6761 132.09C86.1012 129.989 86.1579 127.89 86.8431 126.181L86.8461 126.181ZM344.427 342.967C345.033 341.452 345.085 339.593 344.574 337.732L278.581 96.9826C277.503 93.052 274.23 90.2951 271.286 90.8326L90.7593 123.864C89.3017 124.13 88.1489 125.147 87.5153 126.729C86.9094 128.245 86.8569 130.103 87.3683 131.964L153.362 372.714C154.439 376.644 157.709 379.402 160.659 378.863L341.186 345.832C342.644 345.566 343.796 344.549 344.429 342.962L344.427 342.967Z" fill="#A1624D"/>
<path d="M89.1298 116.27C89.8398 114.495 91.1925 113.339 92.8408 113.103L269.408 87.3727C270.987 87.1452 272.675 87.7404 274.165 89.0603C275.654 90.3763 276.767 92.2531 277.297 94.3464L336.52 328.385C337.017 330.352 336.941 332.315 336.304 333.906C335.594 335.682 334.241 336.837 332.594 337.078L156.027 362.808C152.768 363.282 149.231 360.154 148.139 355.838L88.919 121.798C88.4215 119.831 88.4977 117.869 89.1349 116.277L89.1298 116.27ZM335.635 333.358C336.196 331.951 336.265 330.217 335.826 328.483L276.603 94.4436C276.136 92.5986 275.155 90.9402 273.84 89.7809C272.523 88.6176 271.033 88.0875 269.638 88.2915L93.0715 114.022C91.6173 114.233 90.4224 115.254 89.7962 116.819C89.2345 118.226 89.1647 119.956 89.6048 121.694L148.828 355.733C149.791 359.542 152.916 362.302 155.792 361.885L332.359 336.155C333.814 335.944 335.009 334.923 335.635 333.358Z" fill="#A1624D"/>
<path d="M91.4031 106.355C92.1186 104.567 93.4917 103.44 95.1711 103.26L267.776 84.8314C269.321 84.6685 270.958 85.3025 272.381 86.6271C273.807 87.9511 274.851 89.8 275.32 91.8346L327.772 319.16C328.195 320.992 328.103 322.817 327.51 324.301C326.794 326.09 325.422 327.22 323.742 327.397L151.134 345.826C147.946 346.166 144.56 343.026 143.589 338.822L91.1374 111.497C90.7162 109.66 90.809 107.835 91.4001 106.356L91.4031 106.355ZM326.843 323.752C327.363 322.448 327.446 320.844 327.075 319.233L274.623 91.9077C274.209 90.1187 273.293 88.4932 272.041 87.3298C270.789 86.1663 269.349 85.6058 267.992 85.753L95.3842 104.182C93.9089 104.34 92.7022 105.33 92.0723 106.904C91.552 108.204 91.473 109.811 91.8437 111.423L144.296 338.748C145.147 342.445 148.124 345.205 150.931 344.906L323.536 326.477C325.011 326.319 326.22 325.328 326.847 323.755L326.843 323.752Z" fill="#A1624D"/>
<path d="M93.6774 96.4386C94.4003 94.632 95.7958 93.5304 97.5065 93.418L266.152 82.2907C269.274 82.0826 272.504 85.2407 273.35 89.3279L319.032 309.943C319.384 311.644 319.276 313.336 318.729 314.707C318.006 316.514 316.611 317.615 314.9 317.728L146.255 328.855C143.131 329.059 139.901 325.901 139.057 321.818L93.3748 101.203C93.0223 99.5016 93.1305 97.8099 93.6774 96.4386ZM318.059 314.155C318.539 312.954 318.632 311.476 318.325 309.984L272.644 89.3696C271.902 85.7914 269.076 83.0267 266.342 83.2091L97.698 94.3403C96.1993 94.4364 94.9792 95.4006 94.3456 96.9832C93.8659 98.1844 93.7725 99.6622 94.0789 101.154L139.761 321.768C140.501 325.342 143.327 328.107 146.062 327.929L314.707 316.801C316.205 316.702 317.425 315.737 318.059 314.155Z" fill="#A1624D"/>
<path d="M95.9426 86.5147C96.6718 84.6862 98.0917 83.6171 99.8379 83.5765L264.52 79.7469C267.575 79.6758 270.651 82.8472 271.371 86.8181L310.282 300.719C310.572 302.308 310.453 303.824 309.943 305.106C309.213 306.934 307.795 308.007 306.048 308.048L141.363 311.874C138.307 311.945 135.231 308.774 134.511 304.803L95.6031 90.9019C95.3127 89.3123 95.4315 87.7923 95.9426 86.5147ZM309.277 304.561C309.722 303.445 309.825 302.122 309.572 300.736L270.662 86.8358C270.034 83.3762 267.353 80.6121 264.686 80.6698L100.002 84.4999C98.4798 84.5343 97.2451 85.4683 96.6089 87.0638C96.1642 88.1797 96.0617 89.5022 96.3141 90.8882L135.222 304.789C135.85 308.249 138.53 311.013 141.196 310.951L305.881 307.125C307.401 307.091 308.637 306.153 309.274 304.561L309.277 304.561Z" fill="#A1624D"/>
<path d="M98.2053 76.5872C98.9356 74.7626 100.418 73.6939 102.174 73.7341L262.896 77.2057C265.885 77.2717 268.803 80.4569 269.402 84.311L301.539 291.502C301.765 292.959 301.638 294.348 301.171 295.518C300.44 297.343 298.959 298.412 297.202 298.371L136.48 294.9C133.491 294.834 130.573 291.649 129.974 287.795L97.8341 80.6043C97.6083 79.1469 97.7356 77.7576 98.2053 76.5872ZM300.502 294.97C300.909 293.952 301.02 292.752 300.822 291.483L268.685 84.2927C268.166 80.9484 265.634 78.1845 263.041 78.1286L102.319 74.6571C100.797 74.6253 99.5071 75.5493 98.8746 77.1358C98.4694 78.1489 98.3587 79.353 98.5556 80.6175L130.693 287.808C131.213 291.148 133.744 293.916 136.34 293.972L297.063 297.447C298.585 297.479 299.871 296.552 300.504 294.969L300.502 294.97Z" fill="#A1624D"/>
<path d="M100.463 66.6563C101.203 64.8009 102.717 63.7674 104.51 63.8955L261.272 74.6683C264.194 74.8713 266.957 78.0744 267.429 81.8082L292.798 282.284C292.965 283.608 292.829 284.867 292.405 285.933C291.663 287.785 290.15 288.818 288.356 288.699L131.594 277.926C128.672 277.723 125.909 274.52 125.437 270.786L100.071 70.3094C99.9041 68.9854 100.042 67.7222 100.464 66.6603L100.463 66.6563ZM291.732 285.381C292.099 284.467 292.216 283.373 292.072 282.234L266.706 81.758C266.297 78.5289 263.913 75.7612 261.389 75.5885L104.63 64.8152C103.08 64.7061 101.772 65.6004 101.131 67.2009C100.765 68.1197 100.647 69.2094 100.791 70.3517L126.158 270.828C126.567 274.057 128.95 276.821 131.474 276.994L288.236 287.767C289.785 287.872 291.093 286.981 291.733 285.377L291.732 285.381Z" fill="#A1624D"/>
<path d="M102.71 56.7145C103.452 54.8546 105.038 53.836 106.845 54.0483L259.645 72.1228C262.499 72.459 265.103 75.6805 265.449 79.2979L284.048 273.064C284.163 274.257 284.02 275.389 283.637 276.348C282.894 278.204 281.309 279.227 279.502 279.014L126.699 260.94C123.846 260.604 121.242 257.383 120.894 253.761L102.299 59.9991C102.184 58.8056 102.326 57.6698 102.71 56.7145ZM282.969 275.803C283.297 274.979 283.422 274.004 283.323 272.981L264.727 79.2146C264.428 76.1047 262.188 73.3339 259.734 73.0443L106.934 54.9698C105.357 54.7833 104.027 55.6407 103.379 57.2631C103.049 58.0881 102.927 59.0628 103.026 60.0857L121.621 253.852C121.92 256.962 124.16 259.733 126.614 260.022L279.414 278.097C280.991 278.283 282.322 277.426 282.969 275.803Z" fill="#A1624D"/>
<path d="M104.953 46.7713C105.71 44.8754 107.331 43.8955 109.183 44.2109L258.023 69.5866C260.811 70.0638 263.257 73.2992 263.479 76.8003L275.306 263.852C275.372 264.91 275.226 265.922 274.886 266.778C274.129 268.674 272.508 269.654 270.653 269.339L121.813 243.964C119.026 243.49 116.58 240.255 116.358 236.754L104.534 49.7019C104.465 48.6441 104.614 47.6311 104.954 46.7753L104.953 46.7713ZM274.213 266.23C274.505 265.5 274.629 264.632 274.572 263.725L262.747 76.6732C262.558 73.6786 260.464 70.9085 258.082 70.5014L109.242 45.1257C107.656 44.8539 106.27 45.6974 105.621 47.3159C105.326 48.0471 105.203 48.9148 105.26 49.8217L117.084 236.874C117.273 239.868 119.368 242.638 121.752 243.045L270.593 268.421C272.177 268.688 273.565 267.849 274.216 266.23L274.213 266.23Z" fill="#A1624D"/>
</g>
</svg>
