<svg width="300" height="583" viewBox="0 0 300 583" fill="none" xmlns="http://www.w3.org/2000/svg">
<mask id="mask0_30527_594" style="mask-type:alpha" maskUnits="userSpaceOnUse" x="0" y="0" width="300" height="583">
<rect y="0.0537109" width="299.051" height="582.946" fill="#D9D9D9"/>
</mask>
<g mask="url(#mask0_30527_594)">
<g opacity="0.8">
<path d="M-149.106 211.18C-148.402 209.418 -147.262 208.064 -145.816 207.267L86.2305 79.3251C88.264 78.2033 90.702 78.2685 93.0953 79.5087C95.4887 80.7489 97.5491 83.0171 98.8989 85.8904L252.931 413.929C254.671 417.636 254.943 421.764 253.661 424.974C252.956 426.736 251.819 428.089 250.37 428.887L18.3238 556.829C16.2902 557.951 13.8552 557.885 11.4618 556.645C9.06843 555.404 7.00914 553.14 5.65822 550.263L-148.374 222.225C-150.117 218.518 -150.389 214.389 -149.106 211.18ZM252.991 424.426C254.172 421.471 253.92 417.674 252.319 414.262L98.2833 86.2247C97.043 83.5784 95.145 81.4937 92.9433 80.3529C90.7416 79.2121 88.4995 79.1501 86.6309 80.1863L-145.416 208.128C-146.746 208.862 -147.793 210.106 -148.44 211.729C-149.621 214.683 -149.369 218.48 -147.77 221.893L6.26798 549.93C7.51123 552.576 9.40625 554.661 11.608 555.802C13.8086 556.939 16.0518 557.004 17.9204 555.968L249.967 428.026C251.301 427.292 252.347 426.047 252.994 424.425L252.991 424.426Z" fill="#A1624D"/>
<path d="M-146.793 201.292C-146.092 199.531 -144.948 198.193 -143.488 197.422L84.5954 76.7823C86.5972 75.7245 88.9801 75.8253 91.3096 77.0696C93.6391 78.3138 95.6328 80.5537 96.9241 83.3721L244.183 404.7C245.826 408.282 246.068 412.258 244.835 415.347C244.131 417.108 242.99 418.446 241.53 419.217L13.4463 539.857C9.31661 542.042 3.78483 539.086 1.11762 533.267L-146.144 211.94C-147.783 208.362 -148.029 204.381 -146.793 201.292ZM244.166 414.798C245.3 411.965 245.076 408.311 243.571 405.025L96.3063 83.6986C95.1227 81.1116 93.2914 79.0553 91.1546 77.9143C89.0167 76.7694 86.8279 76.6765 84.991 77.6486L-143.092 198.288C-144.43 198.998 -145.481 200.228 -146.127 201.842C-147.261 204.675 -147.037 208.329 -145.529 211.614L1.73248 532.941C4.18292 538.281 9.25853 540.999 13.0478 538.991L241.133 418.347C242.475 417.64 243.522 416.412 244.168 414.794L244.166 414.798Z" fill="#A1624D"/>
<path d="M-144.479 191.409C-143.774 189.648 -142.629 188.326 -141.158 187.586L82.9651 74.2397C87.0296 72.1867 92.4061 75.1524 94.9521 80.8584L235.44 395.471C236.983 398.927 237.197 402.756 236.011 405.715C235.31 407.477 234.161 408.799 232.691 409.543L8.56724 522.885C6.59709 523.879 4.26828 523.739 2.00264 522.49C-0.260099 521.241 -2.18704 519.03 -3.42265 516.267L-143.91 201.655C-145.452 198.202 -145.666 194.373 -144.482 191.41L-144.479 191.409ZM235.345 405.166C236.429 402.454 236.232 398.944 234.821 395.781L94.3328 81.1686C92.0007 75.9422 87.0737 73.2244 83.3519 75.1076L-140.771 188.453C-142.117 189.132 -143.169 190.345 -143.815 191.959C-144.899 194.671 -144.703 198.181 -143.292 201.341L-2.80155 515.952C-1.67068 518.483 0.0927238 520.507 2.16858 521.652C4.24153 522.797 6.37813 522.925 8.18228 522.013L232.303 408.671C233.649 407.993 234.701 406.78 235.345 405.166Z" fill="#A1624D"/>
<path d="M-142.17 181.518C-141.468 179.757 -140.313 178.449 -138.831 177.736L81.3289 71.6924C83.2663 70.7587 85.544 70.9377 87.7429 72.1907C89.9429 73.4477 91.802 75.6267 92.9791 78.3349L226.694 386.241C228.139 389.567 228.323 393.245 227.188 396.083C226.482 397.841 225.33 399.152 223.845 399.865L3.68598 505.909C-0.309224 507.833 -5.53455 504.854 -7.96122 499.266L-141.675 191.364C-143.12 188.038 -143.304 184.36 -142.169 181.522L-142.17 181.518ZM226.522 395.538C227.558 392.942 227.391 389.58 226.069 386.54L92.3547 78.6379C91.2795 76.1622 89.5809 74.1712 87.5718 73.022C85.5638 71.8768 83.4794 71.7141 81.7109 72.5654L-138.452 178.61C-139.804 179.265 -140.862 180.458 -141.505 182.063C-142.541 184.658 -142.374 188.017 -141.052 191.057L-7.335 498.958C-5.11741 504.062 -0.343775 506.785 3.30875 505.031L223.469 398.991C224.823 398.34 225.88 397.143 226.522 395.538Z" fill="#A1624D"/>
<path d="M-139.862 171.628C-139.157 169.866 -137.996 168.578 -136.501 167.891L79.6985 69.1494C81.6013 68.2803 83.8268 68.4942 85.96 69.7558C88.0961 71.0168 89.8857 73.168 91.0071 75.8209L217.95 377.012C219.298 380.212 219.457 383.742 218.371 386.458C217.667 388.22 216.506 389.512 215.013 390.194L-1.18652 488.936C-3.0922 489.806 -5.31481 489.592 -7.45095 488.331C-9.58597 487.073 -11.3795 484.919 -12.494 482.269L-139.439 181.083C-140.787 177.882 -140.943 174.352 -139.857 171.635L-139.862 171.628ZM217.702 385.91C218.694 383.435 218.551 380.216 217.322 377.299L90.3794 76.112C89.3609 73.6957 87.7291 71.7331 85.782 70.5843C83.8349 69.4356 81.8066 69.2413 80.0739 70.0319L-136.125 168.774C-137.488 169.394 -138.547 170.571 -139.19 172.176C-140.179 174.65 -140.036 177.869 -138.81 180.787L-11.8674 481.974C-10.8489 484.39 -9.21704 486.353 -7.267 487.501C-5.3199 488.65 -3.29168 488.844 -1.55605 488.053L214.637 389.312C216 388.692 217.058 387.511 217.702 385.91Z" fill="#A1624D"/>
<path d="M-137.556 161.737C-136.852 159.975 -135.681 158.702 -134.175 158.05L78.0643 66.6097C81.9239 64.9438 86.845 67.9522 89.0312 73.3102L209.205 367.782C210.458 370.852 210.586 374.23 209.55 376.826C208.846 378.587 207.677 379.86 206.166 380.513L-6.07324 471.953C-7.94319 472.762 -10.1158 472.505 -12.187 471.244C-14.2593 469.979 -15.9832 467.852 -17.042 465.257L-137.214 170.781C-138.467 167.711 -138.596 164.329 -137.56 161.734L-137.556 161.737ZM208.882 376.281C209.826 373.923 209.708 370.848 208.569 368.054L88.397 73.5778C86.4082 68.7068 81.9354 65.9755 78.4258 67.4867L-133.814 158.927C-135.182 159.515 -136.248 160.677 -136.889 162.278C-137.833 164.636 -137.715 167.711 -136.576 170.505L-16.4042 464.981C-15.4413 467.342 -13.8732 469.275 -11.991 470.424C-10.1059 471.573 -8.13168 471.806 -6.43287 471.072L205.808 379.635C207.179 379.047 208.242 377.886 208.883 376.285L208.882 376.281Z" fill="#A1624D"/>
<path d="M-135.25 151.843C-134.546 150.081 -133.367 148.823 -131.846 148.205L76.4306 64.0668C78.2699 63.3258 80.3864 63.6146 82.3948 64.8839C84.4033 66.1531 86.0576 68.2519 87.0607 70.7912L200.461 358.553C201.637 361.538 201.737 364.691 200.735 367.205C200.028 368.971 198.851 370.225 197.326 370.839L-10.9491 454.981C-14.7435 456.515 -19.5094 453.497 -21.5774 448.252L-134.977 160.491C-136.155 157.502 -136.255 154.349 -135.248 151.838L-135.25 151.843ZM200.065 366.656C200.977 364.383 200.884 361.523 199.818 358.813L86.4185 71.0521C85.5094 68.7511 84.0091 66.8498 82.1878 65.6974C80.3666 64.5449 78.4496 64.2836 76.7825 64.954L-131.494 149.093C-132.877 149.65 -133.943 150.791 -134.582 152.387C-135.493 154.665 -135.4 157.525 -134.335 160.23L-20.9352 447.992C-19.0627 452.745 -14.7403 455.48 -11.2992 454.09L196.977 369.951C198.36 369.394 199.426 368.253 200.067 366.652L200.065 366.656Z" fill="#A1624D"/>
<path d="M-132.952 141.946C-132.245 140.18 -131.058 138.941 -129.518 138.361L74.7979 61.5201C76.6045 60.8392 78.668 61.1714 80.6097 62.4454C82.5524 63.7232 84.143 65.793 85.0835 68.2741L191.712 349.321C192.797 352.179 192.869 355.184 191.916 357.577C191.209 359.343 190.022 360.583 188.483 361.166L-15.8339 438.003C-17.6405 438.684 -19.7029 438.356 -21.6456 437.078C-23.5884 435.8 -25.1789 433.73 -26.1206 431.245L-132.753 150.196C-133.838 147.337 -133.91 144.332 -132.956 141.943L-132.952 141.946ZM191.249 357.036C192.111 354.876 192.045 352.155 191.067 349.574L84.4362 68.5277C83.5857 66.2815 82.1491 64.4092 80.3898 63.2572C78.6335 62.1045 76.7676 61.8043 75.1344 62.4185L-129.181 139.26C-130.574 139.782 -131.648 140.904 -132.287 142.5C-133.15 144.66 -133.084 147.381 -132.106 149.963L-25.4777 431.009C-24.6242 433.255 -23.1877 435.127 -21.4313 436.28C-19.675 437.432 -17.8092 437.733 -16.1759 437.118L188.14 360.277C189.532 359.755 190.607 358.633 191.246 357.037L191.249 357.036Z" fill="#A1624D"/>
<path d="M-130.654 132.052C-129.954 130.308 -128.726 129.048 -127.19 128.519L73.163 58.98C74.9349 58.3638 76.9462 58.7309 78.8251 60.0128C80.7041 61.2947 82.225 63.3367 83.1081 65.7669L182.965 340.103C183.958 342.826 184.006 345.691 183.099 347.959C182.401 349.703 181.17 350.959 179.634 351.492L-20.721 421.032C-22.4929 421.648 -24.5042 421.281 -26.3832 419.999C-28.2621 418.717 -29.783 416.675 -30.6661 414.245L-130.523 139.909C-131.516 137.186 -131.564 134.321 -130.66 132.053L-130.654 132.052ZM182.436 347.414C183.254 345.369 183.21 342.785 182.316 340.328L82.4589 65.992C81.6622 63.8056 80.2923 61.9618 78.598 60.8096C76.9055 59.6528 75.09 59.3222 73.4936 59.8796L-126.862 129.419C-128.248 129.899 -129.356 131.031 -129.983 132.605C-130.801 134.649 -130.757 137.233 -129.86 139.69L-30.003 414.026C-29.2063 416.212 -27.8364 418.056 -26.141 419.212C-24.4496 420.365 -22.637 420.696 -21.0366 420.142L179.319 350.602C180.705 350.123 181.813 348.99 182.44 347.417L182.436 347.414Z" fill="#A1624D"/>
<path d="M-128.355 122.151C-127.654 120.398 -126.413 119.165 -124.861 118.67L71.5314 56.4324C73.2716 55.8802 75.2289 56.2867 77.044 57.5728C78.8591 58.8588 80.3114 60.8768 81.1378 63.2477L174.224 330.872C175.129 333.468 175.152 336.189 174.292 338.337C173.59 340.086 172.35 341.323 170.795 341.818L-25.5978 404.056C-29.1895 405.194 -33.499 402.137 -35.2013 397.24L-128.287 129.619C-129.191 127.023 -129.214 124.302 -128.354 122.155L-128.355 122.151ZM173.627 337.791C174.398 335.859 174.378 333.415 173.565 331.083L80.4796 63.4621C79.7384 61.3311 78.4334 59.5202 76.8029 58.3638C75.1724 57.2075 73.412 56.8414 71.8484 57.3388L-124.544 119.576C-125.94 120.02 -127.055 121.13 -127.685 122.703C-128.457 124.635 -128.436 127.08 -127.623 129.412L-34.535 397.032C-33.0046 401.434 -29.1346 404.178 -25.9038 403.155L170.489 340.918C171.885 340.474 173 339.365 173.629 337.791L173.627 337.791Z" fill="#A1624D"/>
<path d="M-126.062 112.252C-125.362 110.495 -124.106 109.28 -122.533 108.83L69.8998 53.8943C73.4262 52.8884 77.5816 55.9584 79.1617 60.7391L165.476 321.649C166.292 324.113 166.294 326.693 165.482 328.724C164.779 330.481 163.527 331.696 161.95 332.146L-30.4797 387.081C-34.0061 388.087 -38.1605 385.021 -39.7416 380.237L-126.053 119.326C-126.869 116.862 -126.87 114.286 -126.059 112.251L-126.062 112.252ZM164.816 328.175C165.541 326.355 165.543 324.047 164.812 321.84L78.4969 60.93C77.08 56.647 73.3574 53.8985 70.1981 54.8001L-122.234 109.736C-123.645 110.137 -124.769 111.228 -125.396 112.801C-126.124 114.621 -126.123 116.929 -125.392 119.136L-39.0768 380.046C-37.6569 384.328 -33.9373 387.077 -30.778 386.176L161.652 331.24C163.062 330.839 164.186 329.749 164.816 328.175Z" fill="#A1624D"/>
<path d="M-123.772 102.347C-123.065 100.581 -121.797 99.3883 -120.201 98.984L68.2683 51.3503C71.7265 50.4776 75.7279 53.5609 77.1897 58.228L156.734 312.427C157.463 314.759 157.444 317.195 156.679 319.109C155.973 320.875 154.705 322.068 153.106 322.472L-35.3635 370.106C-38.8217 370.979 -42.823 367.896 -44.2838 363.232L-123.828 109.033C-124.557 106.701 -124.539 104.262 -123.772 102.347ZM156.01 318.56C156.692 316.852 156.71 314.678 156.059 312.595L76.5154 58.3959C75.212 54.2316 71.6398 51.4787 68.5519 52.259L-119.918 99.8927C-121.342 100.256 -122.476 101.319 -123.105 102.896C-123.788 104.604 -123.805 106.779 -123.155 108.861L-43.6146 363.057C-42.3111 367.222 -38.739 369.974 -35.6482 369.194L152.822 321.56C154.247 321.201 155.38 320.134 156.009 318.556L156.01 318.56Z" fill="#A1624D"/>
<path d="M-121.481 92.4427C-120.77 90.6674 -119.49 89.4971 -117.868 89.1415L66.6416 48.8094C68.2837 48.4499 70.0808 48.9702 71.7036 50.2769C73.3224 51.5803 74.5718 53.5136 75.2214 55.7161L147.994 303.201C148.652 305.434 148.612 307.671 147.881 309.496C147.171 311.271 145.888 312.442 144.266 312.798L-40.2425 353.134C-43.6326 353.873 -47.4828 350.777 -48.8223 346.227L-121.595 98.7428C-122.25 96.5083 -122.213 94.2719 -121.482 92.4472L-121.481 92.4427ZM147.209 308.948C147.856 307.326 147.895 305.337 147.308 303.35L74.5357 55.8655C73.9596 53.9052 72.8499 52.1847 71.4084 51.0289C69.9657 49.8692 68.3669 49.4056 66.9057 49.726L-117.6 90.0614C-119.041 90.3778 -120.184 91.4182 -120.815 93.0003C-121.462 94.6228 -121.5 96.6112 -120.917 98.599L-48.1444 346.083C-46.9544 350.129 -43.5308 352.882 -40.5133 352.227L143.997 311.895C145.438 311.582 146.581 310.538 147.212 308.96L147.209 308.948Z" fill="#A1624D"/>
<path d="M-119.185 82.5426C-118.471 80.7585 -117.169 79.6089 -115.524 79.3066L65.0027 46.2756C68.3272 45.6686 72.021 48.7822 73.2353 53.2157L139.23 293.969C139.805 296.07 139.747 298.165 139.062 299.874C138.349 301.662 137.046 302.807 135.401 303.11L-45.1288 336.141C-48.4544 336.744 -52.1471 333.635 -53.3614 329.201L-119.355 88.4518C-119.93 86.3509 -119.873 84.2516 -119.188 82.5432L-119.185 82.5426ZM138.396 299.329C139.002 297.813 139.055 295.955 138.543 294.094L72.5501 53.3443C71.4725 49.4137 68.1997 46.6568 65.2551 47.1943L-115.271 80.2254C-116.729 80.4913 -117.882 81.5087 -118.515 83.0912C-119.121 84.6063 -119.174 86.465 -118.662 88.326L-52.6692 329.075C-51.5917 333.006 -48.3218 335.763 -45.3713 335.225L135.155 302.194C136.613 301.928 137.766 300.91 138.398 299.324L138.396 299.329Z" fill="#A1624D"/>
<path d="M-116.901 72.6316C-116.191 70.8565 -114.838 69.7011 -113.19 69.4645L63.3769 43.7344C64.9566 43.5069 66.6444 44.1021 68.1346 45.422C69.6237 46.738 70.7366 48.6148 71.2661 50.7081L130.489 284.747C130.987 286.714 130.911 288.677 130.273 290.268C129.563 292.043 128.211 293.199 126.563 293.439L-50.0035 319.169C-53.2628 319.644 -56.7995 316.516 -57.8916 312.2L-117.112 78.1601C-117.609 76.1929 -117.533 74.2304 -116.896 72.6389L-116.901 72.6316ZM129.604 289.72C130.166 288.312 130.234 286.579 129.795 284.844L70.5722 50.8053C70.1056 48.9604 69.1246 47.302 67.809 46.1426C66.4923 44.9793 65.0021 44.4492 63.6077 44.6533L-112.959 70.3833C-114.413 70.5948 -115.608 71.6162 -116.235 73.1807C-116.796 74.5881 -116.866 76.3177 -116.426 78.0561L-57.2028 312.095C-56.2398 315.903 -53.1144 318.664 -50.2383 318.247L126.329 292.517C127.783 292.306 128.978 291.284 129.604 289.72Z" fill="#A1624D"/>
<path d="M-114.627 62.7171C-113.912 60.9284 -112.539 59.8022 -110.859 59.6215L61.7455 41.1931C63.2906 41.0302 64.9273 41.6642 66.3507 42.9888C67.7771 44.3128 68.8203 46.1618 69.2902 48.1963L121.742 275.521C122.165 277.354 122.072 279.179 121.479 280.663C120.764 282.451 119.392 283.582 117.711 283.758L-54.8963 302.187C-58.0844 302.528 -61.47 299.388 -62.4409 295.184L-114.893 67.8591C-115.314 66.0219 -115.221 64.1969 -114.63 62.7176L-114.627 62.7171ZM120.813 280.114C121.332 278.81 121.415 277.206 121.045 275.594L68.5927 48.2694C68.1787 46.4804 67.2626 44.855 66.0108 43.6915C64.7591 42.528 63.3192 41.9675 61.9616 42.1148L-110.646 60.5438C-112.121 60.7015 -113.328 61.692 -113.958 63.2655C-114.478 64.5656 -114.557 66.173 -114.187 67.7843L-61.7346 295.109C-60.8828 298.807 -57.906 301.567 -55.0995 301.267L117.505 282.839C118.981 282.681 120.19 281.69 120.817 280.117L120.813 280.114Z" fill="#A1624D"/>
<path d="M-112.353 52.8003C-111.63 50.9937 -110.235 49.8921 -108.524 49.7798L60.1213 38.6524C63.2442 38.4443 66.4739 41.6024 67.3196 45.6897L113.001 266.304C113.354 268.006 113.246 269.698 112.699 271.069C111.976 272.876 110.581 273.977 108.87 274.089L-59.7753 285.217C-62.8993 285.421 -66.129 282.263 -66.9736 278.18L-112.655 57.5649C-113.008 55.8633 -112.9 54.1717 -112.353 52.8003ZM112.029 270.516C112.508 269.315 112.602 267.837 112.295 266.346L66.6133 45.7313C65.8721 42.1532 63.0457 39.3884 60.3117 39.5708L-108.332 50.7021C-109.831 50.7981 -111.051 51.7624 -111.685 53.3449C-112.164 54.5461 -112.258 56.024 -111.951 57.5154L-66.2696 278.13C-65.5294 281.704 -62.703 284.469 -59.9679 284.291L108.677 273.163C110.175 273.063 111.395 272.099 112.029 270.516Z" fill="#A1624D"/>
<path d="M-110.088 42.8764C-109.359 41.0479 -107.939 39.9788 -106.193 39.9382L58.4887 36.1086C61.5446 36.0376 64.6202 39.2089 65.3407 43.1799L104.251 257.08C104.542 258.67 104.422 260.186 103.912 261.468C103.183 263.296 101.764 264.369 100.018 264.41L-64.668 268.236C-67.7238 268.307 -70.7994 265.136 -71.52 261.165L-110.428 47.2636C-110.718 45.674 -110.599 44.154 -110.088 42.8764ZM103.247 260.922C103.691 259.807 103.794 258.484 103.541 257.098L64.6309 43.1975C64.003 39.7379 61.3222 36.9739 58.6557 37.0315L-106.029 40.8617C-107.551 40.896 -108.786 41.8301 -109.422 43.4255C-109.867 44.5414 -109.969 45.8639 -109.717 47.2499L-70.809 261.151C-70.1812 264.611 -67.5004 267.375 -64.8349 267.313L99.8507 263.487C101.37 263.453 102.606 262.514 103.244 260.923L103.247 260.922Z" fill="#A1624D"/>
<path d="M-107.825 32.949C-107.095 31.1244 -105.613 30.0556 -103.856 30.0958L56.8657 33.5674C59.8544 33.6334 62.773 36.8187 63.3713 40.6727L95.5088 247.863C95.7346 249.321 95.6073 250.71 95.1405 251.88C94.4102 253.705 92.9283 254.773 91.172 254.733L-69.5502 251.262C-72.5389 251.196 -75.4575 248.01 -76.0558 244.156L-108.196 36.966C-108.422 35.5087 -108.295 34.1193 -107.825 32.949ZM94.4712 251.331C94.8783 250.314 94.9901 249.114 94.7921 247.845L62.6546 40.6544C62.1362 37.3101 59.6039 34.5462 57.011 34.4903L-103.711 31.0188C-105.233 30.987 -106.523 31.911 -107.156 33.4975C-107.561 34.5106 -107.672 35.7148 -107.475 36.9792L-75.3372 244.17C-74.8169 247.51 -72.2865 250.278 -69.6906 250.333L91.0326 253.809C92.5545 253.841 93.8406 252.913 94.4742 251.331L94.4712 251.331Z" fill="#A1624D"/>
<path d="M-105.567 23.0181C-104.827 21.1626 -103.313 20.1291 -101.52 20.2572L55.2422 31.03C58.1639 31.2331 60.9265 34.4361 61.3986 38.1699L86.7676 238.646C86.9347 239.97 86.7989 241.228 86.3745 242.295C85.6332 244.146 84.1198 245.18 82.3259 245.06L-74.4367 234.288C-77.3583 234.084 -80.121 230.881 -80.593 227.148L-105.959 26.6711C-106.126 25.3471 -105.989 24.0839 -105.566 23.022L-105.567 23.0181ZM85.7012 241.743C86.0688 240.828 86.1855 239.735 86.0422 238.596L60.676 38.1197C60.267 34.8906 57.8822 32.123 55.3589 31.9502L-101.401 21.1769C-102.95 21.0678 -104.258 21.9621 -104.899 23.5627C-105.265 24.4814 -105.383 25.5711 -105.239 26.7135L-79.8727 227.19C-79.4636 230.419 -77.08 233.183 -74.5566 233.356L82.206 244.128C83.7544 244.233 85.0632 243.343 85.7031 241.739L85.7012 241.743Z" fill="#A1624D"/>
<path d="M-103.321 13.0763C-102.579 11.2163 -100.993 10.1978 -99.1856 10.41L53.6145 28.4845C56.468 28.8207 59.0718 32.0422 59.4187 35.6596L78.0174 229.425C78.1327 230.619 77.9895 231.751 77.6065 232.71C76.8633 234.566 75.2787 235.588 73.4715 235.376L-79.3316 217.302C-82.1851 216.966 -84.7889 213.744 -85.1368 210.123L-103.732 16.3608C-103.847 15.1673 -103.705 14.0315 -103.321 13.0763ZM76.9383 232.165C77.266 231.341 77.3909 230.365 77.292 229.343L58.6962 35.5763C58.3977 32.4664 56.1574 29.6956 53.7037 29.406L-99.0965 11.3315C-100.674 11.145 -102.004 12.0024 -102.651 13.6248C-102.982 14.4498 -103.104 15.4245 -103.005 16.4475L-84.4093 210.214C-84.1107 213.324 -81.8705 216.094 -79.4167 216.384L73.3834 234.459C74.9607 234.645 76.291 233.788 76.9383 232.165Z" fill="#A1624D"/>
<path d="M-101.077 3.13305C-100.32 1.23714 -98.6991 0.257237 -96.8478 0.572596L51.9928 25.9483C54.7803 26.4255 57.227 29.6609 57.4487 33.162L69.2761 220.213C69.3414 221.272 69.196 222.284 68.8553 223.14C68.0985 225.036 66.4773 226.016 64.623 225.701L-84.2175 200.325C-87.0039 199.852 -89.4507 196.617 -89.6723 193.116L-101.497 6.06366C-101.565 5.00581 -101.417 3.99283 -101.076 3.13699L-101.077 3.13305ZM68.1831 222.592C68.475 221.861 68.5989 220.994 68.5416 220.087L56.7172 33.0349C56.528 30.0403 54.4334 27.2702 52.0522 26.8631L-96.7883 1.48739C-98.3738 1.21566 -99.7606 2.05916 -100.409 3.67766C-100.704 4.40885 -100.828 5.27647 -100.77 6.18343L-88.9459 193.235C-88.7568 196.23 -86.6622 199 -84.278 199.407L64.5625 224.782C66.1469 225.05 67.5348 224.211 68.1861 222.591L68.1831 222.592Z" fill="#A1624D"/>
</g>
</g>
</svg>
