<svg width="211" height="634" viewBox="0 0 211 634" fill="none" xmlns="http://www.w3.org/2000/svg">
<mask id="mask0_30548_1348" style="mask-type:alpha" maskUnits="userSpaceOnUse" x="-73" y="0" width="284" height="634">
<rect x="-72.6104" width="283.221" height="634" fill="#D9D9D9"/>
</mask>
<g mask="url(#mask0_30548_1348)">
<g opacity="0.8">
<path d="M82.7973 83.3143C83.4119 85.6873 83.3919 88.3699 82.7421 91.0622L-21.4939 523.075C-22.407 526.861 -24.4577 530.311 -27.2684 532.788C-30.079 535.266 -33.3127 536.47 -36.3717 536.187L-385.556 503.776C-389.502 503.408 -392.525 500.608 -393.645 496.286C-394.26 493.913 -394.242 491.235 -393.59 488.538L-289.354 56.525C-288.441 52.7386 -286.392 49.2938 -283.582 46.8164C-280.771 44.339 -277.541 43.1328 -274.479 43.4171L74.7062 75.8288C78.6538 76.1922 81.6769 78.992 82.7973 83.3143ZM-392.723 495.749C-391.691 499.727 -388.91 502.301 -385.278 502.638L-36.0917 535.045C-33.2767 535.31 -30.3012 534.196 -27.7156 531.917C-25.1301 529.638 -23.2428 526.467 -22.4073 522.984L81.8287 90.9714C82.4267 88.494 82.4438 86.0297 81.8765 83.8465C80.8453 79.8684 78.0636 77.2945 74.4343 76.9524L-274.754 44.55C-277.572 44.2899 -280.545 45.3987 -283.131 47.6778C-285.713 49.9583 -287.603 53.1278 -288.439 56.6112L-392.675 488.624C-393.275 491.106 -393.292 493.57 -392.725 495.753L-392.723 495.749Z" fill="#A1624D"/>
<path d="M88.1002 94.3775C88.7169 96.7459 88.6826 99.4227 88.0039 102.114L-17.9212 522.793C-18.8516 526.485 -20.8811 529.828 -23.6419 532.21C-26.4028 534.593 -29.5623 535.724 -32.536 535.399L-371.596 498.45C-375.376 498.04 -378.272 495.314 -379.351 491.157C-379.966 488.784 -379.934 486.112 -379.255 483.421L-273.33 62.7415C-271.413 55.1237 -264.855 49.4672 -258.715 50.1356L80.3467 87.0806C84.1214 87.4937 87.0231 90.2159 88.1002 94.3775ZM-378.428 490.62C-377.44 494.438 -374.779 496.94 -371.313 497.32L-32.2488 534.26C-29.5207 534.56 -26.6194 533.52 -24.0871 531.335C-21.5513 529.151 -19.6869 526.08 -18.8341 522.692L87.0909 102.012C87.7103 99.5438 87.7416 97.0855 87.1794 94.9098C86.1915 91.0924 83.5298 88.5899 80.0616 88.2152L-259 51.2702C-264.637 50.6609 -270.658 55.8467 -272.415 62.8384L-378.338 483.524C-378.963 485.996 -378.993 488.449 -378.427 490.626L-378.428 490.62Z" fill="#A1624D"/>
<path d="M93.4061 105.43C94.0207 107.803 93.9743 110.469 93.265 113.153L-14.3475 522.505C-16.3008 529.927 -22.7366 535.353 -28.7008 534.598L-357.638 493.126C-361.251 492.67 -364.023 490.018 -365.054 486.029C-365.671 483.66 -365.622 480.989 -364.916 478.304L-257.3 68.9534C-256.353 65.3569 -254.341 62.1221 -251.63 59.8343C-248.921 57.5512 -245.835 56.494 -242.945 56.8557L85.9917 98.3276C89.6013 98.7825 92.3738 101.435 93.4081 105.425L93.4061 105.43ZM-364.133 485.497C-363.186 489.149 -360.645 491.58 -357.338 491.998L-28.4014 533.47C-22.9385 534.161 -17.0407 529.188 -15.2543 522.39L92.3582 113.038C93.006 110.581 93.0496 108.133 92.4874 105.957C91.5407 102.305 88.999 99.8742 85.6959 99.4578L-243.243 57.9905C-245.89 57.6578 -248.713 58.6252 -251.198 60.7207C-253.68 62.8116 -255.525 65.7802 -256.392 69.075L-364.006 478.421C-364.654 480.878 -364.697 483.325 -364.133 485.497Z" fill="#A1624D"/>
<path d="M98.7154 116.489C99.3321 118.858 99.2673 121.527 98.5311 124.206L-10.7703 522.224C-11.7318 525.727 -13.7278 528.859 -16.3871 531.047C-19.05 533.234 -22.0575 534.219 -24.8625 533.815L-343.678 487.804C-347.122 487.307 -349.768 484.729 -350.757 480.906C-351.368 478.534 -351.309 475.868 -350.571 473.184L-241.27 75.1659C-239.286 67.9436 -232.966 62.744 -227.179 63.5795L91.6326 109.589C95.077 110.086 97.7224 112.664 98.7119 116.488L98.7154 116.489ZM-349.84 480.372C-348.933 483.865 -346.515 486.223 -343.366 486.675L-24.554 532.685C-21.9906 533.055 -19.2427 532.155 -16.81 530.159C-14.3808 528.161 -12.5549 525.295 -11.6766 522.098L97.6268 124.075C98.2961 121.627 98.3574 119.186 97.7982 117.023C96.8912 113.53 94.4767 111.173 91.3276 110.721L-227.486 64.7161C-232.772 63.9551 -238.547 68.7038 -240.364 75.303L-349.669 473.32C-350.341 475.767 -350.399 478.208 -349.84 480.372Z" fill="#A1624D"/>
<path d="M104.025 127.544C104.64 129.917 104.558 132.579 103.792 135.257L-7.20021 521.947C-8.17699 525.35 -10.1537 528.38 -12.7648 530.467C-15.3779 532.559 -18.3093 533.465 -21.0309 533.025L-329.72 482.482C-332.999 481.943 -335.523 479.443 -336.471 475.784C-337.086 473.411 -337.007 470.748 -336.24 468.076L-225.247 81.3863C-224.269 77.9784 -222.294 74.9534 -219.681 72.8614C-217.071 70.768 -214.134 69.8583 -211.42 70.3066L97.267 120.844C100.546 121.382 103.068 123.887 104.016 127.546L104.025 127.544ZM-335.548 475.248C-334.687 478.585 -332.386 480.867 -329.397 481.357L-20.7117 531.899C-18.2351 532.304 -15.5614 531.478 -13.18 529.571C-10.7986 527.664 -8.99756 524.902 -8.10753 521.803L102.885 135.114C103.586 132.679 103.66 130.249 103.101 128.085C102.237 124.753 99.9368 122.471 96.9493 121.976L-211.736 71.4341C-214.213 71.0288 -216.886 71.8547 -219.27 73.7667C-221.651 75.6741 -223.452 78.4357 -224.344 81.5388L-335.333 468.219C-336.034 470.654 -336.104 473.086 -335.548 475.248Z" fill="#A1624D"/>
<path d="M109.339 138.598C109.953 140.971 109.853 143.637 109.055 146.302L-3.62807 521.663C-5.67513 528.491 -11.7652 533.231 -17.1973 532.228L-315.758 477.159C-318.87 476.585 -321.267 474.159 -322.174 470.666C-322.789 468.293 -322.69 465.632 -321.889 462.958L-209.205 87.597C-208.215 84.2873 -206.252 81.3671 -203.692 79.3685C-201.129 77.3713 -198.268 76.5401 -195.637 77.0255L102.925 132.1C106.037 132.674 108.437 135.102 109.344 138.595L109.339 138.598ZM-321.255 470.127C-320.433 473.305 -318.251 475.511 -315.419 476.036L-16.8567 531.111C-11.9173 532.02 -6.38408 527.71 -4.52019 521.504L108.163 146.143C108.891 143.724 108.981 141.295 108.423 139.138C107.601 135.96 105.419 133.754 102.587 133.23L-195.975 78.155C-198.368 77.7125 -200.97 78.4693 -203.298 80.2834C-205.628 82.102 -207.411 84.7556 -208.311 87.762L-320.999 463.121C-321.728 465.545 -321.816 467.969 -321.258 470.126L-321.255 470.127Z" fill="#A1624D"/>
<path d="M114.654 149.655C115.269 152.028 115.152 154.693 114.318 157.353L-0.0540252 521.381C-1.06548 524.594 -3.0032 527.409 -5.51679 529.311C-8.03034 531.214 -10.8149 531.966 -13.3622 531.444L-301.798 471.837C-304.79 471.219 -307.01 468.926 -307.889 465.543C-308.506 463.164 -308.387 460.506 -307.548 457.842L-193.179 93.8133C-191.096 87.1811 -185.127 82.6715 -179.87 83.756L108.566 143.363C111.562 143.982 113.782 146.275 114.656 149.661L114.654 149.655ZM-306.967 465.007C-306.176 468.073 -304.16 470.15 -301.446 470.714L-13.0105 530.32C-10.7021 530.794 -8.17831 530.109 -5.89793 528.385C-3.61758 526.661 -1.86273 524.111 -0.945159 521.2L113.427 157.173C114.187 154.757 114.291 152.345 113.735 150.193C112.94 147.126 110.925 145.048 108.214 144.486L-180.221 84.8796C-184.985 83.8944 -190.397 87.9852 -192.287 93.9998L-306.659 458.027C-307.419 460.443 -307.523 462.855 -306.965 465.013L-306.967 465.007Z" fill="#A1624D"/>
<path d="M119.974 160.703C120.59 163.082 120.453 165.744 119.578 168.404L3.51825 521.104C2.49305 524.224 0.569448 526.929 -1.89233 528.732C-4.35765 530.534 -7.07002 531.217 -9.52633 530.65L-287.835 466.512C-290.666 465.861 -292.763 463.641 -293.601 460.424C-294.217 458.045 -294.08 455.383 -293.209 452.721L-177.145 100.023C-176.12 96.903 -174.2 94.196 -171.735 92.3945C-169.27 90.5932 -166.557 89.9095 -164.097 90.4782L114.217 154.613C117.048 155.264 119.145 157.484 119.979 160.7L119.974 160.703ZM-292.685 459.884C-291.931 462.792 -290.031 464.8 -287.476 465.391L-9.16553 529.525C-6.94253 530.04 -4.49084 529.424 -2.26179 527.789C-0.0347523 526.159 1.7044 523.712 2.63217 520.893L118.692 168.193C119.484 165.79 119.608 163.381 119.051 161.229C118.297 158.321 116.397 156.314 113.842 155.722L-164.466 91.5838C-166.691 91.0734 -169.143 91.6887 -171.37 93.3192C-173.597 94.9497 -175.336 97.3963 -176.264 100.216L-292.324 452.916C-293.116 455.319 -293.239 457.728 -292.683 459.879L-292.685 459.884Z" fill="#A1624D"/>
<path d="M125.293 171.75C125.899 174.103 125.742 176.84 124.837 179.454L7.08826 520.821C6.04773 523.841 4.14343 526.444 1.72789 528.151C-0.687681 529.857 -3.32388 530.463 -5.69839 529.852L-273.884 461.181C-276.547 460.501 -278.529 458.355 -279.32 455.3C-279.929 452.951 -279.767 450.212 -278.865 447.596L-161.114 106.225C-160.073 103.205 -158.169 100.601 -155.754 98.8944C-153.338 97.1879 -150.702 96.5826 -148.327 97.1931L119.858 165.865C122.522 166.545 124.503 168.69 125.297 171.741L125.293 171.75ZM-278.405 454.771C-277.692 457.525 -275.904 459.459 -273.502 460.075L-5.31672 528.746C-3.1786 529.292 -0.801077 528.751 1.37463 527.209C3.55189 525.673 5.27028 523.323 6.20624 520.6L123.957 179.229C124.773 176.868 124.917 174.402 124.366 172.286C123.653 169.532 121.865 167.598 119.461 166.986L-148.724 98.3146C-150.862 97.7686 -153.24 98.3101 -155.419 99.8505C-157.593 101.388 -159.309 103.734 -160.251 106.46L-278.002 447.831C-278.817 450.191 -278.961 452.658 -278.411 454.774L-278.405 454.771Z" fill="#A1624D"/>
<path d="M130.619 182.8C131.231 185.161 131.045 187.896 130.104 190.506L10.6638 520.544C9.60602 523.469 7.71942 525.965 5.35363 527.577C2.98784 529.188 0.424292 529.714 -1.86331 529.068L-259.926 455.863C-262.43 455.155 -264.294 453.086 -265.042 450.191C-265.65 447.832 -265.468 445.095 -264.524 442.48L-145.084 112.442C-142.9 106.406 -137.281 102.582 -132.559 103.923L125.5 177.126C128.004 177.834 129.868 179.904 130.616 182.799L130.619 182.8ZM-264.125 449.657C-263.45 452.258 -261.776 454.118 -259.526 454.754L-1.46687 527.957C0.587903 528.54 2.88973 528.066 5.01569 526.619C7.14164 525.172 8.8387 522.928 9.78842 520.299L129.228 190.261C130.076 187.914 130.241 185.456 129.693 183.335C129.018 180.734 127.344 178.875 125.094 178.239L-132.967 105.04C-137.211 103.835 -142.257 107.27 -144.222 112.698L-263.662 442.736C-264.51 445.083 -264.675 447.541 -264.127 449.662L-264.125 449.657Z" fill="#A1624D"/>
<path d="M135.947 193.844C136.562 196.207 136.352 198.948 135.362 201.555L14.231 520.264C12.0107 526.104 6.50921 529.697 1.96749 528.27L-245.968 450.534C-248.31 449.8 -250.061 447.809 -250.77 445.074C-251.383 442.707 -251.175 439.97 -250.183 437.358L-129.054 118.654C-126.834 112.814 -121.336 109.22 -116.791 110.648L131.143 188.389C133.485 189.123 135.233 191.112 135.944 193.849L135.947 193.844ZM-249.849 444.542C-249.212 446.989 -247.649 448.776 -245.551 449.432L2.38525 527.168C6.45522 528.444 11.3825 525.225 13.3714 519.992L134.502 201.283C135.391 198.948 135.576 196.492 135.026 194.376C134.391 191.924 132.826 190.142 130.727 189.486L-117.208 111.75C-121.28 110.478 -126.206 113.693 -128.195 118.926L-249.323 437.63C-250.212 439.966 -250.397 442.421 -249.849 444.542Z" fill="#A1624D"/>
<path d="M141.28 204.887C141.896 207.266 141.661 210.009 140.622 212.612L17.802 519.987C15.5475 525.626 10.1638 528.988 5.79639 527.479L-232.016 445.21C-234.197 444.454 -235.833 442.544 -236.501 439.968C-237.118 437.589 -236.882 434.846 -235.841 432.238L-113.022 124.863C-110.767 119.224 -105.384 115.863 -101.02 117.37L136.793 199.639C138.974 200.395 140.613 202.306 141.28 204.887ZM-235.579 439.431C-234.982 441.73 -233.522 443.436 -231.575 444.112L6.23758 526.381C10.1337 527.729 14.9401 524.728 16.9525 519.692L139.772 212.317C140.699 209.991 140.911 207.541 140.359 205.419C139.762 203.12 138.302 201.414 136.355 200.738L-101.452 118.466C-105.348 117.118 -110.154 120.119 -112.169 125.159L-234.988 432.535C-235.918 434.859 -236.127 437.31 -235.575 439.432L-235.579 439.431Z" fill="#A1624D"/>
<path d="M146.611 215.928C147.231 218.319 146.97 221.062 145.877 223.665L21.3662 519.711C20.2584 522.347 18.4266 524.525 16.205 525.844C13.989 527.161 11.65 527.46 9.62211 526.69L-218.064 439.889C-220.12 439.108 -221.604 437.321 -222.24 434.863C-222.859 432.471 -222.596 429.724 -221.503 427.121L-96.996 131.073C-94.7074 125.635 -89.4395 122.5 -85.252 124.094L142.434 210.895C144.488 211.681 145.974 213.463 146.61 215.922L146.611 215.928ZM-221.315 434.321C-220.748 436.504 -219.431 438.096 -217.601 438.789L10.0851 525.591C11.8883 526.279 13.9681 526.015 15.9382 524.839C17.9118 523.664 19.5419 521.728 20.5273 519.382L145.032 223.339C146.003 221.026 146.239 218.581 145.686 216.452C145.118 214.269 143.801 212.678 141.973 211.979L-85.7125 125.178C-89.4348 123.76 -94.1188 126.547 -96.1582 131.385L-220.669 427.432C-221.643 429.743 -221.876 432.19 -221.326 434.317L-221.315 434.321Z" fill="#A1624D"/>
<path d="M151.971 226.96C152.593 229.363 152.301 232.121 151.152 234.717L24.9495 519.445C22.6245 524.688 17.4726 527.584 13.4667 525.901L-204.11 434.561C-206.008 433.762 -207.381 432.059 -207.975 429.755C-208.601 427.35 -208.306 424.594 -207.156 421.998L-80.952 137.265C-78.6235 132.024 -73.4751 129.126 -69.4693 130.809L148.104 222.148C150.002 222.947 151.379 224.651 151.973 226.955L151.971 226.96ZM-207.058 429.221C-206.53 431.262 -205.312 432.774 -203.63 433.479L13.9435 524.818C17.4959 526.309 22.0593 523.741 24.1187 519.097L150.321 234.369C151.341 232.071 151.6 229.63 151.048 227.497C150.519 225.455 149.302 223.943 147.619 223.239L-69.9537 131.9C-73.506 130.409 -78.0674 132.973 -80.1309 137.625L-206.333 422.353C-207.353 424.652 -207.612 427.093 -207.057 429.227L-207.058 429.221Z" fill="#A1624D"/>
<path d="M157.313 237.996C157.933 240.388 157.603 243.223 156.406 245.772L28.5131 519.171C27.367 521.615 25.5741 523.578 23.4524 524.698C21.3343 525.819 19.1456 525.966 17.2903 525.108L-190.159 429.236C-191.902 428.429 -193.171 426.803 -193.725 424.658C-194.344 422.266 -194.014 419.431 -192.822 416.88L-64.9283 143.482C-62.5671 138.435 -57.5351 135.775 -53.7091 137.543L153.738 233.42C155.482 234.226 156.75 235.853 157.304 237.998L157.313 237.996ZM-192.802 424.121C-192.31 426.015 -191.191 427.454 -189.654 428.164L17.7956 524.036C19.4307 524.793 21.3628 524.666 23.2318 523.673C25.1045 522.682 26.6906 520.952 27.7001 518.792L155.593 245.393C156.647 243.142 156.938 240.637 156.393 238.528C155.901 236.634 154.785 235.197 153.244 234.485L-54.2052 138.613C-57.5802 137.052 -62.0248 139.406 -64.1097 143.857L-192.003 417.256C-193.057 419.507 -193.348 422.013 -192.802 424.121Z" fill="#A1624D"/>
<path d="M162.664 249.024C163.288 251.433 162.921 254.276 161.661 256.826L32.0789 518.891C30.9176 521.235 29.1404 523.095 27.0706 524.115C24.9987 525.14 22.8861 525.208 21.1198 524.31L-176.202 423.906C-177.793 423.097 -178.954 421.553 -179.472 419.555C-180.096 417.145 -179.733 414.302 -178.47 411.752L-48.8854 149.683C-46.4921 144.842 -41.5759 142.408 -37.9263 144.264L159.396 244.668C160.988 245.483 162.149 247.027 162.666 249.019L162.664 249.024ZM-178.552 419.023C-178.095 420.776 -177.075 422.135 -175.678 422.848L21.6444 523.252C23.1982 524.041 25.0545 523.982 26.8738 523.084C28.6931 522.186 30.2585 520.552 31.2761 518.489L160.86 256.419C161.968 254.179 162.29 251.681 161.741 249.561C161.288 247.809 160.263 246.453 158.865 245.739L-38.4569 145.336C-41.6652 143.701 -45.9874 145.841 -48.0943 150.102L-177.677 412.167C-178.784 414.407 -179.108 416.91 -178.557 419.026L-178.552 419.023Z" fill="#A1624D"/>
<path d="M168.02 260.053C168.65 262.487 168.249 265.342 166.916 267.885L35.6431 518.621C33.2136 523.265 28.4137 525.462 24.946 523.516L-162.252 418.579C-163.696 417.77 -164.754 416.307 -165.234 414.462C-165.864 412.028 -165.462 409.173 -164.13 406.63L-32.8571 155.894C-30.424 151.251 -25.6241 149.055 -22.16 150.999L165.038 255.936C166.482 256.745 167.54 258.208 168.02 260.053ZM-164.308 413.927C-163.888 415.544 -162.963 416.82 -161.699 417.533L25.4991 522.47C28.5356 524.172 32.7368 522.251 34.8636 518.184L166.133 267.448C167.302 265.222 167.652 262.724 167.101 260.591C166.681 258.974 165.756 257.698 164.493 256.985L-22.7059 152.048C-25.7388 150.348 -29.9401 152.269 -32.0705 156.334L-163.344 407.069C-164.509 409.297 -164.859 411.794 -164.308 413.927Z" fill="#A1624D"/>
<path d="M173.387 271.076C174.027 273.536 173.583 276.401 172.173 278.94L39.2143 518.343C36.7471 522.785 32.065 524.75 28.7793 522.715L-148.292 413.246C-149.609 412.434 -150.538 411.09 -150.987 409.367C-151.627 406.907 -151.187 404.041 -149.777 401.502L-16.8125 162.096C-14.3453 157.654 -9.66319 155.689 -6.37747 157.724L170.692 267.198C172.009 268.009 172.941 269.355 173.387 271.076ZM-150.07 408.834C-149.679 410.335 -148.867 411.504 -147.719 412.213L29.3516 521.682C32.2143 523.455 36.2953 521.742 38.4511 517.869L171.412 278.462C172.641 276.25 173.024 273.755 172.466 271.608C172.076 270.107 171.263 268.938 170.116 268.229L-6.9534 158.755C-9.81608 156.983 -13.897 158.695 -16.0493 162.57L-149.014 401.976C-150.241 404.183 -150.623 406.684 -150.068 408.829L-150.07 408.834Z" fill="#A1624D"/>
<path d="M178.757 282.096C179.393 284.555 178.898 287.509 177.425 289.999L42.7756 518.073C40.2707 522.313 35.7085 524.041 32.6026 521.921L-134.343 407.915C-135.517 407.112 -136.354 405.856 -136.763 404.281C-137.399 401.822 -136.904 398.869 -135.431 396.378L-0.781529 168.305C1.72336 164.064 6.28563 162.336 9.39144 164.456L176.339 278.458C177.513 279.26 178.35 280.517 178.757 282.096ZM-135.84 403.744C-135.485 405.115 -134.764 406.203 -133.74 406.9L33.205 520.906C35.8994 522.747 39.858 521.248 42.0302 517.568L176.68 289.494C177.954 287.334 178.39 284.767 177.834 282.633C177.481 281.268 176.756 280.179 175.736 279.484L8.79061 165.477C6.09768 163.643 2.13766 165.136 -0.0366048 168.82L-134.69 396.892C-135.964 399.053 -136.394 401.616 -135.842 403.749L-135.84 403.744Z" fill="#A1624D"/>
<path d="M184.138 293.111C184.787 295.608 184.242 298.58 182.679 301.055L46.3383 517.8C43.7957 521.838 39.3497 523.328 36.4294 521.12L-120.391 402.586C-121.426 401.803 -122.168 400.635 -122.542 399.201C-123.187 396.706 -122.642 393.734 -121.084 391.251L15.2564 174.507C17.799 170.469 22.245 168.978 25.1653 171.186L181.984 289.725C183.019 290.508 183.762 291.682 184.134 293.11L184.138 293.111ZM-121.613 398.661C-121.296 399.896 -120.65 400.909 -119.76 401.583L37.0582 520.121C39.5844 522.03 43.4241 520.745 45.6182 517.256L181.957 300.516C183.306 298.376 183.776 295.807 183.219 293.65C182.897 292.413 182.255 291.402 181.362 290.726L24.5436 172.188C22.0174 170.279 18.1813 171.565 15.9871 175.055L-120.354 391.799C-121.7 393.941 -122.173 396.508 -121.612 398.667L-121.613 398.661Z" fill="#A1624D"/>
<path d="M189.529 304.123C190.179 306.627 189.565 309.69 187.933 312.121L49.9039 517.531C47.3271 521.368 42.9994 522.617 40.261 520.319L-106.436 397.252C-107.34 396.495 -107.989 395.414 -108.325 394.123C-108.971 391.621 -108.36 388.556 -106.729 386.125L31.3027 180.71C33.8795 176.873 38.2072 175.625 40.9491 177.925L187.64 300.995C188.544 301.752 189.198 302.834 189.529 304.123ZM-107.405 393.585C-107.116 394.692 -106.557 395.625 -105.782 396.274L40.9122 519.346C43.2667 521.321 46.9895 520.246 49.2057 516.947L187.235 311.537C188.66 309.416 189.174 306.844 188.606 304.66C188.319 303.548 187.758 302.62 186.983 301.971L40.2888 178.899C37.9343 176.924 34.2115 177.999 31.9954 181.298L-106.034 386.708C-107.459 388.829 -107.973 391.401 -107.405 393.585Z" fill="#A1624D"/>
<path d="M194.93 315.129C195.593 317.681 194.923 320.766 193.185 323.18L53.4646 517.261C50.8466 520.894 46.6388 521.906 44.0823 519.519L-92.4874 391.92C-93.2588 391.196 -93.8256 390.204 -94.1255 389.054C-94.7881 386.502 -94.1182 383.417 -92.3784 380.998L47.3422 186.916C49.9566 183.282 54.1644 182.27 56.7209 184.657L193.289 312.261C194.062 312.98 194.627 313.976 194.927 315.127L194.93 315.129ZM-93.2007 388.512C-92.9455 389.496 -92.4592 390.344 -91.797 390.963L44.7706 518.567C46.9569 520.61 50.5593 519.743 52.7954 516.639L192.516 322.558C194.005 320.492 194.575 317.849 194.011 315.667C193.758 314.678 193.272 313.83 192.609 313.211L56.0418 185.608C53.8555 183.565 50.253 184.431 48.015 187.54L-91.7056 381.621C-93.1914 383.689 -93.7645 386.33 -93.2027 388.517L-93.2007 388.512Z" fill="#A1624D"/>
</g>
</g>
</svg>
