<svg width="362" height="1067" viewBox="0 0 362 1067" fill="none" xmlns="http://www.w3.org/2000/svg">
<g opacity="0.8">
<path d="M-374.066 449.241C-372.795 446.22 -370.779 443.885 -368.244 442.495L38.3675 219.312C41.9309 217.355 46.1652 217.416 50.2908 219.483C54.4164 221.551 57.936 225.38 60.2049 230.256L319.1 787.016C322.024 793.309 322.387 800.35 320.072 805.855C318.801 808.877 316.79 811.21 314.251 812.602L-92.3612 1035.78C-95.9246 1037.74 -100.154 1037.68 -104.279 1035.61C-108.405 1033.54 -111.923 1029.72 -114.193 1024.84L-373.089 468.079C-376.018 461.788 -376.381 454.747 -374.066 449.241ZM318.924 804.932C321.054 799.866 320.718 793.389 318.026 787.598L59.1262 230.84C57.0416 226.348 53.7994 222.829 50.0042 220.927C46.2089 219.025 42.3147 218.966 39.0402 220.773L-367.572 443.956C-369.904 445.236 -371.755 447.382 -372.923 450.165C-375.053 455.232 -374.717 461.709 -372.03 467.5L-113.125 1024.26C-111.035 1028.75 -107.798 1032.27 -104.003 1034.17C-100.21 1036.07 -96.3136 1036.13 -93.0391 1034.32L313.573 811.141C315.91 809.861 317.761 807.714 318.929 804.931L318.924 804.932Z" fill="#A1624D"/>
<path d="M-369.972 432.166C-368.706 429.145 -366.682 426.837 -364.125 425.492L35.406 214.855C38.9126 213.008 43.0503 213.13 47.0649 215.206C51.0794 217.282 54.4839 221.064 56.6524 225.848L303.956 771.293C306.715 777.373 307.031 784.156 304.806 789.453C303.535 792.475 301.516 794.782 298.96 796.128L-100.572 1006.76C-107.806 1010.58 -117.339 1005.65 -121.818 995.771L-369.127 450.327C-371.879 444.253 -372.201 437.464 -369.972 432.166ZM303.658 788.531C305.703 783.671 305.411 777.439 302.884 771.861L55.5702 226.418C53.5826 222.027 50.4555 218.555 46.7731 216.651C43.0888 214.741 39.2881 214.628 36.0703 216.325L-363.461 426.962C-365.804 428.201 -367.662 430.321 -368.828 433.09C-370.874 437.949 -370.582 444.182 -368.05 449.758L-120.741 995.202C-116.625 1004.27 -107.879 1008.8 -101.241 1005.3L298.293 794.651C300.643 793.417 302.496 791.298 303.661 788.523L303.658 788.531Z" fill="#A1624D"/>
<path d="M-365.884 415.093C-364.613 412.071 -362.588 409.791 -360.011 408.497L32.4424 210.399C39.5594 206.811 48.8226 211.762 53.0944 221.449L288.821 755.57C291.41 761.437 291.679 767.97 289.541 773.045C288.275 776.066 286.244 778.347 283.669 779.647L-108.786 977.739C-112.236 979.476 -116.279 979.285 -120.182 977.201C-124.08 975.116 -127.37 971.381 -129.443 966.69L-365.17 432.569C-367.757 426.708 -368.026 420.176 -365.89 415.094L-365.884 415.093ZM288.398 772.122C290.353 767.47 290.105 761.482 287.737 756.112L52.0101 221.991C48.0971 213.118 39.6085 208.581 33.0913 211.872L-359.362 409.971C-361.719 411.157 -363.58 413.249 -364.746 416.018C-366.702 420.669 -366.454 426.657 -364.087 432.02L-128.356 966.14C-126.458 970.437 -123.448 973.856 -119.871 975.766C-116.3 977.678 -112.591 977.852 -109.432 976.258L283.019 778.167C285.376 776.981 287.236 774.889 288.398 772.122Z" fill="#A1624D"/>
<path d="M-361.798 398.012C-360.532 394.991 -358.489 392.736 -355.895 391.488L29.4778 205.935C32.869 204.302 36.822 204.56 40.6094 206.654C44.3985 208.754 47.5709 212.435 49.5439 217.033L273.681 739.846C276.103 745.494 276.325 751.769 274.276 756.636C273.003 759.651 270.967 761.912 268.368 763.161L-117.005 948.714C-123.998 952.08 -132.998 947.104 -137.066 937.615L-361.201 414.809C-363.623 409.161 -363.845 402.886 -361.796 398.019L-361.798 398.012ZM273.135 755.719C275.004 751.268 274.802 745.531 272.586 740.37L48.451 217.563C46.6487 213.36 43.7503 209.996 40.2899 208.076C36.8314 206.163 33.2138 205.928 30.1183 207.418L-355.259 392.971C-357.627 394.117 -359.497 396.176 -360.657 398.929C-362.526 403.38 -362.326 409.11 -360.11 414.272L-135.969 937.077C-132.252 945.743 -124.03 950.292 -117.637 947.223L267.738 761.677C270.107 760.538 271.975 758.472 273.135 755.719Z" fill="#A1624D"/>
<path d="M-357.712 380.932C-356.44 377.911 -354.388 375.688 -351.772 374.485L26.5252 201.478C29.8545 199.955 33.7159 200.274 37.3889 202.383C41.067 204.492 44.1191 208.127 45.997 212.632L258.546 724.123C260.803 729.557 260.984 735.58 259.026 740.239C257.754 743.261 255.704 745.49 253.091 746.685L-125.206 919.693C-128.541 921.217 -132.397 920.896 -136.075 918.788C-139.751 916.686 -142.81 913.046 -144.676 908.545L-357.229 397.062C-359.486 391.627 -359.662 385.604 -357.703 380.945L-357.712 380.932ZM257.877 739.317C259.667 735.071 259.504 729.58 257.446 724.626L44.8987 213.142C43.1933 209.038 40.4101 205.722 37.0574 203.801C33.7048 201.881 30.1857 201.591 27.1539 202.976L-351.143 375.984C-353.527 377.07 -355.398 379.101 -356.558 381.854C-358.343 386.098 -358.18 391.589 -356.127 396.545L-143.58 908.029C-141.874 912.132 -139.091 915.448 -135.733 917.368C-132.381 919.289 -128.862 919.578 -125.825 918.192L252.462 745.186C254.846 744.101 256.716 742.063 257.877 739.317Z" fill="#A1624D"/>
<path d="M-353.629 363.852C-352.358 360.831 -350.288 358.633 -347.655 357.49L23.5658 197.027C30.3166 194.104 38.7874 199.137 42.4434 208.238L243.408 708.399C245.503 713.613 245.637 719.378 243.768 723.829C242.497 726.851 240.433 729.047 237.789 730.192L-133.432 890.655C-136.703 892.075 -140.471 891.68 -144.036 889.57C-147.603 887.454 -150.542 883.859 -152.313 879.452L-353.274 379.283C-355.369 374.069 -355.505 368.298 -353.636 363.847L-353.629 363.852ZM242.621 722.913C244.325 718.868 244.201 713.623 242.296 708.877L41.3343 208.708C38.0082 200.434 30.3091 195.865 24.1706 198.517L-347.051 358.98C-349.444 360.011 -351.328 362.016 -352.484 364.762C-354.187 368.806 -354.063 374.052 -352.159 378.798L-151.197 878.967C-149.587 882.977 -146.914 886.245 -143.674 888.167C-140.429 890.089 -137.005 890.447 -134.033 889.158L237.19 728.702C239.588 727.669 241.467 725.665 242.623 722.92L242.621 722.913Z" fill="#A1624D"/>
<path d="M-349.546 346.766C-348.275 343.744 -346.193 341.572 -343.534 340.487L20.6065 192.57C23.8222 191.267 27.492 191.717 30.948 193.842C34.4041 195.967 37.2226 199.515 38.8981 203.829L228.272 692.675C230.237 697.747 230.327 703.126 228.517 707.439C227.243 710.468 225.165 712.632 222.498 713.712L-141.64 861.635C-148.274 864.331 -156.475 859.278 -159.928 850.369L-349.302 361.522C-351.269 356.444 -351.359 351.065 -349.543 346.758L-349.546 346.766ZM227.369 706.516C229.014 702.617 228.929 697.736 227.149 693.134L37.7752 204.287C36.2569 200.378 33.7006 197.164 30.5667 195.234C27.4328 193.305 24.109 192.898 21.1943 194.077L-342.946 341.994C-345.364 342.974 -347.246 344.944 -348.399 347.682C-350.043 351.588 -349.957 356.468 -348.179 361.064L-158.806 849.91C-155.679 857.985 -148.241 862.565 -142.225 860.121L221.916 712.204C224.334 711.224 226.216 709.254 227.372 706.508L227.369 706.516Z" fill="#A1624D"/>
<path d="M-345.475 329.676C-344.201 326.646 -342.105 324.507 -339.412 323.485L17.6505 188.106C20.8077 186.907 24.3843 187.431 27.7242 189.566C31.0659 191.707 33.7744 195.207 35.3426 199.423L213.129 676.947C214.939 681.804 214.983 686.932 213.263 691.036C211.989 694.066 209.893 696.205 207.202 697.233L-149.862 832.605C-153.02 833.805 -156.594 833.287 -159.936 831.146C-163.278 829.005 -165.986 825.505 -167.556 821.282L-345.349 343.752C-347.16 338.896 -347.204 333.768 -345.482 329.67L-345.475 329.676ZM212.119 690.127C213.675 686.421 213.632 681.778 212.002 677.392L34.211 199.869C32.793 196.052 30.3467 192.886 27.3206 190.956C24.2995 189.025 21.0654 188.551 18.2112 189.633L-338.852 325.012C-341.286 325.932 -343.182 327.869 -344.335 330.607C-345.892 334.313 -345.849 338.955 -344.219 343.341L-166.433 820.866C-165.01 824.681 -162.563 827.847 -159.542 829.779C-156.521 831.71 -153.287 832.184 -150.433 831.102L206.63 695.723C209.064 694.803 210.96 692.866 212.113 690.128L212.119 690.127Z" fill="#A1624D"/>
<path d="M-341.406 312.59C-340.143 309.598 -337.976 307.423 -335.293 306.488L14.6893 183.655C17.7845 182.567 21.2696 183.152 24.5002 185.301C27.7309 187.451 30.3191 190.905 31.7889 195.035L197.989 661.244C199.641 665.872 199.648 670.761 198.011 674.652C196.753 677.643 194.579 679.812 191.898 680.754L-158.09 803.588C-161.185 804.676 -164.67 804.091 -167.901 801.942C-171.131 799.792 -173.72 796.338 -175.189 792.208L-341.389 325.999C-343.041 321.371 -343.048 316.482 -341.417 312.592L-341.406 312.59ZM196.875 673.734C198.35 670.227 198.342 665.817 196.855 661.641L30.655 195.432C29.3288 191.717 26.9977 188.598 24.0843 186.666C21.1743 184.726 18.0285 184.199 15.2398 185.184L-334.748 308.018C-337.169 308.865 -339.125 310.821 -340.256 313.519C-341.732 317.026 -341.724 321.436 -340.231 325.611L-174.031 791.82C-172.705 795.535 -170.374 798.654 -167.459 800.593C-164.551 802.526 -161.41 803.054 -158.614 802.075L191.373 679.241C193.794 678.394 195.75 676.438 196.882 673.739L196.875 673.734Z" fill="#A1624D"/>
<path d="M-337.337 295.492C-336.072 292.486 -333.882 290.355 -331.172 289.478L11.7341 179.191C14.7726 178.212 18.1627 178.866 21.2823 181.023C24.4019 183.181 26.8717 186.596 28.2445 190.625L182.858 645.519C184.361 649.931 184.329 654.575 182.777 658.258C181.51 661.258 179.322 663.395 176.607 664.273L-166.299 774.561C-172.57 776.578 -179.977 771.45 -182.804 763.125L-337.417 308.238C-338.919 303.826 -338.887 299.182 -337.335 295.499L-337.337 295.492ZM181.635 657.341C183.028 654.028 183.057 649.856 181.707 645.892L27.0949 191.005C25.864 187.383 23.6447 184.319 20.8423 182.379C18.0401 180.438 14.991 179.85 12.2608 180.731L-330.646 291.019C-333.083 291.806 -335.05 293.722 -336.186 296.421C-337.579 299.735 -337.608 303.907 -336.258 307.871L-181.641 762.757C-179.099 770.238 -172.448 774.844 -166.807 773.031L176.1 662.743C178.537 661.956 180.504 660.04 181.64 657.34L181.635 657.341Z" fill="#A1624D"/>
<path d="M-333.276 278.396C-332.013 275.383 -329.799 273.283 -327.052 272.483L8.77861 174.74C14.9328 172.95 22.0714 178.105 24.6895 186.232L167.716 629.804C169.066 633.993 169.002 638.397 167.537 641.88C166.269 644.894 164.06 646.993 161.308 647.794L-174.517 745.536C-180.672 747.326 -187.808 742.178 -190.428 734.044L-333.449 290.471C-334.8 286.282 -334.734 281.885 -333.271 278.395L-333.276 278.396ZM166.394 640.956C167.703 637.835 167.767 633.896 166.555 630.143L23.5292 186.572C21.1814 179.29 14.7864 174.676 9.27281 176.28L-326.558 274.023C-329.02 274.737 -331.001 276.621 -332.132 279.319C-333.447 282.441 -333.506 286.38 -332.294 290.133L-189.268 733.704C-186.915 740.984 -180.525 745.6 -175.012 743.996L160.814 646.254C163.276 645.54 165.257 643.656 166.394 640.956Z" fill="#A1624D"/>
<path d="M-329.219 261.293C-327.945 258.264 -325.71 256.202 -322.926 255.479L5.82392 170.282C11.8561 168.721 18.7266 173.901 21.1423 181.838L152.582 614.094C153.787 618.059 153.689 622.216 152.31 625.499C151.035 628.529 148.8 630.591 146.012 631.315L-182.738 716.512C-188.771 718.073 -195.641 712.892 -198.055 704.963L-329.495 272.707C-330.7 268.741 -330.603 264.577 -329.219 261.293ZM151.162 624.577C152.393 621.647 152.481 617.935 151.406 614.394L19.9661 182.138C17.8123 175.057 11.6787 170.432 6.29254 171.827L-322.458 257.024C-324.943 257.673 -326.941 259.511 -328.076 262.217C-329.307 265.146 -329.395 268.858 -328.321 272.399L-196.887 704.65C-194.734 711.731 -188.6 716.356 -183.209 714.96L145.541 629.763C148.028 629.121 150.025 627.276 151.16 624.57L151.162 624.577Z" fill="#A1624D"/>
<path d="M-325.163 244.19C-323.882 241.145 -321.626 239.121 -318.798 238.481L2.87616 165.829C5.73915 165.181 8.84789 166.032 11.6328 168.229C14.4109 170.421 16.5301 173.695 17.6002 177.441L137.453 598.375C138.537 602.175 138.408 605.994 137.09 609.123C135.809 612.168 133.547 614.193 130.72 614.834L-190.952 687.492C-196.863 688.824 -203.47 683.619 -205.676 675.88L-325.529 254.946C-326.608 251.146 -326.484 247.328 -325.166 244.198L-325.163 244.19ZM135.936 608.202C137.104 605.419 137.224 602.024 136.257 598.644L16.4048 177.71C15.4561 174.376 13.5738 171.462 11.0997 169.519C8.62388 167.569 5.85825 166.811 3.31072 167.388L-318.357 240.045C-320.869 240.615 -322.883 242.415 -324.021 245.128C-325.189 247.911 -325.308 251.306 -324.347 254.687L-204.495 675.621C-202.535 682.502 -196.659 687.13 -191.399 685.95L130.276 613.298C132.789 612.735 134.802 610.929 135.942 608.222L135.936 608.202Z" fill="#A1624D"/>
<path d="M-321.11 227.086C-319.823 224.026 -317.53 222.037 -314.663 221.487L-0.0864226 161.378C5.70658 160.273 12.0423 165.512 14.0341 173.054L122.295 582.653C123.238 586.228 123.082 589.806 121.846 592.736C120.56 595.803 118.265 597.785 115.398 598.335L-199.183 658.446C-204.978 659.544 -211.312 654.312 -213.304 646.769L-321.563 237.177C-322.506 233.602 -322.352 230.018 -321.115 227.087L-321.11 227.086ZM120.704 591.819C121.797 589.22 121.938 586.046 121.099 582.88L12.8401 173.288C11.0724 166.601 5.4588 161.963 0.327648 162.941L-314.249 223.05C-316.789 223.534 -318.819 225.295 -319.962 228.009C-321.055 230.608 -321.196 233.781 -320.357 236.948L-212.098 646.54C-210.33 653.227 -204.722 657.866 -199.58 656.886L114.996 596.777C117.536 596.293 119.566 594.532 120.708 591.811L120.704 591.819Z" fill="#A1624D"/>
<path d="M-317.065 209.972C-315.784 206.928 -313.403 204.927 -310.532 204.489L-3.0312 156.925C-0.280129 156.504 2.63685 157.485 5.19114 159.707C7.74364 161.923 9.62743 165.103 10.4917 168.666L107.165 566.942C107.977 570.29 107.793 573.642 106.643 576.371C105.362 579.416 102.981 581.416 100.112 581.861L-207.389 629.426C-213.065 630.303 -219.128 625.037 -220.91 617.692L-317.579 219.414C-318.391 216.066 -318.206 212.714 -317.056 209.985L-317.065 209.972ZM105.495 575.449C106.508 573.035 106.674 570.074 105.957 567.123L9.28337 168.846C8.52171 165.706 6.8613 162.896 4.60611 160.944C2.34914 158.985 -0.226284 158.111 -2.65474 158.488L-310.156 206.053C-312.688 206.444 -314.792 208.212 -315.922 210.896C-316.935 213.31 -317.103 216.264 -316.384 219.222L-219.711 617.499C-218.139 623.979 -212.781 628.627 -207.772 627.857L99.7285 580.292C102.261 579.901 104.365 578.132 105.495 575.449Z" fill="#A1624D"/>
<path d="M-313.036 192.853C-311.745 189.785 -309.329 187.835 -306.406 187.492L-5.98553 152.472C-3.29636 152.162 -0.469185 153.211 1.96895 155.442C4.41222 157.673 6.17576 160.808 6.93796 164.271L92.0243 551.226C92.7105 554.346 92.5007 557.463 91.4307 560.008C90.1397 563.076 87.7255 565.034 84.8007 565.37L-215.625 600.39C-221.174 601.038 -226.974 595.747 -228.549 588.592L-313.635 201.636C-314.318 198.509 -314.108 195.392 -313.041 192.854L-313.036 192.853ZM90.2875 559.085C91.2245 556.848 91.4116 554.108 90.8103 551.366L5.72397 164.41C5.05238 161.365 3.50379 158.609 1.35963 156.649C-0.784516 154.689 -3.27168 153.762 -5.63465 154.041L-306.061 189.062C-308.628 189.361 -310.752 191.077 -311.888 193.776C-312.827 196.006 -313.007 198.751 -312.406 201.494L-227.319 588.45C-225.938 594.743 -220.839 599.394 -215.954 598.824L84.4669 563.805C87.0348 563.505 89.1631 561.788 90.2944 559.09L90.2875 559.085Z" fill="#A1624D"/>
<path d="M-309.008 175.728C-307.703 172.629 -305.249 170.72 -302.274 170.493L-8.9282 148.018C-3.49611 147.599 2.03189 152.923 3.39255 159.882L76.8933 535.523C77.4605 538.42 77.2274 541.31 76.2406 543.662C74.9363 546.761 72.4821 548.67 69.5064 548.897L-223.839 571.372C-229.273 571.785 -234.801 566.461 -236.16 559.508L-309.66 183.867C-310.228 180.97 -309.995 178.08 -309.008 175.728ZM75.0905 542.733C75.9561 540.672 76.1577 538.148 75.665 535.608L2.16422 159.968C0.971467 153.875 -3.86619 149.214 -8.62183 149.582L-301.965 172.063C-304.572 172.258 -306.718 173.929 -307.861 176.644C-308.727 178.704 -308.928 181.229 -308.436 183.768L-234.935 559.409C-233.744 565.495 -228.906 570.156 -224.149 569.795L69.1964 547.32C71.8014 547.118 73.9473 545.447 75.0905 542.733Z" fill="#A1624D"/>
<path d="M-304.995 158.593C-303.679 155.456 -301.183 153.602 -298.148 153.497L-11.8849 143.561C-6.57303 143.376 -1.31315 148.726 -0.166907 155.49L61.7465 519.809C62.2088 522.516 61.9601 525.107 61.0397 527.305C59.7239 530.441 57.2298 532.302 54.1945 532.407L-232.076 542.338C-237.388 542.522 -242.647 537.172 -243.794 530.408L-305.702 166.088C-306.164 163.381 -305.917 160.784 -304.995 158.593ZM59.8983 526.388C60.7008 524.474 60.9142 522.214 60.5126 519.853L-1.40084 155.534C-2.39964 149.642 -6.9843 144.979 -11.6195 145.133L-297.888 155.07C-300.534 155.16 -302.704 156.78 -303.852 159.516C-304.654 161.43 -304.868 163.69 -304.466 166.05L-242.558 530.37C-241.559 536.263 -236.974 540.926 -232.341 540.766L53.929 530.835C56.5696 530.746 58.7434 529.119 59.8932 526.389L59.8983 526.388Z" fill="#A1624D"/>
<path d="M-300.986 141.45C-299.669 138.321 -297.065 136.466 -294.014 136.498L-14.8265 139.107C-9.63484 139.158 -4.6482 144.535 -3.71126 151.101L46.6115 504.106C46.965 506.589 46.7068 508.964 45.8645 510.97C44.5468 514.1 41.9432 515.954 38.8925 515.922L-240.295 513.314C-245.487 513.263 -250.474 507.886 -251.411 501.319L-301.739 148.315C-302.092 145.832 -301.834 143.458 -300.986 141.45ZM44.7161 510.047C45.4505 508.302 45.6768 506.251 45.3665 504.09L-4.95621 151.085C-5.76797 145.387 -10.0945 140.721 -14.5987 140.679L-293.787 138.071C-296.43 138.048 -298.697 139.652 -299.838 142.373C-300.569 144.111 -300.794 146.168 -300.485 148.323L-250.162 501.328C-249.347 507.018 -245.024 511.691 -240.515 511.732L38.6749 514.348C41.3186 514.37 43.5781 512.761 44.7212 510.046L44.7161 510.047Z" fill="#A1624D"/>
<path d="M-296.986 124.303C-295.65 121.12 -292.993 119.325 -289.881 119.507L-17.768 134.66C-12.6966 134.946 -7.98138 140.357 -7.26065 146.72L31.4798 488.403C31.7348 490.66 31.4653 492.811 30.6994 494.64C29.3619 497.816 26.7045 499.611 23.5906 499.444L-248.522 484.291C-253.593 484.004 -258.309 478.594 -259.029 472.23L-297.765 130.546C-298.02 128.29 -297.747 126.131 -296.984 124.309L-296.986 124.303ZM29.5442 493.712C30.2072 492.143 30.4391 490.273 30.2205 488.333L-8.51481 146.65C-9.13953 141.146 -13.2097 136.471 -17.5898 136.228L-289.697 121.074C-292.387 120.92 -294.683 122.473 -295.84 125.219C-296.501 126.794 -296.735 128.657 -296.514 130.604L-257.779 472.288C-257.154 477.791 -253.086 482.459 -248.706 482.702L23.407 497.855C26.095 498.003 28.3929 496.456 29.5475 493.704L29.5442 493.712Z" fill="#A1624D"/>
<path d="M-293.004 107.137C-291.665 103.947 -288.882 102.176 -285.748 102.501L-20.7153 130.199C-15.7659 130.714 -11.3273 136.16 -10.821 142.327L16.3338 472.695C16.5023 474.73 16.2233 476.665 15.5322 478.31C14.1913 481.494 11.4106 483.272 8.27594 482.947L-256.761 455.249C-261.711 454.734 -266.149 449.289 -266.658 443.114L-293.805 112.752C-293.974 110.717 -293.697 108.776 -293.004 107.137ZM14.3856 477.394C14.977 475.98 15.2199 474.313 15.0755 472.569L-12.0741 142.2C-12.51 136.898 -16.3289 132.214 -20.585 131.77L-285.617 104.072C-288.353 103.786 -290.687 105.277 -291.855 108.06C-292.452 109.475 -292.69 111.141 -292.545 112.885L-265.396 443.254C-264.96 448.556 -261.141 453.24 -256.885 453.683L8.14737 481.382C10.8832 481.668 13.2177 480.177 14.3856 477.394Z" fill="#A1624D"/>
<path d="M-289.028 89.9667C-287.663 86.7148 -284.82 85.0087 -281.611 85.5088L-23.6542 125.752C-18.8232 126.509 -14.6578 131.981 -14.3659 137.953L1.20138 456.999C1.28672 458.805 1.00695 460.536 0.392275 462.004C-0.973432 465.255 -3.81651 466.962 -7.03026 466.463L-264.987 426.219C-269.816 425.469 -273.982 419.997 -274.274 414.025L-289.836 94.9778C-289.926 93.1735 -289.641 91.4413 -289.027 89.9734L-289.028 89.9667ZM-0.761156 461.082C-0.234469 459.829 0.00385995 458.345 -0.0714891 456.798L-15.6337 137.751C-15.8825 132.644 -19.4484 127.958 -23.5753 127.313L-281.532 87.0691C-284.28 86.6379 -286.712 88.1064 -287.882 90.8825C-288.414 92.1367 -288.652 93.6203 -288.577 95.1672L-273.015 414.214C-272.766 419.322 -269.2 424.007 -265.068 424.652L-7.11099 464.896C-4.36494 465.32 -1.93091 463.858 -0.75603 461.081L-0.761156 461.082Z" fill="#A1624D"/>
</g>
</svg>
