<svg width="259" height="340" viewBox="0 0 259 340" fill="none" xmlns="http://www.w3.org/2000/svg">
<mask id="mask0_30527_620" style="mask-type:alpha" maskUnits="userSpaceOnUse" x="0" y="0" width="259" height="340">
<rect x="0.896484" y="0.366211" width="257.758" height="339.634" fill="#D9D9D9"/>
</mask>
<g mask="url(#mask0_30527_620)">
<g opacity="0.8">
<path d="M162.464 297.636C161.482 296.02 161.086 294.311 161.317 292.699L198.418 34.1225C198.743 31.8561 200.256 29.9924 202.68 28.8745C205.103 27.7566 208.147 27.5208 211.246 28.2059L565.11 106.479C569.109 107.365 572.563 109.651 574.353 112.594C575.335 114.211 575.733 115.917 575.5 117.531L538.399 376.108C538.075 378.374 536.562 380.235 534.139 381.353C531.716 382.471 528.676 382.708 525.572 382.022L171.709 303.748C167.709 302.865 164.254 300.58 162.464 297.636ZM573.514 112.785C571.867 110.076 568.689 107.974 565.009 107.16L211.144 28.8888C208.291 28.2556 205.491 28.4756 203.262 29.5041C201.032 30.5325 199.639 32.2453 199.345 34.3311L162.244 292.908C162.031 294.391 162.396 295.961 163.302 297.448C164.949 300.157 168.127 302.259 171.806 303.076L525.672 381.344C528.527 381.975 531.325 381.757 533.554 380.729C535.78 379.699 537.177 377.988 537.471 375.902L574.572 117.325C574.787 115.84 574.421 114.27 573.516 112.782L573.514 112.785Z" fill="#A1624D" fill-opacity="0.51"/>
<path d="M155.733 289.754C154.749 288.14 154.368 286.437 154.628 284.831L195.175 33.7676C195.532 31.5647 197.041 29.7655 199.429 28.6999C201.817 27.6343 204.798 27.4334 207.819 28.131L552.272 107.631C556.112 108.516 559.428 110.734 561.151 113.565C562.133 115.181 562.516 116.882 562.255 118.488L521.709 369.552C520.976 374.098 515.303 376.627 509.065 375.188L164.61 295.69C160.775 294.804 157.454 292.588 155.733 289.754ZM560.313 113.756C558.733 111.156 555.686 109.12 552.165 108.306L207.709 28.8109C204.937 28.1693 202.2 28.3545 200.01 29.3321C197.815 30.3082 196.429 31.9607 196.103 33.983L155.556 285.047C155.32 286.52 155.671 288.084 156.57 289.566C158.149 292.166 161.196 294.202 164.719 295.013L509.173 374.511C514.899 375.83 520.109 373.512 520.78 369.339L561.324 118.271C561.565 116.796 561.213 115.235 560.31 113.752L560.313 113.756Z" fill="#A1624D" fill-opacity="0.51"/>
<path d="M149.001 281.874C148.019 280.258 147.651 278.564 147.943 276.968L191.932 33.4109C192.731 28.9955 198.319 26.593 204.394 28.0585L539.434 108.78C543.114 109.667 546.296 111.817 547.944 114.533C548.928 116.147 549.294 117.844 549.006 119.442L505.014 362.997C504.625 365.136 503.117 366.869 500.764 367.883C498.412 368.893 495.494 369.059 492.55 368.352L157.51 287.631C153.833 286.745 150.652 284.595 149 281.877L149.001 281.874ZM547.107 114.721C545.595 112.234 542.678 110.263 539.31 109.451L204.27 28.7297C198.705 27.3875 193.585 29.589 192.855 33.6342L148.867 277.191C148.601 278.652 148.938 280.208 149.837 281.689C151.349 284.177 154.266 286.148 157.63 286.958L492.671 367.677C495.367 368.325 498.038 368.174 500.195 367.246C502.35 366.32 503.733 364.73 504.087 362.769L548.078 119.217C548.344 117.755 548.008 116.2 547.107 114.721Z" fill="#A1624D" fill-opacity="0.51"/>
<path d="M142.262 273.993C141.279 272.38 140.929 270.686 141.249 269.098L188.683 33.0543C189.1 30.9768 190.608 29.307 192.925 28.3488C195.246 27.392 198.098 27.2593 200.962 27.9794L526.596 109.929C530.114 110.814 533.157 112.896 534.738 115.5C535.717 117.114 536.071 118.807 535.75 120.398L488.316 356.442C487.455 360.725 481.948 363.001 476.038 361.514L150.409 279.566C146.891 278.681 143.848 276.599 142.266 273.995L142.262 273.993ZM533.905 115.689C532.457 113.31 529.675 111.406 526.459 110.598L200.83 28.6501C198.211 27.9913 195.606 28.1124 193.485 28.9854C191.369 29.8599 189.989 31.3887 189.608 33.2844L142.173 269.331C141.884 270.783 142.202 272.331 143.096 273.804C144.544 276.183 147.322 278.086 150.538 278.894L476.168 360.839C481.567 362.196 486.599 360.118 487.39 356.205L534.828 120.163C535.12 118.712 534.799 117.162 533.905 115.689Z" fill="#A1624D" fill-opacity="0.51"/>
<path d="M135.524 266.116C134.541 264.499 134.211 262.814 134.56 261.231L185.441 32.6972C185.888 30.6859 187.393 29.0779 189.678 28.1761C191.963 27.2717 194.751 27.1765 197.538 27.9065L513.759 111.079C517.118 111.963 520.028 113.976 521.542 116.467C522.525 118.083 522.859 119.771 522.508 121.35L471.627 349.883C471.178 351.897 469.674 353.502 467.388 354.407C465.106 355.313 462.313 355.409 459.533 354.675L143.315 271.507C139.955 270.623 137.047 268.608 135.532 266.116L135.524 266.116ZM520.704 116.658C519.325 114.386 516.673 112.549 513.611 111.743L197.394 28.5727C194.857 27.9055 192.314 27.9917 190.231 28.8166C188.148 29.6414 186.778 31.1072 186.369 32.9383L135.488 261.472C135.166 262.91 135.469 264.449 136.363 265.922C137.743 268.192 140.395 270.028 143.456 270.837L459.673 354.008C462.21 354.675 464.753 354.588 466.837 353.761C468.92 352.936 470.291 351.47 470.701 349.637L521.579 121.109C521.902 119.67 521.594 118.13 520.704 116.658Z" fill="#A1624D" fill-opacity="0.51"/>
<path d="M128.783 258.238C127.801 256.622 127.488 254.937 127.871 253.368L182.199 32.3447C183.185 28.3235 188.533 26.3024 194.115 27.8382L500.92 112.229C504.119 113.109 506.889 115.053 508.337 117.432C509.32 119.048 509.634 120.731 509.248 122.305L454.92 343.328C454.444 345.278 452.937 346.818 450.69 347.672C448.439 348.524 445.71 348.583 443.006 347.839L136.199 263.444C133.001 262.564 130.226 260.619 128.778 258.239L128.783 258.238ZM507.503 117.624C506.188 115.46 503.666 113.692 500.756 112.89L193.949 28.4953C188.873 27.1001 184.014 28.9389 183.115 32.5933L128.787 253.616C128.435 255.04 128.722 256.576 129.614 258.045C130.928 260.209 133.451 261.977 136.361 262.779L443.168 347.174C445.628 347.851 448.109 347.797 450.154 347.023C452.199 346.246 453.569 344.846 454.002 343.076L508.334 122.054C508.687 120.628 508.398 119.095 507.506 117.626L507.503 117.624Z" fill="#A1624D" fill-opacity="0.51"/>
<path d="M122.041 250.357C121.059 248.741 120.763 247.06 121.182 245.499L178.956 31.9886C179.468 30.1043 180.967 28.6269 183.183 27.8271C185.399 27.0273 188.064 27.006 190.69 27.7596L488.084 113.377C491.169 114.265 493.743 116.095 495.146 118.4C496.131 120.02 496.425 121.697 496 123.259L438.23 336.771C437.178 340.661 431.915 342.555 426.494 340.996L129.1 255.378C126.011 254.488 123.437 252.659 122.039 250.353L122.041 250.357ZM494.308 118.59C493.042 116.502 490.706 114.844 487.907 114.037L190.513 28.4188C188.133 27.736 185.718 27.7567 183.707 28.481C181.697 29.2053 180.339 30.5436 179.875 32.2508L122.101 245.761C121.716 247.178 121.987 248.7 122.876 250.165C124.146 252.254 126.482 253.913 129.277 254.719L426.671 340.336C431.583 341.751 436.355 340.032 437.309 336.505L495.083 122.995C495.468 121.578 495.197 120.055 494.305 118.586L494.308 118.59Z" fill="#A1624D" fill-opacity="0.51"/>
<path d="M115.291 242.482C114.306 240.862 114.03 239.185 114.491 237.631L175.708 31.6301C176.249 29.8078 177.75 28.398 179.93 27.6531C182.113 26.9098 184.717 26.9207 187.259 27.6879L475.24 114.528C478.169 115.411 480.608 117.174 481.945 119.366C482.929 120.986 483.206 122.663 482.748 124.218L421.527 330.217C420.987 332.04 419.489 333.451 417.305 334.194C415.122 334.938 412.519 334.927 409.973 334.158L121.987 247.319C119.057 246.436 116.618 244.674 115.286 242.483L115.291 242.482ZM481.114 119.559C479.908 117.578 477.699 115.984 475.055 115.185L187.073 28.3468C184.772 27.6514 182.418 27.6399 180.445 28.316C178.474 28.9896 177.116 30.2645 176.626 31.9112L115.409 237.912C114.99 239.316 115.241 240.833 116.13 242.298C117.336 244.279 119.545 245.874 122.189 246.673L410.17 333.513C412.472 334.206 414.826 334.217 416.797 333.544C418.769 332.87 420.127 331.595 420.616 329.949L481.834 123.948C482.252 122.544 482.002 121.027 481.112 119.562L481.114 119.559Z" fill="#A1624D" fill-opacity="0.51"/>
<path d="M108.546 234.607C107.575 233.005 107.307 231.284 107.806 229.765L172.469 31.2766C173.04 29.5204 174.539 28.1724 176.687 27.4814C178.835 26.7904 181.375 26.8388 183.842 27.6201L462.414 115.685C465.18 116.558 467.493 118.255 468.757 120.336C469.73 121.935 469.992 123.657 469.497 125.178L404.833 323.669C404.262 325.425 402.764 326.773 400.615 327.464C398.467 328.155 395.927 328.106 393.46 327.325L114.889 239.26C112.123 238.387 109.81 236.691 108.544 234.612L108.546 234.607ZM467.925 120.522C466.785 118.647 464.699 117.117 462.204 116.328L183.632 28.263C181.411 27.5619 179.12 27.5155 177.186 28.1409C175.249 28.7621 173.897 29.9793 173.385 31.5629L108.72 230.054C108.272 231.426 108.51 232.977 109.389 234.418C110.528 236.294 112.615 237.823 115.111 238.61L393.683 326.675C395.904 327.376 398.195 327.422 400.133 326.798C402.066 326.176 403.416 324.961 403.934 323.376L468.599 124.886C469.047 123.513 468.808 121.963 467.93 120.521L467.925 120.522Z" fill="#A1624D" fill-opacity="0.51"/>
<path d="M101.794 226.73C100.817 225.122 100.578 223.407 101.114 221.896L169.224 30.9177C169.827 29.225 171.324 27.9431 173.438 27.3044C175.551 26.6657 178.031 26.7531 180.416 27.5428L449.579 116.832C452.19 117.697 454.373 119.325 455.57 121.296C456.543 122.903 456.786 124.62 456.249 126.133L388.139 317.111C386.893 320.604 381.873 322.118 376.948 320.483L107.789 231.196C105.178 230.331 102.995 228.703 101.798 226.731L101.794 226.73ZM454.736 121.486C453.659 119.714 451.698 118.251 449.351 117.474L180.192 28.1864C178.049 27.4754 175.823 27.3983 173.924 27.9713C172.025 28.5444 170.678 29.6971 170.137 31.2187L102.026 222.197C101.544 223.555 101.76 225.097 102.637 226.541C103.714 228.312 105.675 229.776 108.022 230.553L377.182 319.837C381.608 321.307 386.117 319.946 387.238 316.805L455.348 125.827C455.831 124.469 455.615 122.927 454.738 121.483L454.736 121.486Z" fill="#A1624D" fill-opacity="0.51"/>
<path d="M95.0372 218.855C94.0561 217.246 93.8401 215.53 94.425 214.029L165.982 30.562C167.294 27.2004 172.233 25.8143 176.991 27.4739L436.741 117.986C439.194 118.841 441.253 120.4 442.385 122.263C443.365 123.875 443.582 125.588 442.996 127.091L371.44 310.556C370.127 313.918 365.193 315.305 360.43 313.644L100.682 223.13C98.2293 222.275 96.1744 220.717 95.0385 218.853L95.0372 218.855ZM441.547 122.451C440.532 120.783 438.693 119.385 436.495 118.62L176.745 28.1084C172.481 26.6226 168.058 27.8653 166.883 30.8773L95.326 214.345C94.8004 215.689 94.9962 217.226 95.8745 218.667C96.8889 220.338 98.7292 221.733 100.927 222.498L360.677 313.01C364.942 314.493 369.364 313.253 370.539 310.241L442.095 126.776C442.62 125.432 442.424 123.895 441.547 122.451Z" fill="#A1624D" fill-opacity="0.51"/>
<path d="M88.2808 210.982C87.2961 209.361 87.1054 207.65 87.7396 206.159L162.743 30.2047C164.12 26.9769 168.977 25.7192 173.574 27.4024L423.914 119.139C426.21 119.981 428.14 121.469 429.208 123.224C430.193 124.845 430.384 126.556 429.748 128.049L354.745 304.004C353.368 307.232 348.511 308.489 343.917 306.808L93.5773 215.072C91.2813 214.229 89.3473 212.739 88.2808 210.982ZM428.37 123.415C427.417 121.849 425.694 120.519 423.644 119.766L173.304 28.0304C169.202 26.5278 164.866 27.6505 163.637 30.5332L88.634 206.488C88.0693 207.819 88.2373 209.348 89.1181 210.794C90.0706 212.36 91.7939 213.689 93.8439 214.442L344.179 306.179C348.28 307.682 352.616 306.559 353.847 303.674L428.85 127.719C429.418 126.389 429.247 124.859 428.366 123.413L428.37 123.415Z" fill="#A1624D" fill-opacity="0.51"/>
<path d="M81.5196 203.108C80.5299 201.479 80.3644 199.771 81.0531 198.29L159.504 29.8461C160.201 28.3465 161.693 27.2585 163.708 26.7824C165.717 26.3075 168.008 26.5022 170.153 27.3279L411.08 120.287C413.256 121.125 415.015 122.51 416.032 124.184C417.022 125.813 417.186 127.523 416.497 129.004L338.05 297.45C336.608 300.544 331.832 301.676 327.401 299.968L86.4739 207.009C84.2996 206.169 82.539 204.786 81.5221 203.112L81.5196 203.108ZM415.192 124.377C414.286 122.89 412.724 121.657 410.788 120.912L169.861 27.9536C167.953 27.217 165.916 27.0421 164.13 27.468C162.341 27.8924 161.013 28.8599 160.393 30.1945L81.9473 198.638C81.3359 199.954 81.4799 201.476 82.3631 202.926C83.2686 204.413 84.831 205.646 86.7656 206.393L327.693 299.352C331.631 300.871 335.878 299.865 337.165 297.113L415.615 128.668C416.231 127.354 416.083 125.83 415.203 124.382L415.192 124.377Z" fill="#A1624D" fill-opacity="0.51"/>
<path d="M74.7514 195.236C73.7568 193.599 73.6206 191.887 74.3661 190.42L156.258 29.4862C157.767 26.5234 162.464 25.5239 166.727 27.2591L398.243 121.443C400.263 122.265 401.899 123.579 402.85 125.148C403.848 126.786 403.981 128.497 403.235 129.964L321.342 290.9C319.829 293.862 315.136 294.863 310.873 293.127L79.3609 198.945C77.3411 198.123 75.7013 196.808 74.7501 195.239L74.7514 195.236ZM402.016 125.337C401.172 123.947 399.721 122.781 397.931 122.054L166.418 27.8719C162.639 26.3342 158.478 27.2209 157.142 29.8452L75.2499 190.779C74.588 192.078 74.708 193.593 75.59 195.046C76.4347 196.436 77.8851 197.602 79.6755 198.329L311.188 292.511C314.968 294.049 319.127 293.165 320.466 290.535L402.358 129.602C403.02 128.303 402.9 126.787 402.014 125.333L402.016 125.337Z" fill="#A1624D" fill-opacity="0.51"/>
<path d="M67.98 187.366C66.9903 185.737 66.8801 183.982 67.6796 182.552L153.018 29.1287C153.784 27.7577 155.27 26.8001 157.216 26.4355C159.158 26.0694 161.322 26.3364 163.308 27.1899L385.411 122.596C387.278 123.399 388.797 124.646 389.684 126.106C390.674 127.735 390.784 129.49 389.988 130.922L304.649 284.345C303.073 287.177 298.46 288.045 294.363 286.285L72.2614 190.876C70.3947 190.074 68.8757 188.827 67.9889 187.366L67.98 187.366ZM388.845 126.297C388.06 125.007 386.719 123.904 385.073 123.197L162.97 27.7905C161.219 27.0382 159.309 26.8004 157.596 27.1259C155.879 27.4498 154.563 28.2925 153.889 29.5046L68.5504 182.928C67.8472 184.191 67.9452 185.742 68.8172 187.178C69.6026 188.468 70.9398 189.569 72.5897 190.278L294.693 285.684C298.306 287.237 302.381 286.468 303.773 283.97L389.112 130.547C389.815 129.284 389.717 127.733 388.845 126.297Z" fill="#A1624D" fill-opacity="0.51"/>
<path d="M61.2047 179.496C60.2076 177.855 60.1329 176.102 60.9956 174.681L149.78 28.7712C150.577 27.4663 152.064 26.5722 153.973 26.2625C155.884 25.9502 157.983 26.2547 159.887 27.1192L372.577 123.748C374.292 124.527 375.692 125.704 376.519 127.065C377.516 128.706 377.595 130.462 376.728 131.881L287.942 277.793C286.302 280.488 281.769 281.231 277.835 279.445L65.1452 182.816C63.4279 182.033 62.0284 180.856 61.2034 179.499L61.2047 179.496ZM375.682 127.253C374.953 126.059 373.724 125.023 372.217 124.337L159.527 27.7081C157.853 26.9485 156.008 26.68 154.329 26.9531C152.651 27.2263 151.341 28.0112 150.645 29.1603L61.8587 175.073C61.1 176.32 61.1663 177.862 62.0433 179.306C62.7679 180.499 64.0021 181.533 65.509 182.219L278.199 278.848C281.658 280.421 285.643 279.768 287.087 277.395L375.871 131.485C376.63 130.238 376.565 128.694 375.687 127.252L375.682 127.253Z" fill="#A1624D" fill-opacity="0.51"/>
<path d="M54.4262 171.629C53.4191 169.971 53.3774 168.215 54.3135 166.811L146.545 28.4114C148.252 25.8473 152.706 25.2371 156.471 27.0505L359.752 124.904C361.32 125.659 362.604 126.767 363.37 128.024C364.377 129.682 364.419 131.438 363.483 132.841L271.251 271.241C269.541 273.804 265.087 274.414 261.325 272.602L58.0436 174.748C56.4755 173.994 55.1917 172.886 54.4262 171.629ZM362.528 128.213C361.857 127.111 360.735 126.144 359.362 125.481L156.081 27.6271C152.784 26.0403 148.885 26.5737 147.392 28.8185L55.1636 167.22C54.3417 168.448 54.379 169.984 55.2609 171.437C55.9311 172.538 57.0533 173.505 58.4261 174.169L261.707 272.022C265.001 273.608 268.899 273.074 270.397 270.831L362.629 132.431C363.447 131.201 363.409 129.665 362.528 128.213Z" fill="#A1624D" fill-opacity="0.51"/>
<path d="M47.6354 163.761C46.6147 162.085 46.6136 160.33 47.6281 158.942L143.302 28.0536C145.077 25.6249 149.45 25.143 153.048 26.9837L346.916 126.06C348.357 126.795 349.494 127.806 350.21 128.98C351.231 130.656 351.236 132.413 350.221 133.801L254.542 264.69C252.767 267.119 248.394 267.601 244.796 265.76L50.9298 166.681C49.4883 165.946 48.3476 164.933 47.6354 163.761ZM349.377 129.17C348.753 128.147 347.76 127.267 346.504 126.625L152.636 27.5486C149.501 25.945 145.69 26.3651 144.138 28.4818L48.4626 159.373C47.5776 160.582 47.582 162.111 48.4727 163.573C49.0958 164.596 50.0887 165.476 51.3451 166.118L245.212 265.197C248.346 266.801 252.157 266.38 253.706 264.262L349.385 133.373C350.269 132.166 350.262 130.633 349.375 129.172L349.377 129.17Z" fill="#A1624D" fill-opacity="0.51"/>
<path d="M40.8399 155.896C39.8229 154.222 39.8593 152.418 40.9442 151.071L140.065 27.6931C141.91 25.3997 146.199 25.0488 149.63 26.9142L334.088 127.217C335.385 127.923 336.417 128.863 337.069 129.936C338.086 131.61 338.05 133.414 336.965 134.761L237.844 258.139C236 260.432 231.71 260.783 228.279 258.917L43.8201 158.617C42.5227 157.911 41.4913 156.971 40.8399 155.896ZM336.231 130.126C335.663 129.193 334.774 128.379 333.644 127.766L149.186 27.4627C146.209 25.8435 142.487 26.1477 140.888 28.1382L41.7672 151.516C40.8294 152.685 40.7927 154.251 41.6784 155.705C42.2432 156.635 43.1369 157.45 44.2631 158.062L228.721 258.365C231.695 259.98 235.419 259.68 237.02 257.687L336.145 134.31C337.082 133.141 337.114 131.576 336.232 130.124L336.231 130.126Z" fill="#A1624D" fill-opacity="0.51"/>
<path d="M34.038 148.03C33.0025 146.33 33.0858 144.523 34.2629 143.2L136.831 27.3327C138.745 25.1746 142.955 24.9563 146.214 26.8475L321.26 128.371C322.416 129.042 323.338 129.909 323.934 130.886C324.966 132.586 324.882 134.393 323.712 135.721L221.143 251.588C219.23 253.746 215.02 253.964 211.76 252.073L36.7155 150.547C35.5598 149.876 34.6352 149.005 34.0418 148.032L34.038 148.03ZM323.09 131.078C322.581 130.237 321.779 129.484 320.786 128.907L145.741 27.3812C142.921 25.7463 139.285 25.9331 137.635 27.7986L35.0679 143.663C34.0519 144.807 33.981 146.369 34.8728 147.838C35.3856 148.68 36.1838 149.432 37.1812 150.011L212.226 251.537C215.045 253.171 218.678 252.983 220.328 251.118L322.897 135.25C323.909 134.105 323.983 132.544 323.088 131.074L323.09 131.078Z" fill="#A1624D" fill-opacity="0.51"/>
<path d="M27.2248 140.166C26.1868 138.461 26.3253 136.607 27.578 135.324L133.592 26.9698C135.571 24.9455 139.7 24.8624 142.792 26.7809L308.429 129.528C309.449 130.161 310.266 130.958 310.801 131.837C311.835 133.541 311.701 135.396 310.448 136.679L204.433 245.036C202.454 247.06 198.324 247.143 195.229 245.223L29.5972 142.475C28.5765 141.843 27.7561 141.044 27.2248 140.166ZM309.966 132.029C309.505 131.274 308.803 130.587 307.928 130.045L142.293 27.2945C139.634 25.6454 136.082 25.7175 134.38 27.4579L28.3661 135.812C27.2718 136.931 27.1579 138.488 28.0634 139.976C28.5229 140.733 29.2269 141.418 30.1018 141.96L195.737 244.71C198.395 246.359 201.948 246.287 203.65 244.547L309.664 136.192C310.758 135.074 310.872 133.516 309.966 132.029Z" fill="#A1624D" fill-opacity="0.51"/>
<path d="M20.4037 132.305C19.3459 130.567 19.5365 128.708 20.8978 127.453L130.359 26.6094C132.411 24.7219 136.457 24.7698 139.381 26.7156L295.605 130.686C296.488 131.275 297.208 132.002 297.686 132.786C298.744 134.524 298.553 136.383 297.19 137.64L187.729 238.484C185.682 240.373 181.635 240.325 178.711 238.379L22.4887 134.406C21.6044 133.819 20.8857 133.09 20.4075 132.306L20.4037 132.305ZM296.846 132.979C296.438 132.309 295.821 131.687 295.063 131.183L138.841 27.2098C136.34 25.5451 132.876 25.5039 131.124 27.1166L21.6628 127.961C20.4957 129.034 20.3368 130.627 21.2385 132.113C21.6447 132.786 22.2622 133.407 23.0197 133.912L179.242 237.885C181.743 239.549 185.207 239.59 186.961 237.975L296.422 137.131C297.585 136.056 297.748 134.464 296.847 132.976L296.846 132.979Z" fill="#A1624D" fill-opacity="0.51"/>
</g>
</g>
</svg>
