<svg width="218" height="488" viewBox="0 0 218 488" fill="none" xmlns="http://www.w3.org/2000/svg">
<mask id="mask0_30527_718" style="mask-type:alpha" maskUnits="userSpaceOnUse" x="0" y="0" width="218" height="488">
<rect width="218" height="488" fill="#D9D9D9"/>
</mask>
<g mask="url(#mask0_30527_718)">
<g opacity="0.8">
<path d="M119.62 64.1281C120.093 65.9547 120.078 68.0196 119.578 70.0918L39.3457 402.619C38.6429 405.533 37.0644 408.189 34.901 410.095C32.7376 412.002 30.2486 412.93 27.894 412.712L-240.879 387.764C-243.916 387.481 -246.243 385.326 -247.105 381.999C-247.578 380.172 -247.565 378.111 -247.063 376.035L-166.831 43.508C-166.128 40.5935 -164.551 37.942 -162.388 36.0351C-160.224 34.1282 -157.738 33.1998 -155.381 33.4187L113.392 58.3664C116.431 58.6462 118.758 60.8012 119.62 64.1281ZM-246.395 381.586C-245.601 384.647 -243.46 386.629 -240.665 386.888L28.1095 411.833C30.2763 412.036 32.5666 411.179 34.5568 409.425C36.5469 407.671 37.9996 405.23 38.6426 402.549L118.875 70.0219C119.335 68.115 119.348 66.2183 118.912 64.5378C118.118 61.4758 115.977 59.4947 113.183 59.2313L-155.593 34.2907C-157.761 34.0905 -160.05 34.9439 -162.04 36.6982C-164.028 38.4535 -165.483 40.8931 -166.126 43.5743L-246.358 376.101C-246.82 378.012 -246.833 379.909 -246.397 381.589L-246.395 381.586Z" fill="#A1624D"/>
<path d="M123.702 72.6438C124.176 74.4668 124.15 76.5271 123.628 78.5987L42.0954 402.402C41.3793 405.244 39.8172 407.817 37.6921 409.651C35.567 411.484 33.1351 412.355 30.8462 412.105L-230.133 383.664C-233.043 383.349 -235.272 381.251 -236.103 378.051C-236.576 376.225 -236.551 374.168 -236.029 372.097L-154.497 48.293C-153.021 42.4295 -147.974 38.0756 -143.247 38.5901L117.734 67.0272C120.639 67.3451 122.873 69.4405 123.702 72.6438ZM-235.393 377.638C-234.632 380.577 -232.584 382.503 -229.916 382.795L31.0672 411.228C33.1671 411.459 35.4003 410.659 37.3494 408.977C39.3013 407.296 40.7363 404.932 41.3927 402.324L122.925 78.5205C123.402 76.6203 123.426 74.7281 122.993 73.0535C122.233 70.1151 120.184 68.1889 117.514 67.9005L-143.467 39.4634C-147.806 38.9944 -152.44 42.986 -153.792 48.3676L-235.323 372.176C-235.804 374.079 -235.827 375.967 -235.392 377.643L-235.393 377.638Z" fill="#A1624D"/>
<path d="M127.786 81.151C128.259 82.9776 128.223 85.0298 127.677 87.0959L44.846 402.181C43.3425 407.893 38.3887 412.07 33.798 411.489L-219.39 379.567C-222.171 379.216 -224.305 377.174 -225.098 374.104C-225.573 372.281 -225.536 370.225 -224.993 368.158L-142.159 53.0744C-141.429 50.3062 -139.881 47.8163 -137.794 46.0554C-135.709 44.298 -133.334 43.4843 -131.109 43.7626L122.079 75.6843C124.857 76.0344 126.991 78.0761 127.787 81.1474L127.786 81.151ZM-224.39 373.694C-223.661 376.505 -221.705 378.377 -219.16 378.698L34.0284 410.62C38.2333 411.152 42.773 407.325 44.148 402.092L126.979 87.007C127.478 85.1159 127.511 83.2317 127.078 81.5571C126.35 78.746 124.393 76.8747 121.851 76.5542L-131.339 44.6362C-133.376 44.3801 -135.549 45.1246 -137.462 46.7376C-139.372 48.347 -140.793 50.632 -141.46 53.1681L-224.292 368.248C-224.791 370.139 -224.824 372.023 -224.39 373.694Z" fill="#A1624D"/>
<path d="M131.872 89.6638C132.347 91.4867 132.297 93.5417 131.73 95.6035L47.5992 401.965C46.8591 404.661 45.3227 407.071 43.2758 408.756C41.2262 410.439 38.9112 411.197 36.7522 410.886L-208.645 375.471C-211.296 375.088 -213.333 373.104 -214.094 370.161C-214.565 368.335 -214.519 366.283 -213.951 364.218L-129.82 57.8565C-128.293 52.2974 -123.428 48.2952 -118.974 48.9383L126.42 84.3529C129.072 84.7351 131.108 86.7196 131.869 89.6626L131.872 89.6638ZM-213.388 369.75C-212.69 372.439 -210.829 374.254 -208.405 374.602L36.9896 410.016C38.9628 410.301 41.0779 409.608 42.9504 408.072C44.8201 406.534 46.2256 404.328 46.9016 401.867L131.034 95.5026C131.549 93.6183 131.597 91.7398 131.166 90.0745C130.468 87.386 128.61 85.5719 126.186 85.2242L-119.211 49.8131C-123.279 49.2274 -127.724 52.8825 -129.123 57.962L-213.256 364.322C-213.774 366.205 -213.819 368.085 -213.388 369.75Z" fill="#A1624D"/>
<path d="M135.96 98.1726C136.433 99.9992 136.369 102.048 135.78 104.11L50.3474 401.751C49.5956 404.37 48.0741 406.702 46.0643 408.309C44.0529 409.919 41.7966 410.617 39.7018 410.278L-197.901 371.374C-200.425 370.96 -202.368 369.035 -203.098 366.219C-203.571 364.392 -203.51 362.342 -202.92 360.286L-117.487 62.6444C-116.734 60.0213 -115.214 57.6929 -113.202 56.0827C-111.194 54.4713 -108.933 53.7711 -106.844 54.1162L130.757 93.0154C133.282 93.4298 135.223 95.3582 135.953 98.174L135.96 98.1726ZM-202.387 365.806C-201.724 368.374 -199.954 370.131 -197.653 370.508L39.9474 409.411C41.8537 409.723 43.9117 409.087 45.7447 407.619C47.5777 406.151 48.964 404.026 49.6491 401.641L135.082 103.999C135.622 102.125 135.678 100.255 135.248 98.5894C134.583 96.0245 132.812 94.2679 130.513 93.8869L-107.087 54.9841C-108.993 54.672 -111.051 55.3078 -112.886 56.7795C-114.719 58.2477 -116.105 60.3733 -116.792 62.7618L-202.221 360.396C-202.761 362.27 -202.815 364.142 -202.387 365.806Z" fill="#A1624D"/>
<path d="M140.049 106.682C140.523 108.508 140.445 110.56 139.831 112.611L53.097 401.532C51.5213 406.788 46.8337 410.436 42.6526 409.665L-187.154 367.277C-189.55 366.836 -191.395 364.968 -192.093 362.279C-192.566 360.453 -192.49 358.404 -191.873 356.346L-105.139 67.4251C-104.377 64.8776 -102.866 62.6299 -100.896 61.0915C-98.9225 59.5543 -96.7206 58.9145 -94.6957 59.288L135.112 101.68C137.508 102.122 139.356 103.991 140.054 106.679L140.049 106.682ZM-191.385 361.865C-190.753 364.311 -189.073 366.009 -186.893 366.413L42.9147 408.805C46.7167 409.505 50.9757 406.187 52.4103 401.41L139.145 112.489C139.705 110.627 139.774 108.758 139.345 107.097C138.712 104.651 137.032 102.953 134.853 102.549L-94.9555 60.1574C-96.7976 59.8169 -98.8001 60.3994 -100.592 61.7957C-102.386 63.1956 -103.758 65.238 -104.451 67.5521L-191.188 356.472C-191.75 358.337 -191.817 360.203 -191.388 361.864L-191.385 361.865Z" fill="#A1624D"/>
<path d="M144.141 115.192C144.614 117.019 144.524 119.07 143.882 121.117L55.8479 401.315C55.0693 403.788 53.5778 405.955 51.6431 407.419C49.7084 408.884 47.5651 409.463 45.6044 409.061L-176.409 363.181C-178.712 362.705 -180.421 360.94 -181.098 358.336C-181.572 356.505 -181.481 354.459 -180.835 352.409L-92.8038 72.2097C-91.2002 67.1048 -86.6061 63.6337 -82.5591 64.4685L139.454 110.349C141.76 110.825 143.469 112.59 144.142 115.197L144.141 115.192ZM-180.388 357.923C-179.779 360.283 -178.227 361.882 -176.138 362.316L45.875 408.196C47.6519 408.561 49.5945 408.034 51.3497 406.707C53.1049 405.38 54.4557 403.417 55.1619 401.176L143.196 120.979C143.781 119.119 143.861 117.262 143.433 115.606C142.822 113.245 141.27 111.646 139.184 111.214L-82.8298 65.3334C-86.4964 64.575 -90.6624 67.7238 -92.1167 72.3533L-180.151 352.551C-180.736 354.411 -180.816 356.267 -180.387 357.928L-180.388 357.923Z" fill="#A1624D"/>
<path d="M148.235 123.696C148.709 125.527 148.604 127.576 147.93 129.623L58.5971 401.102C57.808 403.504 56.3274 405.586 54.4325 406.974C52.5349 408.36 50.4471 408.887 48.5565 408.45L-165.662 359.082C-167.842 358.581 -169.455 356.872 -170.1 354.396C-170.575 352.564 -170.469 350.515 -169.798 348.467L-80.4626 76.9891C-79.6735 74.5878 -78.1956 72.5042 -76.298 71.1176C-74.4004 69.731 -72.3127 69.2048 -70.4193 69.6426L143.804 119.008C145.983 119.509 147.597 121.218 148.239 123.693L148.235 123.696ZM-169.396 353.98C-168.815 356.219 -167.353 357.764 -165.386 358.219L48.8342 407.584C50.5453 407.98 52.4324 407.507 54.1481 406.248C55.8623 404.993 57.2009 403.11 57.9151 400.94L147.248 129.461C147.858 127.611 147.953 125.757 147.525 124.101C146.944 121.862 145.482 120.317 143.515 119.862L-70.7033 70.4935C-72.4159 70.1007 -74.303 70.5743 -76.0172 71.8293C-77.7313 73.0844 -79.07 74.9675 -79.7841 77.1376L-169.117 348.616C-169.727 350.466 -169.822 352.321 -169.394 353.976L-169.396 353.98Z" fill="#A1624D"/>
<path d="M152.329 132.199C152.796 134.01 152.675 136.116 151.978 138.129L61.345 400.884C60.5441 403.208 59.0783 405.213 57.219 406.526C55.3597 407.84 53.3306 408.306 51.5029 407.836L-154.924 354.978C-156.974 354.455 -158.499 352.803 -159.108 350.451C-159.577 348.644 -159.452 346.535 -158.758 344.522L-68.1229 81.7629C-67.322 79.4383 -65.8563 77.4342 -63.997 76.1207C-62.1377 74.8071 -60.1086 74.3412 -58.2809 74.8111L148.146 127.669C150.196 128.192 151.721 129.844 152.332 132.192L152.329 132.199ZM-158.404 350.044C-157.855 352.164 -156.478 353.653 -154.63 354.127L51.7967 406.985C53.4424 407.405 55.2724 406.988 56.9471 405.801C58.623 404.619 59.9457 402.81 60.6661 400.714L151.301 137.955C151.929 136.138 152.04 134.24 151.616 132.611C151.067 130.491 149.69 129.003 147.84 128.532L-58.5864 75.6743C-60.2322 75.2541 -62.0621 75.6709 -63.7396 76.8565C-65.4127 78.0397 -66.7338 79.8456 -67.4585 81.9437L-158.093 344.703C-158.721 346.519 -158.832 348.418 -158.408 350.047L-158.404 350.044Z" fill="#A1624D"/>
<path d="M156.429 140.704C156.9 142.521 156.757 144.626 156.032 146.636L64.0975 400.671C63.2833 402.923 61.8311 404.844 60.0101 406.084C58.1891 407.325 56.2159 407.729 54.4551 407.232L-144.18 350.885C-146.107 350.34 -147.542 348.747 -148.118 346.519C-148.586 344.703 -148.446 342.597 -147.719 340.584L-55.7845 86.5483C-54.1033 81.9024 -49.7781 78.9588 -46.1437 79.9912L152.488 136.337C154.416 136.882 155.851 138.475 156.426 140.703L156.429 140.704ZM-147.412 346.108C-146.892 348.11 -145.604 349.542 -143.872 350.031L54.7603 406.377C56.3419 406.826 58.1136 406.461 59.75 405.347C61.3864 404.233 62.6926 402.506 63.4237 400.482L155.358 146.447C156.011 144.64 156.138 142.748 155.716 141.116C155.197 139.114 153.908 137.683 152.176 137.193L-46.4575 80.8511C-49.724 79.9236 -53.6081 82.5672 -55.1209 86.7457L-147.056 340.781C-147.708 342.588 -147.835 344.48 -147.413 346.112L-147.412 346.108Z" fill="#A1624D"/>
<path d="M160.529 149.205C161.003 151.023 160.841 153.134 160.079 155.14L66.8429 400.456C65.1338 404.951 60.8993 407.716 57.4034 406.618L-133.437 346.783C-135.239 346.218 -136.587 344.686 -137.133 342.58C-137.604 340.759 -137.445 338.652 -136.681 336.642L-43.4461 91.3298C-41.7371 86.8348 -37.5053 84.0683 -34.0067 85.1674L156.832 145.006C158.634 145.571 159.98 147.102 160.528 149.209L160.529 149.205ZM-136.424 342.171C-135.934 344.055 -134.73 345.43 -133.115 345.935L57.725 405.77C60.8577 406.752 64.6503 404.274 66.1812 400.247L159.417 154.931C160.102 153.133 160.244 151.243 159.821 149.615C159.332 147.727 158.127 146.356 156.512 145.851L-34.3282 86.0156C-37.4625 85.037 -41.2536 87.5117 -42.7845 91.5391L-136.019 336.851C-136.703 338.649 -136.846 340.539 -136.424 342.171Z" fill="#A1624D"/>
<path d="M164.635 157.705C165.109 159.536 164.928 161.647 164.128 163.651L69.5923 400.243C67.8569 404.583 63.7131 407.17 60.3514 406.009L-122.697 342.685C-124.375 342.103 -125.634 340.634 -126.149 338.65C-126.623 336.819 -126.442 334.708 -125.641 332.701L-31.1049 96.1092C-29.3695 91.7688 -25.2257 89.1816 -21.8667 90.3415L161.181 153.666C162.86 154.248 164.122 155.718 164.635 157.705ZM-125.439 338.237C-124.98 340.007 -123.856 341.32 -122.357 341.84L60.691 405.164C63.6899 406.201 67.3895 403.892 68.9384 400.016L163.475 163.424C164.188 161.634 164.351 159.748 163.926 158.115C163.467 156.345 162.343 155.032 160.845 154.512L-22.1992 91.1852C-25.1982 90.1482 -28.8977 92.4577 -30.4483 96.3375L-124.984 332.929C-125.7 334.718 -125.861 336.605 -125.436 338.238L-125.439 338.237Z" fill="#A1624D"/>
<path d="M168.739 166.203C169.216 168.044 169.015 170.155 168.173 172.159L72.3357 400.031C71.4831 402.059 70.0731 403.735 68.3631 404.751C66.6574 405.764 64.8571 405.995 63.2962 405.402L-111.957 338.59C-113.54 337.989 -114.682 336.614 -115.172 334.721C-115.648 332.88 -115.446 330.766 -114.605 328.762L-18.7696 100.889C-17.0079 96.7033 -12.9532 94.2907 -9.72996 95.5173L165.523 162.33C167.105 162.935 168.248 164.306 168.738 166.199L168.739 166.203ZM-114.46 334.304C-114.023 335.985 -113.01 337.21 -111.601 337.744L63.6525 404.556C65.0405 405.086 66.6414 404.883 68.1577 403.977C69.6768 403.073 70.9316 401.582 71.6901 399.777L167.523 171.908C168.271 170.128 168.452 168.245 168.026 166.607C167.59 164.927 166.576 163.702 165.169 163.164L-10.0844 96.3519C-12.9496 95.2602 -16.5549 97.4056 -18.1247 101.13L-113.962 329.001C-114.713 330.78 -114.891 332.664 -114.468 334.301L-114.46 334.304Z" fill="#A1624D"/>
<path d="M172.863 174.694C173.342 176.545 173.118 178.667 172.233 180.666L75.0928 399.825C73.3032 403.86 69.3378 406.09 66.2544 404.794L-101.218 334.488C-102.679 333.874 -103.736 332.563 -104.193 330.789C-104.675 328.938 -104.448 326.817 -103.563 324.818L-6.42125 105.655C-4.62894 101.621 -0.666186 99.3901 2.41718 100.686L169.887 170.991C171.348 171.606 172.407 172.917 172.865 174.691L172.863 174.694ZM-103.487 330.379C-103.08 331.95 -102.143 333.113 -100.848 333.656L66.6214 403.961C69.3557 405.108 72.8682 403.132 74.4534 399.558L171.593 180.398C172.378 178.629 172.577 176.75 172.153 175.108C171.746 173.537 170.809 172.373 169.514 171.831L2.04433 101.526C-0.689967 100.378 -4.20091 102.351 -5.78922 105.932L-102.929 325.092C-103.714 326.861 -103.913 328.74 -103.486 330.383L-103.487 330.379Z" fill="#A1624D"/>
<path d="M176.976 183.19C177.452 185.03 177.198 187.213 176.277 189.175L77.8358 399.615C76.9537 401.496 75.5737 403.007 73.9406 403.868C72.3103 404.731 70.6256 404.844 69.1975 404.184L-90.4796 330.39C-91.8215 329.769 -92.7976 328.517 -93.2245 326.866C-93.7011 325.026 -93.4471 322.843 -92.529 320.88L5.91258 110.44C7.73001 106.556 11.6032 104.508 14.5481 105.87L174.224 179.667C175.566 180.288 176.542 181.54 176.969 183.191L176.976 183.19ZM-92.5141 326.453C-92.1355 327.911 -91.2741 329.018 -90.0907 329.565L69.5865 403.36C70.845 403.941 72.3321 403.844 73.7708 403.08C75.2122 402.317 76.4331 400.985 77.2101 399.323L175.652 188.884C176.463 187.151 176.687 185.222 176.267 183.599C175.888 182.141 175.03 181.035 173.843 180.487L14.1663 106.693C11.5685 105.492 8.14745 107.303 6.54264 110.729L-91.899 321.169C-92.71 322.902 -92.934 324.83 -92.5141 326.453Z" fill="#A1624D"/>
<path d="M181.094 191.678C181.574 193.533 181.292 195.72 180.322 197.684L80.5806 399.399C79.6867 401.203 78.3187 402.635 76.7256 403.42C75.1308 404.209 73.5047 404.261 72.1452 403.57L-79.7368 326.288C-80.9614 325.665 -81.8552 324.476 -82.2539 322.938C-82.7341 321.083 -82.4546 318.895 -81.4821 316.932L18.261 115.214C20.1032 111.488 23.8873 109.614 26.6964 111.042L178.578 188.325C179.804 188.952 180.698 190.141 181.095 191.674L181.094 191.678ZM-81.5451 322.529C-81.1935 323.878 -80.4089 324.924 -79.333 325.473L72.5489 402.756C73.7449 403.363 75.1738 403.317 76.5741 402.626C77.9745 401.935 79.1793 400.677 79.9626 399.089L179.706 197.37C180.558 195.646 180.806 193.723 180.384 192.091C180.035 190.742 179.246 189.699 178.17 189.15L26.288 111.867C23.8185 110.609 20.4917 112.256 18.87 115.536L-80.8716 317.252C-81.7241 318.976 -81.9732 320.902 -81.5494 322.531L-81.5451 322.529Z" fill="#A1624D"/>
<path d="M185.218 200.167C185.703 202.041 185.393 204.238 184.368 206.196L83.3249 399.191C81.4548 402.766 77.7602 404.456 75.0911 402.959L-68.9985 322.187C-70.11 321.564 -70.9243 320.438 -71.2936 319.018C-71.7785 317.144 -71.4693 314.947 -70.444 312.989L30.5992 119.994C32.4719 116.42 36.1665 114.73 38.8329 116.226L182.923 196.998C184.034 197.621 184.848 198.747 185.218 200.167ZM-70.5805 318.606C-70.2575 319.851 -69.5454 320.833 -68.5728 321.382L75.5168 402.154C77.8541 403.463 81.0879 401.985 82.7249 398.855L183.765 205.859C184.665 204.145 184.935 202.223 184.51 200.581C184.187 199.337 183.475 198.354 182.502 197.805L38.4127 117.034C36.0782 115.725 32.8444 117.204 31.2046 120.333L-69.8386 313.328C-70.7353 315.042 -71.0051 316.964 -70.5805 318.606Z" fill="#A1624D"/>
<path d="M189.348 208.652C189.841 210.545 189.499 212.751 188.414 214.705L86.0733 398.977C84.1743 402.396 80.5704 403.908 78.0413 402.342L-58.2532 318.082C-59.2669 317.457 -59.9822 316.423 -60.328 315.097C-60.8203 313.203 -60.4814 310.997 -59.3963 309.043L42.9485 124.768C44.8476 121.349 48.4515 119.837 50.9805 121.403L187.274 205.666C188.287 206.291 189.005 207.327 189.348 208.652ZM-59.622 314.686C-59.3213 315.841 -58.696 316.741 -57.8127 317.287L78.4818 401.547C80.6853 402.912 83.8264 401.593 85.4858 398.612L187.828 214.336C188.774 212.634 189.069 210.714 188.639 209.061C188.339 207.906 187.714 207.006 186.83 206.46L50.5372 122.197C48.3338 120.832 45.1927 122.15 43.536 125.133L-58.8088 309.407C-59.7536 311.106 -60.0473 313.031 -59.6204 314.682L-59.622 314.686Z" fill="#A1624D"/>
<path d="M193.482 217.134C193.971 219.027 193.59 221.3 192.457 223.217L88.8144 398.769C86.8864 402.033 83.3747 403.363 80.9841 401.731L-47.5165 313.979C-48.4202 313.361 -49.0647 312.394 -49.3795 311.182C-49.8691 309.289 -49.4879 307.016 -48.3543 305.099L55.2878 129.547C57.2159 126.283 60.7275 124.953 63.1181 126.585L191.62 214.334C192.524 214.951 193.169 215.919 193.482 217.134ZM-48.6691 310.769C-48.3959 311.824 -47.8403 312.662 -47.0528 313.197L81.4478 400.95C83.5218 402.367 86.5687 401.213 88.2407 398.381L191.883 222.829C192.864 221.166 193.199 219.19 192.771 217.547C192.499 216.497 191.941 215.658 191.156 215.123L62.6556 127.371C60.5829 125.959 57.5348 127.108 55.8612 129.944L-47.7836 305.495C-48.7644 307.157 -49.0953 309.13 -48.6707 310.772L-48.6691 310.769Z" fill="#A1624D"/>
<path d="M197.624 225.613C198.123 227.535 197.703 229.822 196.501 231.727L91.5569 398.559C89.5998 401.667 86.1777 402.814 83.9298 401.115L-36.7773 309.877C-37.5742 309.274 -38.1451 308.375 -38.4328 307.272C-38.9295 305.351 -38.51 303.064 -37.311 301.152L67.6326 134.321C69.5897 131.213 73.0118 130.065 75.2597 131.765L195.965 223.006C196.762 223.609 197.334 224.513 197.621 225.612L197.624 225.613ZM-37.7182 306.856C-37.4736 307.806 -36.9767 308.586 -36.2918 309.105L84.4138 400.346C86.3583 401.815 89.3138 400.826 91.0026 398.14L195.945 231.312C196.983 229.665 197.345 227.688 196.916 226.027C196.669 225.076 196.174 224.297 195.487 223.777L74.7812 132.536C72.8367 131.067 69.884 132.057 68.1951 134.743L-36.7486 301.574C-37.7846 303.223 -38.149 305.199 -37.717 306.861L-37.7182 306.856Z" fill="#A1624D"/>
<path d="M201.773 234.089C202.274 236.016 201.8 238.374 200.545 240.245L94.3011 398.352C92.3178 401.306 88.9867 402.267 86.8789 400.498L-26.0359 305.771C-26.7319 305.189 -27.2319 304.357 -27.4898 303.363C-27.9877 301.437 -27.5174 299.078 -26.2616 297.207L79.9835 139.096C81.9669 136.142 85.298 135.181 87.4085 136.951L200.319 231.681C201.015 232.263 201.518 233.096 201.773 234.089ZM-26.7823 302.949C-26.5596 303.801 -26.1297 304.519 -25.5331 305.019L87.3801 399.749C89.1924 401.269 92.0579 400.442 93.7637 397.903L200.007 239.795C201.104 238.163 201.499 236.183 201.063 234.502C200.842 233.646 200.41 232.931 199.814 232.432L86.9002 137.702C85.088 136.181 82.2224 137.009 80.5167 139.548L-25.7269 297.656C-26.8236 299.288 -27.2189 301.268 -26.7823 302.949Z" fill="#A1624D"/>
<path d="M205.93 242.559C206.44 244.524 205.925 246.898 204.587 248.757L97.042 398.144C95.0268 400.941 91.788 401.72 89.8203 399.882L-15.2996 301.667C-15.8934 301.109 -16.3296 300.346 -16.5605 299.461C-17.0705 297.496 -16.5549 295.122 -15.2157 293.26L92.3294 143.872C94.3418 141.075 97.5806 140.296 99.5484 142.134L204.667 240.352C205.262 240.906 205.697 241.673 205.928 242.558L205.93 242.559ZM-15.8487 299.044C-15.6523 299.801 -15.2779 300.454 -14.7683 300.93L90.3501 399.149C92.0329 400.721 94.8057 400.055 96.5269 397.665L204.072 248.278C205.218 246.688 205.657 244.653 205.223 242.974C205.028 242.213 204.654 241.56 204.144 241.084L99.0256 142.865C97.3429 141.293 94.57 141.959 92.8473 144.352L-14.6979 293.74C-15.8415 295.331 -16.2826 297.364 -15.8502 299.047L-15.8487 299.044Z" fill="#A1624D"/>
</g>
</g>
</svg>
