<svg width="159" height="424" viewBox="0 0 159 424" fill="none" xmlns="http://www.w3.org/2000/svg">
<g opacity="0.8">
<path d="M79.3059 60.0562C79.4973 61.8 79.2289 63.7409 78.5323 65.6621L-33.2133 373.937C-34.1923 376.639 -35.911 379.048 -38.0528 380.722C-40.1945 382.396 -42.5023 383.13 -44.5503 382.796L-278.315 344.489C-280.956 344.055 -282.741 341.899 -283.09 338.723C-283.282 336.979 -283.015 335.042 -282.317 333.117L-170.571 24.8426C-169.592 22.1406 -167.875 19.7342 -165.733 18.0605C-163.591 16.3868 -161.286 15.651 -159.236 15.9871L74.529 54.2939C77.1721 54.7248 78.9566 56.8799 79.3059 60.0562ZM-282.413 338.374C-282.092 341.297 -280.449 343.278 -278.018 343.677L-44.2519 381.981C-42.3676 382.292 -40.2437 381.613 -38.2734 380.073C-36.3032 378.533 -34.7218 376.318 -33.8242 373.832L77.9214 65.5575C78.5624 63.7897 78.8081 62.0067 78.6308 60.4023C78.3092 57.479 76.6671 55.4976 74.2379 55.0956L-159.53 16.7953C-161.417 16.4873 -163.539 17.1635 -165.509 18.7032C-167.477 20.2442 -169.061 22.4579 -169.958 24.9438L-281.704 333.219C-282.347 334.99 -282.592 336.773 -282.415 338.377L-282.413 338.374Z" fill="#A1624D"/>
<path d="M81.8661 68.276C82.0594 70.0166 81.7818 71.9527 81.0658 73.8719L-30.7487 373.871C-31.7305 376.504 -33.4246 378.837 -35.5236 380.444C-37.6226 382.052 -39.8731 382.736 -41.8592 382.374L-268.325 341.213C-270.85 340.756 -272.556 338.66 -272.893 335.605C-273.084 333.861 -272.808 331.929 -272.092 330.009L-160.278 30.01C-158.254 24.5775 -153.269 20.7619 -149.167 21.5068L77.3004 62.6646C79.8215 63.1241 81.531 65.2179 81.8661 68.276ZM-272.216 335.256C-271.908 338.061 -270.341 339.986 -268.026 340.408L-41.5562 381.562C-39.7343 381.895 -37.6676 381.266 -35.7424 379.792C-33.8149 378.319 -32.2586 376.175 -31.3582 373.759L80.4562 73.7596C81.1109 71.999 81.3657 70.2209 81.191 68.6222C80.8836 65.817 79.316 63.8924 76.9992 63.4738L-149.469 22.3159C-153.234 21.6352 -157.81 25.1329 -159.667 30.1191L-271.481 330.123C-272.139 331.886 -272.392 333.66 -272.215 335.26L-272.216 335.256Z" fill="#A1624D"/>
<path d="M84.4333 76.4893C84.6247 78.2331 84.3399 80.1611 83.6038 82.0738L-28.279 373.802C-30.309 379.091 -35.1898 382.746 -39.1634 381.945L-258.334 337.941C-260.741 337.457 -262.37 335.419 -262.69 332.488C-262.883 330.748 -262.596 328.817 -261.863 326.903L-149.977 35.1754C-148.993 32.6124 -147.321 30.3564 -145.265 28.8157C-143.21 27.2783 -141.017 26.6443 -139.091 27.0289L80.0791 71.0331C82.4842 71.5159 84.1127 73.5538 84.4351 76.486L84.4333 76.4893ZM-262.015 332.142C-261.719 334.826 -260.227 336.694 -258.023 337.137L-38.8531 381.141C-35.2134 381.874 -30.7406 378.525 -28.8831 373.68L82.9997 81.9517C83.6726 80.2008 83.9347 78.4308 83.76 76.8321C83.4649 74.1483 81.9719 72.2805 79.7711 71.8386L-139.401 27.8377C-141.165 27.4844 -143.172 28.0645 -145.056 29.4757C-146.939 30.8836 -148.472 32.9539 -149.373 35.3021L-261.256 327.026C-261.929 328.777 -262.191 330.547 -262.015 332.142Z" fill="#A1624D"/>
<path d="M86.9967 84.706C87.1899 86.4465 86.8924 88.3762 86.1385 90.2838L-25.8131 373.737C-26.7981 376.232 -28.4495 378.413 -30.4611 379.884C-32.475 381.354 -34.6086 381.939 -36.4728 381.528L-248.347 334.668C-250.636 334.162 -252.185 332.184 -252.493 329.374C-252.682 327.631 -252.389 325.704 -251.633 323.793L-139.681 40.3396C-137.65 35.1962 -132.869 31.7013 -129.024 32.552L82.8481 79.4105C85.1372 79.9164 86.6865 81.8951 86.9944 84.7047L86.9967 84.706ZM-251.82 329.027C-251.537 331.593 -250.121 333.403 -248.028 333.864L-36.1561 380.723C-34.4525 381.099 -32.5032 380.565 -30.6635 379.224C-28.8261 377.881 -27.3153 375.884 -26.4158 373.607L85.5376 90.1505C86.2241 88.4069 86.4976 86.643 86.3238 85.0533C86.0405 82.4864 84.6267 80.6778 82.5337 80.2169L-129.34 33.3617C-132.853 32.5862 -137.221 35.7779 -139.08 40.4774L-251.034 323.929C-251.723 325.672 -251.994 327.437 -251.82 329.027Z" fill="#A1624D"/>
<path d="M89.5658 92.9196C89.7572 94.6634 89.4483 96.587 88.6749 98.4927L-23.3475 373.674C-24.3334 376.096 -25.962 378.205 -27.9313 379.605C-29.9025 381.008 -31.9769 381.539 -33.7811 381.105L-238.356 331.395C-240.529 330.866 -242.003 328.949 -242.299 326.261C-242.49 324.517 -242.184 322.592 -241.41 320.691L-129.387 45.5095C-128.4 43.0844 -126.773 40.9787 -124.802 39.5755C-122.833 38.1712 -120.754 37.6376 -118.956 38.0775L85.6182 87.7823C87.7913 88.3115 89.2638 90.2322 89.5594 92.9204L89.5658 92.9196ZM-241.622 325.911C-241.354 328.363 -240.011 330.113 -238.03 330.595L-33.4576 380.303C-31.8163 380.702 -29.9243 380.218 -28.1278 378.938C-26.3314 377.659 -24.8474 375.737 -23.9493 373.532L88.073 98.3504C88.78 96.6178 89.0608 94.862 88.887 93.2722C88.6178 90.8234 87.2745 89.0737 85.2952 88.5884L-119.277 38.8802C-120.919 38.4815 -122.81 38.9657 -124.609 40.2483C-126.405 41.5277 -127.889 43.45 -128.789 45.6583L-240.808 320.833C-241.515 322.566 -241.793 324.323 -241.622 325.911Z" fill="#A1624D"/>
<path d="M92.1309 101.134C92.3223 102.878 92.0007 104.803 91.2068 106.698L-20.8862 373.607C-22.9234 378.463 -27.5045 381.635 -31.0937 380.678L-228.369 328.123C-230.425 327.576 -231.82 325.717 -232.104 323.15C-232.295 321.407 -231.975 319.485 -231.178 317.583L-119.085 50.6742C-118.099 48.3206 -116.49 46.2904 -114.564 44.9525C-112.635 43.6159 -110.616 43.1358 -108.878 43.599L88.3976 96.158C90.4542 96.7059 91.8516 98.5653 92.1349 101.132L92.1309 101.134ZM-231.429 322.8C-231.173 325.135 -229.903 326.825 -228.032 327.325L-30.7566 379.884C-27.4926 380.752 -23.3301 377.867 -21.4762 373.454L90.6167 106.545C91.3401 104.825 91.6318 103.071 91.4585 101.486C91.2029 99.1509 89.9324 97.4612 88.0614 96.9613L-109.214 44.4022C-110.795 43.9802 -112.632 44.4174 -114.383 45.6315C-116.136 46.8488 -117.598 48.6938 -118.494 50.8317L-230.59 317.74C-231.315 319.462 -231.605 321.213 -231.431 322.799L-231.429 322.8Z" fill="#A1624D"/>
<path d="M94.6997 109.35C94.8911 111.094 94.5585 113.018 93.7406 114.908L-18.4212 373.542C-19.4125 375.824 -20.9943 377.78 -22.8799 379.05C-24.7655 380.32 -26.7258 380.746 -28.4039 380.26L-218.38 324.851C-220.351 324.277 -221.639 322.523 -221.914 320.037C-222.106 318.288 -221.773 316.369 -220.951 314.477L-108.791 55.8417C-106.748 51.1296 -102.271 48.1192 -98.8082 49.1278L91.1679 104.536C93.1413 105.112 94.4291 106.866 94.7001 109.354L94.6997 109.35ZM-221.237 319.687C-220.992 321.94 -219.822 323.53 -218.035 324.053L-28.0586 379.462C-26.5379 379.902 -24.761 379.514 -23.0505 378.363C-21.34 377.213 -19.9074 375.441 -19.0085 373.373L93.1533 114.739C93.8985 113.023 94.1978 111.281 94.025 109.701C93.7776 107.446 92.6077 105.857 90.8226 105.335L-99.1535 49.9261C-102.291 49.0104 -106.351 51.7414 -108.204 56.0147L-220.365 314.648C-221.111 316.365 -221.41 318.106 -221.237 319.692L-221.237 319.687Z" fill="#A1624D"/>
<path d="M97.2756 117.56C97.4675 119.308 97.1217 121.229 96.2755 123.117L-15.9546 373.48C-16.9463 375.694 -18.5081 377.571 -20.3492 378.771C-22.1925 379.97 -24.0972 380.35 -25.7094 379.835L-208.386 321.576C-210.245 320.985 -211.456 319.289 -211.719 316.924C-211.911 315.176 -211.565 313.255 -210.721 311.366L-98.4886 61.0042C-97.4969 58.7897 -95.9374 56.9119 -94.094 55.7127C-92.2507 54.5137 -90.346 54.1341 -88.7316 54.6504L93.9495 112.907C95.8082 113.498 97.0191 115.194 97.2797 117.557L97.2756 117.56ZM-211.046 316.573C-210.811 318.71 -209.713 320.244 -208.036 320.78L-25.3577 379.036C-23.8989 379.503 -22.1775 379.162 -20.5102 378.073C-18.8447 376.987 -17.4327 375.29 -16.5355 373.289L95.6946 122.926C96.4603 121.221 96.7728 119.482 96.6001 117.901C96.3645 115.764 95.2668 114.23 93.5901 113.693L-89.0869 55.4349C-90.5476 54.9709 -92.269 55.3121 -93.9344 56.3976C-95.5998 57.4831 -97.0119 59.1801 -97.9091 61.1814L-210.139 311.544C-210.905 313.25 -211.217 314.989 -211.045 316.569L-211.046 316.573Z" fill="#A1624D"/>
<path d="M99.8482 125.768C100.036 127.497 99.6698 129.47 98.8072 131.324L-13.4917 373.412C-14.4843 375.554 -16.0234 377.357 -17.8239 378.49C-19.6245 379.622 -21.4701 379.948 -23.0226 379.406L-198.403 318.296C-200.144 317.691 -201.285 316.054 -201.531 313.808C-201.721 312.082 -201.351 310.106 -200.49 308.251L-88.1896 66.1607C-87.1969 64.0189 -85.6579 62.2153 -83.8573 61.0827C-82.0568 59.9501 -80.2112 59.6241 -78.6586 60.1669L96.7213 121.276C98.4632 121.882 99.6035 123.519 99.8519 125.761L99.8482 125.768ZM-200.86 313.464C-200.638 315.488 -199.609 316.964 -198.039 317.512L-22.6587 378.621C-21.2603 379.107 -19.5963 378.817 -17.974 377.793C-16.3513 376.774 -14.9625 375.145 -14.0689 373.215L98.2318 131.124C99.0093 129.45 99.3414 127.671 99.169 126.116C98.9471 124.092 97.9177 122.616 96.3455 122.071L-79.0344 60.9618C-80.4328 60.4757 -82.0968 60.7666 -83.7213 61.7889C-85.3417 62.8091 -86.7288 64.4344 -87.6264 66.3674L-199.927 308.458C-200.705 310.132 -201.037 311.911 -200.864 313.466L-200.86 313.464Z" fill="#A1624D"/>
<path d="M102.425 133.979C102.615 135.714 102.229 137.686 101.343 139.536L-11.0269 373.351C-12.0223 375.423 -13.539 377.149 -15.2968 378.216C-17.0546 379.282 -18.8433 379.553 -20.3336 378.988L-188.417 315.028C-190.048 314.409 -191.115 312.832 -191.348 310.705C-191.536 308.971 -191.153 306.998 -190.264 305.145L-77.8945 71.3297C-75.8396 67.0535 -71.6648 64.5243 -68.5897 65.6959L99.491 129.655C101.122 130.274 102.19 131.851 102.422 133.978L102.425 133.979ZM-190.675 310.357C-190.464 312.269 -189.506 313.686 -188.04 314.242L-19.9591 378.201C-18.6208 378.71 -17.0145 378.465 -15.4351 377.508C-13.8556 376.551 -12.4913 374.999 -11.5973 373.136L100.772 139.321C101.57 137.658 101.916 135.886 101.745 134.327C101.535 132.416 100.576 130.999 99.1103 130.443L-68.9723 66.4872C-71.7363 65.4346 -75.4852 67.706 -77.3341 71.5519L-189.704 305.367C-190.502 307.03 -190.847 308.802 -190.677 310.361L-190.675 310.357Z" fill="#A1624D"/>
<path d="M105.004 142.187C105.197 143.923 104.795 145.899 103.875 147.744L-8.56505 373.287C-10.6259 377.42 -14.6988 379.787 -17.6438 378.561L-178.428 311.751C-179.946 311.12 -180.945 309.605 -181.166 307.595C-181.357 305.855 -180.956 303.883 -180.035 302.035L-67.5962 76.4948C-65.5353 72.3621 -61.4648 69.9942 -58.5175 71.2211L102.265 138.034C103.783 138.665 104.78 140.179 105.003 142.191L105.004 142.187ZM-180.49 307.248C-180.291 309.047 -179.401 310.407 -178.04 310.971L-17.2557 377.781C-14.6164 378.878 -10.9685 376.757 -9.12231 373.054L103.318 147.511C104.143 145.858 104.502 144.088 104.329 142.533C104.132 140.731 103.239 139.375 101.878 138.811L-58.9055 72.001C-61.5467 70.9076 -65.1928 73.0254 -67.039 76.7281L-179.477 302.268C-180.302 303.921 -180.661 305.69 -180.49 307.248Z" fill="#A1624D"/>
<path d="M107.588 150.393C107.78 152.142 107.36 154.117 106.408 155.957L-6.10118 373.224C-8.16614 377.21 -12.1371 379.414 -14.9561 378.137L-168.443 308.476C-169.85 307.836 -170.778 306.385 -170.987 304.491C-171.179 302.743 -170.759 300.768 -169.805 298.924L-57.2961 81.6567C-55.2311 77.6708 -51.2602 75.4667 -48.4435 76.743L105.043 146.404C106.451 147.044 107.381 148.497 107.588 150.393ZM-170.31 304.142C-170.124 305.832 -169.296 307.128 -168.039 307.7L-14.5526 377.361C-12.0379 378.502 -8.49275 376.534 -6.64936 372.975L105.86 155.707C106.709 154.063 107.086 152.299 106.913 150.739C106.727 149.049 105.898 147.753 104.642 147.181L-48.8406 77.518C-51.3553 76.3772 -54.9004 78.3447 -56.7457 81.9076L-169.255 299.175C-170.106 300.818 -170.481 302.584 -170.308 304.143L-170.31 304.142Z" fill="#A1624D"/>
<path d="M110.171 158.599C110.364 160.356 109.927 162.331 108.938 164.168L-3.64149 373.164C-4.64325 375.024 -6.09262 376.523 -7.72486 377.384C-9.35299 378.242 -10.9679 378.36 -12.2703 377.716L-158.458 305.206C-159.778 304.553 -160.615 303.197 -160.813 301.39C-161.005 299.633 -160.566 297.655 -159.577 295.818L-47.0002 86.8205C-44.9312 82.9814 -41.0603 80.9367 -38.3714 82.2682L107.816 154.779C109.135 155.435 109.973 156.788 110.171 158.595L110.171 158.599ZM-160.134 301.037C-159.957 302.642 -159.215 303.85 -158.039 304.429L-11.8517 376.94C-10.694 377.515 -9.25833 377.412 -7.81035 376.645C-6.36009 375.878 -5.07039 374.546 -4.17917 372.89L108.396 163.896C109.275 162.264 109.667 160.503 109.494 158.939C109.316 157.335 108.574 156.127 107.401 155.544L-38.7868 83.0335C-41.1768 81.8485 -44.6187 83.667 -46.4616 87.0822L-159.041 296.078C-159.922 297.709 -160.312 299.471 -160.141 301.034L-160.134 301.037Z" fill="#A1624D"/>
<path d="M112.771 166.798C112.965 168.564 112.505 170.548 111.478 172.378L-1.17297 373.109C-3.248 376.804 -7.01762 378.682 -9.57475 377.293L-148.473 301.927C-149.685 301.269 -150.455 299.978 -150.639 298.285C-150.835 296.517 -150.373 294.535 -149.346 292.704L-36.6929 91.9706C-34.6155 88.2761 -30.8482 86.3971 -28.2911 87.786L110.605 163.151C111.817 163.809 112.589 165.101 112.773 166.794L112.771 166.798ZM-149.966 297.937C-149.801 299.437 -149.119 300.583 -148.045 301.165L-9.14844 376.529C-6.88066 377.76 -3.5414 376.095 -1.70339 372.822L110.948 172.091C111.858 170.471 112.266 168.715 112.094 167.147C111.93 165.647 111.248 164.501 110.173 163.92L-28.7233 88.5551C-30.9911 87.3247 -34.3285 88.9863 -36.1702 92.2663L-148.822 292.997C-149.732 294.617 -150.139 296.373 -149.965 297.942L-149.966 297.937Z" fill="#A1624D"/>
<path d="M115.362 174.999C115.555 176.757 115.061 178.795 114.008 180.589L1.28555 373.047C0.276009 374.768 -1.12659 376.113 -2.67201 376.833C-4.21515 377.554 -5.71369 377.567 -6.89057 376.868L-138.49 298.652C-139.596 297.994 -140.301 296.763 -140.473 295.187C-140.666 293.43 -140.173 291.391 -139.122 289.596L-26.3996 97.1375C-24.3187 93.5853 -20.6528 91.8734 -18.2258 93.3163L113.371 171.535C114.477 172.193 115.183 173.424 115.355 175L115.362 174.999ZM-139.797 294.838C-139.643 296.23 -139.02 297.318 -138.045 297.898L-6.44607 376.113C-5.40885 376.73 -4.08638 376.721 -2.7243 376.082C-1.35994 375.444 -0.119761 374.259 0.770133 372.739L113.492 180.281C114.421 178.696 114.856 176.895 114.687 175.345C114.533 173.953 113.913 172.866 112.935 172.285L-18.6639 94.0694C-20.8048 92.7962 -24.043 94.3107 -25.8801 97.4443L-138.602 289.902C-139.531 291.487 -139.966 293.288 -139.797 294.838Z" fill="#A1624D"/>
<path d="M117.957 183.196C118.152 184.967 117.633 187.009 116.536 188.801L3.74532 372.984C2.73488 374.631 1.35277 375.902 -0.148057 376.552C-1.65072 377.206 -3.0901 377.166 -4.20284 376.44L-128.502 295.375C-129.504 294.722 -130.145 293.555 -130.307 292.086C-130.501 290.316 -129.985 288.273 -128.885 286.481L-16.0928 102.296C-14.0096 98.8936 -10.4439 97.341 -8.14469 98.839L116.155 179.904C117.157 180.562 117.798 181.729 117.959 183.193L117.957 183.196ZM-129.632 291.74C-129.488 293.029 -128.926 294.056 -128.046 294.632L-3.74652 375.697C-2.76753 376.334 -1.50284 376.37 -0.183535 375.797C1.13579 375.225 2.35276 374.108 3.239 372.658L116.032 188.473C116.996 186.899 117.451 185.104 117.281 183.546C117.14 182.258 116.573 181.233 115.693 180.658L-8.60645 99.5924C-10.6272 98.2725 -13.7622 99.638 -15.5961 102.633L-128.387 286.815C-129.351 288.39 -129.808 290.187 -129.636 291.742L-129.632 291.74Z" fill="#A1624D"/>
<path d="M120.557 191.394C120.753 193.183 120.209 195.232 119.064 197.016L6.2027 372.926C4.11358 376.185 0.649256 377.57 -1.51798 376.015L-118.52 292.099C-119.423 291.452 -120.001 290.348 -120.151 288.992C-120.347 287.203 -119.804 285.153 -118.659 283.369L-5.79713 107.459C-3.70573 104.202 -0.241411 102.816 1.92355 104.371L118.926 188.287C119.828 188.934 120.407 190.038 120.557 191.394ZM-119.472 288.644C-119.341 289.832 -118.835 290.795 -118.046 291.365L-1.04345 375.281C0.854477 376.642 3.88661 375.43 5.71549 372.577L118.575 196.666C119.579 195.104 120.054 193.312 119.882 191.744C119.751 190.556 119.245 189.593 118.456 189.023L1.45361 105.107C-0.442044 103.747 -3.47419 104.959 -5.30536 107.811L-118.167 283.721C-119.169 285.284 -119.644 287.076 -119.472 288.644Z" fill="#A1624D"/>
<path d="M123.165 199.587C123.365 201.395 122.792 203.45 121.594 205.228L8.66619 372.863C6.5707 375.974 3.20831 377.196 1.173 375.584L-108.53 288.818C-109.346 288.175 -109.848 287.162 -109.989 285.896C-110.189 284.088 -109.618 282.032 -108.421 280.254L4.51102 112.617C6.60651 109.506 9.96892 108.283 12.0042 109.896L121.705 196.665C122.521 197.309 123.026 198.322 123.165 199.587ZM-109.316 285.549C-109.194 286.652 -108.754 287.533 -108.043 288.095L1.65932 374.861C3.4326 376.265 6.36328 375.199 8.19354 372.488L121.123 204.849C122.167 203.3 122.664 201.511 122.49 199.933C122.367 198.83 121.927 197.949 121.216 197.387L11.5156 110.618C9.74233 109.213 6.81168 110.279 4.9837 112.992L-107.948 280.63C-108.991 282.175 -109.487 283.969 -109.315 285.546L-109.316 285.549Z" fill="#A1624D"/>
<path d="M125.777 207.779C125.975 209.586 125.358 211.703 124.123 213.443L11.124 372.806C9.02216 375.768 5.76349 376.825 3.85831 375.159L-98.5451 285.539C-99.2652 284.908 -99.7137 283.963 -99.8415 282.806C-100.039 280.999 -99.4229 278.882 -98.1873 277.142L14.8112 117.779C16.9131 114.817 20.1718 113.759 22.0769 115.426L124.482 205.043C125.202 205.673 125.651 206.619 125.777 207.779ZM-99.1646 282.457C-99.0541 283.464 -98.6679 284.282 -98.0401 284.83L4.36329 374.45C6.016 375.897 8.84341 374.98 10.6664 372.409L123.665 213.046C124.734 211.536 125.274 209.697 125.1 208.128C124.99 207.125 124.601 206.306 123.976 205.76L21.5724 116.14C19.9201 114.697 17.0923 115.61 15.2675 118.184L-97.7333 277.546C-98.8028 279.055 -99.3379 280.893 -99.1664 282.46L-99.1646 282.457Z" fill="#A1624D"/>
<path d="M128.392 215.968C128.595 217.803 127.943 219.93 126.648 221.656L13.579 372.746C11.4708 375.561 8.31358 376.451 6.54262 374.728L-88.563 282.262C-89.1908 281.651 -89.5829 280.774 -89.7003 279.72C-89.9008 277.886 -89.2489 275.759 -87.9564 274.028L25.1127 122.937C27.2209 120.122 30.3781 119.232 32.1491 120.955L127.253 213.425C127.881 214.036 128.273 214.917 128.39 215.966L128.392 215.968ZM-89.0193 279.369C-88.921 280.276 -88.5794 281.037 -88.0399 281.563L7.06397 374.032C8.59612 375.521 11.3225 374.754 13.1423 372.322L126.21 221.235C127.328 219.743 127.891 217.903 127.718 216.318C127.617 215.41 127.278 214.65 126.736 214.123L31.6323 121.654C30.1001 120.165 27.376 120.932 25.5562 123.365L-87.5128 274.455C-88.6293 275.949 -89.1944 277.787 -89.0188 279.373L-89.0193 279.369Z" fill="#A1624D"/>
<path d="M131.019 224.155C131.222 225.995 130.514 228.186 129.177 229.876L16.0392 372.691C13.9269 375.359 10.8729 376.078 9.23387 374.298L-78.5745 278.981C-79.1158 278.395 -79.4538 277.585 -79.5584 276.636C-79.7594 274.798 -79.0538 272.605 -77.7163 270.915L35.4234 128.097C37.5356 125.429 40.5896 124.71 42.2309 126.491L130.035 221.81C130.577 222.396 130.917 223.207 131.019 224.155ZM-78.8837 276.286C-78.7928 277.1 -78.5026 277.799 -78.0386 278.302L9.76799 373.622C11.1773 375.152 13.8045 374.532 15.6211 372.238L128.759 229.424C129.927 227.949 130.52 226.109 130.342 224.504C130.253 223.687 129.961 222.991 129.497 222.489L41.6904 127.168C40.2811 125.638 37.6539 126.258 35.8373 128.552L-77.3005 271.367C-78.4683 272.841 -79.0611 274.681 -78.8837 276.286Z" fill="#A1624D"/>
<path d="M133.65 232.336C133.857 234.211 133.11 236.416 131.702 238.09L18.4933 372.632C16.3724 375.151 13.4222 375.704 11.915 373.867L-68.5939 275.7C-69.0483 275.143 -69.3385 274.402 -69.4327 273.556C-69.6396 271.681 -68.8921 269.476 -67.4823 267.799L45.7261 133.257C47.8448 130.737 50.795 130.183 52.3021 132.02L132.809 230.19C133.265 230.744 133.554 231.489 133.648 232.335L133.65 232.336ZM-68.7539 273.203C-68.6743 273.926 -68.4251 274.561 -68.0347 275.037L12.4724 373.207C13.7611 374.779 16.2869 374.305 18.0984 372.154L131.307 237.611C132.513 236.179 133.151 234.29 132.976 232.686C132.898 231.96 132.649 231.325 132.258 230.849L51.7512 132.679C50.4624 131.107 47.9367 131.581 46.1233 133.736L-67.0851 268.279C-68.2893 269.712 -68.929 271.6 -68.7558 273.207L-68.7539 273.203Z" fill="#A1624D"/>
</g>
</svg>
