<svg width="1440" height="3567" viewBox="0 0 1440 3567" fill="none" xmlns="http://www.w3.org/2000/svg">
<g clip-path="url(#clip0_30539_241)">
<rect width="1440" height="3567" fill="white"/>
<rect width="1440" height="3567" fill="#0E192B"/>
<circle cx="79.6872" cy="986.718" r="0.927989" transform="rotate(180 79.6872 986.718)" fill="#D9D9D9"/>
<circle cx="231.877" cy="553.347" r="2.78397" transform="rotate(180 231.877 553.347)" fill="#D9D9D9"/>
<circle cx="228.165" cy="548.707" r="0.927989" transform="rotate(180 228.165 548.707)" fill="#D9D9D9"/>
<circle cx="114.023" cy="635.937" r="0.927989" transform="rotate(180 114.023 635.937)" fill="#D9D9D9"/>
<circle cx="266.214" cy="202.568" r="2.78397" transform="rotate(180 266.214 202.568)" fill="#D9D9D9"/>
<circle cx="262.502" cy="197.928" r="0.927989" transform="rotate(180 262.502 197.928)" fill="#D9D9D9"/>
<circle cx="1141.31" cy="409.509" r="2.78397" transform="rotate(180 1141.31 409.509)" fill="#D9D9D9"/>
<circle cx="1388.15" cy="469.828" r="0.927989" transform="rotate(180 1388.15 469.828)" fill="#D9D9D9"/>
<circle cx="892.607" cy="337.125" r="2.78397" transform="rotate(180 892.607 337.125)" fill="#D9D9D9"/>
<circle cx="1231.32" cy="421.572" r="0.927989" transform="rotate(180 1231.32 421.572)" fill="#D9D9D9"/>
<circle cx="1136.67" cy="809.471" r="2.78397" transform="rotate(180 1136.67 809.471)" fill="#D9D9D9"/>
<circle cx="1367.74" cy="1041.47" r="0.927989" transform="rotate(180 1367.74 1041.47)" fill="#D9D9D9"/>
<circle cx="99.175" cy="844.736" r="2.78397" transform="rotate(180 99.175 844.736)" fill="#D9D9D9"/>
<circle cx="37.9275" cy="986.718" r="0.927989" transform="rotate(180 37.9275 986.718)" fill="#D9D9D9"/>
<circle cx="1315.77" cy="912.479" r="2.78397" transform="rotate(180 1315.77 912.479)" fill="#D9D9D9"/>
<circle cx="1246.17" cy="833.599" r="0.927989" transform="rotate(180 1246.17 833.599)" fill="#D9D9D9"/>
<circle cx="190.118" cy="553.347" r="2.78397" transform="rotate(180 190.118 553.347)" fill="#D9D9D9"/>
<circle cx="186.406" cy="548.707" r="0.927989" transform="rotate(180 186.406 548.707)" fill="#D9D9D9"/>
<circle cx="1309.27" cy="637.794" r="2.78397" transform="rotate(180 1309.27 637.794)" fill="#D9D9D9"/>
<circle cx="1402.07" cy="690.689" r="0.927989" transform="rotate(180 1402.07 690.689)" fill="#D9D9D9"/>
<circle cx="72.2634" cy="635.937" r="0.927989" transform="rotate(180 72.2634 635.937)" fill="#D9D9D9"/>
<circle cx="224.453" cy="202.568" r="2.78397" transform="rotate(180 224.453 202.568)" fill="#D9D9D9"/>
<circle cx="220.741" cy="197.928" r="0.927989" transform="rotate(180 220.741 197.928)" fill="#D9D9D9"/>
<circle cx="554" cy="1658" r="3" fill="#D9D9D9"/>
<circle cx="346" cy="1513" r="1" fill="#D9D9D9"/>
<circle cx="180" cy="1606" r="2" fill="#D9D9D9"/>
<circle cx="1262" cy="1507" r="3" fill="#D9D9D9"/>
<circle cx="1266" cy="1512" r="1" fill="#D9D9D9"/>
<circle cx="635" cy="1544" r="3" fill="#D9D9D9"/>
<circle cx="639" cy="1549" r="1" fill="#D9D9D9"/>
<circle cx="1257" cy="1866" r="3" fill="#D9D9D9"/>
<circle cx="1261" cy="1871" r="1" fill="#D9D9D9"/>
<circle cx="546" cy="2103" r="3" fill="#D9D9D9"/>
<circle cx="550" cy="2108" r="1" fill="#D9D9D9"/>
<circle cx="389" cy="3086" r="2" fill="#D9D9D9"/>
<circle cx="175" cy="3036" r="2" fill="#D9D9D9"/>
<circle cx="824" cy="3541" r="2" fill="#D9D9D9"/>
<circle cx="1254" cy="3055" r="2" fill="#D9D9D9"/>
<circle cx="211" cy="3466" r="2" fill="#D9D9D9"/>
<circle cx="629" cy="3055" r="2" fill="#D9D9D9"/>
<circle cx="1116" cy="3541" r="2" fill="#D9D9D9"/>
<circle cx="1033" cy="3153" r="2" fill="#D9D9D9"/>
</g>
<defs>
<clipPath id="clip0_30539_241">
<rect width="1440" height="3567" fill="white"/>
</clipPath>
</defs>
</svg>
