<svg width="223" height="448" viewBox="0 0 223 448" fill="none" xmlns="http://www.w3.org/2000/svg">
<mask id="mask0_30666_2807" style="mask-type:alpha" maskUnits="userSpaceOnUse" x="0" y="0" width="223" height="448">
<rect width="223" height="447.138" fill="#D9D9D9"/>
</mask>
<g mask="url(#mask0_30666_2807)">
<g opacity="0.8">
<path d="M183.136 145.558C182.975 147.199 182.339 148.837 181.3 150.291L14.6476 383.587C13.1873 385.632 11.0823 387.125 8.72047 387.793C6.35859 388.46 4.02371 388.219 2.14559 387.119L-212.212 261.465C-214.634 260.044 -215.904 257.412 -215.611 254.423C-215.45 252.781 -214.816 251.145 -213.775 249.689L-47.1228 16.3933C-45.6625 14.3484 -43.5599 12.857 -41.198 12.1895C-38.8361 11.522 -36.5032 11.761 -34.6231 12.8632L179.734 138.517C182.158 139.936 183.429 142.568 183.136 145.558ZM-214.9 254.373C-215.169 257.124 -214 259.545 -211.771 260.852L2.58901 386.504C4.31631 387.519 6.4659 387.738 8.63865 387.124C10.8114 386.509 12.7477 385.137 14.0883 383.254L180.741 149.959C181.697 148.621 182.28 147.115 182.427 145.605C182.697 142.854 181.527 140.433 179.3 139.123L-35.0618 13.4741C-36.7915 12.4613 -38.9387 12.2403 -41.1115 12.8544C-43.2823 13.4704 -45.2205 14.8408 -46.5611 16.7235L-213.214 250.019C-214.172 251.359 -214.755 252.865 -214.902 254.375L-214.9 254.373Z" fill="#A1624D"/>
<path d="M183.86 153.782C183.701 155.421 183.057 157.052 182 158.496L16.9088 384.332C15.4596 386.313 13.3929 387.748 11.0847 388.372C8.77649 388.997 6.5059 388.733 4.69172 387.633L-202.177 262.264C-204.484 260.868 -205.691 258.32 -205.41 255.444C-205.249 253.803 -204.608 252.174 -203.551 250.73L-38.4593 24.8944C-35.4705 20.8046 -29.9889 19.323 -26.2423 21.593L180.629 146.96C182.932 148.356 184.143 150.904 183.86 153.782ZM-204.699 255.394C-204.959 258.034 -203.849 260.375 -201.735 261.657L5.13899 387.022C6.8028 388.032 8.88811 388.274 11.0053 387.701C13.1244 387.13 15.0228 385.812 16.3523 383.993L181.444 158.158C182.411 156.832 183.003 155.334 183.151 153.83C183.411 151.19 182.301 148.849 180.184 147.569L-26.6871 22.2023C-30.1277 20.1209 -35.1587 21.4767 -37.9005 25.231L-202.992 251.071C-203.964 252.397 -204.553 253.892 -204.7 255.399L-204.699 255.394Z" fill="#A1624D"/>
<path d="M184.587 162.004C184.426 163.645 183.777 165.265 182.702 166.696L19.1712 385.076C16.2049 389.034 10.8539 390.411 7.23947 388.142L-192.146 263.067C-194.336 261.692 -195.481 259.226 -195.209 256.468C-195.05 254.829 -194.399 253.207 -193.326 251.774L-29.7928 33.3963C-28.3547 31.4784 -26.3244 30.1045 -24.0698 29.5231C-21.8177 28.944 -19.6113 29.2305 -17.8587 30.3278L181.526 155.403C183.714 156.775 184.86 159.242 184.59 162.001L184.587 162.004ZM-194.5 256.421C-194.747 258.947 -193.697 261.207 -191.693 262.465L7.69205 387.54C11.0028 389.619 15.9064 388.357 18.6218 384.73L182.153 166.351C183.136 165.041 183.732 163.553 183.881 162.049C184.128 159.523 183.078 157.262 181.076 156.006L-18.3118 30.9334C-19.9164 29.9276 -21.9355 29.6653 -24.0014 30.1975C-26.0649 30.7274 -27.9274 31.9885 -29.2439 33.7461L-192.774 252.121C-193.757 253.431 -194.354 254.919 -194.5 256.421Z" fill="#A1624D"/>
<path d="M185.318 170.228C185.159 171.866 184.498 173.484 183.407 174.903L21.4365 385.822C20.0114 387.679 18.0151 388.994 15.8166 389.53C13.6161 390.064 11.4761 389.757 9.7874 388.66L-182.111 263.868C-184.184 262.52 -185.266 260.138 -185.006 257.494C-184.843 255.855 -184.185 254.238 -183.093 252.817L-21.1221 41.8973C-18.1827 38.0702 -12.958 36.7968 -9.47532 39.062L182.421 163.852C184.494 165.199 185.576 167.582 185.316 170.226L185.318 170.228ZM-184.299 257.445C-184.534 259.861 -183.546 262.04 -181.65 263.271L10.2462 388.06C11.7892 389.063 13.7445 389.344 15.7543 388.857C17.7623 388.369 19.5888 387.164 20.89 385.47L182.863 174.549C183.857 173.25 184.463 171.773 184.611 170.277C184.846 167.861 183.86 165.684 181.964 164.453L-9.93455 39.6658C-13.1164 37.5981 -17.8899 38.7601 -20.5783 42.2558L-182.551 253.173C-183.547 254.469 -184.151 255.949 -184.299 257.445Z" fill="#A1624D"/>
<path d="M186.049 178.45C185.888 180.092 185.217 181.699 184.108 183.109L23.696 386.57C22.2843 388.361 20.324 389.619 18.1796 390.108C16.0328 390.599 13.9593 390.267 12.3323 389.172L-172.077 264.67C-174.036 263.347 -175.059 261.049 -174.811 258.519C-174.65 256.877 -173.981 255.268 -172.872 253.862L-12.4604 50.4012C-11.0463 48.6083 -9.08834 47.3519 -6.94157 46.8609C-4.79672 46.3679 -2.71899 46.6999 -1.09857 47.7969L183.312 172.295C185.27 173.619 186.29 175.919 186.043 178.449L186.049 178.45ZM-174.1 258.469C-174.328 260.776 -173.397 262.872 -171.611 264.078L12.7968 388.579C14.2764 389.578 16.1673 389.881 18.124 389.433C20.0806 388.985 21.867 387.838 23.1528 386.207L183.565 182.746C184.576 181.466 185.188 179.998 185.335 178.502C185.561 176.198 184.63 174.102 182.847 172.893L-1.5612 48.3926C-3.04074 47.3938 -4.93173 47.0902 -6.89074 47.5405C-8.84736 47.9885 -10.6337 49.136 -11.9219 50.7684L-172.329 254.225C-173.341 255.506 -173.95 256.975 -174.1 258.469Z" fill="#A1624D"/>
<path d="M186.781 186.674C186.62 188.315 185.936 189.919 184.81 191.311L25.9566 387.314C23.0686 390.881 18.097 391.942 14.8782 389.682L-162.044 265.473C-163.888 264.178 -164.847 261.964 -164.612 259.548C-164.451 257.907 -163.769 256.305 -162.639 254.908L-3.78532 58.905C-2.38657 57.1759 -0.460673 55.98 1.63051 55.5301C3.72361 55.0821 5.7347 55.4391 7.29354 56.5336L184.215 180.747C186.059 182.042 187.02 184.257 186.785 186.674L186.781 186.674ZM-163.902 259.496C-164.119 261.693 -163.245 263.707 -161.567 264.887L15.3543 389.1C18.2817 391.154 22.7996 390.187 25.4266 386.947L184.28 190.943C185.305 189.681 185.926 188.219 186.073 186.728C186.29 184.53 185.416 182.516 183.738 181.337L6.81656 57.1239C5.3986 56.1276 3.56952 55.8035 1.66847 56.2105C-0.234944 56.6196 -1.98494 57.7063 -3.2558 59.2769L-162.111 255.278C-163.138 256.543 -163.757 258.002 -163.904 259.494L-163.902 259.496Z" fill="#A1624D"/>
<path d="M187.51 194.898C187.349 196.539 186.655 198.137 185.507 199.516L28.2151 388.059C26.8255 389.723 24.9398 390.862 22.9003 391.267C20.8609 391.672 18.9165 391.29 17.4192 390.198L-152.014 266.274C-153.772 264.988 -154.65 262.91 -154.422 260.569C-154.261 258.924 -153.567 257.33 -152.415 255.951L4.87528 67.4059C7.74068 63.9707 12.5817 63.0139 15.6707 65.2716L185.104 189.196C186.864 190.483 187.741 192.561 187.51 194.902L187.51 194.898ZM-153.711 260.52C-153.921 262.639 -153.123 264.523 -151.529 265.691L17.9039 389.615C19.2607 390.605 21.0236 390.95 22.8733 390.583C24.7231 390.217 26.4309 389.186 27.6907 387.678L184.983 199.135C186.028 197.884 186.654 196.437 186.801 194.95C187.009 192.828 186.211 190.944 184.619 189.778L15.186 65.854C12.3879 63.8068 7.99782 64.6754 5.39916 67.7907L-151.893 256.334C-152.938 257.585 -153.564 259.032 -153.711 260.524L-153.711 260.52Z" fill="#A1624D"/>
<path d="M188.25 203.12C188.089 204.766 187.383 206.356 186.209 207.722L30.4768 388.809C29.1002 390.411 27.249 391.487 25.2656 391.847C23.2803 392.204 21.3978 391.802 19.9687 390.71L-141.976 267.075C-143.624 265.819 -144.44 263.822 -144.225 261.596C-144.064 259.95 -143.358 258.36 -142.186 256.992L13.5483 75.9071C14.9249 74.3049 16.7742 73.2268 18.7595 72.8692C20.7449 72.5116 22.6274 72.9141 24.0583 74.008L186.008 197.643C187.656 198.899 188.472 200.895 188.255 203.12L188.25 203.12ZM-143.518 261.542C-143.714 263.554 -142.974 265.36 -141.488 266.497L20.4596 390.129C21.7525 391.119 23.4535 391.484 25.25 391.157C27.0442 390.832 28.718 389.859 29.9629 388.411L185.695 207.324C186.757 206.091 187.395 204.651 187.542 203.163C187.738 201.152 186.998 199.345 185.512 198.209L23.5669 74.5741C22.2716 73.5871 20.5706 73.2216 18.7765 73.5467C16.9823 73.8717 15.3085 74.8449 14.0636 76.2924L-141.668 257.379C-142.73 258.613 -143.369 260.053 -143.515 261.54L-143.518 261.542Z" fill="#A1624D"/>
<path d="M188.987 211.341C188.825 212.967 188.09 214.597 186.906 215.926L32.7354 389.553C31.3723 391.089 29.557 392.109 27.6253 392.423C25.6936 392.738 23.8778 392.31 22.5108 391.217L-131.948 267.869C-133.482 266.645 -134.243 264.729 -134.036 262.616C-133.876 260.992 -133.137 259.362 -131.955 258.031L22.218 84.4022C23.5812 82.8658 25.3965 81.8463 27.3282 81.5317C29.2598 81.2172 31.0757 81.6447 32.4427 82.7383L186.901 206.086C188.436 207.31 189.196 209.226 188.991 211.336L188.987 211.341ZM-133.331 262.569C-133.518 264.474 -132.831 266.202 -131.448 267.307L23.0103 390.654C24.2421 391.637 25.8788 392.025 27.6197 391.739C29.3603 391.457 30.9986 390.536 32.2262 389.15L186.4 215.521C187.467 214.321 188.132 212.853 188.274 211.388C188.461 209.484 187.774 207.756 186.388 206.653L31.9298 83.3057C30.698 82.3232 29.0613 81.935 27.3184 82.2192C25.5799 82.5032 23.9438 83.4217 22.712 84.8077L-131.461 258.437C-132.528 259.637 -133.193 261.105 -133.335 262.57L-133.331 262.569Z" fill="#A1624D"/>
<path d="M189.728 219.564C189.568 221.197 188.814 222.818 187.609 224.133L34.9963 390.302C33.6442 391.775 31.8652 392.733 29.9872 393.005C28.1092 393.276 26.3581 392.822 25.0546 391.733L-121.918 268.672C-123.344 267.48 -124.048 265.646 -123.85 263.645C-123.688 262.014 -122.937 260.391 -121.729 259.074L30.8834 92.9051C33.6744 89.8661 38.1341 89.2236 40.8227 91.4764L187.793 214.535C189.22 215.727 189.923 217.561 189.726 219.562L189.728 219.564ZM-123.143 263.596C-123.319 265.395 -122.688 267.042 -121.406 268.113L25.5647 391.172C26.7349 392.152 28.3077 392.559 29.995 392.316C31.6823 392.072 33.2824 391.21 34.497 389.886L187.109 223.717C188.194 222.535 188.87 221.078 189.015 219.612C189.19 217.813 188.559 216.166 187.277 215.094L40.304 92.0379C37.8874 90.0135 33.8825 90.5905 31.3717 93.3235L-121.241 259.492C-122.325 260.675 -123.001 262.131 -123.146 263.598L-123.143 263.596Z" fill="#A1624D"/>
<path d="M190.471 227.786C190.312 229.421 189.542 231.039 188.307 232.337L37.2527 391.048C34.4844 393.955 30.1533 394.492 27.5988 392.241L-111.885 269.47C-113.202 268.31 -113.853 266.559 -113.667 264.668C-113.507 263.031 -112.739 261.415 -111.501 260.115L39.5506 101.406C42.319 98.4985 46.6481 97.9603 49.2045 100.213L188.686 222.986C190.003 224.146 190.652 225.895 190.468 227.788L190.471 227.786ZM-112.958 264.62C-113.123 266.314 -112.545 267.883 -111.364 268.921L28.1204 391.692C30.4101 393.707 34.2896 393.226 36.7696 390.62L187.824 231.91C188.931 230.747 189.62 229.298 189.762 227.834C189.929 226.138 189.348 224.571 188.167 223.533L48.6829 100.762C46.3908 98.7488 42.5137 99.228 40.0337 101.833L-111.018 260.542C-112.126 261.705 -112.814 263.154 -112.958 264.62Z" fill="#A1624D"/>
<path d="M191.217 236.01C191.056 237.655 190.269 239.265 189.003 240.547L39.5105 391.797C36.7671 394.572 32.5647 395.002 30.14 392.754L-101.858 270.27C-103.068 269.145 -103.663 267.479 -103.489 265.697C-103.328 264.052 -102.541 262.441 -101.273 261.158L48.2196 109.907C50.963 107.133 55.1654 106.703 57.5881 108.949L189.586 231.433C190.796 232.557 191.393 234.225 191.217 236.01ZM-102.778 265.647C-102.934 267.238 -102.402 268.726 -101.322 269.73L30.6755 392.214C32.8382 394.221 36.5899 393.837 39.0392 391.359L188.532 240.108C189.661 238.963 190.366 237.526 190.508 236.057C190.664 234.467 190.132 232.979 189.052 231.974L57.0589 109.49C54.8961 107.484 51.1445 107.867 48.6928 110.348L-100.8 261.598C-101.931 262.741 -102.634 264.181 -102.776 265.649L-102.778 265.647Z" fill="#A1624D"/>
<path d="M191.965 244.231C191.803 245.885 191 247.488 189.7 248.752L41.7658 392.545C40.4493 393.825 38.779 394.605 37.0605 394.742C35.3464 394.877 33.7905 394.352 32.6807 393.266L-91.8287 271.071C-92.9539 269.969 -93.4814 268.424 -93.314 266.724C-93.1517 265.07 -92.3463 263.465 -91.0464 262.201L56.8861 118.406C59.6045 115.765 63.6806 115.44 65.9712 117.685L190.481 239.88C191.603 240.984 192.133 242.527 191.966 244.227L191.965 244.231ZM-92.6005 266.672C-92.7475 268.183 -92.2806 269.558 -91.2789 270.537L33.2305 392.732C34.2165 393.7 35.5993 394.169 37.1246 394.044C38.6518 393.922 40.1379 393.228 41.3092 392.089L189.239 248.297C190.394 247.173 191.112 245.745 191.255 244.272C191.402 242.762 190.935 241.387 189.936 240.405L65.4265 118.211C63.3908 116.213 59.7664 116.503 57.3459 118.852L-90.5885 262.644C-91.7452 263.766 -92.4614 265.196 -92.6063 266.666L-92.6005 266.672Z" fill="#A1624D"/>
<path d="M192.723 252.453C192.559 254.115 191.733 255.717 190.399 256.961L44.029 393.295C41.3332 395.804 37.3863 396.02 35.2322 393.774L-81.7903 271.866C-82.8107 270.802 -83.2875 269.342 -83.1296 267.749C-82.9683 266.085 -82.14 264.485 -80.8061 263.241L65.5662 126.905C68.264 124.397 72.2089 124.18 74.3631 126.426L191.384 248.332C192.404 249.396 192.883 250.858 192.725 252.451L192.723 252.453ZM-82.4227 267.7C-82.5612 269.111 -82.1393 270.407 -81.2336 271.348L35.7869 393.255C37.6976 395.245 41.1942 395.053 43.582 392.83L189.952 256.496C191.134 255.396 191.866 253.977 192.011 252.503C192.15 251.091 191.728 249.796 190.822 248.854L73.8017 126.948C71.891 124.957 68.3968 125.147 66.0043 127.375L-80.3657 263.708C-81.5478 264.809 -82.2798 266.227 -82.4232 267.704L-82.4227 267.7Z" fill="#A1624D"/>
<path d="M193.479 260.674C193.316 262.328 192.448 263.966 191.095 265.167L46.2833 394.042C44.987 395.194 43.3915 395.854 41.7832 395.898C40.1768 395.943 38.7518 395.37 37.7723 394.282L-71.7619 272.664C-72.6824 271.641 -73.1101 270.26 -72.9639 268.777C-72.8016 267.123 -71.9329 265.485 -70.5821 264.282L74.2294 135.406C76.9026 133.028 80.7184 132.921 82.7384 135.164L192.27 256.785C193.191 257.808 193.618 259.189 193.472 260.672L193.479 260.674ZM-72.2527 268.727C-72.3804 270.037 -72.0037 271.258 -71.1919 272.16L38.3424 393.779C39.2057 394.737 40.4627 395.245 41.8811 395.203C43.3015 395.162 44.7114 394.582 45.8548 393.564L190.666 264.688C191.859 263.627 192.626 262.179 192.77 260.721C192.897 259.411 192.523 258.192 191.709 257.289L82.1746 135.67C80.3928 133.69 77.0216 133.787 74.6622 135.885L-70.1493 264.76C-71.342 265.821 -72.1093 267.269 -72.2527 268.727Z" fill="#A1624D"/>
<path d="M194.244 268.893C194.08 270.559 193.187 272.191 191.793 273.373L48.5428 394.788C47.2599 395.874 45.6984 396.476 44.1461 396.474C42.5915 396.475 41.2332 395.877 40.3195 394.791L-61.7266 273.461C-62.5494 272.483 -62.9285 271.185 -62.7931 269.803C-62.6294 268.137 -61.7378 266.503 -60.3425 265.323L82.9104 143.905C85.5563 141.662 89.2458 141.66 91.1336 143.903L193.18 265.232C194.002 266.215 194.381 267.513 194.246 268.891L194.244 268.893ZM-62.0843 269.756C-62.2016 270.969 -61.8698 272.111 -61.1474 272.972L40.8987 394.301C41.7028 395.256 42.896 395.782 44.2608 395.782C45.6255 395.783 47 395.255 48.1261 394.299L191.379 272.881C192.603 271.843 193.388 270.409 193.533 268.943C193.652 267.731 193.316 266.589 192.593 265.729L90.5473 144.399C88.8887 142.425 85.6449 142.428 83.3157 144.402L-59.9349 265.818C-61.1593 266.855 -61.9466 268.292 -62.0886 269.756L-62.0843 269.756Z" fill="#A1624D"/>
<path d="M195.007 277.114C194.841 278.797 193.923 280.426 192.485 281.581L50.793 395.539C48.1698 397.651 44.6093 397.543 42.858 395.3L-51.7018 274.258C-52.4313 273.324 -52.7636 272.107 -52.6395 270.83C-52.474 269.147 -51.5552 267.518 -50.1177 266.362L91.5743 152.405C94.1995 150.295 97.7599 150.403 99.5093 152.644L194.069 273.686C194.799 274.62 195.131 275.837 195.007 277.114ZM-51.9264 270.782C-52.0357 271.901 -51.7444 272.964 -51.1072 273.784L43.4526 394.826C44.9866 396.789 48.1027 396.884 50.3992 395.035L192.089 281.076C193.349 280.065 194.152 278.64 194.298 277.165C194.407 276.047 194.116 274.984 193.478 274.164L98.9186 153.122C97.3865 151.161 94.2704 151.066 91.972 152.913L-49.72 266.87C-50.978 267.883 -51.7811 269.308 -51.9264 270.782Z" fill="#A1624D"/>
<path d="M195.78 285.333C195.615 287.036 194.667 288.658 193.181 289.787L53.052 396.286C50.4518 398.262 47.0201 398.049 45.4052 395.806L-41.6664 275.052C-42.3146 274.156 -42.5927 273.05 -42.4777 271.858C-42.3123 270.156 -41.3663 268.532 -39.8804 267.403L100.253 160.903C102.853 158.927 106.285 159.141 107.9 161.384L194.969 282.139C195.617 283.036 195.897 284.143 195.78 285.333ZM-41.7708 271.809C-41.8715 272.847 -41.6271 273.81 -41.0627 274.593L46.0089 395.346C47.4159 397.3 50.4071 397.486 52.6772 395.765L192.809 289.263C194.104 288.28 194.927 286.866 195.072 285.381C195.172 284.342 194.928 283.379 194.363 282.597L107.294 161.841C105.887 159.887 102.896 159.701 100.628 161.425L-39.5056 267.924C-40.7986 268.906 -41.6223 270.323 -41.7685 271.806L-41.7708 271.809Z" fill="#A1624D"/>
<path d="M196.559 293.553C196.391 295.253 195.39 296.914 193.875 297.995L55.3048 397.036C52.7276 398.877 49.4269 398.554 47.9461 396.314L-31.6368 275.846C-32.1964 274.998 -32.4364 273.974 -32.3303 272.885C-32.163 271.185 -31.1618 269.524 -29.647 268.443L108.924 169.402C111.501 167.561 114.801 167.883 116.282 170.124L195.868 290.59C196.427 291.438 196.667 292.462 196.559 293.553ZM-31.6191 272.835C-31.7122 273.783 -31.5064 274.669 -31.0182 275.406L48.5648 395.874C49.8491 397.819 52.7129 398.099 54.9485 396.501L193.519 297.46C194.831 296.521 195.704 295.079 195.847 293.603C195.94 292.659 195.732 291.771 195.246 291.036L115.663 170.568C114.378 168.627 111.515 168.343 109.277 169.943L-29.2954 268.983C-30.6073 269.921 -31.4762 271.363 -31.6215 272.837L-31.6191 272.835Z" fill="#A1624D"/>
<path d="M197.337 301.774C197.169 303.501 196.132 305.158 194.564 306.202L57.5517 397.786C54.9976 399.491 51.826 399.058 50.4836 396.82L-21.6134 276.643C-22.0892 275.849 -22.289 274.908 -22.1933 273.916C-22.0233 272.19 -20.9863 270.534 -19.4194 269.483L117.593 177.9C120.147 176.194 123.318 176.627 124.661 178.866L196.756 299.045C197.231 299.839 197.431 300.784 197.335 301.772L197.337 301.774ZM-21.4779 273.866C-21.5629 274.719 -21.3881 275.536 -20.9794 276.219L51.1153 396.398C52.2769 398.333 55.0153 398.709 57.2206 397.234L194.23 305.653C195.585 304.75 196.481 303.317 196.628 301.825C196.711 300.97 196.538 300.156 196.128 299.471L124.033 179.292C122.871 177.356 120.135 176.983 117.93 178.457L-19.0825 270.041C-20.4356 270.946 -21.3331 272.377 -21.4783 273.87L-21.4779 273.866Z" fill="#A1624D"/>
<path d="M198.134 309.995C197.966 311.726 196.863 313.419 195.261 314.415L59.8102 398.538C57.281 400.11 54.241 399.564 53.0351 397.326L-11.5757 277.436C-11.9743 276.698 -12.1359 275.839 -12.0487 274.946C-11.8783 273.216 -10.7775 271.522 -9.1759 270.526L126.278 186.4C128.807 184.828 131.847 185.374 133.055 187.614L197.661 307.504C198.06 308.242 198.223 309.104 198.134 309.995ZM-11.3395 274.894C-11.4131 275.661 -11.2751 276.402 -10.9334 277.035L53.675 396.926C54.712 398.851 57.3274 399.319 59.5023 397.968L194.954 313.845C196.352 312.977 197.276 311.555 197.423 310.044C197.499 309.275 197.359 308.536 197.017 307.904L132.409 188.012C131.372 186.088 128.756 185.619 126.581 186.97L-8.86996 271.093C-10.2681 271.962 -11.1925 273.383 -11.3395 274.894Z" fill="#A1624D"/>
<path d="M198.93 318.212C198.757 319.977 197.615 321.666 195.949 322.62L62.0567 399.285C59.5486 400.719 56.6396 400.065 55.5702 397.827L-1.55237 278.226C-1.87425 277.549 -2.00393 276.769 -1.92711 275.973C-1.75494 274.207 -0.612216 272.519 1.05552 271.563L134.948 194.898C137.454 193.461 140.363 194.115 141.433 196.354L198.553 315.957C198.877 316.632 199.004 317.414 198.928 318.21L198.93 318.212ZM-1.21357 275.921C-1.28011 276.601 -1.16826 277.269 -0.891351 277.849L56.2288 397.451C57.1431 399.366 59.6336 399.927 61.7759 398.701L195.669 322.036C197.095 321.22 198.071 319.772 198.22 318.264C198.289 317.581 198.177 316.913 197.9 316.333L140.78 196.731C139.866 194.816 137.376 194.256 135.231 195.484L1.33819 272.149C-0.0865338 272.966 -1.06468 274.412 -1.21594 275.923L-1.21357 275.921Z" fill="#A1624D"/>
</g>
</g>
</svg>
