<svg width="238" height="463" viewBox="0 0 238 463" fill="none" xmlns="http://www.w3.org/2000/svg">
<mask id="mask0_30511_13091" style="mask-type:alpha" maskUnits="userSpaceOnUse" x="0" y="0" width="238" height="463">
<rect x="0.63623" width="237.364" height="463" fill="#D9D9D9"/>
</mask>
<g mask="url(#mask0_30511_13091)">
<g opacity="0.8">
<path d="M389.904 221.263C389.752 222.805 389.155 224.344 388.178 225.71L231.571 444.867C230.198 446.788 228.22 448.191 226.001 448.818C223.781 449.445 221.587 449.219 219.822 448.185L18.3846 330.146C16.1089 328.811 14.9152 326.338 15.1902 323.53C15.3415 321.988 15.9372 320.451 16.9155 319.083L173.523 99.9261C174.896 98.0051 176.872 96.6041 179.091 95.9771C181.311 95.3501 183.503 95.5746 185.27 96.6099L386.707 214.649C388.985 215.982 390.179 218.455 389.904 221.263ZM15.8585 323.483C15.6055 326.068 16.7043 328.342 18.7991 329.57L220.239 447.607C221.862 448.56 223.882 448.766 225.924 448.189C227.966 447.612 229.785 446.323 231.045 444.555L387.653 225.397C388.551 224.141 389.099 222.726 389.238 221.307C389.491 218.723 388.392 216.449 386.299 215.219L184.857 97.1839C183.232 96.2324 181.214 96.0248 179.172 96.6017C177.132 97.1804 175.311 98.4677 174.051 100.236L17.4434 319.393C16.5429 320.652 15.9944 322.067 15.8563 323.486L15.8585 323.483Z" fill="#A1624D"/>
<path d="M390.584 228.988C390.435 230.528 389.829 232.06 388.836 233.417L233.695 445.566C232.333 447.427 230.391 448.775 228.222 449.361C226.053 449.948 223.919 449.7 222.214 448.667L27.8145 330.896C25.6466 329.585 24.5125 327.191 24.7761 324.489C24.9274 322.948 25.5303 321.418 26.5235 320.061L181.665 107.912C184.474 104.07 189.625 102.678 193.146 104.81L387.547 222.579C389.711 223.891 390.85 226.285 390.584 228.988ZM25.4444 324.443C25.2006 326.922 26.2433 329.121 28.2304 330.326L222.634 448.093C224.198 449.042 226.158 449.269 228.147 448.731C230.139 448.194 231.923 446.956 233.172 445.247L388.313 233.098C389.222 231.853 389.778 230.446 389.918 229.033C390.161 226.553 389.119 224.354 387.129 223.151L192.728 105.383C189.494 103.427 184.767 104.701 182.19 108.228L27.0483 320.381C26.1351 321.627 25.5817 323.032 25.444 324.447L25.4444 324.443Z" fill="#A1624D"/>
<path d="M391.268 236.711C391.117 238.253 390.507 239.775 389.497 241.119L235.822 446.264C233.035 449.983 228.006 451.277 224.61 449.145L37.2425 331.65C35.1845 330.359 34.1083 328.042 34.3641 325.451C34.5131 323.912 35.1255 322.387 36.1335 321.041L189.81 115.898C191.162 114.096 193.07 112.806 195.188 112.26C197.305 111.716 199.378 111.985 201.025 113.015L388.392 230.51C390.448 231.799 391.525 234.116 391.271 236.709L391.268 236.711ZM35.0302 325.407C34.7978 327.78 35.7845 329.903 37.6678 331.085L225.035 448.58C228.146 450.532 232.754 449.347 235.306 445.939L388.981 240.795C389.904 239.564 390.465 238.166 390.605 236.753C390.837 234.38 389.85 232.257 387.969 231.077L200.599 113.584C199.091 112.639 197.194 112.393 195.253 112.893C193.314 113.391 191.563 114.575 190.326 116.227L36.6516 321.368C35.7281 322.598 35.1674 323.996 35.0302 325.407Z" fill="#A1624D"/>
<path d="M391.953 244.438C391.804 245.977 391.182 247.496 390.158 248.83L237.949 446.966C236.61 448.71 234.734 449.946 232.668 450.45C230.6 450.951 228.589 450.663 227.002 449.632L46.6708 332.403C44.7224 331.137 43.7058 328.899 43.9501 326.415C44.1032 324.875 44.721 323.356 45.7479 322.021L197.956 123.884C200.718 120.289 205.628 119.093 208.901 121.221L389.231 238.448C391.179 239.714 392.196 241.952 391.951 244.436L391.953 244.438ZM44.6144 326.369C44.3931 328.639 45.3219 330.685 47.1037 331.842L227.434 449.069C228.884 450.011 230.721 450.275 232.61 449.818C234.497 449.358 236.213 448.227 237.436 446.636L389.646 248.497C390.581 247.277 391.15 245.889 391.289 244.484C391.51 242.214 390.583 240.17 388.801 239.013L208.469 121.788C205.479 119.846 200.993 120.937 198.467 124.221L46.2571 322.356C45.3209 323.574 44.7531 324.964 44.6144 326.369Z" fill="#A1624D"/>
<path d="M392.638 252.162C392.487 253.703 391.856 255.213 390.814 256.538L240.071 447.668C238.744 449.351 236.902 450.533 234.887 450.992C232.869 451.453 230.921 451.141 229.392 450.113L56.0971 333.156C54.2565 331.912 53.2956 329.754 53.5284 327.377C53.6797 325.835 54.3087 324.324 55.3501 323.003L206.094 131.872C207.422 130.188 209.262 129.008 211.28 128.547C213.295 128.083 215.248 128.395 216.771 129.426L390.066 246.379C391.906 247.622 392.865 249.783 392.632 252.16L392.638 252.162ZM54.1967 327.33C53.9824 329.498 54.8574 331.467 56.5355 332.6L229.828 449.555C231.219 450.494 232.996 450.779 234.834 450.358C236.673 449.937 238.352 448.859 239.56 447.328L390.304 256.197C391.254 254.994 391.829 253.615 391.968 252.21C392.18 250.045 391.305 248.076 389.629 246.941L216.336 129.985C214.946 129.047 213.168 128.762 211.328 129.185C209.489 129.606 207.81 130.684 206.6 132.217L55.8607 323.344C54.91 324.547 54.3372 325.927 54.1967 327.33Z" fill="#A1624D"/>
<path d="M393.324 259.887C393.173 261.428 392.531 262.935 391.473 264.243L242.194 448.368C239.48 451.718 234.808 452.715 231.783 450.591L65.5248 333.91C63.7915 332.693 62.8902 330.614 63.1116 328.344C63.2629 326.802 63.9031 325.297 64.9657 323.986L214.245 139.861C215.559 138.236 217.369 137.113 219.334 136.69C221.301 136.269 223.191 136.605 224.656 137.633L390.913 254.319C392.647 255.535 393.55 257.616 393.328 259.886L393.324 259.887ZM63.7781 328.295C63.5748 330.359 64.396 332.251 65.9726 333.359L232.23 450.045C234.981 451.974 239.227 451.066 241.696 448.022L390.975 263.897C391.937 262.711 392.521 261.338 392.66 259.937C392.863 257.873 392.042 255.981 390.465 254.873L224.207 138.188C222.875 137.252 221.156 136.947 219.37 137.329C217.581 137.714 215.936 138.735 214.742 140.21L65.4615 324.333C64.4964 325.521 63.9145 326.892 63.7763 328.293L63.7781 328.295Z" fill="#A1624D"/>
<path d="M394.014 267.613C393.862 269.155 393.21 270.656 392.132 271.952L244.32 449.068C243.014 450.631 241.242 451.701 239.325 452.082C237.409 452.462 235.582 452.103 234.175 451.077L74.9536 334.663C73.3016 333.456 72.4769 331.503 72.6906 329.305C72.8423 327.759 73.4938 326.262 74.5766 324.966L222.387 147.848C225.079 144.621 229.629 143.722 232.532 145.843L391.752 262.257C393.406 263.466 394.231 265.418 394.013 267.617L394.014 267.613ZM73.3589 329.258C73.1614 331.249 73.9115 333.019 75.4091 334.116L234.63 450.53C235.905 451.46 237.562 451.784 239.3 451.44C241.038 451.096 242.643 450.127 243.827 448.711L391.639 271.594C392.621 270.419 393.209 269.059 393.347 267.662C393.543 265.669 392.793 263.899 391.297 262.804L232.076 146.39C229.447 144.467 225.321 145.283 222.879 148.209L75.0671 325.326C74.0854 326.501 73.4967 327.861 73.3585 329.262L73.3589 329.258Z" fill="#A1624D"/>
<path d="M394.708 275.337C394.556 276.882 393.893 278.377 392.789 279.66L246.444 449.772C245.15 451.277 243.411 452.288 241.547 452.626C239.681 452.962 237.912 452.584 236.569 451.558L84.3852 335.416C82.8365 334.235 82.0696 332.36 82.2719 330.268C82.4236 328.722 83.0868 327.228 84.1885 325.943L230.536 155.833C231.829 154.328 233.567 153.315 235.433 152.979C237.299 152.643 239.068 153.021 240.412 154.049L392.6 270.191C394.149 271.371 394.916 273.247 394.712 275.336L394.708 275.337ZM82.9366 330.218C82.752 332.108 83.4478 333.804 84.8443 334.872L237.03 451.012C238.245 451.942 239.844 452.285 241.532 451.977C243.218 451.672 244.791 450.758 245.961 449.398L392.307 279.286C393.305 278.127 393.904 276.775 394.042 275.377C394.227 273.487 393.531 271.791 392.135 270.723L239.951 154.581C238.733 153.653 237.135 153.31 235.449 153.615C233.763 153.921 232.19 154.835 231.02 156.195L84.6745 326.307C83.6766 327.466 83.0766 328.818 82.9388 330.216L82.9366 330.218Z" fill="#A1624D"/>
<path d="M395.401 283.058C395.249 284.586 394.558 286.118 393.446 287.366L248.568 450.47C247.287 451.914 245.581 452.871 243.766 453.167C241.95 453.462 240.244 453.061 238.959 452.033L93.8104 336.161C92.3685 335.011 91.6537 333.211 91.8485 331.226C91.9981 329.701 92.6934 328.169 93.8033 326.919L238.684 163.813C239.965 162.369 241.671 161.412 243.486 161.116C245.302 160.821 247.008 161.222 248.293 162.25L393.442 278.122C394.883 279.272 395.598 281.071 395.406 283.054L395.401 283.058ZM92.5106 331.182C92.3348 332.971 92.9804 334.594 94.2798 335.632L239.429 451.505C240.586 452.428 242.124 452.793 243.76 452.524C245.396 452.259 246.936 451.394 248.089 450.092L392.97 286.986C393.973 285.858 394.598 284.479 394.731 283.103C394.907 281.314 394.261 279.691 392.96 278.655L247.811 162.782C246.653 161.86 245.115 161.495 243.477 161.762C241.843 162.029 240.306 162.891 239.148 164.193L94.2675 327.3C93.2649 328.427 92.64 329.807 92.5065 331.182L92.5106 331.182Z" fill="#A1624D"/>
<path d="M396.096 290.785C395.946 292.319 395.238 293.841 394.105 295.077L250.691 451.175C249.421 452.559 247.749 453.459 245.984 453.715C244.219 453.97 242.574 453.543 241.349 452.519L103.235 336.917C101.894 335.796 101.233 334.074 101.419 332.194C101.571 330.662 102.278 329.138 103.412 327.9L246.826 171.802C249.449 168.947 253.64 168.343 256.167 170.459L394.278 286.06C395.619 287.181 396.28 288.903 396.095 290.783L396.096 290.785ZM102.083 332.148C101.918 333.838 102.511 335.385 103.716 336.392L241.828 451.993C242.928 452.913 244.406 453.295 245.991 453.067C247.577 452.838 249.081 452.029 250.222 450.785L393.636 294.686C394.655 293.576 395.291 292.207 395.426 290.83C395.592 289.14 394.998 287.592 393.793 286.586L255.679 170.987C253.408 169.085 249.645 169.627 247.285 172.195L103.871 328.293C102.852 329.404 102.216 330.772 102.081 332.15L102.083 332.148Z" fill="#A1624D"/>
<path d="M396.795 298.509C396.646 300.045 395.922 301.564 394.761 302.784L252.812 451.876C250.211 454.608 246.141 455.112 243.74 452.998L112.663 337.666C111.425 336.577 110.814 334.932 110.989 333.155C111.139 331.618 111.861 330.1 113.024 328.878L254.971 179.788C257.573 177.057 261.641 176.551 264.044 178.667L395.118 294C396.356 295.089 396.965 296.732 396.793 298.511L396.795 298.509ZM111.655 333.111C111.5 334.702 112.043 336.176 113.153 337.151L244.23 452.482C246.382 454.375 250.028 453.923 252.358 451.475L394.307 302.383C395.348 301.291 395.995 299.929 396.129 298.554C396.286 296.961 395.74 295.489 394.63 294.514L263.553 179.183C261.399 177.292 257.756 177.742 255.425 180.189L113.478 329.28C112.437 330.372 111.79 331.733 111.655 333.111Z" fill="#A1624D"/>
<path d="M397.498 306.232C397.346 307.778 396.607 309.29 395.418 310.494L254.935 452.578C252.357 455.184 248.408 455.588 246.129 453.476L122.088 338.415C120.95 337.359 120.391 335.794 120.554 334.12C120.706 332.574 121.445 331.061 122.637 329.856L263.119 187.772C265.697 185.165 269.646 184.761 271.923 186.871L395.965 301.933C397.102 302.989 397.664 304.556 397.498 306.232ZM121.223 334.073C121.076 335.567 121.576 336.965 122.591 337.908L246.633 452.97C248.665 454.854 252.191 454.494 254.492 452.166L394.975 310.082C396.036 309.006 396.698 307.656 396.832 306.277C396.978 304.782 396.479 303.385 395.463 302.441L271.426 187.38C269.393 185.495 265.868 185.855 263.564 188.185L123.081 330.269C122.018 331.343 121.358 332.696 121.224 334.075L121.223 334.073Z" fill="#A1624D"/>
<path d="M398.202 313.955C398.049 315.509 397.294 317.015 396.073 318.202L257.055 453.281C255.818 454.483 254.248 455.216 252.633 455.344C251.022 455.472 249.56 454.979 248.517 453.958L131.513 339.169C130.455 338.133 129.96 336.682 130.117 335.085C130.269 333.531 131.026 332.024 132.248 330.836L271.264 195.756C273.818 193.275 277.649 192.969 279.801 195.078L396.806 309.868C397.861 310.905 398.359 312.354 398.202 313.951L398.202 313.955ZM130.787 335.036C130.649 336.455 131.088 337.747 132.029 338.667L249.034 453.457C249.961 454.366 251.26 454.806 252.693 454.689C254.129 454.574 255.525 453.923 256.626 452.852L395.64 317.774C396.725 316.719 397.4 315.377 397.534 313.994C397.672 312.575 397.233 311.284 396.294 310.361L279.29 195.572C277.377 193.695 273.971 193.968 271.696 196.174L132.678 331.252C131.591 332.306 130.918 333.649 130.782 335.031L130.787 335.036Z" fill="#A1624D"/>
<path d="M398.91 321.679C398.756 323.241 397.98 324.746 396.726 325.914L259.179 453.985C256.645 456.343 252.936 456.545 250.912 454.436L140.943 339.915C139.984 338.916 139.536 337.544 139.684 336.048C139.836 334.484 140.614 332.981 141.868 331.813L279.418 203.74C281.953 201.384 285.66 201.18 287.684 203.289L397.652 317.808C398.611 318.808 399.06 320.181 398.912 321.677L398.91 321.679ZM140.348 336.001C140.218 337.327 140.615 338.545 141.466 339.429L251.433 453.948C253.229 455.817 256.515 455.637 258.758 453.549L396.306 325.477C397.417 324.444 398.105 323.111 398.242 321.726C398.372 320.4 397.975 319.183 397.124 318.298L287.157 203.78C285.361 201.91 282.078 202.088 279.829 204.181L142.281 332.252C141.171 333.286 140.483 334.618 140.348 336.005L140.348 336.001Z" fill="#A1624D"/>
<path d="M399.621 329.402C399.469 330.955 398.652 332.494 397.381 333.622L261.298 454.688C260.08 455.769 258.58 456.39 257.069 456.431C255.559 456.473 254.22 455.935 253.3 454.913L150.368 340.665C149.503 339.704 149.101 338.407 149.238 337.013C149.391 335.46 150.207 333.921 151.476 332.791L287.56 211.726C290.072 209.491 293.658 209.391 295.556 211.498L398.486 325.749C399.351 326.709 399.753 328.007 399.615 329.4L399.621 329.402ZM149.906 336.967C149.786 338.198 150.14 339.345 150.903 340.191L253.836 454.44C254.647 455.341 255.828 455.818 257.161 455.778C258.496 455.74 259.821 455.195 260.895 454.238L396.978 333.173C398.099 332.176 398.82 330.816 398.955 329.446C399.075 328.215 398.723 327.07 397.958 326.222L295.026 211.973C293.352 210.114 290.184 210.205 287.966 212.175L151.883 333.24C150.762 334.237 150.041 335.597 149.906 336.967Z" fill="#A1624D"/>
<path d="M400.339 337.123C400.185 338.688 399.345 340.221 398.036 341.331L263.419 455.388C262.214 456.408 260.746 456.974 259.288 456.972C257.827 456.972 256.55 456.411 255.692 455.391L159.796 341.414C159.023 340.495 158.667 339.276 158.794 337.977C158.948 336.412 159.786 334.878 161.097 333.769L295.716 219.709C298.202 217.603 301.669 217.6 303.443 219.707L399.339 333.684C400.111 334.607 400.468 335.826 400.341 337.121L400.339 337.123ZM159.46 337.933C159.35 339.073 159.662 340.146 160.341 340.954L256.236 454.931C256.992 455.827 258.113 456.321 259.395 456.322C260.678 456.323 261.97 455.827 263.028 454.928L397.646 340.869C398.797 339.894 399.535 338.547 399.67 337.169C399.782 336.031 399.467 334.959 398.788 334.15L302.892 220.173C301.334 218.319 298.285 218.321 296.096 220.176L161.48 334.233C160.329 335.208 159.59 336.558 159.456 337.933L159.46 337.933Z" fill="#A1624D"/>
<path d="M401.056 344.845C400.901 346.426 400.037 347.956 398.686 349.042L265.535 456.093C263.069 458.077 259.724 457.976 258.078 455.869L169.217 342.162C168.532 341.285 168.22 340.141 168.336 338.942C168.492 337.36 169.355 335.83 170.706 334.745L303.858 227.694C306.325 225.712 309.671 225.813 311.315 227.918L400.175 341.625C400.86 342.502 401.173 343.646 401.056 344.845ZM169.006 338.897C168.904 339.948 169.177 340.946 169.776 341.716L258.637 455.423C260.078 457.267 263.006 457.357 265.164 455.62L398.314 348.567C399.498 347.617 400.253 346.279 400.39 344.893C400.492 343.843 400.219 342.844 399.62 342.074L310.759 228.367C309.32 226.525 306.391 226.436 304.232 228.171L171.08 335.222C169.898 336.173 169.143 337.512 169.006 338.897Z" fill="#A1624D"/>
<path d="M401.784 352.567C401.628 354.166 400.738 355.69 399.341 356.751L267.658 456.796C265.215 458.652 261.99 458.451 260.472 456.344L178.649 342.909C178.04 342.067 177.778 341.028 177.886 339.908C178.042 338.309 178.931 336.784 180.327 335.723L312.014 235.677C314.458 233.821 317.683 234.022 319.2 236.129L401.021 349.566C401.63 350.409 401.894 351.449 401.784 352.567ZM178.551 339.862C178.456 340.837 178.686 341.742 179.216 342.477L261.039 455.912C262.362 457.748 265.173 457.923 267.306 456.306L398.991 356.259C400.209 355.335 400.982 354.007 401.118 352.612C401.212 351.636 400.983 350.731 400.452 349.996L318.631 236.559C317.309 234.723 314.498 234.548 312.366 236.167L180.679 336.213C179.464 337.135 178.69 338.466 178.553 339.86L178.551 339.862Z" fill="#A1624D"/>
<path d="M402.514 360.289C402.357 361.886 401.416 363.446 399.993 364.462L269.774 457.501C267.352 459.23 264.25 458.927 262.859 456.822L188.073 343.654C187.547 342.858 187.321 341.896 187.421 340.873C187.578 339.276 188.519 337.716 189.943 336.701L320.161 243.661C322.583 241.932 325.685 242.235 327.076 244.34L401.865 357.505C402.39 358.302 402.616 359.264 402.514 360.289ZM188.089 340.827C188.002 341.717 188.195 342.549 188.654 343.241L263.44 456.409C264.647 458.236 267.338 458.499 269.439 456.998L399.658 363.959C400.891 363.077 401.711 361.723 401.846 360.336C401.933 359.449 401.738 358.615 401.281 357.925L326.494 244.757C325.287 242.934 322.596 242.667 320.493 244.17L190.273 337.208C189.04 338.089 188.224 339.443 188.087 340.829L188.089 340.827Z" fill="#A1624D"/>
<path d="M403.25 368.01C403.092 369.633 402.117 371.19 400.643 372.171L271.889 458.204C269.489 459.806 266.509 459.399 265.247 457.296L197.496 344.402C197.049 343.656 196.861 342.773 196.951 341.841C197.111 340.22 198.085 338.663 199.558 337.677L328.312 251.644C330.712 250.042 333.692 250.448 334.954 252.551L402.703 365.447C403.15 366.193 403.338 367.08 403.248 368.009L403.25 368.01ZM197.623 341.794C197.543 342.595 197.708 343.362 198.092 344.004L265.841 456.9C266.933 458.718 269.506 459.071 271.578 457.685L400.33 371.655C401.603 370.806 402.445 369.46 402.583 368.059C402.661 367.255 402.499 366.49 402.113 365.847L334.364 252.951C333.272 251.133 330.701 250.782 328.628 252.167L199.874 338.2C198.603 339.051 197.759 340.395 197.623 341.798L197.623 341.794Z" fill="#A1624D"/>
<path d="M403.993 375.733C403.835 377.36 402.799 378.95 401.294 379.885L274.006 458.91C271.63 460.387 268.773 459.874 267.64 457.771L206.923 345.147C206.549 344.454 206.397 343.647 206.479 342.808C206.639 341.183 207.673 339.592 209.178 338.656L336.468 259.629C338.844 258.152 341.701 258.665 342.836 260.77L403.549 373.394C403.923 374.087 404.077 374.896 403.993 375.733ZM207.145 342.759C207.076 343.48 207.206 344.176 207.527 344.77L268.241 457.396C269.215 459.204 271.673 459.644 273.717 458.375L401.004 379.35C402.318 378.534 403.187 377.199 403.325 375.78C403.396 375.057 403.264 374.363 402.943 373.769L342.229 261.143C341.255 259.335 338.797 258.895 336.753 260.164L209.466 339.189C208.152 340.005 207.283 341.341 207.145 342.759Z" fill="#A1624D"/>
<path d="M404.746 383.454C404.584 385.113 403.51 386.699 401.945 387.595L276.122 459.614C273.766 460.961 271.032 460.347 270.027 458.244L216.347 345.892C216.045 345.255 215.923 344.523 215.995 343.775C216.157 342.116 217.231 340.53 218.798 339.632L344.621 267.613C346.976 266.264 349.709 266.878 350.714 268.981L404.392 381.335C404.696 381.97 404.816 382.704 404.744 383.452L404.746 383.454ZM216.666 343.726C216.603 344.365 216.708 344.992 216.969 345.537L270.646 457.891C271.505 459.69 273.845 460.217 275.859 459.065L401.681 387.046C403.022 386.28 403.939 384.92 404.079 383.503C404.144 382.861 404.039 382.234 403.779 381.69L350.101 269.335C349.242 267.536 346.902 267.01 344.886 268.164L219.064 340.182C217.725 340.951 216.806 342.309 216.664 343.728L216.666 343.726Z" fill="#A1624D"/>
</g>
</g>
</svg>
