<svg width="238" height="463" viewBox="0 0 238 463" fill="none" xmlns="http://www.w3.org/2000/svg">
<mask id="mask0_30666_2834" style="mask-type:alpha" maskUnits="userSpaceOnUse" x="0" y="0" width="238" height="463">
<rect x="0.636719" width="237.364" height="463" fill="#D9D9D9"/>
</mask>
<g mask="url(#mask0_30666_2834)">
<g opacity="0.8">
<path d="M389.905 221.263C389.754 222.805 389.156 224.344 388.18 225.71L231.572 444.867C230.2 446.788 228.222 448.191 226.002 448.818C223.783 449.445 221.588 449.219 219.824 448.185L18.3861 330.146C16.1104 328.811 14.9166 326.338 15.1917 323.53C15.343 321.988 15.9387 320.451 16.917 319.083L173.525 99.9261C174.897 98.0051 176.873 96.6041 179.093 95.9771C181.312 95.3501 183.504 95.5746 185.271 96.6099L386.709 214.649C388.986 215.982 390.18 218.455 389.905 221.263ZM15.86 323.483C15.6069 326.068 16.7058 328.342 18.8005 329.57L220.24 447.607C221.863 448.56 223.883 448.766 225.925 448.189C227.967 447.612 229.787 446.323 231.046 444.555L387.654 225.397C388.553 224.141 389.101 222.726 389.239 221.307C389.492 218.723 388.393 216.449 386.301 215.219L184.859 97.1839C183.233 96.2324 181.216 96.0248 179.174 96.6017C177.134 97.1804 175.312 98.4677 174.053 100.236L17.4448 319.393C16.5443 320.652 15.9959 322.067 15.8578 323.486L15.86 323.483Z" fill="#A1624D"/>
<path d="M390.584 228.988C390.435 230.528 389.829 232.06 388.836 233.417L233.695 445.566C232.333 447.427 230.391 448.775 228.222 449.361C226.053 449.948 223.919 449.7 222.214 448.667L27.8145 330.896C25.6466 329.585 24.5125 327.191 24.7761 324.489C24.9274 322.948 25.5303 321.418 26.5235 320.061L181.665 107.912C184.474 104.07 189.625 102.678 193.146 104.81L387.547 222.579C389.711 223.891 390.85 226.285 390.584 228.988ZM25.4444 324.443C25.2006 326.922 26.2433 329.121 28.2304 330.326L222.634 448.093C224.198 449.042 226.158 449.269 228.147 448.731C230.139 448.194 231.923 446.956 233.172 445.247L388.313 233.098C389.222 231.853 389.778 230.446 389.918 229.033C390.161 226.553 389.119 224.354 387.129 223.151L192.728 105.383C189.494 103.427 184.767 104.701 182.19 108.228L27.0483 320.381C26.1351 321.627 25.5817 323.032 25.444 324.447L25.4444 324.443Z" fill="#A1624D"/>
<path d="M391.269 236.711C391.118 238.253 390.508 239.775 389.498 241.119L235.823 446.264C233.036 449.983 228.007 451.277 224.611 449.145L37.2435 331.65C35.1855 330.359 34.1093 328.042 34.365 325.451C34.5141 323.912 35.1265 322.387 36.1345 321.041L189.811 115.898C191.163 114.096 193.071 112.806 195.189 112.26C197.306 111.716 199.379 111.985 201.026 113.015L388.393 230.51C390.449 231.799 391.526 234.116 391.272 236.709L391.269 236.711ZM35.0311 325.407C34.7987 327.78 35.7855 329.903 37.6687 331.085L225.036 448.58C228.147 450.532 232.755 449.347 235.307 445.939L388.982 240.795C389.905 239.564 390.466 238.166 390.606 236.753C390.838 234.38 389.851 232.257 387.97 231.077L200.6 113.584C199.092 112.639 197.195 112.393 195.254 112.893C193.315 113.391 191.564 114.575 190.327 116.227L36.6526 321.368C35.7291 322.598 35.1684 323.996 35.0311 325.407Z" fill="#A1624D"/>
<path d="M391.955 244.438C391.806 245.977 391.184 247.496 390.159 248.83L237.951 446.966C236.612 448.71 234.736 449.946 232.67 450.45C230.602 450.951 228.591 450.663 227.004 449.632L46.6722 332.403C44.7239 331.137 43.7073 328.899 43.9516 326.415C44.1047 324.875 44.7225 323.356 45.7494 322.021L197.957 123.884C200.72 120.289 205.629 119.093 208.902 121.221L389.232 238.448C391.181 239.714 392.197 241.952 391.953 244.436L391.955 244.438ZM44.6159 326.369C44.3945 328.639 45.3234 330.685 47.1052 331.842L227.435 449.069C228.885 450.011 230.722 450.275 232.611 449.818C234.498 449.358 236.215 448.227 237.437 446.636L389.648 248.497C390.582 247.277 391.152 245.889 391.29 244.484C391.512 242.214 390.585 240.17 388.803 239.013L208.471 121.788C205.481 119.846 200.995 120.937 198.468 124.221L46.2586 322.356C45.3224 323.574 44.7545 324.964 44.6159 326.369Z" fill="#A1624D"/>
<path d="M392.64 252.162C392.488 253.703 391.857 255.213 390.816 256.538L240.072 447.668C238.746 449.351 236.903 450.533 234.888 450.992C232.871 451.453 230.922 451.141 229.393 450.113L56.0986 333.156C54.258 331.912 53.2971 329.754 53.5299 327.377C53.6811 325.835 54.3102 324.324 55.3516 323.003L206.095 131.872C207.424 130.188 209.264 129.008 211.281 128.547C213.297 128.083 215.249 128.395 216.772 129.426L390.067 246.379C391.908 247.622 392.867 249.783 392.634 252.16L392.64 252.162ZM54.1982 327.33C53.9838 329.498 54.8589 331.467 56.5369 332.6L229.83 449.555C231.22 450.494 232.997 450.779 234.836 450.358C236.675 449.937 238.353 448.859 239.562 447.328L390.305 256.197C391.256 254.994 391.83 253.615 391.969 252.21C392.181 250.045 391.306 248.076 389.63 246.941L216.337 129.985C214.947 129.047 213.17 128.762 211.329 129.185C209.49 129.606 207.812 130.684 206.601 132.217L55.8621 323.344C54.9115 324.547 54.3386 325.927 54.1982 327.33Z" fill="#A1624D"/>
<path d="M393.325 259.887C393.174 261.428 392.532 262.935 391.474 264.243L242.195 448.368C239.481 451.718 234.809 452.715 231.784 450.591L65.5257 333.91C63.7925 332.693 62.8912 330.614 63.1126 328.344C63.2638 326.802 63.9041 325.297 64.9666 323.986L214.245 139.861C215.56 138.236 217.37 137.113 219.335 136.69C221.302 136.269 223.192 136.605 224.657 137.633L390.914 254.319C392.648 255.535 393.551 257.616 393.329 259.886L393.325 259.887ZM63.7791 328.295C63.5758 330.359 64.397 332.251 65.9735 333.359L232.231 450.045C234.982 451.974 239.228 451.066 241.697 448.022L390.975 263.897C391.938 262.711 392.522 261.338 392.661 259.937C392.864 257.873 392.043 255.981 390.466 254.873L224.208 138.188C222.876 137.252 221.157 136.947 219.371 137.329C217.582 137.714 215.937 138.735 214.743 140.21L65.4624 324.333C64.4974 325.521 63.9155 326.892 63.7773 328.293L63.7791 328.295Z" fill="#A1624D"/>
<path d="M394.014 267.613C393.863 269.155 393.211 270.656 392.132 271.952L244.32 449.068C243.014 450.631 241.242 451.701 239.326 452.082C237.409 452.462 235.582 452.103 234.175 451.077L74.9541 334.663C73.3021 333.456 72.4774 331.503 72.6911 329.305C72.8428 327.759 73.4943 326.262 74.5771 324.966L222.387 147.848C225.08 144.621 229.629 143.722 232.532 145.843L391.753 262.257C393.407 263.466 394.231 265.418 394.014 267.617L394.014 267.613ZM73.3594 329.258C73.1619 331.249 73.912 333.019 75.4096 334.116L234.63 450.53C235.906 451.46 237.562 451.784 239.3 451.44C241.039 451.096 242.644 450.127 243.827 448.711L391.639 271.594C392.621 270.419 393.21 269.059 393.348 267.662C393.543 265.669 392.793 263.899 391.297 262.804L232.077 146.39C229.447 144.467 225.322 145.283 222.88 148.209L75.0676 325.326C74.0859 326.501 73.4972 327.861 73.359 329.262L73.3594 329.258Z" fill="#A1624D"/>
<path d="M394.709 275.337C394.558 276.882 393.894 278.377 392.791 279.66L246.445 449.772C245.152 451.277 243.412 452.288 241.548 452.626C239.683 452.962 237.914 452.584 236.571 451.558L84.3867 335.416C82.8379 334.235 82.0711 332.36 82.2733 330.268C82.4251 328.722 83.0883 327.228 84.19 325.943L230.537 155.833C231.831 154.328 233.569 153.315 235.434 152.979C237.3 152.643 239.069 153.021 240.414 154.049L392.602 270.191C394.151 271.371 394.917 273.247 394.713 275.336L394.709 275.337ZM82.9381 330.218C82.7534 332.108 83.4493 333.804 84.8458 334.872L237.032 451.012C238.247 451.942 239.845 452.285 241.534 451.977C243.22 451.672 244.793 450.758 245.962 449.398L392.308 279.286C393.306 278.127 393.906 276.775 394.044 275.377C394.228 273.487 393.533 271.791 392.136 270.723L239.952 154.581C238.735 153.653 237.136 153.31 235.45 153.615C233.764 153.921 232.191 154.835 231.022 156.195L84.676 326.307C83.678 327.466 83.0781 328.818 82.9403 330.216L82.9381 330.218Z" fill="#A1624D"/>
<path d="M395.403 283.058C395.251 284.586 394.56 286.118 393.448 287.366L248.569 450.47C247.288 451.914 245.582 452.871 243.767 453.167C241.952 453.462 240.245 453.061 238.961 452.033L93.8118 336.161C92.37 335.011 91.6552 333.211 91.85 331.226C91.9996 329.701 92.6948 328.169 93.8048 326.919L238.686 163.813C239.967 162.369 241.673 161.412 243.488 161.116C245.303 160.821 247.01 161.222 248.294 162.25L393.443 278.122C394.885 279.272 395.6 281.071 395.407 283.054L395.403 283.058ZM92.512 331.182C92.3362 332.971 92.9818 334.594 94.2813 335.632L239.43 451.505C240.588 452.428 242.126 452.793 243.762 452.524C245.397 452.259 246.937 451.394 248.091 450.092L392.972 286.986C393.974 285.858 394.599 284.479 394.732 283.103C394.908 281.314 394.263 279.691 392.961 278.655L247.812 162.782C246.655 161.86 245.117 161.495 243.479 161.762C241.845 162.029 240.308 162.891 239.15 164.193L94.269 327.3C93.2663 328.427 92.6414 329.807 92.508 331.182L92.512 331.182Z" fill="#A1624D"/>
<path d="M396.098 290.785C395.947 292.319 395.239 293.841 394.107 295.077L250.693 451.175C249.422 452.559 247.75 453.459 245.986 453.715C244.221 453.97 242.575 453.543 241.35 452.519L103.236 336.917C101.896 335.796 101.235 334.074 101.42 332.194C101.572 330.662 102.279 329.138 103.414 327.9L246.828 171.802C249.45 168.947 253.641 168.343 256.168 170.459L394.28 286.06C395.621 287.181 396.282 288.903 396.096 290.783L396.098 290.785ZM102.085 332.148C101.919 333.838 102.513 335.385 103.718 336.392L241.83 451.993C242.929 452.913 244.407 453.295 245.993 453.067C247.578 452.838 249.082 452.029 250.223 450.785L393.638 294.686C394.656 293.576 395.292 292.207 395.428 290.83C395.593 289.14 394.999 287.592 393.795 286.586L255.681 170.987C253.41 169.085 249.646 169.627 247.287 172.195L103.873 328.293C102.854 329.404 102.218 330.772 102.082 332.15L102.085 332.148Z" fill="#A1624D"/>
<path d="M396.795 298.509C396.646 300.045 395.922 301.564 394.761 302.784L252.812 451.876C250.211 454.608 246.141 455.112 243.74 452.998L112.663 337.666C111.425 336.577 110.814 334.932 110.989 333.155C111.139 331.618 111.861 330.1 113.024 328.878L254.971 179.788C257.573 177.057 261.641 176.551 264.044 178.667L395.118 294C396.356 295.089 396.965 296.732 396.793 298.511L396.795 298.509ZM111.655 333.111C111.5 334.702 112.043 336.176 113.153 337.151L244.23 452.482C246.382 454.375 250.028 453.923 252.358 451.475L394.307 302.383C395.348 301.291 395.995 299.929 396.129 298.554C396.286 296.961 395.74 295.489 394.63 294.514L263.553 179.183C261.399 177.292 257.756 177.742 255.425 180.189L113.478 329.28C112.437 330.372 111.79 331.733 111.655 333.111Z" fill="#A1624D"/>
<path d="M397.499 306.232C397.347 307.778 396.608 309.29 395.419 310.494L254.936 452.578C252.358 455.184 248.409 455.588 246.13 453.476L122.089 338.415C120.951 337.359 120.392 335.794 120.555 334.12C120.707 332.574 121.446 331.061 122.638 329.856L263.12 187.772C265.698 185.165 269.647 184.761 271.924 186.871L395.966 301.933C397.103 302.989 397.665 304.556 397.499 306.232ZM121.224 334.073C121.077 335.567 121.577 336.965 122.592 337.908L246.634 452.97C248.666 454.854 252.192 454.494 254.493 452.166L394.976 310.082C396.037 309.006 396.699 307.656 396.833 306.277C396.979 304.782 396.48 303.385 395.464 302.441L271.427 187.38C269.394 185.495 265.869 185.855 263.565 188.185L123.082 330.269C122.019 331.343 121.359 332.696 121.225 334.075L121.224 334.073Z" fill="#A1624D"/>
<path d="M398.202 313.955C398.049 315.509 397.295 317.015 396.073 318.202L257.055 453.281C255.818 454.483 254.249 455.216 252.634 455.344C251.023 455.472 249.561 454.979 248.518 453.958L131.513 339.169C130.456 338.133 129.96 336.682 130.117 335.085C130.27 333.531 131.027 332.024 132.248 330.836L271.264 195.756C273.819 193.275 277.649 192.969 279.802 195.078L396.807 309.868C397.862 310.905 398.36 312.354 398.202 313.951L398.202 313.955ZM130.788 335.036C130.65 336.455 131.088 337.747 132.03 338.667L249.035 453.457C249.961 454.366 251.261 454.806 252.694 454.689C254.129 454.574 255.526 453.923 256.626 452.852L395.64 317.774C396.725 316.719 397.4 315.377 397.535 313.994C397.673 312.575 397.234 311.284 396.295 310.361L279.29 195.572C277.377 193.695 273.971 193.968 271.697 196.174L132.679 331.252C131.592 332.306 130.919 333.649 130.782 335.031L130.788 335.036Z" fill="#A1624D"/>
<path d="M398.911 321.679C398.758 323.241 397.981 324.746 396.728 325.914L259.18 453.985C256.647 456.343 252.938 456.545 250.913 454.436L140.944 339.915C139.985 338.916 139.537 337.544 139.686 336.048C139.837 334.484 140.616 332.981 141.869 331.813L279.419 203.74C281.954 201.384 285.661 201.18 287.686 203.289L397.653 317.808C398.612 318.808 399.062 320.181 398.914 321.677L398.911 321.679ZM140.35 336.001C140.22 337.327 140.616 338.545 141.467 339.429L251.435 453.948C253.23 455.817 256.516 455.637 258.76 453.549L396.308 325.477C397.419 324.444 398.106 323.111 398.243 321.726C398.373 320.4 397.977 319.183 397.126 318.298L287.158 203.78C285.363 201.91 282.079 202.088 279.831 204.181L142.283 332.252C141.172 333.286 140.484 334.618 140.349 336.005L140.35 336.001Z" fill="#A1624D"/>
<path d="M399.622 329.402C399.469 330.955 398.653 332.494 397.382 333.622L261.298 454.688C260.08 455.769 258.581 456.39 257.069 456.431C255.56 456.473 254.221 455.935 253.3 454.913L150.368 340.665C149.503 339.704 149.101 338.407 149.239 337.013C149.391 335.46 150.207 333.921 151.477 332.791L287.56 211.726C290.072 209.491 293.658 209.391 295.556 211.498L398.486 325.749C399.351 326.709 399.753 328.007 399.616 329.4L399.622 329.402ZM149.907 336.967C149.787 338.198 150.141 339.345 150.904 340.191L253.836 454.44C254.647 455.341 255.829 455.818 257.162 455.778C258.496 455.74 259.821 455.195 260.896 454.238L396.979 333.173C398.1 332.176 398.821 330.816 398.956 329.446C399.076 328.215 398.723 327.07 397.959 326.222L295.026 211.973C293.352 210.114 290.184 210.205 287.967 212.175L151.884 333.24C150.763 334.237 150.042 335.597 149.907 336.967Z" fill="#A1624D"/>
<path d="M400.339 337.123C400.185 338.688 399.346 340.221 398.036 341.331L263.42 455.388C262.214 456.408 260.747 456.974 259.288 456.972C257.827 456.972 256.551 456.411 255.692 455.391L159.797 341.414C159.024 340.495 158.667 339.276 158.795 337.977C158.948 336.412 159.786 334.878 161.098 333.769L295.716 219.709C298.203 217.603 301.67 217.6 303.444 219.707L399.339 333.684C400.112 334.607 400.468 335.826 400.341 337.121L400.339 337.123ZM159.461 337.933C159.35 339.073 159.662 340.146 160.341 340.954L256.237 454.931C256.992 455.827 258.113 456.321 259.396 456.322C260.678 456.323 261.97 455.827 263.028 454.928L397.647 340.869C398.798 339.894 399.535 338.547 399.671 337.169C399.783 336.031 399.467 334.959 398.788 334.15L302.893 220.173C301.334 218.319 298.286 218.321 296.097 220.176L161.481 334.233C160.33 335.208 159.59 336.558 159.457 337.933L159.461 337.933Z" fill="#A1624D"/>
<path d="M401.057 344.845C400.902 346.426 400.038 347.956 398.687 349.042L265.535 456.093C263.07 458.077 259.725 457.976 258.079 455.869L169.218 342.162C168.533 341.285 168.221 340.141 168.337 338.942C168.493 337.36 169.356 335.83 170.707 334.745L303.859 227.694C306.326 225.712 309.672 225.813 311.316 227.918L400.176 341.625C400.861 342.502 401.174 343.646 401.057 344.845ZM169.007 338.897C168.905 339.948 169.178 340.946 169.777 341.716L258.637 455.423C260.079 457.267 263.007 457.357 265.165 455.62L398.315 348.567C399.499 347.617 400.254 346.279 400.391 344.893C400.493 343.843 400.22 342.844 399.621 342.074L310.76 228.367C309.321 226.525 306.392 226.436 304.233 228.171L171.081 335.222C169.899 336.173 169.144 337.512 169.007 338.897Z" fill="#A1624D"/>
<path d="M401.785 352.567C401.63 354.166 400.739 355.69 399.343 356.751L267.66 456.796C265.216 458.652 261.991 458.451 260.474 456.344L178.65 342.909C178.041 342.067 177.78 341.028 177.888 339.908C178.043 338.309 178.932 336.784 180.328 335.723L312.016 235.677C314.459 233.821 317.684 234.022 319.202 236.129L401.023 349.566C401.632 350.409 401.895 351.449 401.785 352.567ZM178.552 339.862C178.457 340.837 178.687 341.742 179.217 342.477L261.041 455.912C262.363 457.748 265.174 457.923 267.307 456.306L398.993 356.259C400.21 355.335 400.984 354.007 401.119 352.612C401.214 351.636 400.984 350.731 400.454 349.996L318.632 236.559C317.31 234.723 314.499 234.548 312.368 236.167L180.681 336.213C179.466 337.135 178.692 338.466 178.554 339.86L178.552 339.862Z" fill="#A1624D"/>
<path d="M402.515 360.289C402.358 361.886 401.417 363.446 399.994 364.462L269.775 457.501C267.353 459.23 264.251 458.927 262.86 456.822L188.074 343.654C187.548 342.858 187.322 341.896 187.422 340.873C187.579 339.276 188.52 337.716 189.944 336.701L320.162 243.661C322.584 241.932 325.686 242.235 327.077 244.34L401.866 357.505C402.391 358.302 402.617 359.264 402.515 360.289ZM188.09 340.827C188.003 341.717 188.196 342.549 188.655 343.241L263.441 456.409C264.648 458.236 267.339 458.499 269.44 456.998L399.659 363.959C400.891 363.077 401.712 361.723 401.847 360.336C401.934 359.449 401.739 358.615 401.282 357.925L326.495 244.757C325.288 242.934 322.597 242.667 320.494 244.17L190.274 337.208C189.041 338.089 188.225 339.443 188.088 340.829L188.09 340.827Z" fill="#A1624D"/>
<path d="M403.25 368.01C403.092 369.633 402.118 371.19 400.644 372.171L271.89 458.204C269.49 459.806 266.509 459.399 265.248 457.296L197.496 344.402C197.049 343.656 196.862 342.773 196.951 341.841C197.111 340.22 198.086 338.663 199.558 337.677L328.312 251.644C330.712 250.042 333.693 250.448 334.954 252.551L402.704 365.447C403.151 366.193 403.338 367.08 403.249 368.009L403.25 368.01ZM197.624 341.794C197.544 342.595 197.708 343.362 198.092 344.004L265.841 456.9C266.933 458.718 269.506 459.071 271.579 457.685L400.331 371.655C401.604 370.806 402.446 369.46 402.584 368.059C402.662 367.255 402.499 366.49 402.114 365.847L334.364 252.951C333.273 251.133 330.701 250.782 328.629 252.167L199.875 338.2C198.603 339.051 197.76 340.395 197.623 341.798L197.624 341.794Z" fill="#A1624D"/>
<path d="M403.993 375.733C403.835 377.36 402.799 378.95 401.294 379.885L274.006 458.91C271.63 460.387 268.773 459.874 267.64 457.771L206.923 345.147C206.549 344.454 206.397 343.647 206.479 342.808C206.639 341.183 207.673 339.592 209.178 338.656L336.468 259.629C338.844 258.152 341.701 258.665 342.836 260.77L403.549 373.394C403.923 374.087 404.077 374.896 403.993 375.733ZM207.145 342.759C207.076 343.48 207.206 344.176 207.527 344.77L268.241 457.396C269.215 459.204 271.673 459.644 273.717 458.375L401.004 379.35C402.318 378.534 403.187 377.199 403.325 375.78C403.396 375.057 403.264 374.363 402.943 373.769L342.229 261.143C341.255 259.335 338.797 258.895 336.753 260.164L209.466 339.189C208.152 340.005 207.283 341.341 207.145 342.759Z" fill="#A1624D"/>
<path d="M404.747 383.454C404.585 385.113 403.511 386.699 401.946 387.595L276.123 459.614C273.767 460.961 271.033 460.347 270.028 458.244L216.348 345.892C216.046 345.255 215.924 344.523 215.996 343.775C216.158 342.116 217.232 340.53 218.799 339.632L344.622 267.613C346.977 266.264 349.71 266.878 350.715 268.981L404.393 381.335C404.697 381.97 404.817 382.704 404.745 383.452L404.747 383.454ZM216.667 343.726C216.604 344.365 216.709 344.992 216.97 345.537L270.647 457.891C271.506 459.69 273.846 460.217 275.86 459.065L401.682 387.046C403.023 386.28 403.94 384.92 404.08 383.503C404.145 382.861 404.04 382.234 403.78 381.69L350.102 269.335C349.243 267.536 346.903 267.01 344.887 268.164L219.065 340.182C217.726 340.951 216.807 342.309 216.664 343.728L216.667 343.726Z" fill="#A1624D"/>
</g>
<g opacity="0.8">
<path d="M61.652 196.155C62.3587 194.791 63.4765 193.61 64.8792 192.743L289.955 53.5069C291.928 52.2863 294.269 51.7894 296.547 52.1076C298.824 52.4259 300.765 53.5227 302.013 55.192L444.384 245.793C445.992 247.948 446.183 250.716 444.896 253.201C444.19 254.565 443.075 255.745 441.669 256.614L216.593 395.849C214.62 397.07 212.283 397.566 210.005 397.248C207.727 396.929 205.787 395.835 204.539 394.163L62.1671 203.562C60.5564 201.409 60.3651 198.64 61.652 196.155ZM444.263 252.974C445.447 250.687 445.27 248.14 443.79 246.158L301.416 55.5579C300.269 54.0198 298.482 53.0127 296.386 52.72C294.291 52.4273 292.138 52.8829 290.325 54.0082L65.2492 193.244C63.9583 194.042 62.9321 195.128 62.2827 196.384C61.0984 198.67 61.2753 201.217 62.7529 203.2L205.13 393.799C206.279 395.336 208.064 396.345 210.159 396.637C212.254 396.928 214.408 396.474 216.22 395.349L441.296 256.113C442.59 255.314 443.616 254.228 444.266 252.973L444.263 252.974Z" fill="#A1624D"/>
<path d="M63.9493 188.796C64.6532 187.433 65.775 186.262 67.1903 185.409L288.335 52.0587C290.276 50.889 292.563 50.4287 294.78 50.764C296.996 51.0992 298.873 52.1913 300.066 53.8361L436.045 241.343C437.562 243.433 437.727 246.104 436.49 248.495C435.783 249.859 434.664 251.029 433.249 251.881L212.104 385.232C208.1 387.648 202.837 386.85 200.374 383.455L64.3918 195.949C62.8787 193.861 62.7095 191.188 63.9493 188.796ZM435.856 248.267C436.994 246.074 436.841 243.619 435.451 241.702L299.467 54.1971C298.374 52.687 296.65 51.6846 294.617 51.3773C292.583 51.0676 290.482 51.4902 288.701 52.5645L67.5555 185.915C66.2588 186.699 65.2286 187.775 64.5801 189.025C63.4428 191.218 63.5957 193.673 64.988 195.589L200.97 383.095C203.233 386.21 208.062 386.945 211.736 384.728L432.883 251.373C434.183 250.591 435.211 249.516 435.858 248.264L435.856 248.267Z" fill="#A1624D"/>
<path d="M66.2402 181.442C66.947 180.078 68.0698 178.917 69.4957 178.083L286.712 50.6137C290.651 48.3038 295.765 49.1419 298.113 52.4868L427.707 236.894C429.131 238.92 429.271 241.497 428.082 243.788C427.378 245.151 426.252 246.313 424.827 247.149L207.611 374.616C205.701 375.735 203.467 376.156 201.311 375.804C199.159 375.451 197.346 374.363 196.206 372.744L66.6119 188.337C65.1897 186.313 65.0494 183.736 66.2374 181.443L66.2402 181.442ZM427.451 243.56C428.538 241.46 428.41 239.098 427.107 237.244L297.513 52.837C295.362 49.7733 290.675 49.0052 287.068 51.1226L69.8526 178.592C68.548 179.356 67.5167 180.421 66.8681 181.671C65.7808 183.77 65.9097 186.133 67.211 187.984L196.808 372.39C197.851 373.874 199.511 374.869 201.485 375.192C203.457 375.516 205.507 375.129 207.256 374.104L424.47 246.638C425.774 245.874 426.805 244.809 427.451 243.56Z" fill="#A1624D"/>
<path d="M68.5347 174.081C69.2386 172.718 70.3711 171.565 71.8067 170.747L285.091 49.1629C286.968 48.0926 289.153 47.7093 291.244 48.0796C293.336 48.4523 295.084 49.5326 296.169 51.1272L419.372 232.442C420.703 234.401 420.817 236.881 419.678 239.078C418.97 240.44 417.842 241.594 416.403 242.413L203.119 363.997C199.248 366.203 194.28 365.323 192.044 362.032L68.8422 180.719C67.511 178.761 67.3966 176.281 68.5357 174.084L68.5347 174.081ZM419.048 238.852C420.088 236.844 419.984 234.576 418.766 232.786L295.564 51.4735C294.573 50.0157 292.976 49.0285 291.065 48.6873C289.156 48.3485 287.156 48.7 285.443 49.6763L72.156 171.262C70.8455 172.011 69.8093 173.064 69.1645 174.307C68.1252 176.316 68.2281 178.581 69.4462 180.37L192.651 361.682C194.694 364.687 199.233 365.493 202.771 363.479L416.057 241.897C417.368 241.15 418.404 240.095 419.048 238.852Z" fill="#A1624D"/>
<path d="M70.8265 166.724C71.5332 165.36 72.6705 164.219 74.1187 163.416L283.475 47.7155C285.317 46.6972 287.452 46.3494 289.479 46.7402C291.51 47.1299 293.192 48.2066 294.224 49.7756L411.036 227.993C412.276 229.887 412.369 232.271 411.279 234.374C410.573 235.738 409.436 236.881 407.99 237.68L198.634 353.381C196.788 354.4 194.657 354.747 192.627 354.358C190.597 353.97 188.911 352.892 187.886 351.324L71.0718 173.109C69.8315 171.216 69.7421 168.83 70.8313 166.728L70.8265 166.724ZM410.646 234.147C411.641 232.23 411.558 230.056 410.427 228.33L293.616 50.1146C292.679 48.6848 291.145 47.7023 289.294 47.3476C287.443 46.9928 285.498 47.3102 283.82 48.237L74.4643 163.938C73.145 164.665 72.1077 165.707 71.4629 166.95C70.4707 168.865 70.5534 171.04 71.6815 172.767L188.492 350.982C189.43 352.412 190.964 353.394 192.817 353.748C194.668 354.103 196.613 353.785 198.294 352.858L407.644 237.159C408.964 236.432 410 235.387 410.646 234.147Z" fill="#A1624D"/>
<path d="M73.1165 159.366C73.8232 158.002 74.9702 156.87 76.4272 156.089L281.855 46.2717C285.591 44.2726 290.267 45.2411 292.276 48.4275L402.699 223.544C403.85 225.37 403.916 227.656 402.877 229.665C402.17 231.029 401.026 232.161 399.564 232.944L194.136 342.761C192.326 343.731 190.243 344.037 188.275 343.633C186.306 343.226 184.686 342.152 183.713 340.609L73.2919 165.489C72.1407 163.663 72.0735 161.374 73.1127 159.365L73.1165 159.366ZM402.244 229.44C403.191 227.615 403.13 225.534 402.083 223.872L291.662 48.7518C289.834 45.8553 285.584 44.9771 282.187 46.7925L76.7595 156.609C75.4351 157.316 74.3911 158.349 73.7481 159.589C72.8012 161.415 72.8627 163.495 73.9093 165.157L184.331 340.277C185.215 341.681 186.689 342.658 188.477 343.028C190.268 343.396 192.161 343.117 193.805 342.237L399.234 232.422C400.561 231.714 401.602 230.682 402.245 229.443L402.244 229.44Z" fill="#A1624D"/>
<path d="M75.4058 152.005C76.1125 150.641 77.2662 149.517 78.7377 148.756L280.234 44.8241C282.014 43.9076 284.042 43.6354 285.95 44.0591C287.857 44.4828 289.411 45.5537 290.331 47.0711L394.362 219.093C395.441 220.878 395.484 223.016 394.478 224.962C393.769 226.33 392.617 227.45 391.142 228.21L189.646 332.144C185.975 334.038 181.449 333.029 179.552 329.894L75.5207 157.872C74.4402 156.085 74.3978 153.946 75.4076 152.002L75.4058 152.005ZM393.844 224.735C394.759 222.974 394.718 221.035 393.74 219.415L289.71 47.3926C288.875 46.0175 287.467 45.0478 285.737 44.6626C284.007 44.2773 282.17 44.5241 280.557 45.3539L79.0607 149.286C77.7228 149.975 76.6795 150.994 76.0384 152.23C75.1247 153.993 75.1654 155.933 76.1421 157.55L180.173 329.573C181.891 332.414 185.996 333.329 189.325 331.611L390.822 227.679C392.16 226.99 393.203 225.971 393.846 224.732L393.844 224.735Z" fill="#A1624D"/>
<path d="M77.6889 144.644C78.3974 143.277 79.5589 142.164 81.0487 141.424L278.616 43.3734C280.363 42.5055 282.339 42.2747 284.183 42.7165C286.027 43.1606 287.52 44.2258 288.381 45.7172L386.021 214.642C387.016 216.36 387.033 218.403 386.077 220.255C385.368 221.622 384.207 222.735 382.718 223.477L185.15 321.526C183.403 322.394 181.427 322.627 179.583 322.183C177.739 321.738 176.246 320.673 175.384 319.179L77.7397 150.253C76.7454 148.536 76.728 146.492 77.6851 144.643L77.6889 144.644ZM385.445 220.033C386.311 218.36 386.293 216.51 385.398 214.958L287.755 46.0349C286.976 44.6844 285.628 43.7204 283.958 43.3217C282.29 42.9219 280.503 43.1306 278.924 43.9144L81.3566 141.965C80.0099 142.632 78.9589 143.64 78.3178 144.876C77.4522 146.548 77.4698 148.398 78.3651 149.95L176.005 318.875C176.787 320.224 178.135 321.188 179.802 321.588C181.47 321.988 183.257 321.779 184.836 320.995L382.404 222.944C383.75 222.277 384.801 221.27 385.443 220.034L385.445 220.033Z" fill="#A1624D"/>
<path d="M79.9726 137.285C80.6748 135.934 81.8757 134.799 83.3603 134.095L276.997 41.9287C278.709 41.1127 280.635 40.9175 282.418 41.3786C284.201 41.8398 285.627 42.9014 286.434 44.3707L377.685 210.2C378.592 211.846 378.589 213.799 377.679 215.555C376.98 216.905 375.775 218.039 374.291 218.746L180.652 310.913C178.94 311.729 177.014 311.924 175.231 311.463C173.448 311.002 172.022 309.94 171.215 308.471L79.964 142.641C79.057 140.996 79.0598 139.043 79.9669 137.288L79.9726 137.285ZM377.052 215.328C377.872 213.745 377.874 211.984 377.057 210.498L285.807 44.6691C285.078 43.3477 283.794 42.3884 282.186 41.9751C280.58 41.5583 278.842 41.7351 277.299 42.4717L83.6597 134.639C82.3202 135.275 81.2362 136.298 80.6072 137.515C79.7868 139.098 79.7852 140.859 80.6046 142.344L171.855 308.173C172.583 309.495 173.868 310.454 175.477 310.87C177.082 311.284 178.817 311.108 180.364 310.373L374.003 218.206C375.343 217.569 376.427 216.547 377.056 215.329L377.052 215.328Z" fill="#A1624D"/>
<path d="M82.2539 129.923C82.9569 128.566 84.1704 127.445 85.6695 126.761L275.377 40.4788C277.058 39.7137 278.932 39.5575 280.653 40.0357C282.375 40.5138 283.736 41.5742 284.489 43.0155L369.35 205.75C370.175 207.328 370.151 209.187 369.288 210.85C368.584 212.205 367.371 213.328 365.869 214.013L176.161 300.295C172.692 301.873 168.604 300.736 167.053 297.757L82.1926 135.026C81.368 133.448 81.392 131.588 82.2549 129.925L82.2539 129.923ZM368.658 210.624C369.432 209.129 369.454 207.458 368.713 206.04L283.853 43.3086C283.177 42.0128 281.955 41.0617 280.408 40.6314C278.862 40.2011 277.177 40.3413 275.666 41.0295L85.9586 127.312C84.6102 127.926 83.5204 128.934 82.8885 130.152C82.1143 131.648 82.0925 133.318 82.8333 134.736L167.696 297.467C169.091 300.144 172.762 301.165 175.883 299.746L365.591 213.464C366.939 212.85 368.029 211.842 368.661 210.623L368.658 210.624Z" fill="#A1624D"/>
<path d="M84.5345 122.56C85.2366 121.201 86.4634 120.089 87.9828 119.431L273.762 39.0331C277.167 37.5604 281.106 38.7412 282.543 41.6666L361.013 201.303C361.754 202.811 361.713 204.578 360.898 206.151C360.193 207.511 358.969 208.622 357.447 209.281L171.67 289.678C168.266 291.151 164.327 289.972 162.89 287.044L84.4223 127.407C83.6812 125.899 83.7235 124.134 84.5373 122.559L84.5345 122.56ZM360.267 205.922C360.995 204.514 361.036 202.932 360.371 201.582L281.901 41.9451C280.613 39.3246 277.084 38.2679 274.033 39.5877L88.2539 119.986C86.8919 120.574 85.7943 121.571 85.1653 122.789C84.4345 124.198 84.3963 125.779 85.0613 127.129L163.532 286.766C164.823 289.385 168.349 290.443 171.399 289.123L357.176 208.726C358.538 208.138 359.635 207.141 360.267 205.922Z" fill="#A1624D"/>
<path d="M86.81 115.198C87.5185 113.83 88.757 112.731 90.2966 112.1L272.145 37.5862C275.482 36.2199 279.273 37.4441 280.598 40.3179L352.678 196.859C353.339 198.295 353.279 199.969 352.512 201.45C351.804 202.818 350.565 203.917 349.023 204.549L167.174 279.063C163.838 280.429 160.047 279.205 158.723 276.334L86.6421 119.792C85.9817 118.356 86.0404 116.68 86.81 115.198ZM351.879 201.223C352.563 199.901 352.617 198.407 352.028 197.124L279.947 40.5827C278.766 38.0183 275.381 36.9253 272.402 38.146L90.5536 112.659C89.179 113.225 88.0716 114.205 87.4407 115.426C86.7562 116.748 86.7026 118.242 87.2918 119.525L159.369 276.065C160.55 278.629 163.934 279.722 166.917 278.501L348.765 203.987C350.141 203.425 351.247 202.441 351.878 201.22L351.879 201.223Z" fill="#A1624D"/>
<path d="M89.0846 107.833C89.7969 106.458 91.0468 105.372 92.6105 104.768L270.531 36.1382C272.114 35.527 273.832 35.4844 275.368 36.0194C276.901 36.5531 278.068 37.6005 278.655 38.9656L344.345 192.409C344.939 193.794 344.863 195.336 344.13 196.749C343.418 198.123 342.165 199.211 340.601 199.815L162.682 268.447C159.413 269.707 155.767 268.44 154.558 265.619L88.8678 112.176C88.2763 110.79 88.3501 109.249 89.0827 107.836L89.0846 107.833ZM343.493 196.523C344.143 195.267 344.213 193.896 343.684 192.664L277.993 39.2203C277.474 38.0048 276.437 37.0722 275.072 36.6004C273.706 36.1261 272.178 36.1635 270.769 36.7077L92.8525 105.339C91.4633 105.876 90.3472 106.843 89.7145 108.067C89.065 109.323 88.9946 110.694 89.5215 111.927L155.212 265.37C156.286 267.878 159.528 269.004 162.437 267.885L340.357 199.256C341.748 198.721 342.863 197.752 343.496 196.53L343.493 196.523Z" fill="#A1624D"/>
<path d="M91.3589 100.468C92.0749 99.0868 93.3448 98.0098 94.9307 97.437L268.912 34.6923C272.116 33.5377 275.611 34.8511 276.702 37.6199L336 187.963C336.517 189.275 336.426 190.724 335.738 192.047C335.023 193.431 333.752 194.506 332.166 195.078L158.183 257.824C154.978 258.976 151.483 257.665 150.392 254.897L91.0951 104.556C90.5785 103.244 90.6687 101.792 91.3561 100.469L91.3589 100.468ZM335.109 191.821C335.716 190.648 335.798 189.363 335.339 188.201L276.042 37.8602C275.073 35.4057 271.976 34.2433 269.139 35.2659L95.1575 98.0106C93.7527 98.5167 92.628 99.47 91.9925 100.695C91.3846 101.868 91.3026 103.154 91.7621 104.316L151.059 254.657C152.028 257.111 155.122 258.275 157.965 257.25L331.946 194.505C333.351 193.999 334.476 193.046 335.11 191.818L335.109 191.821Z" fill="#A1624D"/>
<path d="M93.6253 93.1019C94.3375 91.7275 95.6566 90.6352 97.244 90.1068L267.297 33.2457C268.818 32.7388 270.43 32.7717 271.839 33.3453C273.247 33.9164 274.284 34.9555 274.757 36.2725L327.665 183.518C328.109 184.756 328.002 186.118 327.363 187.35C326.651 188.724 325.332 189.817 323.745 190.348L153.692 247.209C150.553 248.258 147.209 246.9 146.234 244.184L93.3287 96.9377C92.8842 95.7 92.9908 94.3381 93.6301 93.1057L93.6253 93.1019ZM326.73 187.123C327.293 186.034 327.389 184.83 326.996 183.739L274.089 36.4933C273.672 35.3325 272.758 34.4138 271.514 33.9115C270.269 33.4068 268.846 33.3745 267.503 33.8241L97.4501 90.6852C96.0495 91.1532 94.8842 92.1188 94.256 93.3302C93.6926 94.4195 93.5961 95.6204 93.9893 96.7141L146.897 243.96C147.757 246.356 150.713 247.553 153.483 246.629L323.536 189.768C324.936 189.3 326.101 188.334 326.73 187.123Z" fill="#A1624D"/>
<path d="M95.8867 85.7354C96.6045 84.3505 97.9427 83.2736 99.559 82.7767L265.681 31.8003C267.168 31.3454 268.73 31.4163 270.074 32.0078C271.422 32.5984 272.393 33.6338 272.809 34.9239L319.327 179.072C319.702 180.234 319.582 181.506 318.987 182.654C318.269 184.039 316.932 185.118 315.315 185.613L149.19 236.59C146.121 237.532 142.922 236.132 142.061 233.467L95.5439 89.3186C95.1706 88.153 95.2908 86.8816 95.8838 85.7364L95.8867 85.7354ZM318.356 182.426C318.877 181.417 318.984 180.299 318.656 179.277L272.138 35.1289C271.771 33.9948 270.919 33.0843 269.736 32.565C268.553 32.0457 267.18 31.9814 265.873 32.3839L99.748 83.3614C98.3281 83.7973 97.1521 84.7442 96.5202 85.9626C95.9983 86.9692 95.895 88.0885 96.2237 89.1104L142.741 233.259C143.496 235.603 146.309 236.834 149.01 236.005L315.132 185.028C316.552 184.593 317.731 183.645 318.36 182.427L318.356 182.426Z" fill="#A1624D"/>
<path d="M98.1467 78.3651C98.8719 76.9663 100.231 75.9013 101.876 75.4443L264.07 30.3515C267.074 29.5151 270.123 30.962 270.865 33.5754L310.993 174.628C311.303 175.716 311.17 176.9 310.622 177.961C309.896 179.36 308.537 180.425 306.892 180.882L144.698 225.975C141.694 226.809 138.645 225.362 137.903 222.751L97.775 81.6979C97.4653 80.6099 97.598 79.4265 98.1467 78.3651ZM309.987 177.731C310.468 176.801 310.583 175.768 310.314 174.814L270.186 33.7608C269.535 31.4732 266.867 30.2062 264.238 30.9386L102.045 76.0338C100.603 76.4326 99.4149 77.3645 98.7793 78.5899C98.298 79.5198 98.1832 80.5534 98.4521 81.5075L138.58 222.56C139.23 224.846 141.898 226.113 144.529 225.383L306.723 180.29C308.163 179.889 309.352 178.957 309.987 177.731Z" fill="#A1624D"/>
<path d="M100.4 70.9941C101.132 69.5789 102.514 68.5307 104.192 68.115L262.454 28.9044C265.391 28.1769 268.291 29.6671 268.916 32.2286L302.653 170.184C302.905 171.209 302.764 172.275 302.253 173.266C301.521 174.681 300.14 175.732 298.462 176.148L140.196 215.357C137.259 216.085 134.359 214.594 133.734 212.033L99.9993 74.0764C99.7474 73.0514 99.8874 71.9833 100.4 70.9941ZM301.623 173.04C302.069 172.177 302.19 171.248 301.971 170.354L268.234 32.3983C267.689 30.1668 265.161 28.8679 262.599 29.4999L104.334 68.7115C102.871 69.0732 101.669 69.9876 101.031 71.2224C100.585 72.086 100.464 73.0152 100.683 73.909L134.417 211.866C134.962 214.097 137.49 215.396 140.051 214.762L298.317 175.552C299.777 175.192 300.981 174.274 301.62 173.041L301.623 173.04Z" fill="#A1624D"/>
<path d="M102.648 63.6193C103.381 62.2065 104.822 61.1448 106.509 60.7822L260.843 27.4553C263.713 26.8366 266.462 28.3713 266.971 30.8797L294.316 165.741C294.509 166.69 294.363 167.67 293.894 168.576C293.162 169.989 291.72 171.05 290.034 171.413L135.7 204.74C132.83 205.358 130.08 203.824 129.571 201.315L102.223 66.4549C102.031 65.5062 102.177 64.5258 102.648 63.6193ZM293.261 168.348C293.669 167.561 293.797 166.713 293.628 165.888L266.283 31.0265C265.842 28.8496 263.456 27.5179 260.966 28.0556L106.633 61.3825C105.171 61.6988 103.916 62.6187 103.282 63.8465C102.875 64.6309 102.748 65.4808 102.916 66.3037L130.261 201.165C130.704 203.338 133.088 204.674 135.581 204.135L289.915 170.81C291.377 170.494 292.628 169.573 293.264 168.347L293.261 168.348Z" fill="#A1624D"/>
<path d="M104.893 56.245C105.635 54.8088 107.107 53.7643 108.827 53.4538L259.233 26.0106C262.036 25.5007 264.635 27.0822 265.025 29.5363L285.983 161.299C286.121 162.169 285.969 163.062 285.543 163.887C284.799 165.321 283.328 166.366 281.607 166.682L131.201 194.125C128.398 194.635 125.799 193.054 125.409 190.6L104.454 58.8357C104.316 57.9654 104.47 57.0691 104.894 56.2474L104.893 56.245ZM284.906 163.659C285.274 162.95 285.405 162.175 285.287 161.426L264.332 29.6624C263.994 27.5402 261.75 26.1731 259.329 26.6154L108.926 54.0575C107.44 54.327 106.168 55.2304 105.525 56.4698C105.158 57.1809 105.026 57.9539 105.145 58.7047L126.1 190.469C126.438 192.591 128.681 193.955 131.102 193.513L281.507 166.07C282.993 165.798 284.266 164.897 284.908 163.655L284.906 163.659Z" fill="#A1624D"/>
<path d="M107.127 48.8643C107.872 47.4247 109.412 46.3744 111.145 46.1183L257.619 24.5598C260.355 24.1563 262.801 25.7858 263.073 28.1879L277.641 156.856C277.731 157.648 277.575 158.456 277.19 159.198C276.445 160.635 274.905 161.688 273.173 161.944L126.695 183.504C123.96 183.907 121.514 182.278 121.241 179.873L106.676 51.2067C106.586 50.4144 106.742 49.6044 107.127 48.8643ZM276.558 158.973C276.887 158.335 277.023 157.639 276.946 156.96L262.38 28.2913C262.146 26.2263 260.041 24.8249 257.689 25.1716L111.215 46.7301C109.703 46.9527 108.41 47.8358 107.761 49.0916C107.429 49.7304 107.295 50.4256 107.373 51.1047L121.938 179.773C122.172 181.839 124.277 183.24 126.629 182.893L273.104 161.335C274.616 161.112 275.908 160.229 276.558 158.973Z" fill="#A1624D"/>
<path d="M109.358 41.4845C110.117 40.017 111.691 38.9852 113.464 38.7901L256.011 23.1153C258.68 22.823 260.976 24.4969 261.129 26.8471L269.307 152.417C269.352 153.128 269.195 153.854 268.853 154.517C268.094 155.984 266.52 157.016 264.744 157.212L122.197 172.887C119.529 173.181 117.233 171.508 117.08 169.157L108.905 43.5862C108.857 42.8764 109.017 42.1492 109.359 41.4869L109.358 41.4845ZM268.216 154.29C268.509 153.725 268.643 153.103 268.603 152.494L260.428 26.9225C260.298 24.9122 258.333 23.479 256.052 23.729L113.506 39.4038C111.987 39.5698 110.641 40.456 109.991 41.7093C109.695 42.2759 109.561 42.8981 109.601 43.507L117.776 169.078C117.906 171.088 119.871 172.522 122.155 172.271L264.701 156.596C266.219 156.427 267.566 155.544 268.219 154.289L268.216 154.29Z" fill="#A1624D"/>
</g>
</g>
</svg>
