<svg width="272" height="509" viewBox="0 0 272 509" fill="none" xmlns="http://www.w3.org/2000/svg">
<mask id="mask0_30666_2713" style="mask-type:alpha" maskUnits="userSpaceOnUse" x="0" y="0" width="272" height="509">
<rect width="271.263" height="509" fill="#D9D9D9"/>
</mask>
<g mask="url(#mask0_30666_2713)">
<g opacity="0.8">
<path d="M175.637 72.0958C175.867 74.1892 175.544 76.5192 174.708 78.8254L40.5607 448.901C39.3854 452.144 37.3221 455.037 34.751 457.046C32.1799 459.055 29.4094 459.937 26.9509 459.535L-253.677 413.549C-256.848 413.028 -258.99 410.441 -259.409 406.628C-259.639 404.534 -259.319 402.208 -258.481 399.898L-124.333 29.8228C-123.158 26.5792 -121.097 23.6904 -118.526 21.6811C-115.955 19.6718 -113.187 18.7886 -110.726 19.192L169.902 65.1783C173.075 65.6956 175.217 68.2828 175.637 72.0958ZM-258.597 406.208C-258.211 409.717 -256.239 412.096 -253.321 412.575L27.3091 458.557C29.5711 458.931 32.1209 458.115 34.4861 456.267C36.8514 454.418 38.7498 451.759 39.8273 448.775L173.975 78.6999C174.744 76.5777 175.039 74.4373 174.826 72.5112C174.44 69.0019 172.469 66.6233 169.553 66.1408L-111.08 20.1623C-113.344 19.7925 -115.891 20.6043 -118.257 22.4527C-120.619 24.3026 -122.52 26.9601 -123.598 29.9444L-257.745 400.019C-258.517 402.146 -258.812 404.286 -258.599 406.212L-258.597 406.208Z" fill="#A1624D"/>
<path d="M178.71 81.9631C178.942 84.0526 178.609 86.3769 177.75 88.6808L43.5195 448.822C42.3409 451.982 40.3071 454.783 37.7873 456.712C35.2675 458.642 32.5659 459.463 30.1816 459.029L-241.684 409.617C-244.716 409.068 -246.763 406.552 -247.168 402.884C-247.397 400.791 -247.066 398.471 -246.207 396.167L-111.977 36.0258C-109.547 29.5042 -103.563 24.9237 -98.6389 25.8179L173.229 75.2268C176.256 75.7783 178.308 78.2919 178.71 81.9631ZM-246.355 402.465C-245.986 405.832 -244.104 408.143 -241.325 408.649L30.5453 458.054C32.7325 458.454 35.2135 457.699 37.5247 455.929C39.8386 454.16 41.7069 451.588 42.7877 448.687L177.018 88.5459C177.804 86.4324 178.11 84.2979 177.9 82.3786C177.531 79.0111 175.649 76.7007 172.868 76.1981L-99.0005 26.7893C-103.521 25.9721 -109.015 30.171 -111.243 36.1567L-245.472 396.303C-246.263 398.419 -246.567 400.55 -246.354 402.47L-246.355 402.465Z" fill="#A1624D"/>
<path d="M181.791 91.8223C182.021 93.9158 181.679 96.2302 180.795 98.5264L46.4832 448.738C44.0463 455.088 38.187 459.474 33.4168 458.514L-229.691 405.688C-232.581 405.107 -234.536 402.661 -234.92 399.142C-235.152 397.053 -234.808 394.734 -233.927 392.437L-99.6124 42.2262C-98.4305 39.1495 -96.4235 36.4412 -93.9551 34.5916C-91.4888 32.746 -88.856 31.9848 -86.5438 32.4466L176.564 85.2724C179.451 85.8519 181.406 88.2983 181.793 91.8184L181.791 91.8223ZM-234.11 398.727C-233.756 401.948 -231.963 404.191 -229.319 404.723L33.7892 457.548C38.1586 458.428 43.5281 454.408 45.758 448.592L180.07 98.3798C180.878 96.2779 181.193 94.1531 180.983 92.2338C180.629 89.012 178.836 86.7698 176.194 86.2394L-86.9157 33.4176C-89.0329 32.9933 -91.4424 33.6898 -93.7044 35.3839C-95.9642 37.0741 -97.8052 39.5594 -98.8866 42.3783L-233.199 392.585C-234.007 394.687 -234.322 396.811 -234.11 398.727Z" fill="#A1624D"/>
<path d="M184.868 101.686C185.1 103.776 184.743 106.092 183.838 108.382L49.4435 448.66C48.2611 451.655 46.2786 454.274 43.8637 456.04C41.446 457.804 38.8848 458.506 36.6469 458.013L-217.702 401.759C-220.45 401.152 -222.31 398.776 -222.679 395.403C-222.906 393.311 -222.554 390.997 -221.647 388.703L-87.2522 48.4259C-84.8131 42.2513 -79.0739 38.0558 -74.4577 39.0771L179.888 95.3293C182.636 95.9366 184.496 98.312 184.866 101.685L184.868 101.686ZM-221.872 394.986C-221.531 398.068 -219.831 400.24 -217.319 400.794L37.027 457.046C39.0721 457.498 41.4122 456.857 43.6207 455.246C45.8265 453.635 47.6402 451.237 48.7199 448.504L183.117 108.222C183.941 106.129 184.269 104.012 184.061 102.103C183.721 99.0218 182.023 96.8507 179.511 96.2974L-74.8373 40.0491C-79.0543 39.118 -84.2981 42.9496 -86.5302 48.5912L-220.928 388.867C-221.755 390.959 -222.08 393.078 -221.872 394.986Z" fill="#A1624D"/>
<path d="M187.952 111.547C188.182 113.64 187.811 115.95 186.882 118.237L52.4025 448.584C51.219 451.492 49.2639 454.024 46.8998 455.704C44.5334 457.389 42.0432 458.027 39.8773 457.505L-205.709 397.83C-208.318 397.195 -210.087 394.893 -210.442 391.666C-210.672 389.573 -210.304 387.262 -209.375 384.98L-74.8953 54.6324C-73.7096 51.7211 -71.7567 49.1933 -69.3903 47.5089C-67.0267 45.823 -64.5316 45.1825 -62.3728 45.7105L183.213 105.38C185.822 106.015 187.589 108.321 187.944 111.548L187.952 111.547ZM-209.63 391.247C-209.309 394.19 -207.696 396.291 -205.318 396.869L40.2656 456.543C42.236 457.021 44.5072 456.44 46.6639 454.904C48.8205 453.368 50.602 451.061 51.68 448.414L186.16 118.066C187.008 115.986 187.345 113.879 187.137 111.97C186.814 109.031 185.201 106.93 182.825 106.347L-62.7584 46.6742C-64.7287 46.1955 -67 46.7767 -69.1588 48.3165C-71.3154 49.8524 -73.0969 52.1601 -74.1772 54.811L-208.652 385.15C-209.501 387.23 -209.835 389.34 -209.63 391.247Z" fill="#A1624D"/>
<path d="M191.033 121.409C191.263 123.502 190.877 125.813 189.923 128.088L55.3591 448.505C52.9135 454.334 47.414 458.141 43.1053 456.993L-193.718 393.903C-196.187 393.245 -197.861 391.014 -198.202 387.933C-198.431 385.839 -198.047 383.532 -197.09 381.249L-62.5256 60.8327C-61.3416 58.0073 -59.4105 55.57 -57.0982 53.9639C-54.7832 52.3593 -52.359 51.7831 -50.2724 52.3391L186.551 115.435C189.02 116.092 190.698 118.325 191.038 121.406L191.033 121.409ZM-197.392 387.512C-197.085 390.315 -195.56 392.343 -193.314 392.944L43.51 456.039C47.4283 457.082 52.4253 453.619 54.6508 448.321L189.215 127.904C190.084 125.84 190.434 123.734 190.226 121.831C189.919 119.028 188.394 116.999 186.148 116.399L-50.676 53.3033C-52.5742 52.7967 -54.7789 53.3215 -56.8814 54.779C-58.9862 56.2404 -60.7409 58.4552 -61.8168 61.0217L-196.384 381.437C-197.254 383.505 -197.602 385.607 -197.394 387.51L-197.392 387.512Z" fill="#A1624D"/>
<path d="M194.117 131.271C194.347 133.364 193.947 135.674 192.965 137.943L58.3184 448.425C57.1283 451.166 55.2295 453.513 52.9658 455.038C50.7022 456.562 48.349 457.075 46.3344 456.491L-181.727 389.974C-184.093 389.284 -185.639 387.178 -185.969 384.194C-186.199 382.095 -185.8 379.791 -184.813 377.519L-50.1685 67.0356C-47.7157 61.3789 -42.3414 57.7649 -38.184 58.9757L189.877 125.492C192.246 126.183 193.792 128.289 194.117 131.276L194.117 131.271ZM-185.156 383.775C-184.862 386.479 -183.458 388.387 -181.312 389.016L46.7489 455.532C48.5745 456.061 50.7076 455.595 52.761 454.214C54.8144 452.832 56.5342 450.706 57.6134 448.223L192.26 137.741C193.155 135.68 193.514 133.589 193.307 131.692C193.01 128.985 191.605 127.078 189.462 126.451L-38.5985 59.9341C-42.3649 58.8348 -47.2385 62.1133 -49.4629 67.2432L-184.11 377.726C-185.004 379.786 -185.364 381.877 -185.156 383.78L-185.156 383.775Z" fill="#A1624D"/>
<path d="M197.208 141.127C197.438 143.226 197.023 145.532 196.007 147.798L61.2782 448.352C60.0876 451.01 58.2127 453.263 56.0026 454.704C53.7898 456.144 51.5032 456.599 49.5678 455.981L-169.731 386.043C-171.962 385.334 -173.416 383.297 -173.731 380.459C-173.962 378.36 -173.546 376.054 -172.533 373.786L-37.8016 73.2338C-36.611 70.5753 -34.7389 68.321 -32.526 66.8815C-30.3132 65.442 -28.0266 64.9864 -26.0885 65.6062L193.215 135.541C195.446 136.251 196.9 138.287 197.213 141.124L197.208 141.127ZM-172.924 380.036C-172.641 382.602 -171.324 384.443 -169.311 385.088L49.99 455.021C51.7413 455.582 53.8078 455.173 55.8093 453.866C57.8086 452.563 59.5038 450.525 60.5808 448.123L195.31 147.569C196.229 145.522 196.604 143.435 196.397 141.537C196.114 138.971 194.796 137.13 192.783 136.486L-26.515 66.548C-28.2686 65.9909 -30.3351 66.4005 -32.3344 67.7036C-34.3337 69.0068 -36.0289 71.044 -37.1059 73.4465L-171.835 374C-172.754 376.047 -173.129 378.135 -172.922 380.032L-172.924 380.036Z" fill="#A1624D"/>
<path d="M200.298 150.98C200.523 153.056 200.084 155.426 199.048 157.651L64.2365 448.27C63.0448 450.841 61.1973 453.006 59.0358 454.366C56.8743 455.726 54.6587 456.117 52.7949 455.465L-157.744 382.105C-159.835 381.379 -161.204 379.413 -161.5 376.718C-161.727 374.646 -161.283 372.274 -160.25 370.047L-25.4362 79.4239C-24.2445 76.8528 -22.397 74.6875 -20.2354 73.3279C-18.0739 71.9682 -15.8584 71.5769 -13.9945 72.2285L196.544 145.589C198.635 146.315 200.004 148.281 200.302 150.972L200.298 150.98ZM-160.694 376.305C-160.428 378.734 -159.192 380.506 -157.307 381.164L53.2318 454.524C54.9105 455.108 56.9081 454.758 58.8556 453.53C60.8036 452.306 62.4709 450.351 63.5435 448.033L198.357 157.41C199.291 155.401 199.689 153.265 199.482 151.398C199.216 148.969 197.98 147.197 196.093 146.543L-14.4457 73.1828C-16.1244 72.5992 -18.122 72.9485 -20.0722 74.1757C-22.0175 75.4005 -23.6826 77.3515 -24.7601 79.6721L-159.574 370.295C-160.507 372.304 -160.906 374.441 -160.699 376.307L-160.694 376.305Z" fill="#A1624D"/>
<path d="M203.39 160.838C203.618 162.92 203.155 165.288 202.091 167.508L67.1944 448.197C65.9994 450.684 64.1786 452.757 62.0684 454.036C59.9583 455.316 57.811 455.642 56.022 454.964L-145.757 378.181C-147.715 377.439 -148.997 375.545 -149.276 372.991C-149.502 370.91 -149.041 368.542 -147.975 366.317L-13.0783 85.6287C-10.6114 80.4952 -5.59975 77.459 -1.90814 78.8655L199.868 155.647C201.826 156.389 203.108 158.283 203.387 160.836L203.39 160.838ZM-148.468 372.575C-148.215 374.869 -147.064 376.57 -145.305 377.238L56.4714 454.019C58.0781 454.63 60.0064 454.336 61.9025 453.187C63.7986 452.038 65.4364 450.175 66.5095 447.939L201.406 167.25C202.364 165.254 202.779 163.126 202.574 161.256C202.322 158.961 201.17 157.26 199.411 156.592L-2.36743 79.8154C-5.68552 78.5518 -10.186 81.2786 -12.4056 85.8955L-147.302 366.584C-148.26 368.58 -148.675 370.708 -148.47 372.578L-148.468 372.575Z" fill="#A1624D"/>
<path d="M206.486 170.691C206.718 172.775 206.234 175.147 205.131 177.362L70.1494 448.12C67.6754 453.081 62.7861 455.922 59.2506 454.451L-133.766 374.248C-135.589 373.49 -136.788 371.671 -137.053 369.258C-137.282 367.17 -136.801 364.802 -135.695 362.584L-0.715789 91.8292C1.75821 86.8681 6.64482 84.0255 10.183 85.4984L203.197 165.706C205.02 166.463 206.217 168.281 206.484 170.695L206.486 170.691ZM-136.242 368.843C-136.003 371.002 -134.934 372.634 -133.3 373.311L59.7165 453.515C62.8849 454.831 67.2642 452.285 69.4804 447.84L204.462 177.082C205.452 175.098 205.883 172.974 205.676 171.107C205.439 168.943 204.367 167.315 202.734 166.638L9.71713 86.4345C6.54649 85.1219 2.16939 87.6643 -0.0468334 92.1093L-135.026 362.864C-136.016 364.848 -136.447 366.972 -136.242 368.843Z" fill="#A1624D"/>
<path d="M209.589 180.542C209.82 182.641 209.315 185.012 208.172 187.221L73.1087 448.045C70.6298 452.83 65.8628 455.476 62.4786 453.942L-121.778 370.316C-123.467 369.548 -124.581 367.805 -124.832 365.532C-125.062 363.433 -124.558 361.063 -123.413 358.85L11.6507 98.0257C14.1296 93.2408 18.8966 90.5948 22.278 92.1271L206.534 175.753C208.224 176.521 209.341 178.265 209.589 180.542ZM-124.019 365.113C-123.796 367.141 -122.802 368.698 -121.293 369.385L62.963 453.01C65.9819 454.38 70.2377 452.018 72.4506 447.745L207.514 186.921C208.534 184.947 208.986 182.83 208.779 180.957C208.556 178.929 207.561 177.372 206.053 176.686L21.8012 93.0574C18.7824 91.6879 14.5266 94.0498 12.3114 98.327L-122.752 359.151C-123.775 361.123 -124.224 363.242 -124.017 365.114L-124.019 365.113Z" fill="#A1624D"/>
<path d="M212.69 190.393C212.921 192.502 212.396 194.872 211.209 197.078L76.0605 447.972C74.8579 450.205 73.1179 452.004 71.1585 453.037C69.204 454.068 67.2653 454.209 65.7019 453.437L-109.792 366.39C-111.377 365.606 -112.382 363.978 -112.619 361.809C-112.851 359.699 -112.324 357.325 -111.136 355.12L24.0095 104.225C26.4933 99.6159 31.1402 97.1612 34.3682 98.7597L209.862 185.806C211.445 186.594 212.452 188.218 212.689 190.387L212.69 190.393ZM-111.804 361.386C-111.591 363.312 -110.701 364.762 -109.29 365.458L66.2043 452.505C67.5941 453.195 69.3176 453.072 71.0559 452.15C72.7969 451.23 74.3451 449.63 75.415 447.643L210.559 196.752C211.613 194.792 212.084 192.679 211.876 190.801C211.663 188.875 210.772 187.425 209.363 186.725L33.8695 99.6784C31.0004 98.2559 26.8685 100.439 24.6561 104.539L-110.492 355.432C-111.55 357.391 -112.018 359.505 -111.813 361.381L-111.804 361.386Z" fill="#A1624D"/>
<path d="M215.81 200.235C216.043 202.355 215.491 204.737 214.258 206.934L79.0235 447.905C76.5325 452.342 72.0072 454.596 68.9374 452.929L-97.8064 362.454C-99.2608 361.664 -100.185 360.114 -100.406 358.081C-100.641 355.959 -100.086 353.58 -98.8541 351.382L36.3829 110.407C38.8767 105.972 43.3993 103.716 46.469 105.384L213.21 195.857C214.664 196.647 215.591 198.198 215.812 200.231L215.81 200.235ZM-99.5982 357.664C-99.4005 359.465 -98.5819 360.841 -97.292 361.539L69.4492 452.012C72.1716 453.489 76.1803 451.49 78.3868 447.561L213.622 206.589C214.714 204.644 215.203 202.536 214.998 200.654C214.8 198.854 213.981 197.478 212.691 196.78L45.9502 106.307C43.2277 104.83 39.2213 106.825 37.0104 110.762L-98.2245 351.733C-99.3168 353.678 -99.8062 355.787 -99.5976 357.67L-99.5982 357.664Z" fill="#A1624D"/>
<path d="M218.92 210.082C219.152 212.191 218.56 214.638 217.295 216.793L81.9752 447.833C80.7632 449.898 79.0795 451.513 77.2242 452.377C75.3717 453.243 73.5728 453.259 72.16 452.419L-85.821 358.523C-87.1486 357.734 -87.9956 356.256 -88.2025 354.364C-88.434 352.254 -87.8419 349.807 -86.5798 347.651L48.7399 116.611C51.2381 112.347 55.6388 110.291 58.5524 112.024L216.531 205.923C217.859 206.713 218.706 208.19 218.913 210.083L218.92 210.082ZM-87.3899 353.944C-87.2053 355.615 -86.4582 356.922 -85.2874 357.618L72.6936 451.514C73.9387 452.254 75.5263 452.243 77.1615 451.475C78.7993 450.71 80.2881 449.287 81.3564 447.462L216.676 216.422C217.791 214.519 218.314 212.357 218.11 210.497C217.925 208.826 217.181 207.52 216.007 206.823L58.0264 112.928C55.4564 111.399 51.569 113.217 49.3636 116.979L-85.9561 348.02C-87.0708 349.922 -87.5935 352.084 -87.3899 353.944Z" fill="#A1624D"/>
<path d="M222.037 219.921C222.27 222.047 221.647 224.498 220.331 226.65L84.9285 447.756C83.7155 449.734 82.0563 451.259 80.2546 452.04C78.4507 452.824 76.7228 452.776 75.387 451.905L-73.831 354.589C-75.0341 353.805 -75.8035 352.404 -75.9973 350.641C-76.2305 348.515 -75.6105 346.063 -74.291 343.912L61.1133 122.803C63.6142 118.718 67.8948 116.855 70.6549 118.653L219.873 215.969C221.076 216.759 221.846 218.16 222.039 219.917L222.037 219.921ZM-75.1869 350.225C-75.0149 351.772 -74.3399 353.005 -73.2832 353.696L75.9348 451.013C77.11 451.777 78.6282 451.821 80.212 451.133C81.7958 450.446 83.2568 449.106 84.3207 447.365L219.725 226.256C220.882 224.366 221.429 222.212 221.224 220.341C221.055 218.795 220.375 217.565 219.318 216.874L70.1005 119.557C67.6747 117.973 63.9112 119.612 61.7097 123.207L-73.6925 344.313C-74.8498 346.203 -75.3987 348.361 -75.1918 350.228L-75.1869 350.225Z" fill="#A1624D"/>
<path d="M225.157 229.762C225.393 231.909 224.74 234.37 223.365 236.512L87.8784 447.686C85.3704 451.598 81.2116 453.262 78.6099 451.394L-61.8478 350.656C-62.9313 349.879 -63.6259 348.554 -63.8061 346.926C-64.0414 344.778 -63.3887 342.318 -62.0141 340.176L73.4729 129.001C75.9836 125.091 80.1424 123.428 82.7414 125.293L223.199 226.032C224.283 226.809 224.977 228.134 225.157 229.762ZM-62.9907 346.508C-62.8335 347.934 -62.2257 349.091 -61.2782 349.775L79.1796 450.514C81.458 452.147 85.098 450.692 87.2935 447.267L222.778 236.091C223.983 234.216 224.553 232.064 224.347 230.183C224.19 228.756 223.582 227.6 222.635 226.916L82.1772 126.177C79.9015 124.545 76.2615 126 74.0633 129.423L-61.4237 340.598C-62.6263 342.474 -63.1966 344.626 -62.9907 346.508Z" fill="#A1624D"/>
<path d="M228.287 239.598C228.527 241.769 227.839 244.235 226.401 246.369L90.8346 447.611C88.319 451.345 84.2825 452.813 81.8392 450.877L-49.8555 346.717C-50.8353 345.945 -51.4387 344.729 -51.608 343.21C-51.8482 341.039 -51.1627 338.571 -49.7253 336.437L85.8464 135.193C88.362 131.459 92.3985 129.991 94.8418 131.926L226.534 236.09C227.514 236.863 228.12 238.08 228.287 239.598ZM-50.8002 342.793C-50.6534 344.117 -50.1253 345.174 -49.2717 345.849L82.423 450.009C84.5518 451.695 88.07 450.416 90.2672 447.16L225.836 245.915C227.09 244.056 227.686 241.907 227.476 240.014C227.329 238.689 226.801 237.632 225.948 236.957L94.2552 132.793C92.1265 131.107 88.6083 132.387 86.4139 135.643L-49.1578 336.887C-50.4091 338.743 -51.005 340.896 -50.798 342.789L-50.8002 342.793Z" fill="#A1624D"/>
<path d="M231.423 249.432C231.66 251.601 230.92 254.142 229.437 256.231L93.7856 447.542C91.2624 451.098 87.3504 452.367 85.0633 450.367L-37.869 342.781C-38.7335 342.023 -39.272 340.889 -39.4254 339.5C-39.6629 337.331 -38.9228 334.789 -37.4395 332.7L98.212 141.39C100.735 137.833 104.647 136.564 106.934 138.565L229.869 246.147C230.733 246.904 231.272 248.039 231.423 249.432ZM-38.6128 339.08C-38.4801 340.29 -38.0164 341.272 -37.2628 341.929L85.6695 449.516C87.6536 451.253 91.0478 450.152 93.2362 447.065L228.888 255.755C230.172 253.942 230.819 251.734 230.61 249.851C230.478 248.647 230.012 247.663 229.261 247.008L106.329 139.422C104.345 137.69 100.95 138.785 98.7597 141.876L-36.8945 333.185C-38.1785 334.997 -38.8208 337.203 -38.615 339.084L-38.6128 339.08Z" fill="#A1624D"/>
<path d="M234.563 259.262C234.806 261.465 234.024 264.02 232.469 266.091L96.7324 447.471C94.2016 450.849 90.4114 451.918 88.2854 449.85L-25.8862 338.847C-26.6399 338.113 -27.1106 337.06 -27.2514 335.796C-27.4922 333.594 -26.7096 331.04 -25.158 328.962L110.578 147.582C113.109 144.203 116.899 143.135 119.025 145.202L233.195 256.21C233.948 256.943 234.42 258.001 234.56 259.261L234.563 259.262ZM-26.4339 335.374C-26.316 336.463 -25.9058 337.376 -25.2582 338.007L88.9113 449.014C90.7506 450.802 94.0236 449.881 96.2082 446.961L231.942 265.585C233.285 263.794 233.961 261.586 233.753 259.683C233.632 258.592 233.225 257.681 232.574 257.048L118.405 146.041C116.566 144.254 113.295 145.175 111.111 148.095L-24.6255 329.475C-25.9657 331.268 -26.6441 333.474 -26.4333 335.379L-26.4339 335.374Z" fill="#A1624D"/>
<path d="M237.716 269.091C237.96 271.299 237.11 273.93 235.504 275.959L99.6854 447.404C97.1497 450.607 93.4835 451.471 91.5159 449.334L-13.8956 334.908C-14.5454 334.204 -14.9512 333.232 -15.0767 332.093C-15.3181 329.886 -14.471 327.254 -12.8653 325.225L122.956 153.776C125.491 150.574 129.158 149.71 131.128 151.848L236.534 266.276C237.184 266.98 237.593 267.953 237.716 269.091ZM-14.2668 331.672C-14.1576 332.65 -13.8092 333.489 -13.2522 334.092L92.1571 448.522C93.8489 450.358 97.0028 449.614 99.1836 446.861L235.002 275.416C236.404 273.646 237.116 271.437 236.903 269.51C236.796 268.529 236.445 267.694 235.888 267.09L130.479 152.661C128.787 150.824 125.633 151.568 123.453 154.322L-12.3661 325.767C-13.7681 327.537 -14.4798 329.746 -14.2668 331.672Z" fill="#A1624D"/>
<path d="M240.876 278.912C241.125 281.164 240.227 283.81 238.537 285.819L102.633 447.334C100.087 450.357 96.5456 451.022 94.7364 448.817L-1.9123 330.97C-2.45786 330.301 -2.80624 329.411 -2.91926 328.396C-3.16768 326.144 -2.27033 323.498 -0.577833 321.485L135.326 159.97C137.869 156.945 141.411 156.281 143.22 158.486L239.866 276.337C240.414 277.001 240.76 277.896 240.873 278.911L240.876 278.912ZM-2.10444 327.972C-2.0089 328.84 -1.70964 329.602 -1.24108 330.174L95.4054 448.024C96.9525 449.911 99.9846 449.342 102.159 446.759L238.063 285.245C239.511 283.525 240.276 281.258 240.066 279.333C239.973 278.461 239.674 277.699 239.205 277.128L142.559 159.277C141.011 157.39 137.979 157.959 135.802 160.546L-0.101077 322.061C-1.54672 323.782 -2.31465 326.048 -2.10663 327.976L-2.10444 327.972Z" fill="#A1624D"/>
</g>
</g>
</svg>
