<svg width="223" height="448" viewBox="0 0 223 448" fill="none" xmlns="http://www.w3.org/2000/svg">
<mask id="mask0_30511_13093" style="mask-type:alpha" maskUnits="userSpaceOnUse" x="0" y="0" width="223" height="448">
<rect width="223" height="447.138" fill="#D9D9D9"/>
</mask>
<g mask="url(#mask0_30511_13093)">
<g opacity="0.8">
<path d="M183.137 145.558C182.976 147.199 182.34 148.837 181.301 150.291L14.6486 383.587C13.1882 385.632 11.0833 387.125 8.72144 387.793C6.35957 388.46 4.02469 388.219 2.14656 387.119L-212.211 261.465C-214.633 260.044 -215.903 257.412 -215.61 254.423C-215.449 252.781 -214.815 251.145 -213.774 249.689L-47.1218 16.3933C-45.6615 14.3484 -43.5589 12.857 -41.197 12.1895C-38.8351 11.522 -36.5022 11.761 -34.6221 12.8631L179.735 138.517C182.159 139.936 183.43 142.568 183.137 145.558ZM-214.899 254.373C-215.168 257.124 -213.999 259.545 -211.77 260.852L2.59 386.504C4.31728 387.519 6.46688 387.738 8.63963 387.124C10.8124 386.509 12.7487 385.137 14.0893 383.254L180.742 149.959C181.698 148.621 182.281 147.115 182.428 145.605C182.698 142.854 181.528 140.433 179.301 139.123L-35.0608 13.4741C-36.7905 12.4613 -38.9377 12.2403 -41.1105 12.8544C-43.2813 13.4704 -45.2195 14.8408 -46.5601 16.7235L-213.213 250.019C-214.171 251.359 -214.754 252.865 -214.901 254.375L-214.899 254.373Z" fill="#A1624D"/>
<path d="M183.861 153.782C183.702 155.421 183.058 157.052 182.001 158.496L16.9098 384.332C15.4605 386.313 13.3939 387.748 11.0857 388.372C8.77746 388.997 6.50688 388.733 4.69269 387.633L-202.176 262.264C-204.483 260.868 -205.69 258.32 -205.409 255.444C-205.248 253.803 -204.607 252.174 -203.55 250.73L-38.4584 24.8944C-35.4695 20.8046 -29.9879 19.323 -26.2413 21.593L180.63 146.96C182.933 148.356 184.144 150.904 183.861 153.782ZM-204.698 255.394C-204.958 258.034 -203.848 260.375 -201.734 261.657L5.13996 387.022C6.80377 388.032 8.8891 388.274 11.0063 387.701C13.1253 387.13 15.0238 385.812 16.3533 383.993L181.445 158.158C182.412 156.832 183.004 155.334 183.152 153.83C183.411 151.19 182.302 148.849 180.185 147.569L-26.6862 22.2023C-30.1268 20.1209 -35.1577 21.4767 -37.8995 25.231L-202.992 251.071C-203.963 252.397 -204.552 253.892 -204.699 255.399L-204.698 255.394Z" fill="#A1624D"/>
<path d="M184.588 162.004C184.427 163.645 183.778 165.265 182.703 166.696L19.1722 385.076C16.2059 389.034 10.8549 390.411 7.24045 388.142L-192.145 263.067C-194.335 261.692 -195.48 259.226 -195.208 256.468C-195.049 254.829 -194.398 253.207 -193.325 251.774L-29.7919 33.3963C-28.3537 31.4784 -26.3234 30.1045 -24.0688 29.5231C-21.8167 28.944 -19.6104 29.2305 -17.8578 30.3278L181.527 155.403C183.715 156.775 184.861 159.241 184.59 162.001L184.588 162.004ZM-194.499 256.421C-194.746 258.947 -193.696 261.207 -191.692 262.465L7.69303 387.54C11.0038 389.619 15.9074 388.357 18.6228 384.73L182.154 166.351C183.137 165.041 183.733 163.553 183.882 162.049C184.129 159.523 183.079 157.262 181.077 156.006L-18.3108 30.9334C-19.9154 29.9276 -21.9345 29.6653 -24.0004 30.1975C-26.0639 30.7274 -27.9264 31.9885 -29.2429 33.7461L-192.774 252.121C-193.756 253.431 -194.353 254.919 -194.499 256.421Z" fill="#A1624D"/>
<path d="M185.318 170.228C185.159 171.866 184.498 173.484 183.407 174.903L21.4365 385.822C20.0113 387.679 18.0151 388.994 15.8166 389.53C13.6161 390.064 11.4761 389.757 9.7874 388.66L-182.111 263.868C-184.184 262.52 -185.266 260.138 -185.006 257.494C-184.843 255.855 -184.185 254.238 -183.093 252.817L-21.1221 41.8973C-18.1827 38.0701 -12.958 36.7968 -9.47531 39.062L182.421 163.852C184.494 165.199 185.576 167.582 185.316 170.226L185.318 170.228ZM-184.299 257.445C-184.534 259.861 -183.546 262.04 -181.65 263.271L10.2462 388.06C11.7892 389.063 13.7445 389.344 15.7543 388.857C17.7623 388.369 19.5888 387.164 20.89 385.47L182.863 174.549C183.857 173.25 184.463 171.773 184.611 170.277C184.846 167.861 183.86 165.684 181.964 164.453L-9.93455 39.6658C-13.1164 37.5981 -17.8899 38.7601 -20.5783 42.2558L-182.551 253.173C-183.547 254.469 -184.151 255.949 -184.299 257.445Z" fill="#A1624D"/>
<path d="M186.048 178.45C185.887 180.092 185.216 181.699 184.108 183.109L23.6956 386.57C22.2838 388.361 20.3235 389.619 18.1791 390.108C16.0323 390.599 13.9589 390.267 12.3318 389.172L-172.078 264.67C-174.037 263.347 -175.059 261.049 -174.811 258.519C-174.65 256.877 -173.981 255.268 -172.873 253.862L-12.4609 50.4012C-11.0468 48.6083 -9.08883 47.3519 -6.94205 46.8608C-4.79721 46.3679 -2.71948 46.6999 -1.09905 47.7969L183.311 172.295C185.27 173.619 186.29 175.919 186.042 178.449L186.048 178.45ZM-174.1 258.469C-174.328 260.776 -173.397 262.872 -171.611 264.078L12.7963 388.579C14.2759 389.578 16.1669 389.881 18.1235 389.433C20.0801 388.985 21.8665 387.838 23.1523 386.207L183.564 182.746C184.576 181.466 185.187 179.998 185.335 178.502C185.561 176.198 184.629 174.102 182.846 172.893L-1.56169 48.3926C-3.04122 47.3938 -4.93223 47.0902 -6.89123 47.5405C-8.84784 47.9885 -10.6342 49.136 -11.9224 50.7684L-172.33 254.225C-173.341 255.506 -173.951 256.975 -174.1 258.469Z" fill="#A1624D"/>
<path d="M186.781 186.674C186.62 188.315 185.937 189.919 184.811 191.311L25.9574 387.314C23.0694 390.881 18.0977 391.942 14.8789 389.682L-162.043 265.473C-163.887 264.178 -164.847 261.964 -164.611 259.548C-164.45 257.907 -163.769 256.305 -162.638 254.908L-3.78459 58.905C-2.38583 57.1759 -0.459945 55.98 1.63124 55.5301C3.72434 55.0821 5.73544 55.4391 7.29427 56.5336L184.216 180.747C186.06 182.042 187.021 184.257 186.786 186.674L186.781 186.674ZM-163.902 259.496C-164.118 261.693 -163.244 263.707 -161.566 264.887L15.355 389.1C18.2824 391.154 22.8004 390.187 25.4274 386.947L184.281 190.943C185.305 189.681 185.927 188.219 186.074 186.728C186.29 184.53 185.416 182.516 183.739 181.337L6.81729 57.1239C5.39934 56.1276 3.57025 55.8035 1.66921 56.2105C-0.234214 56.6196 -1.98421 57.7064 -3.25507 59.2769L-162.11 255.278C-163.137 256.543 -163.757 258.002 -163.904 259.494L-163.902 259.496Z" fill="#A1624D"/>
<path d="M187.51 194.898C187.349 196.539 186.656 198.137 185.508 199.516L28.2153 388.059C26.8257 389.723 24.94 390.862 22.9006 391.267C20.8612 391.672 18.9167 391.29 17.4194 390.198L-152.014 266.274C-153.772 264.988 -154.649 262.91 -154.422 260.569C-154.261 258.924 -153.567 257.33 -152.415 255.951L4.87553 67.4059C7.74092 63.9707 12.5819 63.0139 15.6709 65.2716L185.104 189.196C186.864 190.483 187.742 192.561 187.51 194.902L187.51 194.898ZM-153.711 260.52C-153.921 262.639 -153.123 264.523 -151.529 265.691L17.9041 389.615C19.2609 390.605 21.0238 390.95 22.8736 390.583C24.7233 390.217 26.4312 389.186 27.691 387.678L184.983 199.136C186.028 197.884 186.655 196.437 186.801 194.95C187.009 192.828 186.211 190.944 184.619 189.778L15.1863 65.854C12.3882 63.8068 7.99807 64.6754 5.3994 67.7907L-151.893 256.334C-152.938 257.585 -153.564 259.032 -153.711 260.524L-153.711 260.52Z" fill="#A1624D"/>
<path d="M188.25 203.12C188.088 204.766 187.383 206.356 186.208 207.722L30.4764 388.809C29.0997 390.411 27.2485 391.487 25.2651 391.847C23.2798 392.204 21.3973 391.802 19.9682 390.71L-141.977 267.075C-143.625 265.819 -144.441 263.822 -144.226 261.596C-144.064 259.95 -143.358 258.36 -142.186 256.992L13.5478 75.9071C14.9244 74.3049 16.7737 73.2268 18.759 72.8692C20.7444 72.5116 22.6269 72.9141 24.0578 74.008L186.007 197.643C187.655 198.899 188.471 200.895 188.254 203.12L188.25 203.12ZM-143.518 261.542C-143.715 263.554 -142.974 265.36 -141.488 266.497L20.4591 390.129C21.752 391.119 23.453 391.484 25.2495 391.157C27.0437 390.832 28.7175 389.859 29.9624 388.411L185.694 207.324C186.756 206.091 187.395 204.651 187.541 203.163C187.738 201.152 186.997 199.345 185.511 198.209L23.5664 74.5741C22.2711 73.5871 20.5701 73.2217 18.776 73.5467C16.9818 73.8717 15.308 74.8449 14.0631 76.2924L-141.669 257.379C-142.731 258.613 -143.369 260.053 -143.516 261.54L-143.518 261.542Z" fill="#A1624D"/>
<path d="M188.987 211.341C188.825 212.967 188.09 214.597 186.906 215.926L32.7354 389.553C31.3723 391.089 29.557 392.109 27.6253 392.423C25.6936 392.738 23.8778 392.31 22.5107 391.217L-131.948 267.869C-133.482 266.645 -134.243 264.729 -134.036 262.616C-133.876 260.992 -133.137 259.362 -131.955 258.031L22.218 84.4022C23.5812 82.8658 25.3965 81.8463 27.3282 81.5317C29.2598 81.2172 31.0757 81.6447 32.4427 82.7383L186.901 206.086C188.436 207.31 189.196 209.226 188.991 211.336L188.987 211.341ZM-133.331 262.569C-133.518 264.474 -132.831 266.202 -131.448 267.307L23.0103 390.654C24.2421 391.637 25.8788 392.025 27.6197 391.739C29.3603 391.457 30.9986 390.536 32.2262 389.15L186.4 215.521C187.467 214.321 188.132 212.853 188.274 211.388C188.461 209.484 187.774 207.756 186.388 206.653L31.9298 83.3057C30.698 82.3232 29.0613 81.935 27.3184 82.2192C25.5799 82.5032 23.9438 83.4217 22.712 84.8077L-131.461 258.437C-132.528 259.637 -133.193 261.105 -133.335 262.57L-133.331 262.569Z" fill="#A1624D"/>
<path d="M189.729 219.564C189.569 221.197 188.815 222.818 187.61 224.133L34.9975 390.302C33.6454 391.775 31.8664 392.733 29.9885 393.005C28.1105 393.276 26.3593 392.822 25.0558 391.733L-121.916 268.672C-123.343 267.48 -124.047 265.646 -123.849 263.645C-123.687 262.014 -122.935 260.391 -121.728 259.074L30.8846 92.9051C33.6756 89.8661 38.1353 89.2236 40.8239 91.4764L187.794 214.535C189.221 215.727 189.924 217.561 189.727 219.562L189.729 219.564ZM-123.142 263.596C-123.318 265.395 -122.686 267.042 -121.404 268.113L25.5659 391.172C26.7361 392.152 28.309 392.559 29.9963 392.316C31.6836 392.072 33.2836 391.21 34.4982 389.886L187.111 223.717C188.195 222.535 188.871 221.078 189.016 219.612C189.192 217.813 188.56 216.166 187.278 215.094L40.3053 92.0378C37.8886 90.0135 33.8837 90.5905 31.3729 93.3235L-121.24 259.492C-122.324 260.675 -123 262.131 -123.145 263.598L-123.142 263.596Z" fill="#A1624D"/>
<path d="M190.471 227.786C190.312 229.421 189.542 231.039 188.307 232.337L37.2527 391.048C34.4844 393.955 30.1533 394.492 27.5988 392.241L-111.885 269.47C-113.202 268.31 -113.853 266.559 -113.667 264.668C-113.507 263.031 -112.739 261.415 -111.501 260.115L39.5506 101.406C42.319 98.4985 46.6481 97.9603 49.2045 100.213L188.686 222.986C190.003 224.146 190.652 225.895 190.468 227.788L190.471 227.786ZM-112.958 264.62C-113.123 266.314 -112.545 267.883 -111.364 268.921L28.1204 391.692C30.4101 393.707 34.2896 393.226 36.7696 390.62L187.824 231.91C188.931 230.747 189.62 229.298 189.762 227.834C189.929 226.138 189.348 224.571 188.167 223.533L48.6829 100.762C46.3909 98.7488 42.5137 99.228 40.0337 101.833L-111.018 260.542C-112.126 261.705 -112.814 263.154 -112.958 264.62Z" fill="#A1624D"/>
<path d="M191.218 236.01C191.057 237.655 190.27 239.265 189.004 240.547L39.5114 391.797C36.768 394.572 32.5657 395.002 30.141 392.754L-101.857 270.27C-103.067 269.145 -103.662 267.479 -103.488 265.697C-103.327 264.052 -102.54 262.441 -101.272 261.158L48.2206 109.907C50.964 107.133 55.1663 106.703 57.5891 108.949L189.587 231.433C190.797 232.557 191.394 234.225 191.218 236.01ZM-102.777 265.647C-102.933 267.238 -102.401 268.726 -101.321 269.73L30.6765 392.214C32.8392 394.221 36.5909 393.837 39.0402 391.359L188.533 240.108C189.662 238.963 190.367 237.526 190.509 236.057C190.665 234.467 190.133 232.979 189.053 231.974L57.0598 109.49C54.8971 107.484 51.1454 107.867 48.6937 110.348L-100.799 261.598C-101.93 262.741 -102.633 264.181 -102.775 265.649L-102.777 265.647Z" fill="#A1624D"/>
<path d="M191.965 244.231C191.803 245.885 191 247.488 189.7 248.752L41.7658 392.545C40.4493 393.825 38.779 394.605 37.0605 394.742C35.3464 394.877 33.7905 394.352 32.6807 393.266L-91.8287 271.071C-92.9539 269.969 -93.4814 268.424 -93.314 266.724C-93.1517 265.07 -92.3463 263.465 -91.0464 262.201L56.8861 118.406C59.6045 115.765 63.6806 115.44 65.9711 117.685L190.481 239.88C191.603 240.984 192.133 242.527 191.966 244.227L191.965 244.231ZM-92.6005 266.672C-92.7475 268.183 -92.2806 269.558 -91.2789 270.537L33.2305 392.732C34.2165 393.7 35.5993 394.169 37.1246 394.044C38.6518 393.922 40.1379 393.228 41.3092 392.089L189.239 248.297C190.394 247.173 191.112 245.745 191.255 244.272C191.402 242.762 190.935 241.387 189.936 240.405L65.4265 118.211C63.3908 116.213 59.7664 116.503 57.3459 118.852L-90.5885 262.644C-91.7452 263.766 -92.4614 265.196 -92.6063 266.666L-92.6005 266.672Z" fill="#A1624D"/>
<path d="M192.722 252.453C192.559 254.115 191.732 255.717 190.399 256.961L44.0286 393.295C41.3328 395.804 37.3859 396.02 35.2317 393.774L-81.7908 271.866C-82.8111 270.802 -83.288 269.342 -83.1301 267.749C-82.9688 266.085 -82.1405 264.485 -80.8066 263.241L65.5657 126.905C68.2635 124.397 72.2085 124.18 74.3626 126.426L191.383 248.332C192.404 249.396 192.882 250.858 192.724 252.451L192.722 252.453ZM-82.4232 267.7C-82.5617 269.111 -82.1397 270.407 -81.2341 271.348L35.7865 393.255C37.6971 395.245 41.1937 395.053 43.5815 392.83L189.951 256.496C191.134 255.396 191.866 253.977 192.011 252.503C192.149 251.091 191.727 249.796 190.822 248.854L73.8012 126.948C71.8905 124.957 68.3963 125.147 66.0038 127.375L-80.3662 263.708C-81.5482 264.809 -82.2803 266.227 -82.4237 267.704L-82.4232 267.7Z" fill="#A1624D"/>
<path d="M193.479 260.674C193.317 262.328 192.448 263.966 191.095 265.167L46.284 394.042C44.9878 395.194 43.3922 395.854 41.7839 395.898C40.1775 395.943 38.7526 395.37 37.773 394.282L-71.7612 272.664C-72.6816 271.641 -73.1094 270.26 -72.9632 268.777C-72.8008 267.123 -71.9322 265.485 -70.5813 264.282L74.2301 135.406C76.9033 133.028 80.7192 132.921 82.7392 135.164L192.271 256.785C193.191 257.808 193.619 259.189 193.473 260.672L193.479 260.674ZM-72.252 268.727C-72.3797 270.037 -72.003 271.258 -71.1911 272.16L38.3431 393.779C39.2064 394.737 40.4635 395.245 41.8819 395.203C43.3022 395.162 44.7121 394.582 45.8555 393.564L190.667 264.688C191.86 263.627 192.627 262.179 192.77 260.721C192.898 259.411 192.523 258.192 191.71 257.289L82.1753 135.67C80.3935 133.69 77.0224 133.787 74.6629 135.885L-70.1485 264.76C-71.3413 265.821 -72.1085 267.269 -72.252 268.727Z" fill="#A1624D"/>
<path d="M194.243 268.893C194.08 270.559 193.186 272.191 191.793 273.373L48.5423 394.788C47.2594 395.874 45.6979 396.476 44.1456 396.474C42.591 396.475 41.2327 395.877 40.319 394.791L-61.7271 273.461C-62.5499 272.483 -62.9289 271.185 -62.7936 269.803C-62.6299 268.137 -61.7383 266.503 -60.343 265.323L82.9099 143.905C85.5558 141.662 89.2453 141.66 91.1332 143.903L193.179 265.232C194.002 266.215 194.381 267.513 194.246 268.891L194.243 268.893ZM-62.0848 269.756C-62.2021 270.969 -61.8702 272.111 -61.1479 272.972L40.8983 394.301C41.7023 395.256 42.8955 395.782 44.2603 395.782C45.625 395.783 46.9995 395.255 48.1256 394.299L191.378 272.881C192.603 271.843 193.388 270.409 193.532 268.943C193.651 267.731 193.315 266.589 192.593 265.729L90.5468 144.399C88.8882 142.425 85.6444 142.428 83.3152 144.402L-59.9353 265.818C-61.1598 266.855 -61.9471 268.292 -62.0891 269.756L-62.0848 269.756Z" fill="#A1624D"/>
<path d="M195.008 277.114C194.842 278.797 193.924 280.426 192.486 281.581L50.794 395.539C48.1707 397.651 44.6103 397.543 42.859 395.3L-51.7008 274.258C-52.4303 273.324 -52.7626 272.107 -52.6386 270.83C-52.4731 269.147 -51.5542 267.518 -50.1167 266.362L91.5753 152.405C94.2005 150.295 97.7609 150.403 99.5103 152.644L194.07 273.686C194.8 274.62 195.132 275.837 195.008 277.114ZM-51.9254 270.782C-52.0347 271.901 -51.7434 272.964 -51.1062 273.784L43.4536 394.826C44.9876 396.789 48.1036 396.884 50.4002 395.035L192.09 281.076C193.35 280.065 194.153 278.64 194.299 277.165C194.408 276.047 194.117 274.984 193.479 274.164L98.9196 153.122C97.3875 151.161 94.2714 151.066 91.973 152.913L-49.7191 266.87C-50.977 267.883 -51.7802 269.308 -51.9254 270.782Z" fill="#A1624D"/>
<path d="M195.78 285.333C195.615 287.036 194.667 288.658 193.181 289.787L53.0515 396.286C50.4513 398.262 47.0196 398.049 45.4047 395.806L-41.6669 275.052C-42.3151 274.156 -42.5932 273.05 -42.4782 271.858C-42.3128 270.156 -41.3668 268.532 -39.8809 267.403L100.253 160.903C102.853 158.927 106.285 159.141 107.899 161.384L194.969 282.139C195.617 283.036 195.897 284.143 195.78 285.333ZM-41.7713 271.809C-41.872 272.847 -41.6276 273.81 -41.0632 274.593L46.0084 395.346C47.4154 397.3 50.4066 397.486 52.6767 395.765L192.808 289.263C194.104 288.28 194.927 286.866 195.071 285.381C195.172 284.342 194.927 283.379 194.363 282.597L107.294 161.841C105.887 159.887 102.896 159.701 100.627 161.425L-39.5061 267.924C-40.7991 268.906 -41.6228 270.323 -41.769 271.806L-41.7713 271.809Z" fill="#A1624D"/>
<path d="M196.56 293.553C196.392 295.253 195.391 296.914 193.876 297.995L55.3057 397.036C52.7286 398.877 49.4279 398.554 47.9471 396.314L-31.6358 275.846C-32.1954 274.998 -32.4354 273.974 -32.3293 272.885C-32.162 271.185 -31.1608 269.524 -29.646 268.443L108.925 169.402C111.502 167.561 114.802 167.883 116.283 170.124L195.869 290.59C196.428 291.438 196.668 292.462 196.56 293.553ZM-31.6181 272.835C-31.7112 273.783 -31.5055 274.669 -31.0172 275.406L48.5657 395.874C49.8501 397.819 52.7139 398.099 54.9494 396.501L193.52 297.46C194.832 296.521 195.705 295.079 195.848 293.603C195.941 292.659 195.733 291.771 195.247 291.036L115.664 170.568C114.379 168.627 111.516 168.343 109.278 169.943L-29.2945 268.983C-30.6063 269.921 -31.4752 271.363 -31.6205 272.837L-31.6181 272.835Z" fill="#A1624D"/>
<path d="M197.338 301.774C197.17 303.501 196.133 305.158 194.565 306.202L57.5527 397.786C54.9986 399.491 51.827 399.058 50.4846 396.82L-21.6124 276.643C-22.0882 275.849 -22.288 274.908 -22.1923 273.916C-22.0223 272.19 -20.9853 270.534 -19.4184 269.483L117.594 177.9C120.148 176.194 123.319 176.627 124.662 178.866L196.757 299.045C197.232 299.839 197.432 300.784 197.336 301.772L197.338 301.774ZM-21.4769 273.866C-21.5619 274.719 -21.3872 275.536 -20.9784 276.219L51.1163 396.398C52.2779 398.333 55.0163 398.709 57.2216 397.234L194.231 305.653C195.586 304.75 196.482 303.317 196.629 301.825C196.712 300.97 196.539 300.156 196.129 299.471L124.034 179.292C122.872 177.356 120.136 176.983 117.931 178.457L-19.0815 270.041C-20.4346 270.946 -21.3322 272.377 -21.4773 273.87L-21.4769 273.866Z" fill="#A1624D"/>
<path d="M198.135 309.995C197.966 311.726 196.864 313.419 195.262 314.415L59.8107 398.538C57.2815 400.11 54.2415 399.564 53.0356 397.326L-11.5752 277.436C-11.9738 276.698 -12.1355 275.839 -12.0482 274.946C-11.8778 273.216 -10.7771 271.522 -9.17541 270.526L126.278 186.4C128.807 184.828 131.847 185.374 133.055 187.614L197.662 307.504C198.06 308.242 198.224 309.104 198.135 309.995ZM-11.339 274.894C-11.4126 275.661 -11.2746 276.402 -10.9329 277.035L53.6754 396.926C54.7125 398.851 57.3278 399.319 59.5028 397.968L194.954 313.845C196.352 312.977 197.277 311.555 197.424 310.044C197.5 309.275 197.359 308.536 197.017 307.904L132.409 188.012C131.372 186.088 128.757 185.619 126.582 186.97L-8.86947 271.093C-10.2676 271.962 -11.192 273.383 -11.339 274.894Z" fill="#A1624D"/>
<path d="M198.931 318.212C198.759 319.977 197.616 321.666 195.951 322.62L62.0579 399.285C59.5498 400.719 56.6408 400.065 55.5714 397.827L-1.55115 278.226C-1.87302 277.549 -2.00271 276.769 -1.92589 275.973C-1.75372 274.207 -0.610996 272.519 1.05674 271.563L134.949 194.898C137.456 193.461 140.365 194.115 141.434 196.354L198.554 315.957C198.878 316.632 199.006 317.414 198.929 318.21L198.931 318.212ZM-1.21235 275.921C-1.27889 276.601 -1.16703 277.269 -0.890129 277.849L56.23 397.451C57.1444 399.366 59.6348 399.927 61.7771 398.701L195.67 322.036C197.096 321.22 198.073 319.772 198.222 318.264C198.29 317.581 198.179 316.913 197.902 316.333L140.782 196.731C139.867 194.816 137.377 194.256 135.232 195.484L1.33941 272.149C-0.0853119 272.966 -1.06346 274.412 -1.21472 275.923L-1.21235 275.921Z" fill="#A1624D"/>
</g>
</g>
</svg>
