<svg width="218" height="488" viewBox="0 0 218 488" fill="none" xmlns="http://www.w3.org/2000/svg">
<mask id="mask0_30666_2673" style="mask-type:alpha" maskUnits="userSpaceOnUse" x="0" y="0" width="218" height="488">
<rect width="218" height="488" fill="#D9D9D9"/>
</mask>
<g mask="url(#mask0_30666_2673)">
<g opacity="0.8">
<path d="M119.619 64.1284C120.092 65.955 120.077 68.0198 119.577 70.0921L39.3447 402.619C38.6419 405.534 37.0634 408.189 34.9 410.096C32.7366 412.003 30.2476 412.93 27.893 412.712L-240.88 387.764C-243.917 387.481 -246.244 385.326 -247.106 381.999C-247.579 380.172 -247.566 378.111 -247.064 376.035L-166.832 43.5083C-166.129 40.5938 -164.552 37.9422 -162.389 36.0354C-160.225 34.1285 -157.739 33.2 -155.382 33.4189L113.391 58.3667C116.43 58.6464 118.757 60.8015 119.619 64.1284ZM-246.396 381.586C-245.602 384.648 -243.461 386.629 -240.666 386.889L28.1086 411.833C30.2753 412.037 32.5656 411.18 34.5558 409.425C36.5459 407.671 37.9986 405.231 38.6417 402.549L118.874 70.0222C119.334 68.1153 119.347 66.2185 118.911 64.538C118.117 61.4761 115.976 59.4949 113.182 59.2315L-155.594 34.2909C-157.762 34.0907 -160.051 34.9442 -162.041 36.6984C-164.029 38.4538 -165.484 40.8933 -166.127 43.5746L-246.359 376.102C-246.821 378.012 -246.834 379.909 -246.398 381.589L-246.396 381.586Z" fill="#A1624D"/>
<path d="M123.701 72.644C124.175 74.467 124.149 76.5274 123.627 78.5989L42.0944 402.402C41.3783 405.244 39.8162 407.817 37.6911 409.651C35.566 411.485 33.1341 412.355 30.8452 412.105L-230.134 383.665C-233.044 383.349 -235.273 381.251 -236.104 378.052C-236.577 376.225 -236.552 374.168 -236.03 372.097L-154.498 48.2933C-153.022 42.4297 -147.975 38.0758 -143.248 38.5903L117.733 67.0274C120.638 67.3454 122.872 69.4407 123.701 72.644ZM-235.394 377.638C-234.633 380.577 -232.585 382.503 -229.917 382.795L31.0662 411.228C33.1661 411.46 35.3993 410.659 37.3484 408.977C39.3003 407.296 40.7354 404.932 41.3918 402.324L122.924 78.5207C123.401 76.6206 123.425 74.7284 122.992 73.0537C122.232 70.1154 120.183 68.1892 117.513 67.9008L-143.468 39.4636C-147.807 38.9946 -152.441 42.9862 -153.793 48.3679L-235.324 372.176C-235.805 374.079 -235.828 375.967 -235.393 377.643L-235.394 377.638Z" fill="#A1624D"/>
<path d="M127.786 81.1512C128.259 82.9777 128.223 85.03 127.677 87.0961L44.8459 402.181C43.3425 407.893 38.3887 412.07 33.798 411.489L-219.39 379.567C-222.171 379.216 -224.305 377.174 -225.098 374.104C-225.573 372.281 -225.536 370.225 -224.993 368.158L-142.159 53.0746C-141.429 50.3063 -139.881 47.8164 -137.794 46.0555C-135.709 44.2981 -133.334 43.4844 -131.109 43.7628L122.079 75.6844C124.857 76.0345 126.991 78.0762 127.787 81.1476L127.786 81.1512ZM-224.39 373.694C-223.661 376.506 -221.705 378.377 -219.16 378.699L34.0284 410.62C38.2333 411.152 42.773 407.325 44.148 402.092L126.979 87.0071C127.478 85.116 127.511 83.2319 127.078 81.5572C126.35 78.7461 124.393 76.8748 121.851 76.5543L-131.339 44.6363C-133.376 44.3802 -135.549 45.1248 -137.462 46.7377C-139.372 48.3471 -140.793 50.6321 -141.46 53.1682L-224.292 368.248C-224.791 370.139 -224.824 372.023 -224.39 373.694Z" fill="#A1624D"/>
<path d="M131.871 89.6637C132.346 91.4867 132.296 93.5417 131.729 95.6034L47.5982 401.965C46.8581 404.661 45.3218 407.071 43.2749 408.756C41.2252 410.439 38.9102 411.197 36.7512 410.886L-208.646 375.471C-211.297 375.088 -213.334 373.104 -214.095 370.161C-214.566 368.335 -214.52 366.283 -213.952 364.218L-129.821 57.8565C-128.294 52.2973 -123.429 48.2952 -118.975 48.9383L126.419 84.3529C129.071 84.7351 131.107 86.7196 131.868 89.6626L131.871 89.6637ZM-213.389 369.75C-212.691 372.439 -210.83 374.254 -208.406 374.602L36.9887 410.016C38.9618 410.301 41.0769 409.608 42.9494 408.072C44.8192 406.534 46.2246 404.328 46.9006 401.867L131.033 95.5026C131.548 93.6183 131.596 91.7398 131.165 90.0746C130.467 87.386 128.609 85.5719 126.185 85.2242L-119.212 49.8131C-123.28 49.2274 -127.725 52.8825 -129.123 57.962L-213.257 364.322C-213.775 366.205 -213.82 368.085 -213.389 369.75Z" fill="#A1624D"/>
<path d="M135.96 98.1728C136.433 99.9993 136.369 102.049 135.78 104.11L50.3474 401.751C49.5956 404.37 48.0741 406.702 46.0643 408.309C44.0529 409.919 41.7966 410.617 39.7018 410.278L-197.901 371.374C-200.425 370.96 -202.368 369.035 -203.098 366.219C-203.571 364.393 -203.51 362.342 -202.92 360.286L-117.487 62.6445C-116.734 60.0214 -115.214 57.693 -113.202 56.0828C-111.194 54.4714 -108.933 53.7713 -106.844 54.1163L130.757 93.0155C133.282 93.4299 135.223 95.3583 135.953 98.1741L135.96 98.1728ZM-202.387 365.806C-201.724 368.374 -199.954 370.131 -197.653 370.509L39.9474 409.411C41.8537 409.723 43.9117 409.088 45.7447 407.619C47.5777 406.151 48.964 404.026 49.6491 401.641L135.082 103.999C135.622 102.125 135.678 100.255 135.248 98.5896C134.583 96.0246 132.812 94.268 130.513 93.887L-107.087 54.9842C-108.993 54.6722 -111.051 55.3079 -112.886 56.7796C-114.719 58.2478 -116.105 60.3734 -116.792 62.7619L-202.221 360.396C-202.761 362.27 -202.815 364.142 -202.387 365.806Z" fill="#A1624D"/>
<path d="M140.049 106.682C140.523 108.508 140.445 110.56 139.831 112.611L53.097 401.532C51.5213 406.788 46.8337 410.436 42.6526 409.665L-187.154 367.277C-189.55 366.836 -191.395 364.968 -192.093 362.279C-192.566 360.453 -192.49 358.404 -191.873 356.346L-105.139 67.4251C-104.377 64.8776 -102.866 62.6299 -100.896 61.0915C-98.9225 59.5543 -96.7206 58.9145 -94.6957 59.288L135.112 101.68C137.508 102.122 139.356 103.991 140.054 106.679L140.049 106.682ZM-191.385 361.865C-190.753 364.311 -189.073 366.009 -186.893 366.413L42.9147 408.805C46.7167 409.505 50.9756 406.187 52.4103 401.41L139.145 112.489C139.705 110.627 139.774 108.758 139.345 107.097C138.712 104.651 137.032 102.953 134.853 102.549L-94.9555 60.1574C-96.7976 59.8169 -98.8001 60.3994 -100.592 61.7957C-102.386 63.1956 -103.758 65.238 -104.451 67.5521L-191.188 356.472C-191.75 358.337 -191.817 360.203 -191.388 361.864L-191.385 361.865Z" fill="#A1624D"/>
<path d="M144.139 115.192C144.612 117.019 144.522 119.07 143.881 121.117L55.8464 401.315C55.0679 403.788 53.5764 405.955 51.6416 407.419C49.7069 408.884 47.5636 409.463 45.6029 409.061L-176.41 363.181C-178.714 362.705 -180.423 360.94 -181.099 358.336C-181.574 356.505 -181.482 354.459 -180.837 352.409L-92.8052 72.2097C-91.2017 67.1048 -86.6075 63.6337 -82.5605 64.4685L139.453 110.349C141.759 110.825 143.468 112.59 144.14 115.197L144.139 115.192ZM-180.389 357.923C-179.78 360.283 -178.229 361.882 -176.14 362.316L45.8736 408.196C47.6504 408.561 49.593 408.034 51.3482 406.707C53.1035 405.38 54.4542 403.417 55.1605 401.176L143.195 120.979C143.78 119.119 143.86 117.262 143.432 115.606C142.82 113.245 141.268 111.646 139.182 111.214L-82.8312 65.3334C-86.4979 64.575 -90.6638 67.7238 -92.1181 72.3533L-180.152 352.551C-180.738 354.411 -180.817 356.267 -180.388 357.928L-180.389 357.923Z" fill="#A1624D"/>
<path d="M148.233 123.696C148.708 125.527 148.602 127.576 147.929 129.624L58.5956 401.103C57.8065 403.504 56.3259 405.586 54.431 406.974C52.5334 408.361 50.4457 408.887 48.555 408.45L-165.664 359.082C-167.843 358.581 -169.457 356.872 -170.102 354.396C-170.576 352.564 -170.471 350.516 -169.8 348.467L-80.4641 76.9893C-79.675 74.5881 -78.1971 72.5044 -76.2995 71.1178C-74.4019 69.7313 -72.3141 69.205 -70.4207 69.6428L143.802 119.009C145.982 119.509 147.595 121.218 148.238 123.694L148.233 123.696ZM-169.397 353.98C-168.816 356.219 -167.354 357.764 -165.387 358.219L48.8327 407.584C50.5438 407.98 52.4309 407.507 54.1466 406.248C55.8608 404.993 57.1995 403.11 57.9136 400.94L147.247 129.461C147.857 127.611 147.951 125.757 147.523 124.101C146.943 121.862 145.48 120.317 143.514 119.862L-70.7047 70.4938C-72.4174 70.1009 -74.3045 70.5745 -76.0186 71.8296C-77.7328 73.0846 -79.0715 74.9678 -79.7856 77.1379L-169.119 348.617C-169.729 350.466 -169.823 352.321 -169.395 353.977L-169.397 353.98Z" fill="#A1624D"/>
<path d="M152.328 132.199C152.795 134.01 152.675 136.116 151.978 138.129L61.3445 400.884C60.5436 403.209 59.0778 405.213 57.2185 406.526C55.3592 407.84 53.3301 408.306 51.5024 407.836L-154.924 354.978C-156.974 354.455 -158.5 352.803 -159.109 350.452C-159.577 348.644 -159.452 346.535 -158.758 344.522L-68.1234 81.763C-67.3225 79.4385 -65.8568 77.4344 -63.9975 76.1208C-62.1382 74.8072 -60.1091 74.3413 -58.2814 74.8112L148.145 127.669C150.195 128.192 151.721 129.844 152.331 132.192L152.328 132.199ZM-158.404 350.044C-157.856 352.164 -156.479 353.653 -154.631 354.127L51.7962 406.985C53.4419 407.405 55.2719 406.988 56.9466 405.801C58.6225 404.619 59.9452 402.81 60.6656 400.714L151.3 137.955C151.928 136.139 152.039 134.24 151.615 132.611C151.067 130.491 149.69 129.003 147.84 128.532L-58.5869 75.6744C-60.2326 75.2542 -62.0626 75.671 -63.7401 76.8566C-65.4132 78.0398 -66.7343 79.8457 -67.459 81.9438L-158.094 344.703C-158.722 346.519 -158.832 348.418 -158.409 350.047L-158.404 350.044Z" fill="#A1624D"/>
<path d="M156.429 140.704C156.9 142.521 156.757 144.627 156.032 146.636L64.0975 400.671C63.2832 402.923 61.8311 404.844 60.0101 406.084C58.1891 407.325 56.2159 407.729 54.4551 407.232L-144.18 350.885C-146.107 350.34 -147.542 348.747 -148.118 346.519C-148.586 344.703 -148.446 342.597 -147.719 340.584L-55.7845 86.5485C-54.1033 81.9025 -49.7781 78.9589 -46.1437 79.9914L152.488 136.337C154.416 136.882 155.851 138.475 156.426 140.703L156.429 140.704ZM-147.412 346.108C-146.892 348.11 -145.604 349.542 -143.872 350.031L54.7603 406.377C56.3419 406.826 58.1136 406.461 59.75 405.347C61.3864 404.234 62.6926 402.506 63.4237 400.482L155.358 146.447C156.011 144.64 156.138 142.749 155.716 141.116C155.197 139.114 153.908 137.683 152.176 137.193L-46.4575 80.8512C-49.724 79.9238 -53.6081 82.5673 -55.1209 86.7458L-147.056 340.781C-147.708 342.588 -147.835 344.48 -147.413 346.112L-147.412 346.108Z" fill="#A1624D"/>
<path d="M160.529 149.205C161.002 151.024 160.841 153.134 160.079 155.14L66.8424 400.456C65.1333 404.951 60.8988 407.716 57.4029 406.618L-133.437 346.783C-135.24 346.218 -136.588 344.686 -137.133 342.581C-137.605 340.759 -137.445 338.652 -136.681 336.642L-43.4466 91.3299C-41.7376 86.8349 -37.5058 84.0684 -34.0072 85.1676L156.831 145.006C158.634 145.571 159.979 147.102 160.527 149.209L160.529 149.205ZM-136.424 342.171C-135.934 344.055 -134.731 345.43 -133.116 345.935L57.7245 405.77C60.8572 406.752 64.6498 404.274 66.1807 400.247L159.417 154.931C160.101 153.133 160.244 151.244 159.82 149.615C159.332 147.727 158.127 146.356 156.511 145.851L-34.3287 86.0157C-37.463 85.0371 -41.2541 87.5118 -42.785 91.5392L-136.02 336.851C-136.704 338.649 -136.846 340.539 -136.424 342.171Z" fill="#A1624D"/>
<path d="M164.635 157.705C165.109 159.536 164.928 161.647 164.128 163.651L69.5923 400.243C67.857 404.583 63.7131 407.17 60.3514 406.009L-122.697 342.685C-124.375 342.103 -125.634 340.634 -126.149 338.65C-126.623 336.819 -126.442 334.708 -125.641 332.701L-31.1049 96.1092C-29.3695 91.7688 -25.2257 89.1815 -21.8667 90.3415L161.181 153.666C162.86 154.248 164.122 155.718 164.635 157.705ZM-125.439 338.237C-124.98 340.007 -123.856 341.32 -122.357 341.84L60.691 405.164C63.6899 406.201 67.3895 403.892 68.9384 400.016L163.475 163.424C164.188 161.634 164.351 159.748 163.926 158.115C163.467 156.345 162.343 155.032 160.845 154.512L-22.1992 91.1852C-25.1982 90.1482 -28.8977 92.4577 -30.4483 96.3375L-124.984 332.929C-125.7 334.718 -125.861 336.605 -125.436 338.238L-125.439 338.237Z" fill="#A1624D"/>
<path d="M168.739 166.203C169.216 168.044 169.015 170.155 168.173 172.159L72.3357 400.031C71.4831 402.059 70.0731 403.735 68.3631 404.751C66.6574 405.764 64.8571 405.995 63.2962 405.402L-111.957 338.59C-113.54 337.989 -114.682 336.614 -115.172 334.721C-115.648 332.88 -115.446 330.766 -114.605 328.762L-18.7696 100.889C-17.0079 96.7033 -12.9532 94.2907 -9.72996 95.5173L165.523 162.33C167.105 162.935 168.248 164.306 168.738 166.199L168.739 166.203ZM-114.46 334.304C-114.023 335.985 -113.01 337.21 -111.601 337.744L63.6525 404.556C65.0405 405.086 66.6414 404.883 68.1577 403.977C69.6768 403.073 70.9316 401.582 71.6901 399.777L167.523 171.908C168.271 170.128 168.452 168.245 168.026 166.607C167.59 164.927 166.576 163.702 165.169 163.164L-10.0844 96.352C-12.9496 95.2602 -16.5549 97.4056 -18.1247 101.13L-113.962 329.001C-114.713 330.78 -114.891 332.664 -114.468 334.301L-114.46 334.304Z" fill="#A1624D"/>
<path d="M172.863 174.695C173.342 176.545 173.117 178.667 172.232 180.666L75.0923 399.825C73.3028 403.861 69.3373 406.09 66.2539 404.794L-101.218 334.488C-102.679 333.874 -103.736 332.563 -104.194 330.789C-104.676 328.938 -104.448 326.817 -103.563 324.818L-6.42174 105.655C-4.62942 101.621 -0.666679 99.3903 2.41669 100.686L169.886 170.991C171.347 171.606 172.407 172.917 172.864 174.691L172.863 174.695ZM-103.488 330.379C-103.081 331.95 -102.144 333.114 -100.849 333.656L66.6209 403.961C69.3552 405.108 72.8677 403.132 74.4529 399.558L171.593 180.398C172.378 178.629 172.577 176.75 172.152 175.108C171.746 173.537 170.809 172.373 169.513 171.831L2.04385 101.526C-0.690449 100.378 -4.20141 102.351 -5.78971 105.932L-102.93 325.092C-103.714 326.861 -103.914 328.741 -103.487 330.383L-103.488 330.379Z" fill="#A1624D"/>
<path d="M176.974 183.19C177.451 185.031 177.197 187.213 176.276 189.175L77.8344 399.615C76.9522 401.496 75.5722 403.007 73.9392 403.869C72.3088 404.731 70.6241 404.845 69.1961 404.184L-90.4811 330.39C-91.823 329.769 -92.799 328.518 -93.2259 326.866C-93.7026 325.026 -93.4486 322.843 -92.5305 320.88L5.91112 110.44C7.72854 106.556 11.6018 104.508 14.5467 105.87L174.222 179.668C175.564 180.288 176.54 181.54 176.967 183.191L176.974 183.19ZM-92.5156 326.453C-92.1369 327.911 -91.2756 329.018 -90.0922 329.565L69.585 403.36C70.8436 403.942 72.3307 403.844 73.7694 403.08C75.2108 402.317 76.4316 400.985 77.2086 399.323L175.65 188.884C176.461 187.151 176.685 185.222 176.265 183.6C175.887 182.142 175.028 181.035 173.842 180.487L14.1648 106.693C11.567 105.492 8.14599 107.303 6.54118 110.73L-91.9004 321.169C-92.7114 322.902 -92.9354 324.83 -92.5156 326.453Z" fill="#A1624D"/>
<path d="M181.092 191.678C181.573 193.533 181.29 195.72 180.321 197.684L80.5791 399.399C79.6852 401.203 78.3173 402.635 76.7241 403.42C75.1293 404.209 73.5033 404.262 72.1437 403.57L-79.7383 326.288C-80.9628 325.665 -81.8566 324.477 -82.2553 322.938C-82.7355 321.084 -82.4561 318.895 -81.4836 316.933L18.2596 115.214C20.1017 111.488 23.8858 109.614 26.695 111.042L178.577 188.325C179.803 188.952 180.696 190.141 181.094 191.674L181.092 191.678ZM-81.5466 322.529C-81.1949 323.878 -80.4103 324.925 -79.3345 325.473L72.5475 402.756C73.7435 403.363 75.1723 403.318 76.5727 402.626C77.973 401.935 79.1779 400.677 79.9612 399.089L179.704 197.371C180.557 195.646 180.804 193.723 180.382 192.091C180.033 190.743 179.244 189.699 178.168 189.15L26.2865 111.867C23.8171 110.609 20.4902 112.256 18.8685 115.536L-80.8731 317.252C-81.7256 318.976 -81.9746 320.902 -81.5509 322.531L-81.5466 322.529Z" fill="#A1624D"/>
<path d="M185.217 200.167C185.702 202.041 185.392 204.238 184.367 206.196L83.3239 399.191C81.4539 402.766 77.7593 404.456 75.0902 402.959L-68.9995 322.187C-70.1109 321.565 -70.9253 320.439 -71.2946 319.018C-71.7795 317.144 -71.4703 314.947 -70.445 312.99L30.5982 119.994C32.4709 116.421 36.1655 114.73 38.8319 116.226L182.922 196.998C184.033 197.621 184.847 198.747 185.217 200.167ZM-70.5815 318.606C-70.2585 319.851 -69.5463 320.833 -68.5738 321.382L75.5159 402.154C77.8531 403.464 81.0869 401.985 82.7239 398.855L183.764 205.859C184.664 204.145 184.934 202.223 184.509 200.582C184.186 199.337 183.474 198.354 182.501 197.806L38.4117 117.034C36.0772 115.725 32.8434 117.204 31.2037 120.333L-69.8396 313.328C-70.7363 315.042 -71.0061 316.964 -70.5815 318.606Z" fill="#A1624D"/>
<path d="M189.347 208.652C189.839 210.546 189.497 212.751 188.412 214.705L86.0718 398.977C84.1728 402.396 80.5689 403.908 78.0398 402.342L-58.2547 318.082C-59.2684 317.457 -59.9837 316.423 -60.3294 315.097C-60.8218 313.203 -60.4829 310.997 -59.3977 309.043L42.9471 124.768C44.8461 121.349 48.45 119.837 50.9791 121.403L187.272 205.666C188.286 206.291 189.004 207.327 189.347 208.652ZM-59.6234 314.686C-59.3228 315.841 -58.6975 316.742 -57.8141 317.287L78.4804 401.547C80.6838 402.912 83.825 401.594 85.4844 398.612L187.826 214.337C188.773 212.634 189.068 210.714 188.638 209.061C188.337 207.906 187.712 207.006 186.829 206.46L50.5358 122.197C48.3323 120.832 45.1912 122.15 43.5345 125.133L-58.8103 309.407C-59.7551 311.106 -60.0488 313.031 -59.6219 314.682L-59.6234 314.686Z" fill="#A1624D"/>
<path d="M193.481 217.134C193.97 219.027 193.589 221.3 192.456 223.217L88.8135 398.769C86.8854 402.033 83.3738 403.363 80.9832 401.731L-47.5174 313.979C-48.4212 313.361 -49.0657 312.394 -49.3804 311.182C-49.8701 309.289 -49.4889 307.016 -48.3552 305.099L55.2868 129.547C57.2149 126.283 60.7265 124.953 63.1171 126.585L191.619 214.334C192.523 214.952 193.168 215.919 193.481 217.134ZM-48.6701 310.769C-48.3969 311.824 -47.8413 312.662 -47.0538 313.197L81.4468 400.95C83.5208 402.367 86.5677 401.213 88.2397 398.381L191.882 222.829C192.863 221.166 193.198 219.19 192.77 217.548C192.498 216.497 191.94 215.658 191.155 215.124L62.6547 127.371C60.5819 125.959 57.5338 127.108 55.8602 129.944L-47.7846 305.495C-48.7654 307.158 -49.0962 309.131 -48.6717 310.772L-48.6701 310.769Z" fill="#A1624D"/>
<path d="M197.623 225.613C198.122 227.535 197.702 229.822 196.5 231.728L91.5559 398.559C89.5988 401.667 86.1767 402.814 83.9289 401.115L-36.7783 309.877C-37.5752 309.274 -38.1461 308.375 -38.4338 307.272C-38.9305 305.351 -38.511 303.064 -37.312 301.152L67.6316 134.321C69.5887 131.213 73.0109 130.065 75.2587 131.765L195.964 223.006C196.761 223.609 197.333 224.513 197.62 225.612L197.623 225.613ZM-37.7192 306.856C-37.4746 307.807 -36.9777 308.586 -36.2927 309.105L84.4129 400.346C86.3573 401.815 89.3128 400.826 91.0017 398.141L195.944 231.313C196.982 229.665 197.344 227.688 196.915 226.027C196.668 225.076 196.173 224.297 195.486 223.777L74.7802 132.536C72.8357 131.067 69.883 132.057 68.1941 134.743L-36.7495 301.574C-37.7856 303.223 -38.15 305.199 -37.718 306.861L-37.7192 306.856Z" fill="#A1624D"/>
<path d="M201.771 234.089C202.272 236.016 201.799 238.374 200.543 240.245L94.2997 398.353C92.3163 401.306 88.9852 402.267 86.8774 400.498L-26.0374 305.771C-26.7333 305.189 -27.2334 304.357 -27.4913 303.363C-27.9891 301.437 -27.5189 299.078 -26.2631 297.207L79.9821 139.096C81.9654 136.142 85.2965 135.182 87.407 136.952L200.318 231.681C201.013 232.263 201.516 233.096 201.771 234.089ZM-26.7837 302.949C-26.5611 303.801 -26.1311 304.519 -25.5346 305.019L87.3787 399.749C89.1909 401.269 92.0565 400.442 93.7622 397.903L200.006 239.795C201.102 238.163 201.498 236.183 201.061 234.502C200.84 233.646 200.409 232.931 199.812 232.432L86.8988 137.702C85.0865 136.181 82.221 137.009 80.5152 139.548L-25.7284 297.656C-26.8251 299.288 -27.2204 301.268 -26.7837 302.949Z" fill="#A1624D"/>
<path d="M205.93 242.56C206.44 244.524 205.925 246.898 204.587 248.757L97.042 398.144C95.0268 400.941 91.788 401.72 89.8203 399.882L-15.2996 301.667C-15.8934 301.11 -16.3296 300.347 -16.5605 299.461C-17.0705 297.497 -16.5549 295.122 -15.2157 293.26L92.3294 143.873C94.3418 141.075 97.5806 140.296 99.5484 142.134L204.667 240.352C205.262 240.906 205.697 241.673 205.928 242.558L205.93 242.56ZM-15.8487 299.044C-15.6523 299.801 -15.2779 300.454 -14.7683 300.931L90.3501 399.149C92.0329 400.722 94.8057 400.055 96.5269 397.666L204.072 248.278C205.218 246.688 205.657 244.653 205.223 242.974C205.028 242.213 204.654 241.56 204.144 241.084L99.0256 142.865C97.3429 141.293 94.57 141.959 92.8473 144.352L-14.6979 293.74C-15.8415 295.331 -16.2826 297.365 -15.8502 299.048L-15.8487 299.044Z" fill="#A1624D"/>
</g>
</g>
</svg>
