<svg width="300" height="583" viewBox="0 0 300 583" fill="none" xmlns="http://www.w3.org/2000/svg">
<mask id="mask0_30666_2583" style="mask-type:alpha" maskUnits="userSpaceOnUse" x="0" y="0" width="300" height="583">
<rect y="0.0537109" width="299.051" height="582.946" fill="#D9D9D9"/>
</mask>
<g mask="url(#mask0_30666_2583)">
<g opacity="0.8">
<path d="M-149.107 211.18C-148.402 209.418 -147.263 208.064 -145.816 207.267L86.23 79.3251C88.2635 78.2033 90.7015 78.2685 93.0949 79.5087C95.4882 80.7489 97.5486 83.0171 98.8985 85.8904L252.931 413.929C254.671 417.636 254.943 421.764 253.66 424.974C252.956 426.736 251.819 428.089 250.37 428.887L18.3233 556.829C16.2897 557.951 13.8547 557.885 11.4613 556.645C9.06795 555.404 7.00866 553.14 5.65773 550.263L-148.375 222.225C-150.117 218.518 -150.39 214.389 -149.107 211.18ZM252.991 424.426C254.171 421.471 253.92 417.674 252.318 414.262L98.2828 86.2247C97.0425 83.5784 95.1446 81.4937 92.9428 80.3529C90.7411 79.2121 88.499 79.1501 86.6304 80.1863L-145.416 208.128C-146.747 208.862 -147.793 210.106 -148.44 211.729C-149.621 214.683 -149.37 218.48 -147.771 221.893L6.26749 549.93C7.51074 552.576 9.40576 554.661 11.6075 555.802C13.8081 556.939 16.0513 557.004 17.9199 555.968L249.966 428.026C251.3 427.292 252.346 426.047 252.994 424.425L252.991 424.426Z" fill="#A1624D"/>
<path d="M-146.794 201.292C-146.093 199.531 -144.949 198.193 -143.489 197.422L84.5944 76.7823C86.5963 75.7245 88.9791 75.8253 91.3086 77.0696C93.6382 78.3138 95.6319 80.5537 96.9231 83.3721L244.182 404.7C245.825 408.282 246.067 412.258 244.834 415.347C244.13 417.108 242.989 418.446 241.529 419.217L13.4453 539.857C9.31563 542.042 3.78385 539.086 1.11663 533.267L-146.145 211.94C-147.784 208.362 -148.03 204.381 -146.794 201.292ZM244.165 414.798C245.299 411.965 245.075 408.311 243.57 405.025L96.3053 83.6986C95.1217 81.1115 93.2905 79.0553 91.1537 77.9143C89.0158 76.7694 86.827 76.6765 84.99 77.6486L-143.093 198.288C-144.431 198.998 -145.482 200.228 -146.128 201.842C-147.262 204.675 -147.038 208.329 -145.53 211.614L1.73151 532.941C4.18195 538.281 9.25756 540.999 13.0468 538.991L241.132 418.347C242.474 417.64 243.521 416.412 244.167 414.794L244.165 414.798Z" fill="#A1624D"/>
<path d="M-144.479 191.409C-143.774 189.647 -142.629 188.325 -141.158 187.585L82.9651 74.2397C87.0296 72.1867 92.4061 75.1523 94.9521 80.8583L235.44 395.471C236.983 398.927 237.197 402.756 236.011 405.715C235.31 407.477 234.161 408.799 232.691 409.543L8.56725 522.885C6.59709 523.879 4.26827 523.739 2.00262 522.49C-0.260092 521.241 -2.18705 519.03 -3.42265 516.267L-143.91 201.655C-145.452 198.202 -145.666 194.373 -144.482 191.41L-144.479 191.409ZM235.345 405.166C236.429 402.454 236.232 398.944 234.821 395.781L94.3328 81.1685C92.0007 75.9422 87.0737 73.2244 83.3519 75.1076L-140.771 188.453C-142.117 189.132 -143.169 190.345 -143.815 191.959C-144.899 194.671 -144.703 198.181 -143.292 201.341L-2.80156 515.952C-1.6707 518.483 0.0927245 520.507 2.16859 521.652C4.24153 522.797 6.37814 522.925 8.18228 522.013L232.303 408.671C233.649 407.993 234.701 406.78 235.345 405.166Z" fill="#A1624D"/>
<path d="M-142.17 181.518C-141.468 179.757 -140.313 178.449 -138.831 177.736L81.3289 71.6924C83.2663 70.7588 85.544 70.9378 87.7429 72.1908C89.9429 73.4477 91.802 75.6267 92.979 78.3349L226.694 386.241C228.139 389.567 228.323 393.245 227.188 396.083C226.482 397.841 225.33 399.152 223.845 399.865L3.68598 505.909C-0.309219 507.833 -5.53456 504.854 -7.96122 499.266L-141.675 191.364C-143.12 188.038 -143.304 184.36 -142.169 181.522L-142.17 181.518ZM226.522 395.538C227.558 392.943 227.391 389.58 226.069 386.54L92.3547 78.6379C91.2795 76.1622 89.5809 74.1712 87.5718 73.0221C85.5638 71.8768 83.4794 71.7141 81.7109 72.5654L-138.452 178.61C-139.804 179.265 -140.862 180.458 -141.505 182.063C-142.541 184.658 -142.374 188.017 -141.052 191.057L-7.33501 498.958C-5.1174 504.062 -0.343777 506.785 3.30875 505.031L223.469 398.991C224.823 398.34 225.88 397.143 226.522 395.538Z" fill="#A1624D"/>
<path d="M-139.862 171.628C-139.158 169.866 -137.996 168.578 -136.501 167.891L79.6986 69.1494C81.6013 68.2803 83.8268 68.4942 85.96 69.7558C88.0961 71.0168 89.8857 73.168 91.0071 75.8208L217.95 377.012C219.298 380.212 219.457 383.742 218.371 386.458C217.667 388.22 216.506 389.512 215.013 390.194L-1.18652 488.936C-3.09219 489.806 -5.31482 489.592 -7.45094 488.331C-9.58597 487.073 -11.3795 484.919 -12.494 482.269L-139.439 181.083C-140.787 177.882 -140.943 174.352 -139.857 171.635L-139.862 171.628ZM217.702 385.91C218.694 383.435 218.551 380.216 217.322 377.299L90.3794 76.112C89.3609 73.6957 87.7291 71.7331 85.782 70.5843C83.8349 69.4356 81.8066 69.2413 80.0739 70.0319L-136.125 168.774C-137.488 169.394 -138.547 170.571 -139.19 172.176C-140.179 174.65 -140.036 177.869 -138.81 180.787L-11.8674 481.974C-10.8489 484.39 -9.21703 486.353 -7.267 487.501C-5.31991 488.65 -3.29168 488.844 -1.55605 488.053L214.637 389.312C216 388.692 217.058 387.511 217.702 385.91Z" fill="#A1624D"/>
<path d="M-137.558 161.737C-136.853 159.975 -135.682 158.702 -134.177 158.05L78.0628 66.6097C81.9224 64.9438 86.8436 67.9522 89.0298 73.3102L209.203 367.782C210.456 370.852 210.585 374.23 209.549 376.826C208.844 378.587 207.676 379.86 206.165 380.513L-6.07471 471.953C-7.94465 472.762 -10.1173 472.505 -12.1885 471.244C-14.2608 469.979 -15.9847 467.852 -17.0435 465.257L-137.215 170.781C-138.468 167.711 -138.598 164.329 -137.562 161.734L-137.558 161.737ZM208.881 376.281C209.825 373.923 209.706 370.848 208.567 368.054L88.3956 73.5778C86.4067 68.7068 81.9339 65.9755 78.4243 67.4867L-133.815 158.927C-135.183 159.515 -136.25 160.677 -136.891 162.278C-137.835 164.636 -137.716 167.711 -136.577 170.505L-16.4056 464.981C-15.4427 467.342 -13.8746 469.275 -11.9925 470.424C-10.1074 471.573 -8.13314 471.806 -6.43433 471.072L205.806 379.635C207.177 379.047 208.241 377.886 208.882 376.285L208.881 376.281Z" fill="#A1624D"/>
<path d="M-135.251 151.843C-134.547 150.081 -133.368 148.823 -131.847 148.205L76.4296 64.0668C78.269 63.3258 80.3854 63.6146 82.3938 64.8839C84.4023 66.1531 86.0566 68.2519 87.0598 70.7912L200.46 358.553C201.636 361.538 201.736 364.691 200.734 367.205C200.027 368.971 198.85 370.225 197.325 370.839L-10.9501 454.981C-14.7445 456.515 -19.5104 453.497 -21.5784 448.252L-134.978 160.491C-136.156 157.502 -136.256 154.349 -135.249 151.838L-135.251 151.843ZM200.064 366.656C200.976 364.383 200.883 361.523 199.817 358.813L86.4175 71.0521C85.5084 68.751 84.0081 66.8498 82.1868 65.6973C80.3656 64.5448 78.4487 64.2835 76.7815 64.9539L-131.495 149.093C-132.878 149.65 -133.944 150.791 -134.583 152.387C-135.494 154.665 -135.401 157.525 -134.336 160.23L-20.9361 447.992C-19.0636 452.744 -14.7413 455.48 -11.3002 454.09L196.976 369.951C198.359 369.394 199.425 368.252 200.066 366.652L200.064 366.656Z" fill="#A1624D"/>
<path d="M-132.953 141.946C-132.246 140.18 -131.059 138.941 -129.519 138.361L74.797 61.5201C76.6035 60.8392 78.667 61.1714 80.6087 62.4453C82.5515 63.7231 84.142 65.7929 85.0826 68.274L191.711 349.321C192.796 352.179 192.868 355.184 191.915 357.577C191.208 359.343 190.021 360.582 188.482 361.166L-15.8349 438.003C-17.6414 438.684 -19.7039 438.356 -21.6466 437.078C-23.5894 435.8 -25.1799 433.73 -26.1216 431.245L-132.754 150.196C-133.839 147.337 -133.911 144.332 -132.957 141.943L-132.953 141.946ZM191.248 357.036C192.111 354.876 192.044 352.155 191.066 349.574L84.4352 68.5277C83.5847 66.2814 82.1481 64.4092 80.3888 63.2571C78.6325 62.1045 76.7667 61.8043 75.1334 62.4185L-129.182 139.26C-130.575 139.782 -131.649 140.904 -132.288 142.5C-133.151 144.66 -133.085 147.381 -132.107 149.963L-25.4787 431.009C-24.6252 433.255 -23.1886 435.127 -21.4323 436.28C-19.676 437.432 -17.8101 437.733 -16.1769 437.118L188.139 360.277C189.531 359.755 190.606 358.633 191.245 357.037L191.248 357.036Z" fill="#A1624D"/>
<path d="M-130.654 132.052C-129.954 130.308 -128.726 129.048 -127.19 128.519L73.163 58.98C74.9349 58.3637 76.9462 58.7309 78.8251 60.0128C80.7041 61.2947 82.225 63.3367 83.1081 65.7669L182.965 340.103C183.958 342.826 184.006 345.691 183.099 347.959C182.401 349.703 181.17 350.959 179.634 351.492L-20.721 421.032C-22.4929 421.648 -24.5043 421.281 -26.3832 419.999C-28.2621 418.717 -29.783 416.675 -30.6661 414.245L-130.523 139.909C-131.516 137.186 -131.564 134.321 -130.66 132.053L-130.654 132.052ZM182.436 347.413C183.254 345.369 183.21 342.785 182.316 340.328L82.4589 65.9919C81.6622 63.8055 80.2923 61.9618 78.598 60.8095C76.9055 59.6528 75.09 59.3221 73.4936 59.8796L-126.862 129.419C-128.248 129.899 -129.356 131.031 -129.983 132.605C-130.801 134.649 -130.757 137.233 -129.86 139.69L-30.003 414.025C-29.2063 416.212 -27.8364 418.056 -26.141 419.212C-24.4496 420.365 -22.637 420.696 -21.0366 420.142L179.319 350.602C180.705 350.123 181.813 348.99 182.44 347.417L182.436 347.413Z" fill="#A1624D"/>
<path d="M-128.356 122.151C-127.655 120.398 -126.414 119.165 -124.862 118.67L71.5309 56.4324C73.2711 55.8802 75.2284 56.2867 77.0435 57.5728C78.8586 58.8588 80.311 60.8768 81.1373 63.2477L174.224 330.872C175.128 333.468 175.152 336.189 174.291 338.337C173.589 340.086 172.349 341.323 170.794 341.818L-25.5983 404.056C-29.1899 405.194 -33.4995 402.137 -35.2018 397.24L-128.287 129.619C-129.192 127.023 -129.215 124.302 -128.355 122.155L-128.356 122.151ZM173.626 337.791C174.398 335.859 174.377 333.415 173.565 331.083L80.4791 63.4621C79.7379 61.3311 78.4329 59.5202 76.8024 58.3639C75.1719 57.2075 73.4115 56.8414 71.8479 57.3387L-124.545 119.576C-125.94 120.02 -127.055 121.13 -127.685 122.703C-128.457 124.635 -128.436 127.08 -127.624 129.412L-34.5355 397.032C-33.0051 401.434 -29.1351 404.178 -25.9043 403.155L170.488 340.918C171.884 340.474 172.999 339.365 173.629 337.791L173.626 337.791Z" fill="#A1624D"/>
<path d="M-126.062 112.252C-125.363 110.495 -124.107 109.28 -122.533 108.83L69.8993 53.8943C73.4257 52.8885 77.5812 55.9584 79.1612 60.7391L165.476 321.649C166.291 324.113 166.294 326.693 165.482 328.724C164.779 330.481 163.526 331.696 161.949 332.146L-30.4802 387.081C-34.0066 388.087 -38.1609 385.021 -39.7421 380.237L-126.054 119.326C-126.869 116.862 -126.871 114.286 -126.059 112.251L-126.062 112.252ZM164.815 328.175C165.541 326.355 165.543 324.047 164.811 321.84L78.4964 60.93C77.0795 56.647 73.3569 53.8985 70.1976 54.8001L-122.235 109.736C-123.646 110.137 -124.769 111.228 -125.396 112.801C-126.125 114.621 -126.123 116.929 -125.392 119.136L-39.0773 380.046C-37.6574 384.328 -33.9378 387.077 -30.7785 386.176L161.651 331.24C163.062 330.839 164.185 329.749 164.815 328.175Z" fill="#A1624D"/>
<path d="M-123.773 102.347C-123.067 100.581 -121.799 99.3883 -120.203 98.984L68.2668 51.3503C71.7251 50.4776 75.7264 53.5609 77.1883 58.228L156.732 312.427C157.461 314.759 157.442 317.195 156.678 319.109C155.972 320.875 154.703 322.068 153.105 322.472L-35.3649 370.106C-38.8232 370.979 -42.8245 367.896 -44.2853 363.232L-123.829 109.033C-124.558 106.701 -124.54 104.262 -123.773 102.347ZM156.009 318.56C156.691 316.852 156.708 314.678 156.058 312.595L76.5139 58.3959C75.2105 54.2316 71.6383 51.4787 68.5505 52.259L-119.919 99.8927C-121.344 100.256 -122.478 101.319 -123.107 102.896C-123.789 104.604 -123.806 106.779 -123.156 108.861L-43.616 363.057C-42.3126 367.222 -38.7404 369.974 -35.6496 369.194L152.82 321.56C154.246 321.201 155.379 320.134 156.008 318.556L156.009 318.56Z" fill="#A1624D"/>
<path d="M-121.481 92.4427C-120.771 90.6674 -119.49 89.497 -117.869 89.1415L66.6411 48.8094C68.2832 48.4499 70.0803 48.9702 71.7032 50.2769C73.3219 51.5803 74.5713 53.5136 75.2209 55.7161L147.993 303.201C148.651 305.434 148.611 307.671 147.881 309.496C147.171 311.271 145.887 312.442 144.266 312.798L-40.243 353.134C-43.6331 353.873 -47.4832 350.777 -48.8228 346.227L-121.595 98.7428C-122.25 96.5083 -122.213 94.2719 -121.483 92.4472L-121.481 92.4427ZM147.209 308.948C147.856 307.326 147.894 305.337 147.307 303.35L74.5352 55.8655C73.9592 53.9052 72.8495 52.1847 71.4079 51.0289C69.9652 49.8692 68.3664 49.4056 66.9052 49.726L-117.601 90.0614C-119.041 90.3778 -120.185 91.4182 -120.815 93.0003C-121.463 94.6228 -121.501 96.6112 -120.917 98.599L-48.1449 346.083C-46.9549 350.129 -43.5313 352.882 -40.5138 352.227L143.996 311.895C145.438 311.582 146.58 310.538 147.212 308.96L147.209 308.948Z" fill="#A1624D"/>
<path d="M-119.185 82.5427C-118.471 80.7585 -117.17 79.609 -115.524 79.3067L65.0022 46.2756C68.3267 45.6687 72.0205 48.7823 73.2348 53.2157L139.229 293.969C139.804 296.07 139.746 298.165 139.061 299.874C138.348 301.662 137.046 302.807 135.4 303.11L-45.1293 336.141C-48.4548 336.744 -52.1476 333.635 -53.3618 329.201L-119.355 88.4519C-119.93 86.3509 -119.873 84.2516 -119.188 82.5433L-119.185 82.5427ZM138.396 299.329C139.002 297.813 139.054 295.955 138.543 294.094L72.5496 53.3444C71.472 49.4137 68.1992 46.6569 65.2546 47.1943L-115.272 80.2254C-116.73 80.4913 -117.882 81.5087 -118.516 83.0912C-119.122 84.6063 -119.174 86.465 -118.663 88.3261L-52.6697 329.075C-51.5922 333.006 -48.3223 335.763 -45.3718 335.225L135.155 302.194C136.612 301.928 137.765 300.911 138.398 299.324L138.396 299.329Z" fill="#A1624D"/>
<path d="M-116.902 72.6317C-116.192 70.8565 -114.84 69.7012 -113.191 69.4645L63.3755 43.7345C64.9552 43.507 66.643 44.1021 68.1332 45.422C69.6223 46.738 70.7351 48.6148 71.2646 50.7081L130.488 284.747C130.985 286.714 130.909 288.677 130.272 290.268C129.562 292.043 128.209 293.199 126.562 293.439L-50.005 319.169C-53.2642 319.644 -56.801 316.516 -57.893 312.2L-117.113 78.1601C-117.611 76.193 -117.535 74.2305 -116.897 72.639L-116.902 72.6317ZM129.603 289.72C130.164 288.312 130.233 286.579 129.794 284.844L70.5707 50.8053C70.1041 48.9604 69.1231 47.302 67.8075 46.1426C66.4909 44.9793 65.0006 44.4493 63.6062 44.6533L-112.961 70.3833C-114.415 70.5948 -115.61 71.6162 -116.236 73.1808C-116.798 74.5881 -116.868 76.3177 -116.427 78.0561L-57.2043 312.095C-56.2412 315.903 -53.1159 318.664 -50.2398 318.247L126.327 292.517C127.781 292.306 128.976 291.284 129.603 289.72Z" fill="#A1624D"/>
<path d="M-114.627 62.7171C-113.912 60.9284 -112.539 59.8022 -110.859 59.6215L61.7455 41.1931C63.2906 41.0302 64.9273 41.6642 66.3507 42.9888C67.7771 44.3128 68.8203 46.1618 69.2902 48.1963L121.742 275.521C122.165 277.354 122.072 279.179 121.479 280.663C120.764 282.451 119.392 283.582 117.711 283.758L-54.8962 302.187C-58.0844 302.528 -61.47 299.388 -62.4409 295.184L-114.893 67.8591C-115.314 66.0219 -115.221 64.1968 -114.63 62.7176L-114.627 62.7171ZM120.813 280.114C121.332 278.81 121.415 277.206 121.045 275.594L68.5927 48.2694C68.1787 46.4804 67.2626 44.855 66.0108 43.6915C64.7591 42.528 63.3192 41.9675 61.9616 42.1148L-110.646 60.5438C-112.121 60.7015 -113.328 61.692 -113.958 63.2656C-114.478 64.5656 -114.557 66.1731 -114.187 67.7843L-61.7346 295.109C-60.8828 298.807 -57.906 301.567 -55.0995 301.267L117.505 282.839C118.981 282.681 120.19 281.69 120.817 280.117L120.813 280.114Z" fill="#A1624D"/>
<path d="M-112.354 52.8003C-111.631 50.9937 -110.235 49.8921 -108.525 49.7798L60.1203 38.6524C63.2432 38.4443 66.4729 41.6024 67.3186 45.6897L113 266.304C113.353 268.006 113.245 269.698 112.698 271.069C111.975 272.876 110.58 273.977 108.869 274.089L-59.7762 285.217C-62.9002 285.421 -66.1299 282.263 -66.9746 278.18L-112.656 57.5649C-113.009 55.8633 -112.901 54.1717 -112.354 52.8003ZM112.028 270.516C112.507 269.315 112.601 267.837 112.294 266.346L66.6124 45.7314C65.8711 42.1532 63.0447 39.3884 60.3107 39.5708L-108.333 50.7021C-109.832 50.7981 -111.052 51.7624 -111.686 53.3449C-112.165 54.5461 -112.259 56.024 -111.952 57.5154L-66.2705 278.13C-65.5303 281.704 -62.7039 284.469 -59.9688 284.291L108.676 273.163C110.174 273.063 111.394 272.099 112.028 270.516Z" fill="#A1624D"/>
<path d="M-110.09 42.8764C-109.36 41.0479 -107.94 39.9788 -106.194 39.9382L58.4873 36.1086C61.5431 36.0376 64.6187 39.2089 65.3393 43.1798L104.25 257.08C104.54 258.67 104.42 260.186 103.91 261.468C103.181 263.296 101.762 264.369 100.016 264.41L-64.6695 268.236C-67.7253 268.307 -70.8009 265.136 -71.5214 261.165L-110.429 47.2636C-110.72 45.674 -110.601 44.154 -110.09 42.8764ZM103.245 260.922C103.69 259.807 103.792 258.484 103.54 257.098L64.6294 43.1975C64.0016 39.7379 61.3208 36.9739 58.6542 37.0315L-106.03 40.8617C-107.552 40.896 -108.787 41.8301 -109.423 43.4255C-109.868 44.5414 -109.971 45.8639 -109.718 47.2499L-70.8105 261.151C-70.1826 264.611 -67.5019 267.375 -64.8364 267.313L99.8493 263.487C101.368 263.453 102.605 262.514 103.242 260.923L103.245 260.922Z" fill="#A1624D"/>
<path d="M-107.826 32.949C-107.096 31.1244 -105.614 30.0556 -103.857 30.0958L56.8647 33.5674C59.8535 33.6334 62.7721 36.8187 63.3704 40.6727L95.5078 247.863C95.7336 249.321 95.6063 250.71 95.1395 251.88C94.4092 253.705 92.9273 254.773 91.171 254.733L-69.5511 251.262C-72.5399 251.196 -75.4585 248.01 -76.0568 244.156L-108.197 36.9661C-108.423 35.5087 -108.296 34.1193 -107.826 32.949ZM94.4703 251.331C94.8773 250.314 94.9891 249.114 94.7911 247.845L62.6536 40.6544C62.1352 37.3101 59.6029 34.5462 57.01 34.4903L-103.712 31.0188C-105.234 30.987 -106.524 31.911 -107.157 33.4975C-107.562 34.5106 -107.673 35.7148 -107.476 36.9793L-75.3382 244.17C-74.8179 247.51 -72.2875 250.278 -69.6916 250.333L91.0316 253.809C92.5535 253.841 93.8396 252.913 94.4732 251.331L94.4703 251.331Z" fill="#A1624D"/>
<path d="M-105.568 23.0181C-104.828 21.1626 -103.314 20.1291 -101.521 20.2572L55.2412 31.03C58.1629 31.2331 60.9256 34.4361 61.3976 38.1699L86.7667 238.646C86.9337 239.97 86.7979 241.228 86.3735 242.295C85.6322 244.146 84.1188 245.18 82.3249 245.06L-74.4376 234.288C-77.3593 234.084 -80.122 230.881 -80.594 227.148L-105.96 26.6711C-106.127 25.3471 -105.99 24.0839 -105.567 23.022L-105.568 23.0181ZM85.7003 241.743C86.0678 240.828 86.1845 239.735 86.0412 238.596L60.6751 38.1197C60.266 34.8906 57.8813 32.123 55.3579 31.9502L-101.402 21.1769C-102.951 21.0678 -104.259 21.9621 -104.9 23.5627C-105.266 24.4814 -105.384 25.5711 -105.24 26.7135L-79.8737 227.19C-79.4646 230.419 -77.0809 233.183 -74.5576 233.355L82.205 244.128C83.7535 244.233 85.0622 243.343 85.7021 241.739L85.7003 241.743Z" fill="#A1624D"/>
<path d="M-103.321 13.0763C-102.579 11.2163 -100.993 10.1978 -99.1861 10.41L53.614 28.4845C56.4675 28.8207 59.0713 32.0422 59.4182 35.6596L78.0169 229.425C78.1322 230.619 77.989 231.751 77.606 232.71C76.8628 234.566 75.2782 235.588 73.471 235.376L-79.3321 217.302C-82.1856 216.966 -84.7894 213.744 -85.1373 210.123L-103.732 16.3608C-103.847 15.1673 -103.705 14.0315 -103.321 13.0763ZM76.9378 232.165C77.2655 231.341 77.3904 230.365 77.2916 229.343L58.6957 35.5763C58.3972 32.4664 56.1569 29.6956 53.7032 29.406L-99.097 11.3315C-100.674 11.145 -102.005 12.0024 -102.652 13.6248C-102.982 14.4498 -103.104 15.4245 -103.006 16.4475L-84.4097 210.214C-84.1112 213.324 -81.871 216.094 -79.4172 216.384L73.383 234.459C74.9602 234.645 76.2906 233.788 76.9378 232.165Z" fill="#A1624D"/>
<path d="M-101.077 3.13305C-100.32 1.23713 -98.6991 0.257242 -96.8478 0.572591L51.9928 25.9483C54.7803 26.4255 57.227 29.6609 57.4487 33.162L69.2761 220.213C69.3414 221.272 69.196 222.284 68.8553 223.14C68.0985 225.036 66.4773 226.016 64.623 225.701L-84.2175 200.325C-87.0039 199.852 -89.4507 196.617 -89.6723 193.116L-101.497 6.06365C-101.565 5.00582 -101.417 3.99284 -101.076 3.13698L-101.077 3.13305ZM68.1831 222.592C68.475 221.861 68.5989 220.994 68.5416 220.087L56.7172 33.0349C56.528 30.0403 54.4334 27.2702 52.0522 26.8631L-96.7883 1.4874C-98.3738 1.21565 -99.7606 2.05916 -100.409 3.67766C-100.704 4.40886 -100.828 5.27648 -100.77 6.18344L-88.9459 193.235C-88.7568 196.23 -86.6622 199 -84.278 199.407L64.5625 224.782C66.1469 225.05 67.5348 224.211 68.1861 222.591L68.1831 222.592Z" fill="#A1624D"/>
</g>
</g>
</svg>
