<svg width="474" height="1067" viewBox="0 0 474 1067" fill="none" xmlns="http://www.w3.org/2000/svg">
<g opacity="0.8">
<path d="M-262.066 448.372C-260.795 445.35 -258.779 443.016 -256.244 441.625L150.367 218.442C153.931 216.485 158.165 216.546 162.291 218.614C166.416 220.681 169.936 224.511 172.205 229.387L431.1 786.147C434.024 792.439 434.387 799.48 432.072 804.986C430.801 808.007 428.79 810.341 426.251 811.733L19.6388 1034.92C16.0754 1036.87 11.8461 1036.81 7.72052 1034.74C3.59493 1032.68 0.0771363 1028.85 -2.19347 1023.97L-261.089 467.21C-264.018 460.918 -264.381 453.877 -262.066 448.372ZM430.924 804.063C433.054 798.996 432.718 792.52 430.026 786.729L171.126 229.971C169.042 225.479 165.799 221.96 162.004 220.058C158.209 218.156 154.315 218.097 151.04 219.904L-255.572 443.087C-257.904 444.366 -259.755 446.513 -260.923 449.296C-263.053 454.363 -262.717 460.839 -260.03 466.631L-1.12509 1023.39C0.964605 1027.88 4.20176 1031.4 7.99702 1033.3C11.7905 1035.2 15.6864 1035.26 18.9609 1033.45L425.573 810.272C427.91 808.991 429.761 806.845 430.929 804.062L430.924 804.063Z" fill="#A1624D"/>
<path d="M-257.972 431.297C-256.706 428.276 -254.682 425.968 -252.125 424.622L147.406 213.985C150.913 212.138 155.05 212.261 159.065 214.337C163.079 216.413 166.484 220.195 168.652 224.979L415.956 770.424C418.715 776.504 419.031 783.287 416.806 788.584C415.535 791.606 413.516 793.913 410.96 795.259L11.4284 1005.9C4.19441 1009.71 -5.33866 1004.78 -9.818 994.902L-257.127 449.458C-259.879 443.384 -260.201 436.595 -257.972 431.297ZM415.658 787.661C417.703 782.802 417.411 776.569 414.884 770.992L167.57 225.549C165.583 221.158 162.456 217.686 158.773 215.782C155.089 213.872 151.288 213.759 148.07 215.456L-251.461 426.093C-253.804 427.332 -255.662 429.452 -256.828 432.22C-258.874 437.08 -258.582 443.312 -256.05 448.889L-8.7409 994.333C-4.62547 1003.4 4.12131 1007.93 10.759 1004.43L410.293 793.781C412.643 792.548 414.496 790.429 415.661 787.654L415.658 787.661Z" fill="#A1624D"/>
<path d="M-253.884 414.224C-252.613 411.202 -250.588 408.922 -248.011 407.628L144.442 209.53C151.559 205.941 160.823 210.893 165.094 220.58L400.821 754.7C403.41 760.568 403.679 767.1 401.541 772.176C400.275 775.197 398.244 777.478 395.669 778.778L3.21402 976.87C-0.23582 978.607 -4.27859 978.416 -8.1821 976.332C-12.0805 974.247 -15.3698 970.512 -17.4432 965.821L-253.17 431.7C-255.757 425.839 -256.026 419.307 -253.89 414.225L-253.884 414.224ZM400.398 771.252C402.353 766.601 402.105 760.613 399.737 755.243L164.01 221.122C160.097 212.249 151.608 207.712 145.091 211.003L-247.362 409.102C-249.719 410.288 -251.58 412.38 -252.746 415.148C-254.702 419.8 -254.454 425.788 -252.087 431.151L-16.3556 965.271C-14.458 969.568 -11.4479 972.986 -7.87137 974.897C-4.29999 976.809 -0.590816 976.983 2.56834 975.389L395.019 777.298C397.376 776.112 399.236 774.02 400.398 771.252Z" fill="#A1624D"/>
<path d="M-249.798 397.143C-248.532 394.122 -246.489 391.867 -243.895 390.619L141.478 205.066C144.869 203.432 148.822 203.691 152.609 205.784C156.399 207.884 159.571 211.565 161.544 216.164L385.681 738.977C388.103 744.625 388.325 750.899 386.276 755.767C385.003 758.782 382.967 761.043 380.368 762.292L-5.00459 947.845C-11.9979 951.211 -20.998 946.235 -25.0656 936.746L-249.201 413.939C-251.623 408.292 -251.845 402.017 -249.796 397.15L-249.798 397.143ZM385.135 754.85C387.004 750.399 386.802 744.662 384.586 739.5L160.451 216.694C158.649 212.49 155.75 209.127 152.29 207.207C148.831 205.293 145.214 205.059 142.118 206.548L-243.259 392.102C-245.627 393.248 -247.497 395.307 -248.657 398.06C-250.526 402.511 -250.326 408.241 -248.11 413.403L-23.9693 936.208C-20.2521 944.874 -12.03 949.423 -5.63668 946.354L379.738 760.808C382.107 759.668 383.975 757.603 385.135 754.85Z" fill="#A1624D"/>
<path d="M-245.712 380.063C-244.44 377.041 -242.388 374.819 -239.772 373.616L138.525 200.608C141.855 199.086 145.716 199.405 149.389 201.514C153.067 203.623 156.119 207.258 157.997 211.763L370.546 723.253C372.803 728.688 372.984 734.71 371.026 739.37C369.754 742.392 367.704 744.621 365.091 745.816L-13.2061 918.824C-16.5405 920.347 -20.3968 920.027 -24.0749 917.919C-27.7512 915.817 -30.8103 912.176 -32.6761 907.676L-245.229 396.193C-247.486 390.758 -247.662 384.735 -245.703 380.075L-245.712 380.063ZM369.877 738.447C371.667 734.202 371.504 728.711 369.446 723.757L156.899 212.273C155.193 208.169 152.41 204.853 149.057 202.932C145.705 201.011 142.186 200.722 139.154 202.107L-239.143 375.115C-241.527 376.201 -243.398 378.232 -244.558 380.985C-246.343 385.229 -246.18 390.72 -244.127 395.675L-31.5796 907.159C-29.8742 911.263 -27.091 914.579 -23.7332 916.499C-20.3806 918.419 -16.8615 918.709 -13.8246 917.323L364.462 744.317C366.846 743.231 368.716 741.194 369.877 738.447Z" fill="#A1624D"/>
<path d="M-241.629 362.983C-240.358 359.961 -238.288 357.764 -235.655 356.621L135.566 196.158C142.317 193.235 150.787 198.268 154.443 207.369L355.408 707.53C357.503 712.744 357.637 718.508 355.768 722.96C354.497 725.981 352.433 728.178 349.789 729.323L-21.4319 889.786C-24.7026 891.205 -28.4709 890.811 -32.0362 888.701C-35.6032 886.584 -38.542 882.99 -40.3127 878.583L-241.274 378.414C-243.369 373.2 -243.505 367.429 -241.636 362.978L-241.629 362.983ZM354.621 722.044C356.325 717.999 356.201 712.753 354.296 708.007L153.334 207.839C150.008 199.565 142.309 194.995 136.171 197.647L-235.051 358.11C-237.444 359.142 -239.328 361.147 -240.484 363.892C-242.187 367.937 -242.063 373.183 -240.159 377.929L-39.1969 878.098C-37.5867 882.108 -34.9135 885.376 -31.6737 887.298C-28.4288 889.219 -25.0046 889.577 -22.0332 888.289L349.19 727.833C351.588 726.8 353.467 724.796 354.623 722.05L354.621 722.044Z" fill="#A1624D"/>
<path d="M-237.546 345.897C-236.275 342.875 -234.193 340.703 -231.534 339.618L132.606 191.701C135.822 190.398 139.492 190.847 142.948 192.972C146.404 195.097 149.223 198.646 150.898 202.959L340.272 691.806C342.237 696.878 342.327 702.257 340.517 706.569C339.243 709.599 337.165 711.763 334.498 712.843L-29.6402 860.766C-36.2741 863.462 -44.4749 858.409 -47.9285 849.5L-237.302 360.653C-239.269 355.575 -239.359 350.196 -237.543 345.889L-237.546 345.897ZM339.369 705.647C341.014 701.747 340.929 696.867 339.149 692.265L149.775 203.418C148.257 199.509 145.701 196.295 142.567 194.365C139.433 192.436 136.109 192.029 133.194 193.208L-230.946 341.125C-233.364 342.105 -235.246 344.075 -236.399 346.812C-238.043 350.718 -237.957 355.599 -236.179 360.195L-46.8056 849.041C-43.6786 857.115 -36.241 861.696 -30.2247 859.251L333.916 711.334C336.334 710.354 338.216 708.385 339.372 705.639L339.369 705.647Z" fill="#A1624D"/>
<path d="M-233.475 328.806C-232.201 325.777 -230.105 323.637 -227.412 322.616L129.65 187.237C132.808 186.038 136.384 186.562 139.724 188.697C143.066 190.838 145.774 194.338 147.343 198.553L325.129 676.078C326.939 680.934 326.983 686.062 325.263 690.167C323.989 693.196 321.893 695.336 319.202 696.364L-37.8624 831.736C-41.0196 832.935 -44.5944 832.418 -47.9361 830.277C-51.2778 828.136 -53.9863 824.635 -55.5563 820.413L-233.349 342.883C-235.16 338.027 -235.204 332.898 -233.482 328.801L-233.475 328.806ZM324.119 689.258C325.675 685.552 325.632 680.909 324.002 676.523L146.211 199C144.793 195.183 142.347 192.017 139.321 190.087C136.3 188.156 133.065 187.682 130.211 188.764L-226.852 324.142C-229.286 325.062 -231.182 327 -232.335 329.738C-233.892 333.443 -233.849 338.086 -232.219 342.472L-54.4329 819.997C-53.0098 823.812 -50.5635 826.978 -47.5424 828.909C-44.5214 830.841 -41.2873 831.315 -38.4331 830.232L318.63 694.854C321.064 693.934 322.96 691.996 324.113 689.259L324.119 689.258Z" fill="#A1624D"/>
<path d="M-229.406 311.721C-228.143 308.729 -225.976 306.554 -223.293 305.619L126.689 182.786C129.785 181.698 133.27 182.283 136.5 184.432C139.731 186.581 142.319 190.035 143.789 194.165L309.989 660.374C311.641 665.002 311.648 669.892 310.011 673.782C308.753 676.773 306.579 678.943 303.898 679.885L-46.0897 802.718C-49.185 803.807 -52.6701 803.222 -55.9007 801.072C-59.1313 798.923 -61.7196 795.469 -63.1893 791.339L-229.389 325.13C-231.041 320.502 -231.048 315.613 -229.417 311.723L-229.406 311.721ZM308.875 672.865C310.35 669.358 310.342 664.948 308.855 660.772L142.655 194.563C141.329 190.847 138.998 187.729 136.084 185.797C133.174 183.857 130.029 183.33 127.24 184.315L-222.748 307.148C-225.169 307.995 -227.125 309.952 -228.256 312.65C-229.732 316.156 -229.724 320.567 -228.231 324.742L-62.0313 790.951C-60.7052 794.666 -58.3741 797.785 -55.4589 799.724C-52.5507 801.657 -49.41 802.184 -46.6144 801.206L303.373 678.372C305.794 677.525 307.75 675.568 308.882 672.87L308.875 672.865Z" fill="#A1624D"/>
<path d="M-225.337 294.623C-224.072 291.616 -221.882 289.486 -219.172 288.609L123.734 178.321C126.773 177.343 130.163 177.996 133.282 180.154C136.402 182.312 138.872 185.726 140.244 189.756L294.858 644.65C296.361 649.062 296.329 653.705 294.777 657.389C293.51 660.389 291.322 662.526 288.607 663.404L-54.2991 773.692C-60.5702 775.709 -67.9769 770.58 -70.8043 762.256L-225.417 307.369C-226.919 302.957 -226.887 298.313 -225.335 294.629L-225.337 294.623ZM293.635 656.472C295.028 653.159 295.057 648.987 293.707 645.023L139.095 190.136C137.864 186.514 135.645 183.45 132.842 181.509C130.04 179.569 126.991 178.981 124.261 179.862L-218.646 290.149C-221.083 290.936 -223.05 292.853 -224.186 295.552C-225.579 298.866 -225.608 303.038 -224.258 307.002L-69.641 761.888C-67.0992 769.369 -60.4478 773.974 -54.8068 772.161L288.1 661.874C290.537 661.087 292.504 659.17 293.64 656.471L293.635 656.472Z" fill="#A1624D"/>
<path d="M-221.276 277.527C-220.013 274.513 -217.799 272.413 -215.052 271.613L120.779 173.871C126.933 172.081 134.071 177.235 136.69 185.363L279.716 628.934C281.066 633.123 281.002 637.528 279.537 641.011C278.269 644.025 276.06 646.124 273.308 646.925L-62.5174 744.667C-68.6717 746.456 -75.8084 741.309 -78.4283 733.174L-221.449 289.602C-222.8 285.413 -222.734 281.015 -221.271 277.526L-221.276 277.527ZM278.394 640.087C279.703 636.966 279.767 633.026 278.555 629.274L135.529 185.703C133.181 178.421 126.786 173.806 121.273 175.411L-214.558 273.153C-217.02 273.868 -219.001 275.752 -220.132 278.45C-221.447 281.572 -221.506 285.511 -220.294 289.263L-77.268 732.835C-74.9151 740.115 -68.5252 744.731 -63.0116 743.127L272.814 645.385C275.276 644.67 277.257 642.786 278.394 640.087Z" fill="#A1624D"/>
<path d="M-217.219 260.424C-215.945 257.394 -213.71 255.332 -210.926 254.609L117.824 169.413C123.856 167.852 130.727 173.032 133.142 180.968L264.582 613.224C265.787 617.19 265.689 621.347 264.31 624.63C263.035 627.659 260.8 629.722 258.012 630.446L-70.7383 715.642C-76.7706 717.203 -83.641 712.023 -86.0549 704.093L-217.495 271.837C-218.7 267.872 -218.603 263.708 -217.219 260.424ZM263.162 623.707C264.393 620.778 264.481 617.066 263.406 613.525L131.966 181.269C129.812 174.187 123.679 169.562 118.293 170.958L-210.458 256.155C-212.943 256.803 -214.941 258.642 -216.076 261.348C-217.307 264.277 -217.395 267.989 -216.321 271.53L-84.8875 703.781C-82.7336 710.862 -76.6001 715.487 -71.2088 714.09L257.541 628.894C260.028 628.252 262.025 626.406 263.16 623.701L263.162 623.707Z" fill="#A1624D"/>
<path d="M-213.163 243.321C-211.882 240.276 -209.626 238.252 -206.798 237.611L114.876 164.96C117.739 164.312 120.848 165.163 123.633 167.36C126.411 169.552 128.53 172.826 129.6 176.572L249.453 597.506C250.537 601.305 250.408 605.124 249.09 608.254C247.809 611.299 245.547 613.324 242.72 613.965L-78.9524 686.623C-84.8626 687.955 -91.4701 682.75 -93.6765 675.011L-213.529 254.077C-214.608 250.276 -214.484 246.458 -213.166 243.329L-213.163 243.321ZM247.936 607.333C249.104 604.55 249.224 601.155 248.257 597.775L128.405 176.841C127.456 173.507 125.574 170.593 123.1 168.65C120.624 166.7 117.858 165.942 115.311 166.519L-206.357 239.176C-208.869 239.746 -210.883 241.545 -212.021 244.259C-213.189 247.042 -213.308 250.436 -212.347 253.817L-92.4947 674.751C-90.5347 681.633 -84.6593 686.261 -79.3988 685.08L242.276 612.429C244.789 611.866 246.802 610.059 247.942 607.353L247.936 607.333Z" fill="#A1624D"/>
<path d="M-209.11 226.217C-207.823 223.157 -205.53 221.168 -202.663 220.618L111.914 160.508C117.707 159.404 124.042 164.642 126.034 172.185L234.295 581.784C235.238 585.358 235.082 588.936 233.846 591.866C232.56 594.933 230.265 596.916 227.398 597.466L-87.1835 657.576C-92.9783 658.674 -99.3121 653.442 -101.304 645.9L-209.563 236.308C-210.506 232.733 -210.352 229.148 -209.115 226.218L-209.11 226.217ZM232.704 590.95C233.797 588.351 233.938 585.177 233.099 582.011L124.84 172.419C123.072 165.732 117.459 161.093 112.328 162.071L-202.249 222.181C-204.789 222.665 -206.819 224.425 -207.962 227.14C-209.055 229.738 -209.196 232.912 -208.357 236.078L-100.098 645.67C-98.3303 652.358 -92.7218 656.997 -87.5804 656.017L226.996 595.907C229.536 595.423 231.566 593.663 232.708 590.942L232.704 590.95Z" fill="#A1624D"/>
<path d="M-205.065 209.103C-203.784 206.058 -201.403 204.058 -198.532 203.62L108.969 156.055C111.72 155.634 114.637 156.615 117.191 158.838C119.744 161.053 121.627 164.234 122.492 167.796L219.165 566.073C219.977 569.421 219.793 572.772 218.643 575.502C217.362 578.547 214.981 580.547 212.112 580.992L-95.3891 628.557C-101.065 629.434 -107.128 624.168 -108.91 616.822L-205.579 218.544C-206.391 215.197 -206.206 211.845 -205.056 209.115L-205.065 209.103ZM217.495 574.58C218.508 572.166 218.674 569.205 217.957 566.253L121.283 167.977C120.522 164.837 118.861 162.026 116.606 160.074C114.349 158.116 111.774 157.242 109.345 157.619L-198.156 205.184C-200.688 205.575 -202.792 207.343 -203.922 210.027C-204.935 212.44 -205.103 215.394 -204.384 218.353L-107.711 616.63C-106.139 623.11 -100.781 627.758 -95.7725 626.987L211.728 579.422C214.261 579.031 216.365 577.263 217.495 574.58Z" fill="#A1624D"/>
<path d="M-201.036 191.984C-199.745 188.916 -197.329 186.965 -194.406 186.622L106.014 151.603C108.704 151.293 111.531 152.341 113.969 154.573C116.412 156.804 118.176 159.938 118.938 163.401L204.024 550.357C204.711 553.477 204.501 556.594 203.431 559.139C202.14 562.207 199.725 564.164 196.801 564.501L-103.625 599.521C-109.174 600.168 -114.974 594.878 -116.549 587.723L-201.635 200.767C-202.318 197.64 -202.108 194.522 -201.041 191.985L-201.036 191.984ZM202.288 558.215C203.225 555.979 203.412 553.239 202.81 550.496L117.724 163.541C117.052 160.495 115.504 157.74 113.36 155.78C111.215 153.819 108.728 152.892 106.365 153.172L-194.061 188.192C-196.628 188.492 -198.752 190.208 -199.888 192.907C-200.827 195.136 -201.007 197.882 -200.406 200.625L-115.319 587.58C-113.938 593.874 -108.839 598.525 -103.954 597.955L196.467 562.936C199.035 562.636 201.163 560.919 202.294 558.221L202.288 558.215Z" fill="#A1624D"/>
<path d="M-197.008 174.859C-195.703 171.76 -193.249 169.851 -190.274 169.624L103.072 147.149C108.504 146.729 114.032 152.053 115.393 159.013L188.893 534.653C189.461 537.551 189.227 540.441 188.241 542.793C186.936 545.892 184.482 547.801 181.506 548.028L-111.839 570.503C-117.273 570.916 -122.801 565.592 -124.16 558.639L-197.66 182.998C-198.228 180.101 -197.995 177.211 -197.008 174.859ZM187.09 541.864C187.956 539.803 188.158 537.279 187.665 534.739L114.164 159.099C112.971 153.006 108.134 148.345 103.378 148.713L-189.965 171.194C-192.572 171.389 -194.718 173.06 -195.861 175.775C-196.727 177.835 -196.928 180.36 -196.436 182.899L-122.935 558.54C-121.744 564.626 -116.906 569.287 -112.149 568.926L181.196 546.451C183.801 546.249 185.947 544.578 187.09 541.864Z" fill="#A1624D"/>
<path d="M-192.995 157.723C-191.679 154.587 -189.183 152.733 -186.148 152.627L100.115 142.691C105.427 142.507 110.687 147.857 111.833 154.62L173.747 518.94C174.209 521.647 173.96 524.237 173.04 526.435C171.724 529.572 169.23 531.433 166.194 531.538L-120.076 541.468C-125.388 541.653 -130.647 536.303 -131.794 529.539L-193.702 165.219C-194.164 162.512 -193.917 159.915 -192.995 157.723ZM171.898 525.519C172.701 523.605 172.914 521.345 172.513 518.984L110.599 154.665C109.6 148.773 105.016 144.11 100.381 144.263L-185.888 154.2C-188.534 154.29 -190.704 155.91 -191.852 158.647C-192.654 160.561 -192.868 162.82 -192.466 165.181L-130.558 529.501C-129.559 535.394 -124.974 540.056 -120.341 539.896L165.929 529.966C168.57 529.877 170.743 528.249 171.893 525.52L171.898 525.519Z" fill="#A1624D"/>
<path d="M-188.986 140.581C-187.669 137.451 -185.065 135.597 -182.014 135.629L97.1735 138.238C102.365 138.289 107.352 143.665 108.289 150.232L158.611 503.237C158.965 505.72 158.707 508.094 157.864 510.101C156.547 513.23 153.943 515.085 150.893 515.053L-128.295 512.444C-133.487 512.393 -138.474 507.016 -139.411 500.45L-189.739 147.446C-190.092 144.963 -189.834 142.589 -188.986 140.581ZM156.716 509.178C157.451 507.433 157.677 505.382 157.367 503.221L107.044 150.215C106.232 144.517 101.906 139.852 97.4013 139.81L-181.787 137.201C-184.43 137.179 -186.697 138.782 -187.838 141.504C-188.569 143.241 -188.794 145.299 -188.485 147.453L-138.162 500.459C-137.347 506.149 -133.024 510.822 -128.515 510.863L150.675 513.478C153.319 513.501 155.578 511.892 156.721 509.177L156.716 509.178Z" fill="#A1624D"/>
<path d="M-184.986 123.433C-183.65 120.251 -180.993 118.456 -177.881 118.637L94.232 133.791C99.3034 134.077 104.019 139.487 104.739 145.851L143.48 487.534C143.735 489.79 143.465 491.942 142.699 493.771C141.362 496.947 138.705 498.742 135.591 498.575L-136.522 483.421C-141.593 483.135 -146.309 477.725 -147.029 471.361L-185.765 129.677C-186.02 127.421 -185.747 125.262 -184.984 123.44L-184.986 123.433ZM141.544 492.843C142.207 491.273 142.439 489.404 142.22 487.464L103.485 145.78C102.86 140.277 98.7903 135.602 94.4102 135.359L-177.697 120.205C-180.387 120.05 -182.683 121.604 -183.84 124.349C-184.501 125.925 -184.735 127.788 -184.514 129.735L-145.779 471.418C-145.154 476.922 -141.086 481.59 -136.706 481.833L135.407 496.986C138.095 497.134 140.393 495.587 141.548 492.835L141.544 492.843Z" fill="#A1624D"/>
<path d="M-181.004 106.268C-179.665 103.078 -176.882 101.306 -173.748 101.631L91.2847 129.33C96.2341 129.845 100.673 135.29 101.179 141.458L128.334 471.826C128.502 473.861 128.223 475.796 127.532 477.441C126.191 480.624 123.411 482.402 120.276 482.077L-144.761 454.38C-149.711 453.865 -154.149 448.419 -154.658 442.245L-181.805 111.883C-181.974 109.848 -181.697 107.906 -181.004 106.268ZM126.386 476.525C126.977 475.111 127.22 473.444 127.075 471.699L99.9259 141.331C99.49 136.028 95.6711 131.345 91.415 130.901L-173.617 103.202C-176.353 102.917 -178.687 104.408 -179.855 107.19C-180.452 108.605 -180.69 110.272 -180.545 112.016L-153.396 442.385C-152.96 447.687 -149.141 452.37 -144.885 452.814L120.147 480.513C122.883 480.799 125.218 479.308 126.386 476.525Z" fill="#A1624D"/>
<path d="M-177.028 89.0974C-175.663 85.8455 -172.82 84.1394 -169.611 84.6395L88.3458 124.883C93.1768 125.64 97.3422 131.112 97.6341 137.084L113.201 456.13C113.287 457.935 113.007 459.666 112.392 461.134C111.027 464.386 108.183 466.092 104.97 465.593L-152.987 425.35C-157.816 424.599 -161.982 419.127 -162.274 413.156L-177.836 94.1085C-177.926 92.3042 -177.641 90.5721 -177.027 89.1041L-177.028 89.0974ZM111.239 460.213C111.766 458.96 112.004 457.476 111.929 455.929L96.3663 136.882C96.1175 131.774 92.5516 127.089 88.4247 126.443L-169.532 86.1998C-172.28 85.7687 -174.712 87.2371 -175.882 90.0132C-176.414 91.2675 -176.652 92.751 -176.577 94.298L-161.015 413.345C-160.766 418.453 -157.2 423.138 -153.068 423.783L104.889 464.026C107.635 464.451 110.069 462.989 111.244 460.212L111.239 460.213Z" fill="#A1624D"/>
</g>
</svg>
