<svg width="215" height="376" viewBox="0 0 215 376" fill="none" xmlns="http://www.w3.org/2000/svg">
<mask id="mask0_30666_2648" style="mask-type:alpha" maskUnits="userSpaceOnUse" x="0" y="0" width="215" height="376">
<rect x="0.439453" width="214.56" height="376" fill="#D9D9D9"/>
</mask>
<g mask="url(#mask0_30666_2648)">
<g opacity="0.8">
<path d="M416.34 60.52C416.828 62.1586 416.861 63.999 416.437 65.8356L348.459 360.549C347.864 363.132 346.436 365.465 344.44 367.118C342.444 368.771 340.117 369.544 337.892 369.3L83.8108 341.275C80.9399 340.957 78.6952 338.986 77.8049 336.001C77.3163 334.363 77.2817 332.525 77.7069 330.686L145.685 35.9727C146.281 33.3896 147.707 31.0598 149.703 29.4064C151.699 27.753 154.023 26.9789 156.251 27.2247L410.332 55.2496C413.205 55.5643 415.449 57.5356 416.34 60.52ZM78.4652 335.648C79.2848 338.395 81.35 340.207 83.9924 340.499L338.075 368.521C340.123 368.749 342.263 368.034 344.1 366.513C345.936 364.992 347.25 362.848 347.794 360.471L415.773 65.7582C416.163 64.0681 416.131 62.3775 415.681 60.87C414.861 58.1232 412.796 56.311 410.155 56.016L156.071 27.9975C154.021 27.7724 151.882 28.484 150.046 30.005C148.212 31.5271 146.896 33.6706 146.351 36.047L78.373 330.76C77.9816 332.453 78.0131 334.144 78.4638 335.651L78.4652 335.648Z" fill="#A1624D"/>
<path d="M420.392 68.2131C420.882 69.8484 420.904 71.6846 420.46 73.5201L351.053 360.428C350.443 362.946 349.03 365.206 347.068 366.795C345.106 368.384 342.832 369.108 340.668 368.836L93.8566 337.865C91.1048 337.521 88.9538 335.603 88.0963 332.733C87.6078 331.094 87.5836 329.261 88.0284 327.426L157.435 40.5176C158.691 35.3222 163.351 31.5494 167.82 32.1098L414.633 63.0776C417.38 63.4236 419.536 65.3396 420.392 68.2131ZM88.7567 332.38C89.5419 335.015 91.5188 336.777 94.042 337.094L340.856 368.059C342.842 368.31 344.929 367.645 346.729 366.187C348.531 364.73 349.83 362.654 350.388 360.343L419.795 73.4353C420.201 71.7516 420.18 70.0653 419.733 68.563C418.947 65.9272 416.971 64.1659 414.446 63.8514L167.634 32.8836C163.53 32.3721 159.252 35.8308 158.101 40.5993L88.6956 327.512C88.2859 329.197 88.3083 330.881 88.7579 332.384L88.7567 332.38Z" fill="#A1624D"/>
<path d="M424.443 75.8997C424.931 77.5382 424.945 79.367 424.478 81.1971L353.645 360.305C352.359 365.365 347.783 368.982 343.44 368.365L103.897 334.458C101.266 334.086 99.2061 332.219 98.3867 329.465C97.8968 327.83 97.8844 325.998 98.3489 324.167L169.185 45.0604C169.809 42.6083 171.212 40.4219 173.139 38.897C175.065 37.3753 177.286 36.701 179.391 36.997L418.934 70.9034C421.562 71.2753 423.622 73.1414 424.444 75.8966L424.443 75.8997ZM99.0457 329.115C99.7981 331.637 101.687 333.347 104.095 333.689L343.637 367.595C347.615 368.16 351.809 364.846 352.984 360.21L423.818 81.1028C424.244 79.4277 424.232 77.7487 423.785 76.2465C423.033 73.7248 421.144 72.0145 418.739 71.6741L179.195 37.7708C177.268 37.4986 175.235 38.1156 173.469 39.5124C171.704 40.906 170.417 42.9124 169.846 45.159L99.012 324.262C98.5854 325.937 98.5974 327.616 99.0457 329.115Z" fill="#A1624D"/>
<path d="M428.498 83.5909C428.988 85.2263 428.989 87.0571 428.502 88.883L356.241 360.186C355.605 362.573 354.212 364.689 352.32 366.147C350.426 367.603 348.26 368.229 346.216 367.906L113.941 331.052C111.432 330.654 109.465 328.841 108.679 326.201C108.193 324.564 108.188 322.735 108.676 320.906L180.938 49.6035C182.249 44.6805 186.745 41.2174 190.961 41.8865L423.233 78.7391C425.743 79.1369 427.709 80.9499 428.496 83.5899L428.498 83.5909ZM109.335 325.85C110.056 328.262 111.853 329.92 114.148 330.283L346.42 367.135C348.288 367.431 350.267 366.86 351.997 365.53C353.725 364.2 355 362.263 355.581 360.084L427.843 88.7781C428.286 87.1093 428.287 85.4357 427.842 83.9419C427.121 81.5301 425.327 79.873 423.032 79.5108L190.758 42.6613C186.907 42.0516 182.799 45.2144 181.598 49.7125L109.334 321.014C108.889 322.682 108.891 324.357 109.335 325.85Z" fill="#A1624D"/>
<path d="M432.552 91.278C433.041 92.9165 433.028 94.742 432.521 96.5667L358.83 360.068C358.181 362.387 356.8 364.433 354.942 365.822C353.082 367.214 350.97 367.788 348.986 367.44L123.982 327.645C121.592 327.221 119.715 325.463 118.961 322.938C118.473 321.299 118.483 319.472 118.992 317.652L192.683 54.1508C193.332 51.8286 194.712 49.7856 196.572 48.3934C198.429 47.0001 200.545 46.4246 202.524 46.7772L427.527 86.5684C429.917 86.9922 431.792 88.7531 432.546 91.279L432.552 91.278ZM119.622 322.584C120.307 324.888 122.017 326.493 124.196 326.879L349.198 366.673C351.003 366.992 352.929 366.47 354.624 365.2C356.319 363.931 357.578 362.066 358.169 359.955L431.859 96.4534C432.325 94.7942 432.335 93.128 431.891 91.6342C431.204 89.3333 429.494 87.7293 427.316 87.3401L202.314 47.5456C200.509 47.2264 198.583 47.7489 196.887 49.0214C195.192 50.2907 193.933 52.1558 193.341 54.2704L119.653 317.765C119.187 319.424 119.18 321.092 119.622 322.584Z" fill="#A1624D"/>
<path d="M436.608 98.9663C437.097 100.605 437.071 102.432 436.54 104.248L361.419 359.947C360.055 364.598 355.718 367.75 351.757 366.972L134.025 324.239C131.755 323.793 129.972 322.089 129.251 319.677C128.762 318.038 128.787 316.214 129.321 314.393L204.441 58.6932C205.101 56.4385 206.474 54.4673 208.297 53.1382C210.122 51.8103 212.184 51.2873 214.103 51.6639L431.836 94.4012C434.106 94.8467 435.891 96.5524 436.612 98.9642L436.608 98.9663ZM129.909 319.323C130.562 321.517 132.185 323.067 134.251 323.474L351.984 366.211C355.586 366.917 359.526 364.051 360.769 359.823L435.889 104.124C436.374 102.476 436.396 100.811 435.953 99.3216C435.3 97.1274 433.676 95.5774 431.611 95.1707L213.878 52.4334C212.132 52.0901 210.257 52.5663 208.599 53.7725C206.94 54.9819 205.693 56.7732 205.093 58.8212L129.97 314.52C129.483 316.17 129.463 317.832 129.906 319.322L129.909 319.323Z" fill="#A1624D"/>
<path d="M440.667 106.655C441.155 108.293 441.118 110.12 440.56 111.931L364.012 359.826C363.335 362.014 361.978 363.914 360.187 365.177C358.396 366.441 356.388 366.911 354.53 366.511L144.068 320.832C141.884 320.358 140.232 318.748 139.533 316.412C139.043 314.769 139.082 312.947 139.643 311.133L216.189 63.2375C217.583 58.7211 221.836 55.7256 225.673 56.5568L436.135 102.236C438.321 102.711 439.973 104.321 440.668 106.659L440.667 106.655ZM140.193 316.059C140.822 318.176 142.323 319.635 144.303 320.066L354.765 365.746C356.449 366.109 358.269 365.681 359.894 364.536C361.519 363.391 362.747 361.67 363.362 359.687L439.91 111.793C440.419 110.148 440.451 108.494 440.009 107.009C439.378 104.891 437.877 103.432 435.899 103.001L225.437 57.322C221.961 56.5671 218.105 59.2845 216.841 63.3803L140.292 311.275C139.783 312.92 139.751 314.574 140.194 316.063L140.193 316.059Z" fill="#A1624D"/>
<path d="M444.73 114.339C445.219 115.982 445.167 117.806 444.58 119.617L366.605 359.711C365.916 361.834 364.567 363.659 362.812 364.855C361.055 366.05 359.098 366.475 357.304 366.045L154.114 317.424C152.046 316.93 150.485 315.372 149.819 313.151C149.329 311.508 149.381 309.684 149.967 307.872L227.944 67.779C228.633 65.6553 229.979 63.8296 231.736 62.6343C233.494 61.4391 235.451 61.0149 237.247 61.4459L440.442 110.065C442.509 110.558 444.07 112.116 444.734 114.337L444.73 114.339ZM150.474 312.795C151.074 314.804 152.489 316.212 154.354 316.661L357.546 365.278C359.169 365.669 360.938 365.287 362.527 364.202C364.115 363.12 365.334 361.47 365.957 359.551L443.933 119.457C444.465 117.821 444.512 116.17 444.069 114.685C443.47 112.676 442.055 111.268 440.19 110.819L236.999 62.1984C235.374 61.8113 233.606 62.1929 232.018 63.2749C230.43 64.3568 229.211 66.0068 228.588 67.926L150.613 308.02C150.08 309.656 150.034 311.307 150.476 312.792L150.474 312.795Z" fill="#A1624D"/>
<path d="M448.791 122.02C449.273 123.645 449.208 125.52 448.598 127.299L369.195 359.588C368.493 361.643 367.157 363.398 365.434 364.529C363.71 365.66 361.807 366.032 360.072 365.574L164.15 314.01C162.205 313.499 160.728 311.994 160.099 309.884C159.615 308.263 159.684 306.386 160.292 304.606L239.697 72.3132C240.398 70.2582 241.734 68.5031 243.458 67.3721C245.181 66.2411 247.084 65.8695 248.819 66.3277L444.741 117.892C446.687 118.402 448.164 119.907 448.794 122.014L448.791 122.02ZM160.754 309.536C161.32 311.438 162.653 312.795 164.408 313.257L360.33 364.821C361.892 365.231 363.608 364.899 365.16 363.877C366.714 362.859 367.919 361.275 368.55 359.422L447.955 127.13C448.505 125.524 448.566 123.833 448.128 122.372C447.562 120.471 446.229 119.114 444.473 118.655L248.551 67.0907C246.989 66.6806 245.272 67.0128 243.717 68.0337C242.167 69.0524 240.963 70.6339 240.328 72.4887L160.923 304.781C160.373 306.387 160.312 308.077 160.75 309.538L160.754 309.536Z" fill="#A1624D"/>
<path d="M452.858 129.705C453.344 131.335 453.258 133.209 452.621 134.984L371.788 359.472C371.072 361.461 369.747 363.143 368.058 364.209C366.369 365.276 364.518 365.594 362.845 365.113L174.192 310.606C172.361 310.079 170.971 308.628 170.376 306.629C169.893 305 169.976 303.126 170.615 301.347L251.447 76.8592C252.925 72.7536 256.937 70.2225 260.389 71.2212L449.04 125.727C450.87 126.254 452.26 127.705 452.855 129.704L452.858 129.705ZM171.033 306.278C171.569 308.074 172.817 309.378 174.462 309.852L363.113 364.357C364.616 364.792 366.278 364.504 367.796 363.547C369.313 362.589 370.506 361.077 371.148 359.289L451.981 134.801C452.554 133.205 452.631 131.521 452.195 130.057C451.659 128.261 450.41 126.957 448.765 126.484L260.113 71.9809C257.01 71.0839 253.408 73.3569 252.078 77.0494L171.245 301.537C170.672 303.133 170.595 304.817 171.031 306.281L171.033 306.278Z" fill="#A1624D"/>
<path d="M456.925 137.387C457.414 139.018 457.31 140.896 456.638 142.669L374.376 359.355C372.868 363.325 368.938 365.699 365.615 364.645L184.233 307.196C182.52 306.654 181.212 305.259 180.649 303.37C180.162 301.736 180.264 299.861 180.938 298.086L263.199 81.403C264.707 77.4326 268.634 75.0574 271.959 76.1125L453.341 133.564C455.054 134.107 456.358 135.501 456.924 137.39L456.925 137.387ZM181.308 303.02C181.814 304.711 182.981 305.962 184.516 306.447L365.899 363.896C368.876 364.839 372.396 362.711 373.747 359.154L456.009 142.468C456.613 140.88 456.703 139.198 456.266 137.737C455.762 136.044 454.594 134.795 453.058 134.31L271.676 76.8617C268.697 75.9218 265.178 78.0464 263.828 81.6037L181.567 298.286C180.963 299.874 180.873 301.556 181.308 303.02Z" fill="#A1624D"/>
<path d="M460.996 145.066C461.486 146.709 461.364 148.586 460.656 150.355L376.966 359.236C375.43 363.069 371.581 365.286 368.383 364.178L194.269 303.787C192.673 303.232 191.451 301.895 190.92 300.116C190.43 298.473 190.552 296.595 191.261 294.823L274.951 85.9419C276.488 82.1099 280.336 79.8926 283.531 80.999L457.645 141.39C459.242 141.945 460.466 143.284 460.996 145.066ZM191.58 299.763C192.054 301.35 193.145 302.545 194.57 303.041L368.684 363.432C371.537 364.421 374.973 362.442 376.344 359.02L460.034 150.139C460.665 148.558 460.776 146.881 460.337 145.416C459.863 143.828 458.773 142.634 457.347 142.137L283.237 81.7439C280.384 80.7549 276.949 82.7342 275.576 86.1595L191.886 295.041C191.252 296.62 191.144 298.298 191.583 299.764L191.58 299.763Z" fill="#A1624D"/>
<path d="M465.068 152.746C465.56 154.397 465.42 156.275 464.673 158.042L379.553 359.122C378.796 360.912 377.505 362.376 375.916 363.244C374.33 364.111 372.637 364.278 371.152 363.716L204.309 300.383C202.802 299.812 201.693 298.562 201.187 296.864C200.695 295.213 200.837 293.332 201.584 291.564L286.701 90.4841C288.266 86.7904 292.034 84.7269 295.103 85.8898L461.946 149.223C463.451 149.796 464.561 151.044 465.067 152.741L465.068 152.746ZM201.849 296.508C202.3 298.016 203.284 299.129 204.625 299.636L371.468 362.969C372.789 363.471 374.295 363.325 375.704 362.55C377.116 361.777 378.265 360.475 378.938 358.882L464.054 157.805C464.718 156.234 464.845 154.56 464.405 153.09C463.955 151.583 462.97 150.469 461.631 149.959L294.788 86.6262C292.06 85.5912 288.709 87.4262 287.315 90.7122L202.195 291.792C201.529 293.361 201.404 295.037 201.841 296.505L201.849 296.508Z" fill="#A1624D"/>
<path d="M469.155 160.417C469.65 162.077 469.487 163.964 468.699 165.727L382.149 359.013C380.555 362.571 376.866 364.474 373.928 363.252L214.343 296.971C212.951 296.392 211.923 295.201 211.451 293.61C210.953 291.949 211.119 290.063 211.907 288.3L298.458 95.0112C300.055 91.4536 303.741 89.5501 306.679 90.7716L466.262 157.051C467.654 157.631 468.684 158.823 469.157 160.414L469.155 160.417ZM212.107 293.259C212.527 294.668 213.438 295.726 214.672 296.237L374.255 362.517C376.86 363.599 380.128 361.912 381.54 358.76L468.09 165.474C468.789 163.914 468.933 162.243 468.495 160.77C468.075 159.361 467.164 158.303 465.93 157.792L306.347 91.5122C303.742 90.4302 300.476 92.1137 299.061 95.272L212.511 288.558C211.812 290.118 211.667 291.789 212.108 293.263L212.107 293.259Z" fill="#A1624D"/>
</g>
</g>
</svg>
